<svg width="20" height="20" viewBox="0 0 20 20" fill="none" xmlns="http://www.w3.org/2000/svg">
<path d="M14.907 17.2492L16.9785 15.1764C17.1436 15.0149 17.2747 14.822 17.3643 14.609C17.4539 14.396 17.5 14.1673 17.5 13.9362C17.5 13.7052 17.4539 13.4764 17.3643 13.2635C17.2747 13.0505 17.1436 12.8576 16.9785 12.696L15.7997 11.5166C15.6388 11.3553 15.4476 11.2274 15.2372 11.1401C15.0267 11.0528 14.8012 11.0079 14.5734 11.0079C14.3456 11.0079 14.12 11.0528 13.9096 11.1401C13.6991 11.2274 13.508 11.3553 13.347 11.5166L12.5669 12.2884C10.5587 11.0842 8.87707 9.40447 7.67007 7.39707L8.4501 6.6252C8.61127 6.46411 8.73912 6.27281 8.82636 6.06224C8.91359 5.85168 8.95849 5.62597 8.95849 5.39802C8.95849 5.17008 8.91359 4.94437 8.82636 4.7338C8.73912 4.52323 8.61127 4.33194 8.4501 4.17085L7.29739 3.00871C7.1364 2.84744 6.94523 2.7195 6.7348 2.63222C6.52436 2.54493 6.2988 2.5 6.071 2.5C5.84321 2.5 5.61765 2.54493 5.40721 2.63222C5.19678 2.7195 5.00561 2.84744 4.84462 3.00871L2.75587 5.08147C2.6139 5.2226 2.52512 5.40854 2.50458 5.60772C2.48404 5.80691 2.53302 6.00706 2.64319 6.17422C5.58458 10.609 9.38309 14.41 13.815 17.3532C13.9811 17.4646 14.1805 17.5151 14.3796 17.4961C14.5786 17.4771 14.7649 17.3899 14.907 17.2492Z" stroke="white" stroke-width="1.5" stroke-linecap="round" stroke-linejoin="round"/>
</svg>
