<svg width="24" height="24" viewBox="0 0 24 24" fill="none" xmlns="http://www.w3.org/2000/svg">
<path fill-rule="evenodd" clip-rule="evenodd" d="M11.4758 2.06549C10.9083 2.21841 10.3476 2.67002 10.1045 3.16995L9.97943 3.42698H7.70483C5.52703 3.42698 5.42281 3.43073 5.25705 3.51535C5.16186 3.56398 5.04528 3.65951 4.99806 3.72768C4.87027 3.91211 2.03463 11.0396 2.00698 11.2458C1.97183 11.5082 2.07345 12.113 2.22041 12.516C2.75558 13.9835 4.2278 14.9552 5.76605 14.8564C7.21156 14.7635 8.42573 13.858 8.91932 12.5046C9.08401 12.0529 9.17678 11.389 9.11045 11.1361C9.0849 11.0387 8.51855 9.59613 7.85192 7.93041C7.18525 6.26465 6.6398 4.89181 6.6398 4.87961C6.6398 4.8674 7.39121 4.85739 8.30964 4.85739H9.97943L10.1045 5.11442C10.2656 5.44574 10.6974 5.87786 11.0285 6.03909L11.2853 6.16421V11.9476V17.7311H9.7313C8.04936 17.7311 7.89556 17.7479 7.43432 17.9818C6.91268 18.2463 6.45005 18.8596 6.32788 19.4485C6.29671 19.5988 6.28263 20.0506 6.29108 20.6304C6.30613 21.6596 6.31212 21.6835 6.61233 21.9078C6.7353 21.9997 6.75277 22 12 22C17.2472 22 17.2647 21.9997 17.3877 21.9078C17.6879 21.6835 17.6939 21.6596 17.7089 20.6304C17.7174 20.0506 17.7033 19.5988 17.6721 19.4485C17.5499 18.8596 17.0873 18.2463 16.5657 17.9818C16.1044 17.7479 15.9506 17.7311 14.2687 17.7311H12.7147V11.9476V6.16421L12.9715 6.03909C13.3026 5.87786 13.7344 5.44574 13.8955 5.11442L14.0206 4.85739H15.6904C16.6088 4.85739 17.3602 4.8674 17.3602 4.87961C17.3602 4.89181 16.8148 6.26465 16.1481 7.93041C15.4814 9.59613 14.9151 11.0387 14.8895 11.1361C14.8232 11.389 14.916 12.0529 15.0807 12.5046C15.6193 13.9815 17.0893 14.9554 18.6305 14.8564C20.0707 14.7639 21.2904 13.8574 21.7796 12.516C21.9265 12.113 22.0282 11.5082 21.993 11.2458C21.9654 11.0396 19.1297 3.91211 19.0019 3.72768C18.9547 3.65951 18.8381 3.56398 18.7429 3.51535C18.5772 3.43073 18.473 3.42698 16.2952 3.42698H14.0206L13.8993 3.17898C13.4718 2.30459 12.4059 1.81481 11.4758 2.06549ZM12.2827 3.48795C12.4731 3.56756 12.659 3.79236 12.6956 3.98703C12.7423 4.23637 12.6802 4.44065 12.5 4.63013C12.2151 4.92985 11.7977 4.93365 11.5034 4.63916C10.951 4.08635 11.5605 3.186 12.2827 3.48795ZM6.44849 8.26638C6.92059 9.45228 7.3197 10.4578 7.33547 10.5008C7.3624 10.5745 7.25962 10.579 5.56776 10.579C3.87591 10.579 3.77312 10.5745 3.80006 10.5008C3.96569 10.0479 5.55101 6.11016 5.56776 6.11016C5.58005 6.11016 5.97634 7.08048 6.44849 8.26638ZM19.313 8.26638C19.7851 9.45228 20.1842 10.4578 20.1999 10.5008C20.2269 10.5745 20.1241 10.579 18.4322 10.579C16.7404 10.579 16.6376 10.5745 16.6645 10.5008C16.8302 10.0479 18.4155 6.11016 18.4322 6.11016C18.4445 6.11016 18.8408 7.08048 19.313 8.26638ZM7.57784 12.0333C7.57784 12.1335 7.30045 12.5645 7.10185 12.7729C6.26253 13.6534 4.87299 13.6534 4.03367 12.7729C3.83508 12.5645 3.55769 12.1335 3.55769 12.0333C3.55769 12.0202 4.46222 12.0095 5.56776 12.0095C6.6733 12.0095 7.57784 12.0202 7.57784 12.0333ZM20.4423 12.0333C20.4423 12.1335 20.1649 12.5645 19.9663 12.7729C19.127 13.6534 17.7375 13.6534 16.8981 12.7729C16.6996 12.5645 16.4222 12.1335 16.4222 12.0333C16.4222 12.0202 17.3267 12.0095 18.4322 12.0095C19.5378 12.0095 20.4423 12.0202 20.4423 12.0333ZM15.9583 19.276C16.2258 19.4759 16.2646 19.5754 16.2809 20.1034L16.2961 20.5919H12.0039H7.71184V20.1702C7.71184 19.7172 7.75128 19.5576 7.90468 19.3905C8.11917 19.1567 7.98995 19.1635 12.0526 19.174C15.7954 19.1838 15.8362 19.1849 15.9583 19.276Z" fill="#555555"/>
</svg>
