<svg width="24" height="25" viewBox="0 0 24 25" fill="none" xmlns="http://www.w3.org/2000/svg">
<path d="M19.5 7.92627H4.5C3.63706 7.92627 2.9375 8.63515 2.9375 9.5096V19.6429C2.9375 20.5174 3.63706 21.2263 4.5 21.2263H19.5C20.3629 21.2263 21.0625 20.5174 21.0625 19.6429V9.5096C21.0625 8.63515 20.3629 7.92627 19.5 7.92627Z" stroke="#555555" stroke-width="1.5"/>
<path d="M19.5 7.92627H4.5C3.63706 7.92627 2.9375 8.63515 2.9375 9.5096V13.3096C2.9375 14.1841 3.63706 14.8929 4.5 14.8929H19.5C20.3629 14.8929 21.0625 14.1841 21.0625 13.3096V9.5096C21.0625 8.63515 20.3629 7.92627 19.5 7.92627Z" stroke="#555555" stroke-width="1.5"/>
<path d="M15.75 4.12646H8.25C8.07741 4.12646 7.9375 4.26824 7.9375 4.44313V6.97646C7.9375 7.15136 8.07741 7.29313 8.25 7.29313H15.75C15.9226 7.29313 16.0625 7.15136 16.0625 6.97646V4.44313C16.0625 4.26824 15.9226 4.12646 15.75 4.12646Z" stroke="#555555" stroke-width="1.5"/>
</svg>
