<svg width="24" height="25" viewBox="0 0 24 25" fill="none" xmlns="http://www.w3.org/2000/svg">
<path d="M18.937 10.3672H5" stroke="#555555" stroke-width="1.3" stroke-linecap="round" stroke-linejoin="bevel"/>
<path d="M7.8418 7.47007V6" stroke="#555555" stroke-width="1.3" stroke-linecap="round" stroke-linejoin="bevel"/>
<path d="M16.3335 7.47007V6" stroke="#555555" stroke-width="1.3" stroke-linecap="round" stroke-linejoin="bevel"/>
<path d="M17.6 7.46973H6.4C5.6268 7.46973 5 8.11499 5 8.91097V17.5584C5 18.3544 5.6268 18.9997 6.4 18.9997H17.6C18.3732 18.9997 19 18.3544 19 17.5584V8.91097C19 8.11499 18.3732 7.46973 17.6 7.46973Z" stroke="#555555" stroke-width="1.3" stroke-linecap="round" stroke-linejoin="bevel"/>
<path d="M8.75244 12.522H7.35244C7.15914 12.522 7.00244 12.6833 7.00244 12.8823V14.3235C7.00244 14.5225 7.15914 14.6838 7.35244 14.6838H8.75244C8.94574 14.6838 9.10244 14.5225 9.10244 14.3235V12.8823C9.10244 12.6833 8.94574 12.522 8.75244 12.522Z" stroke="#555555" stroke-width="1.3" stroke-linecap="round" stroke-linejoin="bevel"/>
<path d="M12.7773 12.522H11.3773C11.184 12.522 11.0273 12.6833 11.0273 12.8823V14.3235C11.0273 14.5225 11.184 14.6838 11.3773 14.6838H12.7773C12.9706 14.6838 13.1273 14.5225 13.1273 14.3235V12.8823C13.1273 12.6833 12.9706 12.522 12.7773 12.522Z" stroke="#555555" stroke-width="1.3" stroke-linecap="round" stroke-linejoin="round"/>
</svg>
