<svg width="24" height="24" viewBox="0 0 24 24" fill="none" xmlns="http://www.w3.org/2000/svg">
<path d="M16.7106 18.9594L18.6991 16.9696C18.8576 16.8145 18.9836 16.6293 19.0695 16.4248C19.1555 16.2204 19.1998 16.0008 19.1998 15.779C19.1998 15.5572 19.1555 15.3376 19.0695 15.1331C18.9836 14.9287 18.8576 14.7435 18.6991 14.5884L17.5676 13.4561C17.413 13.3013 17.2295 13.1785 17.0275 13.0947C16.8255 13.0109 16.6089 12.9677 16.3902 12.9677C16.1715 12.9677 15.955 13.0109 15.753 13.0947C15.551 13.1785 15.3674 13.3013 15.2129 13.4561L14.4641 14.1971C12.5362 13.041 10.9218 11.4285 9.76307 9.50138L10.5119 8.76039C10.6666 8.60574 10.7894 8.4221 10.8731 8.21995C10.9568 8.0178 11 7.80112 11 7.5823C11 7.36347 10.9568 7.14679 10.8731 6.94465C10.7894 6.7425 10.6666 6.55885 10.5119 6.40421L9.4053 5.28856C9.25075 5.13374 9.06722 5.01092 8.86521 4.92712C8.66319 4.84333 8.44665 4.8002 8.22797 4.8002C8.00928 4.8002 7.79274 4.84333 7.59073 4.92712C7.38871 5.01092 7.20519 5.13374 7.05064 5.28856L5.04544 7.27841C4.90915 7.41389 4.82392 7.59239 4.8042 7.78361C4.78448 7.97482 4.8315 8.16698 4.93727 8.32745C7.761 12.5848 11.4076 16.2338 15.6622 19.0593C15.8216 19.1662 16.0131 19.2147 16.2042 19.1964C16.3952 19.1782 16.5741 19.0945 16.7106 18.9594Z" stroke="#555555" stroke-width="1.5" stroke-linecap="round" stroke-linejoin="round"/>
</svg>
