<svg width="24" height="24" viewBox="0 0 24 24" fill="none" xmlns="http://www.w3.org/2000/svg">
<path d="M8.63238 3.39012L8.1341 2.82956V2.82956L8.63238 3.39012ZM15.3676 3.39012L15.8659 2.82956L15.3676 3.39012ZM15.1519 3.19834L14.6536 3.7589L15.1519 3.19834ZM8.84813 3.19834L9.3464 3.7589V3.7589L8.84813 3.19834ZM4.06107 21.4418L4.50191 20.835L4.06107 21.4418ZM2.95491 20.3356L3.56168 19.8948L2.95491 20.3356ZM21.0451 20.3356L20.4383 19.8948L21.0451 20.3356ZM19.9389 21.4418L19.4981 20.835L19.9389 21.4418ZM21.25 8.38161V13.3967H22.75V8.38161H21.25ZM13 21.6467H11V23.1467H13V21.6467ZM2.75 13.3967V8.38161H1.25V13.3967H2.75ZM14.6536 3.7589L14.8694 3.95068L15.8659 2.82956L15.6501 2.63778L14.6536 3.7589ZM9.13065 3.95068L9.3464 3.7589L8.34986 2.63778L8.1341 2.82956L9.13065 3.95068ZM5.98493 5.14668C7.14458 5.14668 8.26391 4.72111 9.13065 3.95068L8.1341 2.82956C7.54195 3.35593 6.77721 3.64668 5.98493 3.64668V5.14668ZM14.8694 3.95068C15.7361 4.72111 16.8554 5.14668 18.0151 5.14668V3.64668C17.2228 3.64668 16.4581 3.35593 15.8659 2.82956L14.8694 3.95068ZM15.6501 2.63778C13.5685 0.787406 10.4315 0.787406 8.34986 2.63778L9.3464 3.7589C10.8597 2.4137 13.1403 2.4137 14.6536 3.7589L15.6501 2.63778ZM11 21.6467C9.10843 21.6467 7.74999 21.6456 6.69804 21.5317C5.66013 21.4192 5.00992 21.2041 4.50191 20.835L3.62023 22.0485C4.42656 22.6344 5.37094 22.8967 6.53648 23.0229C7.68798 23.1477 9.14184 23.1467 11 23.1467V21.6467ZM1.25 13.3967C1.25 15.2548 1.24897 16.7087 1.37373 17.8602C1.50001 19.0257 1.76232 19.9701 2.34815 20.7764L3.56168 19.8948C3.19259 19.3868 2.97745 18.7365 2.865 17.6986C2.75103 16.6467 2.75 15.2882 2.75 13.3967H1.25ZM4.50191 20.835C4.14111 20.5729 3.82382 20.2556 3.56168 19.8948L2.34815 20.7764C2.70281 21.2646 3.13209 21.6939 3.62023 22.0485L4.50191 20.835ZM21.25 13.3967C21.25 15.2882 21.249 16.6467 21.135 17.6986C21.0225 18.7365 20.8074 19.3868 20.4383 19.8948L21.6518 20.7764C22.2377 19.9701 22.5 19.0257 22.6263 17.8602C22.751 16.7087 22.75 15.2548 22.75 13.3967H21.25ZM13 23.1467C14.8582 23.1467 16.312 23.1477 17.4635 23.0229C18.6291 22.8967 19.5734 22.6344 20.3798 22.0485L19.4981 20.835C18.9901 21.2041 18.3399 21.4192 17.302 21.5317C16.25 21.6456 14.8916 21.6467 13 21.6467V23.1467ZM20.4383 19.8948C20.1762 20.2556 19.8589 20.5729 19.4981 20.835L20.3798 22.0485C20.8679 21.6939 21.2972 21.2646 21.6518 20.7764L20.4383 19.8948ZM22.75 8.38161C22.75 5.76658 20.6301 3.64668 18.0151 3.64668V5.14668C19.8017 5.14668 21.25 6.59501 21.25 8.38161H22.75ZM2.75 8.38161C2.75 6.59501 4.19833 5.14668 5.98493 5.14668V3.64668C3.3699 3.64668 1.25 5.76658 1.25 8.38161H2.75ZM7.25 13.3967C7.25 16.02 9.37665 18.1467 12 18.1467V16.6467C10.2051 16.6467 8.75 15.1916 8.75 13.3967H7.25ZM12 18.1467C14.6234 18.1467 16.75 16.02 16.75 13.3967H15.25C15.25 15.1916 13.7949 16.6467 12 16.6467V18.1467ZM16.75 13.3967C16.75 10.7733 14.6234 8.64668 12 8.64668V10.1467C13.7949 10.1467 15.25 11.6018 15.25 13.3967H16.75ZM12 8.64668C9.37665 8.64668 7.25 10.7733 7.25 13.3967H8.75C8.75 11.6018 10.2051 10.1467 12 10.1467V8.64668Z" fill="white"/>
<path d="M17 8.39673C17 8.94901 17.4477 9.39673 18 9.39673C18.5523 9.39673 19 8.94901 19 8.39673C19 7.84444 18.5523 7.39673 18 7.39673C17.4477 7.39673 17 7.84444 17 8.39673Z" fill="white"/>
</svg>
