<svg width="16" height="16" viewBox="0 0 16 16" fill="none" xmlns="http://www.w3.org/2000/svg">
<g clip-path="url(#clip0_4052_405749)">
<path d="M3.33333 4.66675H4C4.35362 4.66675 4.69276 4.52627 4.94281 4.27622C5.19286 4.02618 5.33333 3.68704 5.33333 3.33341C5.33333 3.1566 5.40357 2.98703 5.5286 2.86201C5.65362 2.73699 5.82319 2.66675 6 2.66675H10C10.1768 2.66675 10.3464 2.73699 10.4714 2.86201C10.5964 2.98703 10.6667 3.1566 10.6667 3.33341C10.6667 3.68704 10.8071 4.02618 11.0572 4.27622C11.3072 4.52627 11.6464 4.66675 12 4.66675H12.6667C13.0203 4.66675 13.3594 4.80722 13.6095 5.05727C13.8595 5.30732 14 5.64646 14 6.00008V12.0001C14 12.3537 13.8595 12.6928 13.6095 12.9429C13.3594 13.1929 13.0203 13.3334 12.6667 13.3334H3.33333C2.97971 13.3334 2.64057 13.1929 2.39052 12.9429C2.14048 12.6928 2 12.3537 2 12.0001V6.00008C2 5.64646 2.14048 5.30732 2.39052 5.05727C2.64057 4.80722 2.97971 4.66675 3.33333 4.66675" stroke="#176CF7" stroke-linecap="round" stroke-linejoin="round"/>
<path d="M8 10.6667C9.10457 10.6667 10 9.77132 10 8.66675C10 7.56218 9.10457 6.66675 8 6.66675C6.89543 6.66675 6 7.56218 6 8.66675C6 9.77132 6.89543 10.6667 8 10.6667Z" stroke="#176CF7" stroke-linecap="round" stroke-linejoin="round"/>
</g>
<defs>
<clipPath id="clip0_4052_405749">
<rect width="16" height="16" fill="white"/>
</clipPath>
</defs>
</svg>
