<svg width="24" height="25" viewBox="0 0 24 25" fill="none" xmlns="http://www.w3.org/2000/svg">
<path d="M2 3.41667C2 3.23986 2.07024 3.07029 2.19526 2.94526C2.32029 2.82024 2.48986 2.75 2.66667 2.75H4.66667C4.81537 2.75004 4.9598 2.7998 5.07697 2.89137C5.19415 2.98293 5.27735 3.11105 5.31333 3.25533L5.85333 5.41667H21.3333C21.4312 5.41676 21.5279 5.4384 21.6165 5.48007C21.705 5.52173 21.7834 5.58239 21.8459 5.65774C21.9083 5.73308 21.9535 5.82127 21.978 5.91602C22.0026 6.01078 22.006 6.10978 21.988 6.206L19.988 16.8727C19.9594 17.0254 19.8783 17.1634 19.7588 17.2627C19.6392 17.3621 19.4888 17.4165 19.3333 17.4167H7.33333C7.17791 17.4165 7.02742 17.3621 6.90788 17.2627C6.78834 17.1634 6.70726 17.0254 6.67867 16.8727L4.68 6.226L4.14667 4.08333H2.66667C2.48986 4.08333 2.32029 4.0131 2.19526 3.88807C2.07024 3.76305 2 3.59348 2 3.41667ZM8.66667 17.4167C7.95942 17.4167 7.28115 17.6976 6.78105 18.1977C6.28095 18.6978 6 19.3761 6 20.0833C6 20.7906 6.28095 21.4689 6.78105 21.969C7.28115 22.469 7.95942 22.75 8.66667 22.75C9.37391 22.75 10.0522 22.469 10.5523 21.969C11.0524 21.4689 11.3333 20.7906 11.3333 20.0833C11.3333 19.3761 11.0524 18.6978 10.5523 18.1977C10.0522 17.6976 9.37391 17.4167 8.66667 17.4167ZM18 17.4167C17.2928 17.4167 16.6145 17.6976 16.1144 18.1977C15.6143 18.6978 15.3333 19.3761 15.3333 20.0833C15.3333 20.7906 15.6143 21.4689 16.1144 21.969C16.6145 22.469 17.2928 22.75 18 22.75C18.7072 22.75 19.3855 22.469 19.8856 21.969C20.3857 21.4689 20.6667 20.7906 20.6667 20.0833C20.6667 19.3761 20.3857 18.6978 19.8856 18.1977C19.3855 17.6976 18.7072 17.4167 18 17.4167ZM8.66667 18.75C9.02029 18.75 9.35943 18.8905 9.60948 19.1405C9.85952 19.3906 10 19.7297 10 20.0833C10 20.437 9.85952 20.7761 9.60948 21.0261C9.35943 21.2762 9.02029 21.4167 8.66667 21.4167C8.31304 21.4167 7.97391 21.2762 7.72386 21.0261C7.47381 20.7761 7.33333 20.437 7.33333 20.0833C7.33333 19.7297 7.47381 19.3906 7.72386 19.1405C7.97391 18.8905 8.31304 18.75 8.66667 18.75ZM18 18.75C18.3536 18.75 18.6928 18.8905 18.9428 19.1405C19.1929 19.3906 19.3333 19.7297 19.3333 20.0833C19.3333 20.437 19.1929 20.7761 18.9428 21.0261C18.6928 21.2762 18.3536 21.4167 18 21.4167C17.6464 21.4167 17.3072 21.2762 17.0572 21.0261C16.8071 20.7761 16.6667 20.437 16.6667 20.0833C16.6667 19.7297 16.8071 19.3906 17.0572 19.1405C17.3072 18.8905 17.6464 18.75 18 18.75Z" fill="white"/>
</svg>
