<svg width="24" height="24" viewBox="0 0 24 24" fill="none" xmlns="http://www.w3.org/2000/svg">
<path d="M9.81001 5.32656H9.81V5.33V7.23C9.81 8.1942 9.55711 8.80723 9.18217 9.18217C8.80723 9.55711 8.1942 9.81 7.23 9.81H5.33C4.3658 9.81 3.75277 9.55711 3.37783 9.18217C3.00289 8.80723 2.75 8.1942 2.75 7.23V5.33C2.75 4.36581 3.00287 3.7532 3.37849 3.37842C3.75438 3.00336 4.36992 2.75 5.34 2.75H7.24C8.20447 2.75 8.81694 3.00301 9.19033 3.37724C9.56342 3.75116 9.81443 4.363 9.81001 5.32656Z" stroke="#555555" stroke-width="1.5"/>
<path d="M16.7699 2.75H18.6699C19.6341 2.75 20.2472 3.00289 20.6221 3.37783C20.9971 3.75277 21.2499 4.3658 21.2499 5.33V7.23C21.2499 8.1942 20.9971 8.80723 20.6221 9.18217C20.2472 9.55711 19.6341 9.81 18.6699 9.81H16.7699C15.8057 9.81 15.1927 9.55711 14.8178 9.18217C14.4428 8.80723 14.1899 8.1942 14.1899 7.23V5.33C14.1899 4.3658 14.4428 3.75277 14.8178 3.37783C15.1927 3.00289 15.8057 2.75 16.7699 2.75Z" stroke="#555555" stroke-width="1.5"/>
<path d="M16.7699 14.1802H18.6699C19.6341 14.1802 20.2472 14.4331 20.6221 14.808C20.9971 15.1829 21.2499 15.796 21.2499 16.7602V18.6602C21.2499 19.6244 20.9971 20.2374 20.6221 20.6123C20.2472 20.9873 19.6341 21.2402 18.6699 21.2402H16.7699C15.8057 21.2402 15.1927 20.9873 14.8178 20.6123C14.4428 20.2374 14.1899 19.6244 14.1899 18.6602V16.7602C14.1899 15.796 14.4428 15.1829 14.8178 14.808C15.1927 14.4331 15.8057 14.1802 16.7699 14.1802Z" stroke="#555555" stroke-width="1.5"/>
<path d="M9.81001 16.7668H9.81V16.7702V18.6702C9.81 19.6344 9.55711 20.2474 9.18217 20.6223C8.80723 20.9973 8.1942 21.2502 7.23 21.2502H5.33C4.36581 21.2502 3.7532 20.9973 3.37842 20.6217C3.00336 20.2458 2.75 19.6303 2.75 18.6602V16.7602C2.75 15.796 3.00287 15.1834 3.37849 14.8086C3.75438 14.4335 4.36992 14.1802 5.34 14.1802H7.24C8.20446 14.1802 8.8165 14.4332 9.18974 14.8081C9.56295 15.1829 9.81444 15.7973 9.81001 16.7668Z" stroke="#555555" stroke-width="1.5"/>
</svg>
