<svg width="25" height="24" viewBox="0 0 25 24" fill="none" xmlns="http://www.w3.org/2000/svg">
<g clip-path="url(#clip0_2069_10677)">
<path d="M6.16451 5.4498H18.8953C18.9102 5.45104 18.9252 5.45178 18.9404 5.45198C19.1917 5.45547 19.4336 5.55928 19.6133 5.74432C19.7933 5.92969 19.8959 6.18173 19.8959 6.44636V6.44642V13.9066C19.8959 14.1736 19.7914 14.4277 19.6086 14.6134C19.4261 14.7988 19.1808 14.901 18.9273 14.901H12.444C12.2106 14.901 11.9952 15.0261 11.8795 15.2288L9.99969 18.522L9.99965 18.522L9.99609 18.5284C9.99156 18.5366 9.98571 18.542 9.98019 18.5453C9.97476 18.5485 9.9694 18.5498 9.96458 18.5498C9.95975 18.5498 9.95439 18.5485 9.94896 18.5453C9.94344 18.542 9.9376 18.5366 9.93307 18.5284L9.93309 18.5284L9.93022 18.5233L8.05851 15.2264C7.94303 15.023 7.72716 14.8973 7.49325 14.8973H6.16451C5.91096 14.8973 5.66568 14.795 5.48321 14.6097C5.3004 14.424 5.1959 14.1699 5.1959 13.9029V6.44418C5.1959 6.17717 5.3004 5.92313 5.48321 5.73741C5.66568 5.55203 5.91096 5.4498 6.16451 5.4498Z" stroke="#555555" stroke-width="1.3" stroke-linecap="round" stroke-linejoin="round"/>
<path d="M7.74609 8.7998H12.5461" stroke="#555555" stroke-width="1.3" stroke-linecap="round" stroke-linejoin="round"/>
<path d="M7.74609 12L16.5461 12" stroke="#555555" stroke-width="1.3" stroke-linecap="round" stroke-linejoin="round"/>
</g>
<defs>
<clipPath id="clip0_2069_10677">
<rect width="24" height="24" fill="white" transform="translate(0.545898)"/>
</clipPath>
</defs>
</svg>
