<svg width="16" height="16" viewBox="0 0 16 16" fill="none" xmlns="http://www.w3.org/2000/svg">
<path d="M13.2502 7.22113V13.5172C13.2502 13.6019 13.2142 13.6972 13.1263 13.778C13.0363 13.8607 12.9018 13.9169 12.7496 13.9169H5.24618C5.09401 13.9169 4.95946 13.8607 4.86948 13.778C4.78163 13.6972 4.74561 13.6019 4.74561 13.5172V4.31962C4.74561 4.23494 4.78163 4.13956 4.86948 4.05879C4.95946 3.97608 5.09401 3.91992 5.24618 3.91992H10.7329L13.2502 7.22113Z" stroke="#176CF7" stroke-width="1.5" stroke-linecap="round" stroke-linejoin="bevel"/>
<path fill-rule="evenodd" clip-rule="evenodd" d="M3.50095 1.08301C3.02128 1.08301 2.57134 1.28608 2.24713 1.63087C1.92439 1.97409 1.75049 2.43027 1.75049 2.89698V11.4088C1.75049 11.8755 1.92439 12.3316 2.24713 12.6749C2.57134 13.0197 3.02128 13.2227 3.50095 13.2227H4.62685C4.54529 13.0742 4.50161 12.9084 4.50161 12.7385V11.7227H3.50095C3.44994 11.7227 3.39094 11.7016 3.3399 11.6473C3.2874 11.5915 3.25049 11.5064 3.25049 11.4088V2.89698C3.25049 2.79932 3.2874 2.71425 3.3399 2.65841C3.39094 2.60413 3.44994 2.58301 3.50095 2.58301H7.78346L8.16559 3.16272H9.96214L8.96635 1.65205L8.96512 1.65016C8.85598 1.48347 8.70803 1.34226 8.53039 1.24197C8.35179 1.14114 8.14999 1.08565 7.94229 1.08307L7.9423 1.08301H7.93297H3.50095Z" fill="#176CF7"/>
</svg>
