<svg width="17" height="17" viewBox="0 0 17 17" fill="none" xmlns="http://www.w3.org/2000/svg">
<mask id="path-1-outside-1_257_21083" maskUnits="userSpaceOnUse" x="0.0205078" y="0" width="17" height="17" fill="black">
<rect fill="white" x="0.0205078" width="17" height="17"/>
<path fill-rule="evenodd" clip-rule="evenodd" d="M12.7908 3.53241C12.8518 3.45495 13.5386 2.84577 14.3172 2.17875C15.0957 1.51173 15.7797 0.98146 15.8373 1.0005C15.8949 1.01953 16.0147 1.17415 16.1037 1.34403C16.2588 1.64049 16.2026 1.70632 14.714 2.97089C13.8607 3.69575 13.1221 4.2888 13.0727 4.2888C12.9017 4.2888 12.6747 3.67977 12.7908 3.53241ZM5.65741 3.55014C9.13107 3.45496 9.27407 3.42124 10.8095 2.33163C11.3133 1.97414 11.7538 1.67972 11.7884 1.6774C12.0955 1.65633 12.1262 2.19779 12.1262 7.6425C12.1262 12.3502 12.0995 13.2912 11.9618 13.4363C11.8297 13.5753 11.5836 13.4633 10.7141 12.8684C9.38811 11.961 8.51373 11.7061 6.71645 11.7026L5.37118 11.7001L5.36946 13.7709C5.36843 14.91 5.32538 15.9263 5.27375 16.0297C5.2062 16.165 4.90989 16.2056 4.21642 16.175L3.25309 16.1324L3.22149 13.9256L3.19 11.7187L2.87801 11.6731C2.58354 11.6301 2.56419 11.5808 2.53179 10.7919L2.49745 9.95629H1.9804C1.02921 9.95629 1.02051 9.93522 1.02051 7.63117C1.02051 5.32712 1.02921 5.30604 1.9804 5.30604H2.49745L2.53179 4.47045L2.56614 3.63486L5.65741 3.55014ZM11.4392 12.285V7.63306C11.4392 5.0744 11.4005 2.98702 11.3533 2.99458C11.3062 3.00214 11.0614 3.16417 10.8095 3.35483C9.73799 4.16557 9.12775 4.32542 6.83094 4.39779L4.68423 4.46551V7.64686V10.8282L6.54471 10.8304C8.68478 10.8329 9.43894 11.0065 10.6382 11.7731L11.4392 12.285ZM3.88279 10.8282V7.63117V4.43412H3.53932H3.19584V7.63117V10.8282H3.53932H3.88279ZM2.50889 8.93905V7.63117V6.32329H2.16542H1.82195V7.63117V8.93905H2.16542H2.50889ZM12.8131 8.06713V7.63117V7.19521H13.9008H14.9884V7.63117V8.06713H13.9008H12.8131ZM12.6986 11.5925C12.6986 11.5444 12.7839 11.3855 12.8881 11.2393C12.9923 11.0931 13.0958 10.9735 13.118 10.9735C13.2178 10.9735 16.2479 14.0555 16.2479 14.1569C16.2479 14.2196 16.1525 14.3804 16.0358 14.5144C15.8343 14.7459 15.746 14.6815 14.2612 13.219C13.4018 12.3725 12.6986 11.6406 12.6986 11.5925ZM4.56974 15.3331V13.5166V11.7001H4.22626H3.88279V13.5166V15.3331H4.22626H4.56974Z"/>
</mask>
<path fill-rule="evenodd" clip-rule="evenodd" d="M12.7908 3.53241C12.8518 3.45495 13.5386 2.84577 14.3172 2.17875C15.0957 1.51173 15.7797 0.98146 15.8373 1.0005C15.8949 1.01953 16.0147 1.17415 16.1037 1.34403C16.2588 1.64049 16.2026 1.70632 14.714 2.97089C13.8607 3.69575 13.1221 4.2888 13.0727 4.2888C12.9017 4.2888 12.6747 3.67977 12.7908 3.53241ZM5.65741 3.55014C9.13107 3.45496 9.27407 3.42124 10.8095 2.33163C11.3133 1.97414 11.7538 1.67972 11.7884 1.6774C12.0955 1.65633 12.1262 2.19779 12.1262 7.6425C12.1262 12.3502 12.0995 13.2912 11.9618 13.4363C11.8297 13.5753 11.5836 13.4633 10.7141 12.8684C9.38811 11.961 8.51373 11.7061 6.71645 11.7026L5.37118 11.7001L5.36946 13.7709C5.36843 14.91 5.32538 15.9263 5.27375 16.0297C5.2062 16.165 4.90989 16.2056 4.21642 16.175L3.25309 16.1324L3.22149 13.9256L3.19 11.7187L2.87801 11.6731C2.58354 11.6301 2.56419 11.5808 2.53179 10.7919L2.49745 9.95629H1.9804C1.02921 9.95629 1.02051 9.93522 1.02051 7.63117C1.02051 5.32712 1.02921 5.30604 1.9804 5.30604H2.49745L2.53179 4.47045L2.56614 3.63486L5.65741 3.55014ZM11.4392 12.285V7.63306C11.4392 5.0744 11.4005 2.98702 11.3533 2.99458C11.3062 3.00214 11.0614 3.16417 10.8095 3.35483C9.73799 4.16557 9.12775 4.32542 6.83094 4.39779L4.68423 4.46551V7.64686V10.8282L6.54471 10.8304C8.68478 10.8329 9.43894 11.0065 10.6382 11.7731L11.4392 12.285ZM3.88279 10.8282V7.63117V4.43412H3.53932H3.19584V7.63117V10.8282H3.53932H3.88279ZM2.50889 8.93905V7.63117V6.32329H2.16542H1.82195V7.63117V8.93905H2.16542H2.50889ZM12.8131 8.06713V7.63117V7.19521H13.9008H14.9884V7.63117V8.06713H13.9008H12.8131ZM12.6986 11.5925C12.6986 11.5444 12.7839 11.3855 12.8881 11.2393C12.9923 11.0931 13.0958 10.9735 13.118 10.9735C13.2178 10.9735 16.2479 14.0555 16.2479 14.1569C16.2479 14.2196 16.1525 14.3804 16.0358 14.5144C15.8343 14.7459 15.746 14.6815 14.2612 13.219C13.4018 12.3725 12.6986 11.6406 12.6986 11.5925ZM4.56974 15.3331V13.5166V11.7001H4.22626H3.88279V13.5166V15.3331H4.22626H4.56974Z" fill="#FFC117"/>
<path d="M14.3172 2.17875L14.122 1.95093V1.95093L14.3172 2.17875ZM12.7908 3.53241L13.0264 3.71807V3.71807L12.7908 3.53241ZM15.8373 1.0005L15.9314 0.715657L15.9314 0.715656L15.8373 1.0005ZM16.1037 1.34403L16.3695 1.20494L16.3695 1.20486L16.1037 1.34403ZM14.714 2.97089L14.9082 3.19954L14.9082 3.19953L14.714 2.97089ZM10.8095 2.33163L10.6359 2.08697L10.6359 2.08697L10.8095 2.33163ZM5.65741 3.55014L5.64919 3.25025H5.64919L5.65741 3.55014ZM11.7884 1.6774L11.8085 1.97672L11.809 1.97669L11.7884 1.6774ZM11.9618 13.4363L11.7442 13.2297L11.7442 13.2297L11.9618 13.4363ZM10.7141 12.8684L10.5447 13.1159L10.7141 12.8684ZM6.71645 11.7026L6.71703 11.4026H6.717L6.71645 11.7026ZM5.37118 11.7001L5.37173 11.4001L5.07143 11.3996L5.07118 11.6999L5.37118 11.7001ZM5.36946 13.7709L5.66946 13.7712V13.7712L5.36946 13.7709ZM5.27375 16.0297L5.00539 15.8956L5.00534 15.8957L5.27375 16.0297ZM4.21642 16.175L4.22967 15.8753H4.22967L4.21642 16.175ZM3.25309 16.1324L2.95312 16.1367L2.95717 16.4196L3.23984 16.4321L3.25309 16.1324ZM3.22149 13.9256L2.92152 13.9298L2.92152 13.9299L3.22149 13.9256ZM3.19 11.7187L3.48997 11.7145L3.48633 11.4589L3.23342 11.4219L3.19 11.7187ZM2.87801 11.6731L2.92143 11.3763L2.92138 11.3763L2.87801 11.6731ZM2.53179 10.7919L2.83154 10.7796L2.83154 10.7796L2.53179 10.7919ZM2.49745 9.95629L2.79719 9.94397L2.78537 9.65629H2.49745V9.95629ZM2.49745 5.30604V5.60604H2.78537L2.79719 5.31837L2.49745 5.30604ZM2.53179 4.47045L2.83154 4.48277L2.53179 4.47045ZM2.56614 3.63486L2.55792 3.33497L2.2779 3.34265L2.26639 3.62254L2.56614 3.63486ZM11.4392 12.285L11.2776 12.5378L11.7392 12.8328V12.285H11.4392ZM11.3533 2.99458L11.3059 2.69836L11.3059 2.69836L11.3533 2.99458ZM10.8095 3.35483L10.9905 3.59407L10.9906 3.59403L10.8095 3.35483ZM6.83094 4.39779L6.82149 4.09794L6.82148 4.09794L6.83094 4.39779ZM4.68423 4.46551L4.67477 4.16566L4.38423 4.17483V4.46551H4.68423ZM4.68423 10.8282H4.38423V11.1279L4.68388 11.1282L4.68423 10.8282ZM6.54471 10.8304L6.54436 11.1304H6.54437L6.54471 10.8304ZM10.6382 11.7731L10.4767 12.0259L10.4767 12.0259L10.6382 11.7731ZM3.88279 10.8282V11.1282H4.18279V10.8282H3.88279ZM3.88279 4.43412H4.18279V4.13412H3.88279V4.43412ZM3.19584 4.43412V4.13412H2.89584V4.43412H3.19584ZM3.19584 10.8282H2.89584V11.1282H3.19584V10.8282ZM2.50889 8.93905V9.23905H2.80889V8.93905H2.50889ZM2.50889 6.32329H2.80889V6.02329H2.50889V6.32329ZM1.82195 6.32329V6.02329H1.52195V6.32329H1.82195ZM1.82195 8.93905H1.52195V9.23905H1.82195V8.93905ZM12.8131 8.06713H12.5131V8.36713H12.8131V8.06713ZM12.8131 7.19521V6.89521H12.5131V7.19521H12.8131ZM14.9884 7.19521H15.2884V6.89521H14.9884V7.19521ZM14.9884 8.06713V8.36713H15.2884V8.06713H14.9884ZM12.8881 11.2393L13.1324 11.4134H13.1324L12.8881 11.2393ZM16.0358 14.5144L15.8096 14.3174L15.8095 14.3174L16.0358 14.5144ZM14.2612 13.219L14.0507 13.4327L14.0507 13.4328L14.2612 13.219ZM4.56974 15.3331V15.6331H4.86974V15.3331H4.56974ZM4.56974 11.7001H4.86974V11.4001H4.56974V11.7001ZM3.88279 11.7001V11.4001H3.58279V11.7001H3.88279ZM3.88279 15.3331H3.58279V15.6331H3.88279V15.3331ZM14.122 1.95093C13.7317 2.28531 13.364 2.6055 13.0859 2.85222C12.9469 2.97547 12.8294 3.08112 12.7423 3.16137C12.6989 3.20139 12.6618 3.23612 12.633 3.26409C12.6096 3.28681 12.5773 3.31864 12.5551 3.34675L13.0264 3.71807C13.0195 3.72682 13.022 3.72267 13.0509 3.69464C13.0744 3.67186 13.1071 3.64109 13.1488 3.60268C13.232 3.52608 13.3463 3.42323 13.484 3.30112C13.7591 3.05712 14.1241 2.73922 14.5124 2.40657L14.122 1.95093ZM15.9314 0.715656C15.8648 0.69364 15.8081 0.700138 15.7842 0.703839C15.7557 0.708251 15.7325 0.715681 15.718 0.720893C15.6887 0.731378 15.6627 0.744603 15.6442 0.75469C15.6053 0.775805 15.5611 0.804132 15.5161 0.834795C15.4242 0.897369 15.3034 0.987056 15.1638 1.09525C14.8834 1.31258 14.5139 1.61516 14.122 1.95093L14.5124 2.40657C14.899 2.07533 15.2607 1.77926 15.5314 1.56946C15.6673 1.46409 15.7769 1.38308 15.8538 1.33074C15.8932 1.30395 15.918 1.28876 15.9306 1.28191C15.9377 1.27802 15.9331 1.28115 15.9206 1.28564C15.9144 1.28785 15.8984 1.2933 15.876 1.29678C15.8581 1.29955 15.8061 1.30616 15.7431 1.28534L15.9314 0.715656ZM16.3695 1.20486C16.3175 1.10555 16.2558 1.00929 16.1958 0.931862C16.166 0.893416 16.1329 0.854826 16.0981 0.821534C16.072 0.796603 16.0131 0.74266 15.9314 0.715657L15.7431 1.28534C15.7112 1.27477 15.6918 1.26114 15.6876 1.25814C15.6816 1.25382 15.6801 1.25197 15.6833 1.2551C15.69 1.26146 15.7032 1.27571 15.7217 1.29954C15.7582 1.34665 15.801 1.41264 15.8379 1.48321L16.3695 1.20486ZM14.9082 3.19953C15.6409 2.57712 16.0527 2.22422 16.2534 1.98927C16.3549 1.87041 16.4439 1.73636 16.4599 1.57511C16.4762 1.41027 16.4084 1.27929 16.3695 1.20494L15.8379 1.48313C15.8766 1.557 15.8599 1.54542 15.8628 1.51583C15.8654 1.48982 15.8764 1.50684 15.7972 1.59957C15.6364 1.78779 15.2757 2.10009 14.5198 2.74226L14.9082 3.19953ZM13.0727 4.5888C13.1342 4.5888 13.1808 4.56958 13.1903 4.5658C13.2084 4.5586 13.2233 4.55087 13.2329 4.54567C13.2526 4.535 13.2719 4.52272 13.2882 4.51195C13.3218 4.48965 13.3633 4.45971 13.4096 4.4251C13.5032 4.35512 13.63 4.25584 13.7797 4.13559C14.0799 3.89456 14.4801 3.56324 14.9082 3.19954L14.5198 2.74225C14.0946 3.1034 13.6989 3.43104 13.4041 3.66775C13.2563 3.78637 13.1358 3.88066 13.0504 3.94453C13.0071 3.97684 12.9762 3.99889 12.9566 4.01186C12.9463 4.01872 12.9438 4.01989 12.9468 4.01826C12.9481 4.01758 12.956 4.01327 12.9683 4.00836C12.9721 4.00687 13.0143 3.9888 13.0727 3.9888V4.5888ZM12.5551 3.34675C12.4964 3.42124 12.4747 3.50359 12.4658 3.56314C12.4566 3.62541 12.4579 3.68723 12.4632 3.74203C12.474 3.85168 12.5045 3.96739 12.543 4.07064C12.5812 4.17326 12.6337 4.28062 12.6982 4.36861C12.7302 4.41234 12.7722 4.46104 12.8254 4.50139C12.8768 4.54035 12.9618 4.5888 13.0727 4.5888V3.9888C13.1408 3.9888 13.1813 4.01822 13.188 4.0233C13.1965 4.02977 13.1937 4.02974 13.1822 4.01406C13.1596 3.98325 13.1306 3.92915 13.1052 3.86109C13.0801 3.79366 13.0649 3.72948 13.0604 3.68349C13.0581 3.66047 13.0594 3.65054 13.0593 3.6513C13.0592 3.6522 13.0581 3.65903 13.0541 3.66983C13.0501 3.68065 13.042 3.69835 13.0264 3.71807L12.5551 3.34675ZM10.6359 2.08697C9.86612 2.63324 9.48963 2.88034 8.89125 3.02185C8.26684 3.16951 7.40059 3.20226 5.64919 3.25025L5.66562 3.85003C7.38789 3.80283 8.32997 3.77113 9.02934 3.60574C9.75473 3.4342 10.2175 3.11963 10.9831 2.57629L10.6359 2.08697ZM11.7683 1.37807C11.7277 1.3808 11.6967 1.39127 11.687 1.39456C11.673 1.39935 11.6614 1.40437 11.6537 1.40781C11.6383 1.41476 11.6239 1.42239 11.6127 1.42854C11.5895 1.44129 11.5623 1.45759 11.5336 1.47539C11.4753 1.51152 11.398 1.56187 11.3082 1.6219C11.1279 1.74241 10.8894 1.90704 10.6359 2.08697L10.9831 2.57629C11.2333 2.39873 11.4671 2.23741 11.6416 2.12075C11.7292 2.06221 11.8 2.01617 11.8498 1.98528C11.8752 1.96955 11.892 1.95969 11.9015 1.95448C11.9066 1.95167 11.9057 1.95238 11.9008 1.9546C11.8984 1.95567 11.8913 1.95885 11.8809 1.96237C11.875 1.96439 11.847 1.97414 11.8085 1.97672L11.7683 1.37807ZM12.4262 7.6425C12.4262 4.92456 12.4186 3.41732 12.372 2.59332C12.3491 2.1901 12.3158 1.91434 12.2542 1.73664C12.2225 1.64517 12.171 1.5417 12.0749 1.46721C11.9684 1.3847 11.8531 1.37225 11.7679 1.3781L11.809 1.97669C11.8005 1.97727 11.7534 1.97714 11.7073 1.94148C11.6717 1.91384 11.6729 1.89174 11.6873 1.93315C11.7178 2.02119 11.7497 2.21714 11.7729 2.62724C11.8184 3.42989 11.8262 4.91573 11.8262 7.6425H12.4262ZM12.1793 13.6429C12.2463 13.5723 12.2783 13.4861 12.2969 13.421C12.317 13.3503 12.3317 13.2655 12.3434 13.1676C12.367 12.9709 12.3835 12.681 12.3955 12.2589C12.4195 11.4119 12.4262 9.99506 12.4262 7.6425H11.8262C11.8262 9.99759 11.8195 11.4051 11.7957 12.2419C11.7838 12.6617 11.7678 12.9284 11.7477 13.0961C11.7376 13.1803 11.7275 13.2296 11.7199 13.2565C11.7106 13.289 11.7116 13.264 11.7442 13.2297L12.1793 13.6429ZM10.5447 13.1159C10.9753 13.4106 11.2757 13.603 11.4902 13.7006C11.5967 13.7491 11.7133 13.7893 11.8321 13.7899C11.9716 13.7905 12.0905 13.7364 12.1793 13.6428L11.7442 13.2297C11.767 13.2057 11.8056 13.1897 11.8347 13.1899C11.843 13.1899 11.819 13.191 11.7388 13.1545C11.5799 13.0822 11.3224 12.9211 10.8836 12.6208L10.5447 13.1159ZM6.71587 12.0026C7.60204 12.0043 8.23795 12.0683 8.80803 12.2345C9.37586 12.4001 9.89668 12.6725 10.5447 13.1159L10.8836 12.6208C10.2056 12.1568 9.62618 11.8481 8.97599 11.6585C8.32806 11.4696 7.62814 11.4044 6.71703 11.4026L6.71587 12.0026ZM5.37063 12.0001L6.7159 12.0026L6.717 11.4026L5.37173 11.4001L5.37063 12.0001ZM5.66946 13.7712L5.67118 11.7004L5.07118 11.6999L5.06946 13.7707L5.66946 13.7712ZM5.5421 16.1638C5.56141 16.1251 5.57089 16.0874 5.57535 16.0685C5.58095 16.0447 5.58544 16.0195 5.58917 15.9951C5.59667 15.9462 5.60325 15.8865 5.60917 15.8198C5.62106 15.6856 5.63155 15.5082 5.64031 15.3014C5.65787 14.887 5.66894 14.3439 5.66946 13.7712L5.06946 13.7707C5.06895 14.337 5.05798 14.8716 5.04085 15.276C5.03226 15.4786 5.02224 15.6458 5.01151 15.7668C5.00611 15.8278 5.00085 15.8733 4.99611 15.9042C4.99372 15.9198 4.99199 15.9281 4.99129 15.9311C4.98944 15.9389 4.99254 15.9213 5.00539 15.8956L5.5421 16.1638ZM4.20317 16.4747C4.55211 16.4901 4.82269 16.489 5.02064 16.4618C5.11971 16.4481 5.21771 16.4259 5.304 16.3858C5.39308 16.3444 5.48613 16.2759 5.54215 16.1637L5.00534 15.8957C5.02759 15.8511 5.05827 15.8384 5.05112 15.8417C5.04119 15.8463 5.0091 15.8577 4.93896 15.8673C4.79851 15.8866 4.5742 15.8905 4.22967 15.8753L4.20317 16.4747ZM3.23984 16.4321L4.20317 16.4747L4.22967 15.8753L3.26634 15.8327L3.23984 16.4321ZM2.92152 13.9299L2.95312 16.1367L3.55306 16.1281L3.52146 13.9213L2.92152 13.9299ZM2.89003 11.723L2.92152 13.9298L3.52146 13.9213L3.48997 11.7145L2.89003 11.723ZM2.8346 11.9699L3.14659 12.0156L3.23342 11.4219L2.92143 11.3763L2.8346 11.9699ZM2.23205 10.8042C2.2401 11.0003 2.24764 11.1591 2.25948 11.2846C2.27089 11.4055 2.28829 11.5224 2.3274 11.6219C2.37266 11.7371 2.44827 11.8326 2.56462 11.8937C2.6596 11.9437 2.76454 11.9597 2.83465 11.97L2.92138 11.3763C2.84425 11.365 2.83635 11.3587 2.84387 11.3627C2.87275 11.3779 2.88629 11.4036 2.88585 11.4025C2.87926 11.3858 2.86735 11.3397 2.85682 11.2282C2.84672 11.1211 2.83969 10.978 2.83154 10.7796L2.23205 10.8042ZM2.1977 9.96861L2.23205 10.8042L2.83154 10.7796L2.79719 9.94397L2.1977 9.96861ZM1.9804 10.2563H2.49745V9.65629H1.9804V10.2563ZM0.720508 7.63117C0.720508 8.2044 0.720972 8.64606 0.737076 8.9809C0.752784 9.3075 0.784186 9.57294 0.866459 9.77223C0.910251 9.8783 0.971674 9.97439 1.05938 10.0524C1.14726 10.1305 1.24679 10.1773 1.34766 10.2057C1.53114 10.2575 1.75791 10.2563 1.9804 10.2563V9.65629C1.7273 9.65629 1.59629 9.65245 1.51061 9.62827C1.4769 9.61876 1.46401 9.60925 1.45798 9.60389C1.45178 9.59838 1.4378 9.58383 1.42106 9.54327C1.38225 9.44928 1.35203 9.27744 1.33638 8.95208C1.32113 8.63495 1.32051 8.20996 1.32051 7.63117H0.720508ZM1.9804 5.00604C1.75791 5.00604 1.53114 5.00484 1.34766 5.05661C1.24679 5.08508 1.14726 5.13187 1.05938 5.20999C0.971674 5.28794 0.910251 5.38403 0.866459 5.49011C0.784186 5.68939 0.752784 5.95483 0.737076 6.28143C0.720972 6.61627 0.720508 7.05793 0.720508 7.63117H1.32051C1.32051 7.05238 1.32113 6.62739 1.33638 6.31026C1.35203 5.98489 1.38225 5.81305 1.42106 5.71907C1.4378 5.6785 1.45178 5.66396 1.45798 5.65844C1.46401 5.65309 1.4769 5.64357 1.51061 5.63406C1.59629 5.60989 1.7273 5.60604 1.9804 5.60604V5.00604ZM2.49745 5.00604H1.9804V5.60604H2.49745V5.00604ZM2.23205 4.45813L2.1977 5.29372L2.79719 5.31837L2.83154 4.48277L2.23205 4.45813ZM2.26639 3.62254L2.23205 4.45813L2.83154 4.48277L2.86589 3.64718L2.26639 3.62254ZM5.64919 3.25025L2.55792 3.33497L2.57436 3.93475L5.66562 3.85003L5.64919 3.25025ZM11.1392 7.63306V12.285H11.7392V7.63306H11.1392ZM11.4008 3.2908C11.2449 3.31578 11.1493 3.21754 11.1231 3.18534C11.0938 3.14946 11.0809 3.11593 11.0776 3.10719C11.0725 3.09392 11.0698 3.0838 11.0689 3.07991C11.0677 3.07527 11.0672 3.07238 11.0671 3.07203C11.067 3.07151 11.0676 3.07458 11.0686 3.08273C11.0695 3.09044 11.0706 3.10072 11.0718 3.11391C11.0767 3.16804 11.0819 3.25326 11.087 3.36945C11.097 3.60027 11.1063 3.93748 11.114 4.35705C11.1295 5.19541 11.1392 6.35498 11.1392 7.63306H11.7392C11.7392 6.35248 11.7295 5.18904 11.7139 4.34594C11.7061 3.92477 11.6968 3.58163 11.6864 3.34324C11.6812 3.22482 11.6756 3.12821 11.6694 3.05964C11.6664 3.0269 11.6626 2.9923 11.6571 2.96261C11.6548 2.95048 11.6494 2.92284 11.6379 2.89273C11.6331 2.88019 11.6188 2.84384 11.5881 2.80617C11.5603 2.77217 11.4633 2.67315 11.3059 2.69836L11.4008 3.2908ZM10.9906 3.59403C11.1124 3.50182 11.2314 3.4174 11.3238 3.35616C11.3704 3.3253 11.4074 3.30224 11.4332 3.28745C11.4463 3.27992 11.4532 3.27649 11.4549 3.27567C11.465 3.2709 11.4405 3.28444 11.4008 3.2908L11.3059 2.69836C11.2544 2.70661 11.2119 2.72687 11.1986 2.73315C11.177 2.74338 11.155 2.75534 11.1346 2.76704C11.0933 2.79072 11.0445 2.8215 10.9925 2.85592C10.8879 2.92525 10.7585 3.01718 10.6285 3.11563L10.9906 3.59403ZM6.84039 4.69764C7.98736 4.6615 8.74549 4.60336 9.35578 4.4434C9.98099 4.27952 10.4371 4.0128 10.9905 3.59407L10.6285 3.11559C10.1104 3.5076 9.72563 3.72618 9.20364 3.863C8.66673 4.00374 7.97133 4.06171 6.82149 4.09794L6.84039 4.69764ZM4.69369 4.76536L6.8404 4.69764L6.82148 4.09794L4.67477 4.16566L4.69369 4.76536ZM4.98423 7.64686V4.46551H4.38423V7.64686H4.98423ZM4.98423 10.8282V7.64686H4.38423V10.8282H4.98423ZM6.54506 10.5304L4.68458 10.5282L4.68388 11.1282L6.54436 11.1304L6.54506 10.5304ZM10.7998 11.5203C10.1822 11.1255 9.66165 10.8726 9.01159 10.7229C8.3706 10.5752 7.61836 10.5316 6.54506 10.5304L6.54437 11.1304C7.61114 11.1316 8.30601 11.1761 8.87694 11.3076C9.43879 11.4369 9.89501 11.6541 10.4767 12.0259L10.7998 11.5203ZM11.6008 12.0323L10.7998 11.5203L10.4767 12.0259L11.2776 12.5378L11.6008 12.0323ZM3.58279 7.63117V10.8282H4.18279V7.63117H3.58279ZM3.58279 4.43412V7.63117H4.18279V4.43412H3.58279ZM3.53932 4.73412H3.88279V4.13412H3.53932V4.73412ZM3.19584 4.73412H3.53932V4.13412H3.19584V4.73412ZM3.49584 7.63117V4.43412H2.89584V7.63117H3.49584ZM3.49584 10.8282V7.63117H2.89584V10.8282H3.49584ZM3.53932 10.5282H3.19584V11.1282H3.53932V10.5282ZM3.88279 10.5282H3.53932V11.1282H3.88279V10.5282ZM2.20889 7.63117V8.93905H2.80889V7.63117H2.20889ZM2.20889 6.32329V7.63117H2.80889V6.32329H2.20889ZM2.16542 6.62329H2.50889V6.02329H2.16542V6.62329ZM1.82195 6.62329H2.16542V6.02329H1.82195V6.62329ZM2.12195 7.63117V6.32329H1.52195V7.63117H2.12195ZM2.12195 8.93905V7.63117H1.52195V8.93905H2.12195ZM2.16542 8.63905H1.82195V9.23905H2.16542V8.63905ZM2.50889 8.63905H2.16542V9.23905H2.50889V8.63905ZM12.5131 7.63117V8.06713H13.1131V7.63117H12.5131ZM12.5131 7.19521V7.63117H13.1131V7.19521H12.5131ZM13.9008 6.89521H12.8131V7.49521H13.9008V6.89521ZM14.9884 6.89521H13.9008V7.49521H14.9884V6.89521ZM15.2884 7.63117V7.19521H14.6884V7.63117H15.2884ZM15.2884 8.06713V7.63117H14.6884V8.06713H15.2884ZM13.9008 8.36713H14.9884V7.76713H13.9008V8.36713ZM12.8131 8.36713H13.9008V7.76713H12.8131V8.36713ZM12.6438 11.0652C12.5851 11.1476 12.5309 11.2346 12.49 11.3108C12.4697 11.3486 12.4503 11.388 12.4352 11.4256C12.4253 11.4503 12.3986 11.517 12.3986 11.5925H12.9986C12.9986 11.6252 12.9923 11.647 12.9918 11.6489C12.9904 11.654 12.9898 11.6546 12.9919 11.6494C12.9961 11.6392 13.0046 11.6207 13.0186 11.5945C13.0464 11.5428 13.0869 11.4773 13.1324 11.4134L12.6438 11.0652ZM13.118 10.6735C13.0552 10.6735 13.0082 10.6929 12.9887 10.7019C12.9652 10.7125 12.947 10.7242 12.9358 10.7319C12.9133 10.7474 12.8948 10.7639 12.8826 10.7752C12.857 10.7992 12.8308 10.8277 12.8069 10.8553C12.7578 10.9121 12.7 10.9863 12.6438 11.0652L13.1324 11.4134C13.1804 11.3462 13.2265 11.2874 13.2607 11.2479C13.2784 11.2274 13.2888 11.2168 13.2921 11.2138C13.2944 11.2117 13.2884 11.2176 13.2763 11.226C13.2702 11.2301 13.2566 11.2391 13.2372 11.248C13.227 11.2526 13.2125 11.2585 13.1942 11.2634C13.1764 11.2683 13.1501 11.2735 13.118 11.2735V10.6735ZM16.5479 14.1569C16.5479 14.0823 16.5194 14.027 16.5158 14.0196C16.5066 14.0004 16.4968 13.9848 16.4905 13.9751C16.4775 13.9551 16.4625 13.9353 16.4493 13.9186C16.4219 13.8839 16.3849 13.8406 16.3423 13.7924C16.256 13.6948 16.1347 13.5633 15.9912 13.411C15.7036 13.1057 15.3201 12.7093 14.9343 12.3169C14.5484 11.9244 14.1587 11.5344 13.8585 11.2418C13.7088 11.0959 13.5795 10.9725 13.4836 10.8847C13.4361 10.8413 13.3936 10.8037 13.3593 10.7758C13.3429 10.7623 13.3233 10.747 13.3034 10.7336C13.2938 10.7271 13.2781 10.717 13.2588 10.7074C13.2517 10.7038 13.195 10.6735 13.118 10.6735V11.2735C13.0441 11.2735 12.992 11.2448 12.9908 11.2442C12.9774 11.2375 12.969 11.2318 12.9682 11.2312C12.9656 11.2294 12.9687 11.2314 12.9799 11.2406C13.001 11.2578 13.0338 11.2865 13.0787 11.3276C13.1676 11.4088 13.2914 11.527 13.4398 11.6715C13.7358 11.96 14.1223 12.3468 14.5064 12.7375C14.8906 13.1282 15.2708 13.5213 15.5545 13.8224C15.6966 13.9733 15.8128 14.0993 15.8927 14.1897C15.933 14.2354 15.9613 14.2688 15.9783 14.2903C15.9873 14.3017 15.9894 14.305 15.9878 14.3026C15.9872 14.3018 15.9818 14.2936 15.9755 14.2804C15.9748 14.2791 15.9479 14.2284 15.9479 14.1569H16.5479ZM16.2621 14.7114C16.3317 14.6314 16.3955 14.5431 16.4436 14.4619C16.4676 14.4215 16.4905 14.3782 16.5083 14.3352C16.5226 14.3006 16.5479 14.2338 16.5479 14.1569H15.9479C15.9479 14.1296 15.9526 14.1115 15.9536 14.1076C15.9551 14.1021 15.9558 14.1012 15.954 14.1055C15.9503 14.1145 15.942 14.1315 15.9275 14.1559C15.8988 14.2043 15.8566 14.2634 15.8096 14.3174L16.2621 14.7114ZM14.0507 13.4328C14.7831 14.1541 15.1971 14.5576 15.4529 14.7443C15.5724 14.8315 15.7256 14.9255 15.9007 14.9148C16.0969 14.9027 16.2136 14.7671 16.2621 14.7114L15.8095 14.3174C15.7573 14.3774 15.7874 14.3206 15.864 14.3159C15.9194 14.3125 15.9199 14.3424 15.8066 14.2596C15.5967 14.1064 15.2242 13.7464 14.4717 13.0053L14.0507 13.4328ZM12.3986 11.5925C12.3986 11.6663 12.4264 11.7208 12.4303 11.729C12.4396 11.7482 12.4493 11.7638 12.4555 11.7734C12.4684 11.7931 12.4831 11.8123 12.4958 11.8282C12.5221 11.8613 12.5575 11.9023 12.5984 11.948C12.6812 12.0405 12.7988 12.1658 12.9413 12.3142C13.2269 12.6115 13.6196 13.0081 14.0507 13.4327L14.4717 13.0053C14.0434 12.5834 13.6548 12.1908 13.374 11.8985C13.2333 11.752 13.1213 11.6325 13.0454 11.5477C13.007 11.5048 12.9807 11.4741 12.9653 11.4546C12.957 11.4443 12.9557 11.442 12.9579 11.4453C12.9588 11.4466 12.9645 11.4553 12.971 11.4689C12.9722 11.4714 12.9986 11.5216 12.9986 11.5925H12.3986ZM4.26974 13.5166V15.3331H4.86974V13.5166H4.26974ZM4.26974 11.7001V13.5166H4.86974V11.7001H4.26974ZM4.22626 12.0001H4.56974V11.4001H4.22626V12.0001ZM3.88279 12.0001H4.22626V11.4001H3.88279V12.0001ZM4.18279 13.5166V11.7001H3.58279V13.5166H4.18279ZM4.18279 15.3331V13.5166H3.58279V15.3331H4.18279ZM4.22626 15.0331H3.88279V15.6331H4.22626V15.0331ZM4.56974 15.0331H4.22626V15.6331H4.56974V15.0331Z" fill="#FFC217" mask="url(#path-1-outside-1_257_21083)"/>
</svg>
