<svg width="24" height="24" viewBox="0 0 24 24" fill="none" xmlns="http://www.w3.org/2000/svg">
<path d="M4.72754 19.1313L5.30193 17.0592C6.25371 13.6561 8.76357 11.9365 11.2727 11.9365" stroke="#555555" stroke-width="1.3" stroke-linecap="round" stroke-linejoin="round"/>
<path d="M11.2727 11.9223C13.281 11.9223 14.9091 10.3117 14.9091 8.32493C14.9091 6.33815 13.281 4.72754 11.2727 4.72754C9.26432 4.72754 7.63623 6.33815 7.63623 8.32493C7.63623 10.3117 9.26432 11.9223 11.2727 11.9223Z" stroke="#555555" stroke-width="1.3" stroke-linecap="round" stroke-linejoin="bevel"/>
<path d="M16.0003 19.2003C17.7676 19.2003 19.2003 17.7676 19.2003 16.0003C19.2003 14.233 17.7676 12.8003 16.0003 12.8003C14.233 12.8003 12.8003 14.233 12.8003 16.0003C12.8003 17.7676 14.233 19.2003 16.0003 19.2003Z" stroke="#555555" stroke-width="1.3" stroke-linecap="round" stroke-linejoin="round"/>
<path d="M15.7314 17.2739L16.9218 16.0835C16.9343 16.0721 16.9442 16.0582 16.951 16.0428C16.9577 16.0274 16.9612 16.0107 16.9612 15.9939C16.9612 15.977 16.9577 15.9604 16.951 15.9449C16.9442 15.9295 16.9343 15.9157 16.9218 15.9043L15.7314 14.7139" stroke="#555555" stroke-width="1.3" stroke-linecap="round" stroke-linejoin="round"/>
</svg>
