<svg width="25" height="25" viewBox="0 0 25 25" fill="none" xmlns="http://www.w3.org/2000/svg">
<path d="M16.5005 4.5H18.5005C19.0309 4.5 19.5396 4.71071 19.9147 5.08579C20.2898 5.46086 20.5005 5.96957 20.5005 6.5V20.5C20.5005 21.0304 20.2898 21.5391 19.9147 21.9142C19.5396 22.2893 19.0309 22.5 18.5005 22.5H6.50049C5.97006 22.5 5.46135 22.2893 5.08627 21.9142C4.7112 21.5391 4.50049 21.0304 4.50049 20.5V6.5C4.50049 5.96957 4.7112 5.46086 5.08627 5.08579C5.46135 4.71071 5.97006 4.5 6.50049 4.5H8.50049" fill="white"/>
<path d="M8.5 10.5L16.5 10.5M8.5 14.5L16.5 14.5M8.5 18.5L12.5 18.5" stroke="#555555" stroke-width="1.5" stroke-linecap="round" stroke-linejoin="round"/>
<path d="M15.4995 2.5H9.49951C8.94723 2.5 8.49951 2.94772 8.49951 3.5V5.5C8.49951 6.05228 8.94723 6.5 9.49951 6.5H15.4995C16.0518 6.5 16.4995 6.05228 16.4995 5.5V3.5C16.4995 2.94772 16.0518 2.5 15.4995 2.5Z" fill="white" stroke="#C22716" stroke-width="1.5" stroke-linecap="round" stroke-linejoin="round"/>
</svg>
