<svg width="24" height="24" viewBox="0 0 24 24" fill="none" xmlns="http://www.w3.org/2000/svg">
<path fill-rule="evenodd" clip-rule="evenodd" d="M13.7179 5H7.42188C7.04477 5 6.68311 5.1475 6.41646 5.41005C6.1498 5.6726 6 6.0287 6 6.4V17.6C6 17.9713 6.1498 18.3274 6.41646 18.5899C6.68311 18.8525 7.04477 19 7.42188 19H15.9531C16.3302 19 16.6919 18.8525 16.9585 18.5899C17.2252 18.3274 17.375 17.9713 17.375 17.6V9.8433C17.375 9.69953 17.3301 9.55924 17.2463 9.4415L14.3002 5.2982C14.2346 5.20609 14.1475 5.13089 14.0461 5.07899C13.9448 5.02708 13.8322 4.99998 13.7179 5Z" stroke="#555555" stroke-width="1.5" stroke-linecap="round" stroke-linejoin="bevel"/>
<path d="M8.84375 12.9803L10.4448 14.5567L14.5312 10.5303" stroke="#555555" stroke-width="1.5" stroke-linecap="round" stroke-linejoin="round"/>
</svg>
