<svg width="24" height="25" viewBox="0 0 24 25" fill="none" xmlns="http://www.w3.org/2000/svg">
<path d="M21.0548 12.7634L18.6947 15.3777C17.8439 16.3138 16.8068 17.0617 15.65 17.5734C14.4933 18.0852 13.2423 18.3496 11.9773 18.3496C10.7124 18.3496 9.46144 18.0852 8.30467 17.5734C7.14789 17.0617 6.11084 16.3138 5.26004 15.3777L2.8999 12.7634L5.00587 10.2399C5.85779 9.21829 6.92382 8.39642 8.12852 7.83242C9.33322 7.26842 10.6472 6.97607 11.9773 6.97607C13.3075 6.97607 14.6215 7.26842 15.8262 7.83242C17.0309 8.39642 18.0969 9.21829 18.9488 10.2399L21.0548 12.7634Z" stroke="#555555" stroke-width="1.5" stroke-linecap="round" stroke-linejoin="round"/>
<path d="M12.0589 14.7057C13.3623 14.7057 14.419 13.6897 14.419 12.4364C14.419 11.183 13.3623 10.167 12.0589 10.167C10.7554 10.167 9.69873 11.183 9.69873 12.4364C9.69873 13.6897 10.7554 14.7057 12.0589 14.7057Z" stroke="#555555" stroke-width="1.5" stroke-linecap="round" stroke-linejoin="bevel"/>
</svg>
