<svg width="24" height="24" viewBox="0 0 24 24" fill="none" xmlns="http://www.w3.org/2000/svg">
<path d="M13.7772 7.55554C14.759 7.55554 15.5549 6.7596 15.5549 5.77777C15.5549 4.79593 14.759 4 13.7772 4C12.7954 4 11.9995 4.79593 11.9995 5.77777C11.9995 6.7596 12.7954 7.55554 13.7772 7.55554Z" stroke="#555555" stroke-width="1.5" stroke-linecap="round" stroke-linejoin="round"/>
<path d="M14.6673 19.9999C15.6491 19.9999 16.445 19.2039 16.445 18.2221C16.445 17.2403 15.6491 16.4443 14.6673 16.4443C13.6856 16.4443 12.8896 17.2403 12.8896 18.2221C12.8896 19.2039 13.6856 19.9999 14.6673 19.9999Z" stroke="#555555" stroke-width="1.5" stroke-linecap="round" stroke-linejoin="round"/>
<path d="M8.4442 13.7777C9.426 13.7777 10.2219 12.9818 10.2219 11.9999C10.2219 11.0181 9.426 10.2222 8.4442 10.2222C7.46241 10.2222 6.6665 11.0181 6.6665 11.9999C6.6665 12.9818 7.46241 13.7777 8.4442 13.7777Z" stroke="#555555" stroke-width="1.5" stroke-linecap="round" stroke-linejoin="round"/>
<path d="M4 5.77783H11.9997" stroke="#555555" stroke-width="1.5" stroke-linecap="round" stroke-linejoin="round"/>
<path d="M15.5557 5.77783H19.9999" stroke="#555555" stroke-width="1.5" stroke-linecap="round" stroke-linejoin="round"/>
<path d="M4 12H6.66655" stroke="#555555" stroke-width="1.5" stroke-linecap="round" stroke-linejoin="round"/>
<path d="M10.2227 12H20" stroke="#555555" stroke-width="1.5" stroke-linecap="round" stroke-linejoin="round"/>
<path d="M4 18.2222H12.8885" stroke="#555555" stroke-width="1.5" stroke-linecap="round" stroke-linejoin="round"/>
<path d="M16.4434 18.2222H19.9988" stroke="#555555" stroke-width="1.5" stroke-linecap="round" stroke-linejoin="round"/>
</svg>
