<svg width="14" height="15" viewBox="0 0 14 15" fill="none" xmlns="http://www.w3.org/2000/svg">
<path d="M8.16699 3.99967L7.74699 3.15384C7.64783 2.95551 7.44366 2.83301 7.22199 2.83301H3.50033C3.17949 2.83301 2.91699 3.09551 2.91699 3.41634V12.1663C2.91699 12.4872 3.17949 12.7497 3.50033 12.7497C3.82116 12.7497 4.08366 12.4872 4.08366 12.1663V8.66634H7.00033L7.42033 9.51217C7.4688 9.60838 7.54297 9.68927 7.6346 9.7459C7.72624 9.80253 7.83177 9.83268 7.93949 9.83301H11.0837C11.4045 9.83301 11.667 9.57051 11.667 9.24967V4.58301C11.667 4.26217 11.4045 3.99967 11.0837 3.99967H8.16699ZM10.5003 8.66634H8.16699L7.58366 7.49967H4.08366V3.99967H7.00033L7.58366 5.16634H10.5003V8.66634Z" fill="#176CF7"/>
</svg>
