<svg width="25" height="24" viewBox="0 0 25 24" fill="none" xmlns="http://www.w3.org/2000/svg">
<path d="M6.14654 17.7618V6.2378C6.13943 5.9866 6.20237 5.73818 6.32875 5.51862C6.45514 5.29906 6.64031 5.11646 6.86482 4.98999C7.08933 4.86352 7.34491 4.79784 7.60471 4.79985C7.86452 4.80186 8.11898 4.87148 8.34137 5.00141L18.2784 10.7867C18.4827 10.9105 18.6512 11.0825 18.768 11.2865C18.8847 11.4906 18.946 11.7199 18.946 11.9531C18.946 12.1863 18.8847 12.4157 18.768 12.6197C18.6512 12.8238 18.4827 12.9957 18.2784 13.1195L8.34137 18.9982C8.11898 19.1281 7.86452 19.1977 7.60471 19.1998C7.34491 19.2018 7.08933 19.1361 6.86482 19.0096C6.64031 18.8831 6.45514 18.7005 6.32875 18.481C6.20237 18.2614 6.13943 18.013 6.14654 17.7618Z" stroke="#555555" stroke-width="1.5" stroke-linecap="round" stroke-linejoin="round"/>
</svg>
