<svg width="16" height="16" viewBox="0 0 16 16" fill="none" xmlns="http://www.w3.org/2000/svg">
<path fill-rule="evenodd" clip-rule="evenodd" d="M7.99967 1.33337C7.91301 1.33337 7.82682 1.35718 7.75063 1.40385C7.75063 1.40385 3.44063 4.05623 2.01301 4.9348C1.59015 5.19433 1.33301 5.6548 1.33301 6.15099V13.2381C1.33301 14.0267 1.97301 14.6667 2.76158 14.6667C3.55015 14.6667 4.19015 14.0267 4.19015 13.2381V7.52385C4.19015 7.39766 4.24015 7.27623 4.32967 7.18718C4.41872 7.09766 4.54015 7.04766 4.66634 7.04766H11.333C11.4592 7.04766 11.5806 7.09766 11.6697 7.18718C11.7592 7.27623 11.8092 7.39766 11.8092 7.52385V13.2381C11.8092 14.0267 12.4492 14.6667 13.2378 14.6667C14.0263 14.6667 14.6663 14.0267 14.6663 13.2381V6.15099C14.6663 5.6548 14.4092 5.19433 13.9863 4.9348C12.5587 4.05623 8.24872 1.40385 8.24872 1.40385C8.17253 1.35718 8.08634 1.33337 7.99967 1.33337ZM7.99967 2.36861L13.4868 5.74576C13.6278 5.83242 13.714 5.98528 13.714 6.15099V13.2381C13.714 13.501 13.5006 13.7143 13.2378 13.7143C12.9749 13.7143 12.7616 13.501 12.7616 13.2381V7.52385C12.7616 7.1448 12.6111 6.78147 12.343 6.51385C12.0754 6.24576 11.7121 6.09528 11.333 6.09528H4.66634C4.28729 6.09528 3.92396 6.24576 3.65634 6.51385C3.38825 6.78147 3.23777 7.1448 3.23777 7.52385V13.2381C3.23777 13.501 3.02444 13.7143 2.76158 13.7143C2.49872 13.7143 2.28539 13.501 2.28539 13.2381V6.15099C2.28539 5.98528 2.37158 5.83242 2.51253 5.74576L7.99967 2.36861ZM7.04729 4.19052C6.78444 4.19052 6.5711 4.40385 6.5711 4.66671C6.5711 4.92956 6.78444 5.1429 7.04729 5.1429H8.95206C9.21491 5.1429 9.42825 4.92956 9.42825 4.66671C9.42825 4.40385 9.21491 4.19052 8.95206 4.19052H7.04729ZM5.14253 9.9048C4.87967 9.9048 4.66634 10.1181 4.66634 10.381C4.66634 10.6439 4.87967 10.8572 5.14253 10.8572H10.8568C11.1197 10.8572 11.333 10.6439 11.333 10.381C11.333 10.1181 11.1197 9.9048 10.8568 9.9048H5.14253ZM5.14253 11.8096C4.87967 11.8096 4.66634 12.0229 4.66634 12.2858C4.66634 12.5486 4.87967 12.7619 5.14253 12.7619H10.8568C11.1197 12.7619 11.333 12.5486 11.333 12.2858C11.333 12.0229 11.1197 11.8096 10.8568 11.8096H5.14253Z" fill="#555555"/>
</svg>
