<svg width="25" height="24" viewBox="0 0 25 24" fill="none" xmlns="http://www.w3.org/2000/svg">
<path d="M17.9383 8.00558H17.6276C17.829 7.63761 17.9357 7.22542 17.9383 6.80602C17.9386 6.24133 17.7546 5.69195 17.4143 5.24125C17.0548 4.76774 16.5651 4.40924 16.005 4.20962C15.4259 3.99942 14.8009 3.94924 14.1956 4.06434C13.6019 4.17226 13.0506 4.44526 12.605 4.85206C12.1602 4.44404 11.6093 4.16963 11.0156 4.06034C10.4104 3.94524 9.78538 3.99543 9.20631 4.20562C8.64621 4.40524 8.15645 4.76374 7.79698 5.23725C7.45535 5.68888 7.27086 6.23981 7.27165 6.80602C7.27424 7.22542 7.38099 7.63761 7.58231 8.00558H7.27165C6.57825 8.0004 5.90718 8.25042 5.38631 8.708C5.14378 8.91977 4.94879 9.18042 4.81413 9.47283C4.67948 9.76525 4.6082 10.0828 4.60498 10.4047V12.0041C4.60689 12.1118 4.63165 12.2179 4.67762 12.3153C4.72359 12.4127 4.78972 12.4993 4.87165 12.5693C5.04509 12.7219 5.26861 12.8054 5.49965 12.8039H6.38898V17.6021C6.39239 17.9238 6.46376 18.2411 6.59841 18.5333C6.73306 18.8255 6.92795 19.0859 7.17031 19.2975C7.69124 19.755 8.36227 20.005 9.05565 19.9999H16.1663C16.8597 20.005 17.5307 19.755 18.0516 19.2975C18.294 19.0859 18.4889 18.8255 18.6236 18.5333C18.7582 18.2411 18.8296 17.9238 18.833 17.6021V12.8039H19.7223C19.9534 12.8054 20.1769 12.7219 20.3503 12.5693C20.43 12.4982 20.4939 12.4112 20.5378 12.3138C20.5817 12.2164 20.6046 12.1109 20.605 12.0041V10.4047C20.6016 10.0831 20.5302 9.76573 20.3956 9.47356C20.2609 9.18139 20.066 8.92095 19.8236 8.70933C19.303 8.25127 18.6319 8.00077 17.9383 8.00558ZM11.7156 18.4018H9.04898C8.81794 18.4033 8.59442 18.3198 8.42098 18.1673C8.33906 18.0973 8.27292 18.0107 8.22695 17.9133C8.18098 17.8159 8.15623 17.7098 8.15431 17.6021V12.8039H11.7156V18.4018ZM11.7156 11.2044H6.38231V10.4047C6.38423 10.297 6.40898 10.191 6.45495 10.0935C6.50092 9.99612 6.56706 9.90956 6.64898 9.83959C6.82105 9.68822 7.04244 9.60482 7.27165 9.60501H11.7156V11.2044ZM11.7156 8.00558H10.3823C10.1214 8.00637 9.86519 7.93635 9.64098 7.80299C9.42786 7.67821 9.25697 7.49253 9.15031 7.26985C9.04958 7.05342 9.02287 6.80987 9.07431 6.57677C9.12884 6.33881 9.25661 6.12392 9.43965 5.96232C9.63232 5.79176 9.86871 5.67822 10.1223 5.63444C10.3807 5.58774 10.6468 5.61121 10.893 5.70242C11.1309 5.78874 11.3388 5.94194 11.4916 6.14359C11.6367 6.33563 11.7157 6.56939 11.717 6.81002L11.7156 8.00558ZM13.493 6.80602C13.4942 6.5654 13.5733 6.33163 13.7183 6.13959C13.8712 5.93794 14.0791 5.78474 14.317 5.69842C14.5632 5.60722 14.8293 5.58374 15.0876 5.63044C15.3413 5.67423 15.5776 5.78776 15.7703 5.95832C15.9534 6.11992 16.0811 6.33481 16.1356 6.57277C16.1871 6.80587 16.1604 7.04942 16.0596 7.26585C15.953 7.48854 15.7821 7.67421 15.569 7.79899C15.3452 7.93375 15.0889 8.00516 14.8276 8.00558H13.4943L13.493 6.80602ZM17.049 17.6021C17.0471 17.7098 17.0223 17.8159 16.9763 17.9133C16.9304 18.0107 16.8642 18.0973 16.7823 18.1673C16.6089 18.3198 16.3854 18.4033 16.1543 18.4018H13.4876V12.8039H17.0436L17.049 17.6021ZM18.8263 11.2044H13.493V9.60501H17.9383C18.1694 9.60351 18.3929 9.687 18.5663 9.83959C18.6482 9.90956 18.7144 9.99612 18.7603 10.0935C18.8063 10.191 18.8311 10.297 18.833 10.4047L18.8263 11.2044Z" fill="#555555"/>
</svg>
