<svg width="16" height="16" viewBox="0 0 16 16" fill="none" xmlns="http://www.w3.org/2000/svg">
<path d="M3.09333 10.18V13.3933C3.09509 13.5548 3.16048 13.7091 3.27531 13.8227C3.39015 13.9363 3.54515 14 3.70667 14H7.45333V10.18H3.09333ZM8.54667 14H12.2933C12.4549 14 12.6099 13.9363 12.7247 13.8227C12.8395 13.7091 12.9049 13.5548 12.9067 13.3933V10.18H8.54667V14ZM13.4 4.72667H12.1733C12.299 4.47148 12.3651 4.19111 12.3667 3.90667C12.3649 3.40038 12.1625 2.91542 11.8039 2.55804C11.4453 2.20066 10.9596 2 10.4533 2C9.92443 2.02508 9.4134 2.19927 8.97929 2.50244C8.54517 2.80562 8.20567 3.22541 8 3.71333C7.79433 3.22541 7.45483 2.80562 7.02071 2.50244C6.5866 2.19927 6.07557 2.02508 5.54667 2C5.04037 2 4.55472 2.20066 4.19609 2.55804C3.83746 2.91542 3.6351 3.40038 3.63333 3.90667C3.63491 4.19111 3.70102 4.47148 3.82667 4.72667H2.6C2.26667 4.72667 2 5.12 2 5.6V8.22C2 8.7 2.26667 9.09333 2.6 9.09333H7.45333V4.72667H8.54667V9.09333H13.4C13.7333 9.09333 14 8.7 14 8.22V5.6C14 5.12 13.7333 4.72667 13.4 4.72667ZM5.54667 4.72667C5.43322 4.73693 5.31888 4.72344 5.21093 4.68706C5.10299 4.65068 5.0038 4.59221 4.91971 4.51538C4.83561 4.43854 4.76845 4.34503 4.72249 4.2408C4.67654 4.13657 4.65281 4.02391 4.65281 3.91C4.65281 3.79609 4.67654 3.68343 4.72249 3.5792C4.76845 3.47497 4.83561 3.38146 4.91971 3.30462C5.0038 3.22779 5.10299 3.16932 5.21093 3.13294C5.31888 3.09656 5.43322 3.08307 5.54667 3.09333C6.48 3.09333 7.00667 4.05333 7.26667 4.72667H5.54667ZM10.4533 4.72667H8.73333C8.99333 4.06 9.52 3.09333 10.4533 3.09333C10.5668 3.08307 10.6811 3.09656 10.7891 3.13294C10.897 3.16932 10.9962 3.22779 11.0803 3.30462C11.1644 3.38146 11.2316 3.47497 11.2775 3.5792C11.3235 3.68343 11.3472 3.79609 11.3472 3.91C11.3472 4.02391 11.3235 4.13657 11.2775 4.2408C11.2316 4.34503 11.1644 4.43854 11.0803 4.51538C10.9962 4.59221 10.897 4.65068 10.7891 4.68706C10.6811 4.72344 10.5668 4.73693 10.4533 4.72667Z" fill="#C22716"/>
</svg>
