<svg width="24" height="24" viewBox="0 0 24 24" fill="none" xmlns="http://www.w3.org/2000/svg">
<path d="M18.0218 5.3563L11.8844 4.80092C11.8618 4.79809 11.8389 4.80068 11.8175 4.80847C11.7961 4.81627 11.777 4.82905 11.7616 4.84574L5.26104 11.3127C4.96554 11.6071 4.79964 12.0062 4.7998 12.4223C4.79997 12.8384 4.96619 13.2374 5.26193 13.5316L10.4975 18.7401C10.7934 19.0344 11.1947 19.1998 11.6132 19.1998C12.0316 19.1998 12.4329 19.0344 12.7288 18.7401L19.1499 12.3522C19.1671 12.3362 19.1805 12.3165 19.1891 12.2946C19.1977 12.2727 19.2012 12.2491 19.1993 12.2257L18.6914 6.06987C18.6763 5.89385 18.602 5.72803 18.4805 5.59919C18.3591 5.47035 18.1974 5.38602 18.0218 5.35982V5.3563Z" stroke="#555555" stroke-width="1.5" stroke-linecap="round" stroke-linejoin="round"/>
<path d="M13.0196 10.9638C13.2921 11.2349 13.6394 11.4195 14.0174 11.4943C14.3955 11.5691 14.7873 11.5308 15.1434 11.384C15.4995 11.2373 15.8039 10.9888 16.018 10.67C16.2321 10.3511 16.3464 9.97631 16.3464 9.59286C16.3464 9.20942 16.2321 8.83458 16.018 8.51576C15.8039 8.19694 15.4995 7.94845 15.1434 7.80171C14.7873 7.65497 14.3955 7.61658 14.0174 7.69138C13.6394 7.76619 13.2922 7.95084 13.0196 8.22197C12.6541 8.58555 12.4488 9.07868 12.4488 9.59286C12.4488 10.107 12.6541 10.6002 13.0196 10.9638Z" stroke="#555555" stroke-width="1.5" stroke-linecap="round" stroke-linejoin="round"/>
</svg>
