<svg width="16" height="16" viewBox="0 0 16 16" fill="none" xmlns="http://www.w3.org/2000/svg">
<path d="M8.35566 2.99457L8.36522 2.98463C9.84494 1.44958 12.2362 1.44958 13.7159 2.98463C15.2056 4.52999 15.2056 7.04284 13.7159 8.5882L13.7063 8.59813L13.7051 8.59939L8.5845 13.9114C8.25645 14.2518 7.73245 14.2518 7.4044 13.9114L2.29017 8.60602L2.28981 8.60566L2.28376 8.59939C2.28366 8.59929 2.28357 8.59919 2.28347 8.59909C2.28345 8.59907 2.28343 8.59905 2.2834 8.59902C0.794086 7.05363 0.794204 4.54105 2.28376 2.99581C3.76348 1.46077 6.15476 1.46079 7.63449 2.99583L7.99574 3.37058L8.35566 2.99457Z" stroke="#555555"/>
</svg>
