<svg width="16" height="16" viewBox="0 0 16 16" fill="none" xmlns="http://www.w3.org/2000/svg">
<path d="M8.53651 3.16735L8.54545 3.15804L8.54548 3.15801C9.92689 1.72499 12.1548 1.725 13.5362 3.15804C14.9325 4.60654 14.9325 6.96601 13.5362 8.41454C13.5362 8.41456 13.5362 8.41459 13.5362 8.41461L13.5272 8.42391L13.5254 8.4258L8.40476 13.7378C8.17503 13.9762 7.81437 13.9762 7.58464 13.7378L2.4704 8.43243L2.46987 8.43188L2.46399 8.42579C2.46388 8.42568 2.46378 8.42557 2.46367 8.42546C1.06767 6.97691 1.06777 4.61764 2.46399 3.16922C3.8454 1.73618 6.07333 1.73619 7.45475 3.16925L7.99661 3.73137L8.53651 3.16735Z" stroke="#555555" stroke-width="1.5"/>
</svg>
