<svg width="24" height="24" viewBox="0 0 24 24" fill="none" xmlns="http://www.w3.org/2000/svg">
<path fill-rule="evenodd" clip-rule="evenodd" d="M11.9468 5.36414L5.43309 10.6053C5.41857 10.619 5.40698 10.6355 5.39904 10.6539C5.39109 10.6722 5.38695 10.692 5.38688 10.712L5.3335 17.2358C5.3335 17.5905 5.47343 17.9306 5.72253 18.1813C5.97162 18.4321 6.30946 18.573 6.66173 18.573L17.3386 18.6668C17.6909 18.6668 18.0287 18.526 18.2778 18.2752C18.5269 18.0244 18.6668 17.6843 18.6668 17.3297V10.712C18.6663 10.6914 18.6612 10.6711 18.652 10.6527C18.6427 10.6342 18.6296 10.6181 18.6134 10.6053L12.1061 5.36414C12.0842 5.3444 12.0559 5.3335 12.0265 5.3335C11.9971 5.3335 11.9687 5.3444 11.9468 5.36414Z" stroke="#555555" stroke-width="1.5" stroke-linecap="square" stroke-linejoin="round"/>
<path d="M14.4004 11.9834H9.60039C9.07572 11.9834 8.65039 12.4087 8.65039 12.9334V17.7334C8.65039 18.2581 9.07572 18.6834 9.60039 18.6834H14.4004C14.9251 18.6834 15.3504 18.2581 15.3504 17.7334V12.9334C15.3504 12.4087 14.9251 11.9834 14.4004 11.9834Z" stroke="#555555" stroke-width="1.5" stroke-linejoin="round"/>
</svg>
