<svg width="24" height="24" viewBox="0 0 24 24" fill="none" xmlns="http://www.w3.org/2000/svg">
<path d="M18.2758 20.8343L15.2918 18.4556C15.2558 18.4252 15.2107 18.4085 15.1642 18.4085C15.1178 18.4085 15.0727 18.4252 15.0367 18.4556L12.2108 20.9726C12.1742 21.0053 12.1274 21.0232 12.0791 21.0232C12.0307 21.0232 11.984 21.0053 11.9473 20.9726L8.74295 18.4543C8.70908 18.4227 8.66513 18.4051 8.61957 18.4051C8.57401 18.4051 8.53006 18.4227 8.49619 18.4543L5.73265 20.8206C5.70205 20.8437 5.66605 20.8578 5.62841 20.8614C5.59078 20.8651 5.55289 20.8581 5.51873 20.8413C5.48456 20.8245 5.45537 20.7985 5.43421 20.7659C5.41304 20.7333 5.40069 20.6955 5.39844 20.6562V4.76483C5.39844 4.27929 5.58396 3.81363 5.91419 3.4703C6.24443 3.12696 6.69232 2.93408 7.15934 2.93408H16.8419C17.0731 2.93408 17.3021 2.98144 17.5158 3.07344C17.7294 3.16544 17.9235 3.3003 18.087 3.4703C18.2506 3.6403 18.3803 3.84212 18.4688 4.06423C18.5573 4.28635 18.6028 4.52441 18.6028 4.76483V20.6687C18.6024 20.7078 18.5915 20.746 18.5713 20.779C18.5512 20.812 18.5226 20.8385 18.4888 20.8556C18.4549 20.8726 18.4172 20.8796 18.3798 20.8756C18.3424 20.8716 18.3068 20.8569 18.277 20.8331L18.2758 20.8343Z" stroke="#555555" stroke-width="1.5" stroke-linecap="round" stroke-linejoin="round"/>
<path d="M7.67822 6.69531H14.7194" stroke="#555555" stroke-width="1.5" stroke-linecap="round" stroke-linejoin="round"/>
<path d="M7.67822 10.3555H12.0793" stroke="#555555" stroke-width="1.5" stroke-linecap="round" stroke-linejoin="round"/>
<path d="M7.67822 14.0156H15.5999" stroke="#555555" stroke-width="1.5" stroke-linecap="round" stroke-linejoin="round"/>
</svg>
