<svg width="16" height="16" viewBox="0 0 16 16" fill="none" xmlns="http://www.w3.org/2000/svg">
<path d="M10.3805 0.5H13.9999C14.8284 0.5 15.5 1.17159 15.5 2V5.61933C15.5 6.44774 14.8284 7.11933 13.9999 7.11933H10.3805C9.55196 7.11933 8.88037 6.44774 8.88037 5.61933V2C8.88037 1.17159 9.55196 0.5 10.3805 0.5Z" stroke="white"/>
<path d="M2.00008 0.5H5.61957C6.44806 0.5 7.11965 1.17159 7.11965 2V5.61933C7.11965 6.44774 6.44806 7.11933 5.61957 7.11933H2.00008C1.17159 7.11933 0.5 6.44774 0.5 5.61933V2C0.5 1.17159 1.17159 0.5 2.00008 0.5Z" stroke="white"/>
<path d="M10.3805 8.88062H13.9999C14.8284 8.88062 15.5 9.55221 15.5 10.3806V13.9999C15.5 14.8284 14.8284 15.4999 13.9999 15.4999H10.3805C9.55196 15.4999 8.88037 14.8284 8.88037 13.9999V10.3806C8.88037 9.55221 9.55196 8.88062 10.3805 8.88062Z" stroke="white"/>
<path d="M2.00008 8.88062H5.61957C6.44806 8.88062 7.11965 9.55221 7.11965 10.3806V13.9999C7.11965 14.8284 6.44806 15.4999 5.61957 15.4999H2.00008C1.17159 15.4999 0.5 14.8284 0.5 13.9999V10.3806C0.5 9.55221 1.17159 8.88062 2.00008 8.88062Z" stroke="white"/>
</svg>
