<svg width="24" height="24" viewBox="0 0 24 24" fill="none" xmlns="http://www.w3.org/2000/svg">
<path d="M7.51352 4.65H17.3593C17.9222 4.65 18.3503 5.09072 18.3503 5.6V18.4C18.3503 18.9093 17.9222 19.35 17.3593 19.35H7.51352C6.95064 19.35 6.52256 18.9093 6.52256 18.4V5.6C6.52256 5.09072 6.95064 4.65 7.51352 4.65Z" stroke="#555555" stroke-width="1.3" stroke-linecap="round" stroke-linejoin="round"/>
<path d="M5.14307 8.17529H8.06033" stroke="#555555" stroke-width="1.3" stroke-linecap="round" stroke-linejoin="round"/>
<path d="M5.14307 15.6372H8.06033" stroke="#555555" stroke-width="1.3" stroke-linecap="round" stroke-linejoin="round"/>
<path d="M9.96729 15.2371L10.2233 14.3084C11.07 11.2364 14.6991 11.2364 15.5473 14.3084L15.8033 15.2371" stroke="#555555" stroke-width="1.3" stroke-linecap="round" stroke-linejoin="round"/>
<path d="M12.8832 11.9942C13.7782 11.9942 14.5038 11.2707 14.5038 10.3782C14.5038 9.48571 13.7782 8.76221 12.8832 8.76221C11.9882 8.76221 11.2627 9.48571 11.2627 10.3782C11.2627 11.2707 11.9882 11.9942 12.8832 11.9942Z" stroke="#555555" stroke-width="1.3" stroke-linecap="round" stroke-linejoin="bevel"/>
</svg>
