<svg width="24" height="24" viewBox="0 0 24 24" fill="none" xmlns="http://www.w3.org/2000/svg">
<path fill-rule="evenodd" clip-rule="evenodd" d="M4.52667 2.05782C3.94234 2.18443 3.53306 2.38036 3.10504 2.73822C2.64988 3.11881 2.28922 3.66408 2.10919 4.2438L2 4.59541V11.9987V19.402L2.10919 19.7536C2.42336 20.7654 3.21635 21.5576 4.22925 21.8714L4.58123 21.9805H7.49775H10.4142L10.5728 21.8756C10.8169 21.7143 10.917 21.5233 10.917 21.2186C10.917 20.914 10.8169 20.723 10.5729 20.5617L10.4144 20.4568L7.59556 20.4373L4.77678 20.4178L4.55182 20.327C4.11716 20.1517 3.78805 19.8078 3.63466 19.3688C3.56802 19.178 3.56438 18.7969 3.56438 11.9987C3.56438 5.20049 3.56802 4.81942 3.63466 4.62866C3.78805 4.18958 4.11716 3.8457 4.55182 3.67041L4.77678 3.57965H9.91969H15.0626L15.2838 3.66896C15.6909 3.83344 16.0209 4.16309 16.1856 4.56982L16.275 4.79075L16.2945 8.09196L16.3141 11.3932L16.4069 11.5423C16.5369 11.7511 16.751 11.8819 17.004 11.9071C17.1832 11.9249 17.2447 11.9117 17.4274 11.8155C17.6013 11.724 17.6614 11.6642 17.75 11.4948L17.8589 11.2866L17.8584 8.07773C17.858 5.08434 17.8529 4.84486 17.784 4.51102C17.6496 3.86055 17.3534 3.32861 16.8704 2.8703C16.4059 2.42958 15.9462 2.19115 15.3062 2.05911C15.0422 2.00465 14.4087 1.99777 9.892 2.0005C5.68483 2.00308 4.73239 2.01324 4.52667 2.05782ZM9.21572 4.95483C8.96056 5.04703 8.85575 5.15302 8.02256 6.16147C7.53588 6.75053 7.12785 7.23247 7.11581 7.23247C7.10376 7.23247 6.91572 7.04971 6.69796 6.82636C6.371 6.49097 6.27147 6.41205 6.12645 6.37306C5.77943 6.27977 5.43026 6.41107 5.22654 6.71143C5.14676 6.8291 5.1288 6.90282 5.12888 7.11241C5.12908 7.43957 5.20163 7.54743 5.85902 8.19775C6.46471 8.79685 6.64457 8.89393 7.14291 8.89061C7.41961 8.88878 7.5114 8.87104 7.69044 8.78478C7.97563 8.64734 8.18338 8.42809 9.22506 7.16504C10.2272 5.94988 10.2691 5.87241 10.1455 5.46037C10.0374 5.10016 9.54885 4.8345 9.21572 4.95483ZM11.375 7.08026C11.1896 7.13507 10.9495 7.39097 10.8955 7.59138C10.8018 7.93869 10.941 8.30374 11.237 8.48759L11.3863 8.5803H12.7971H14.2079L14.3664 8.47548C14.6106 8.31409 14.7106 8.12313 14.7106 7.81848C14.7106 7.51387 14.6106 7.32291 14.3665 7.16148L14.2081 7.05666L12.8558 7.04948C12.0706 7.0453 11.4497 7.05823 11.375 7.08026ZM9.06945 9.81483C8.93913 9.87926 8.71382 10.1262 8.01787 10.9673C7.53072 11.5561 7.12762 12.0378 7.12206 12.0378C7.11651 12.0378 6.92878 11.8548 6.70492 11.6311C6.37487 11.3015 6.26498 11.2157 6.12434 11.1778C5.51317 11.0134 4.98289 11.5413 5.14711 12.1505C5.18504 12.2912 5.28962 12.4195 5.74474 12.8836C6.43757 13.5901 6.62506 13.6992 7.1422 13.6963C7.42066 13.6948 7.51066 13.6774 7.69044 13.5905C7.97426 13.4533 8.14364 13.274 9.20875 11.9838C9.89345 11.1544 10.1193 10.8542 10.1554 10.7254C10.3363 10.0798 9.66763 9.51905 9.06945 9.81483ZM11.375 11.8856C11.1896 11.9404 10.9495 12.1963 10.8955 12.3967C10.8018 12.744 10.941 13.109 11.237 13.2929L11.3863 13.3856H12.7971H14.2079L14.3664 13.2808C14.6106 13.1194 14.7106 12.9284 14.7106 12.6238C14.7106 12.3192 14.6106 12.1282 14.3665 11.9668L14.2081 11.862L12.8558 11.8548C12.0706 11.8506 11.4497 11.8635 11.375 11.8856ZM19.1495 12.6847C19.0097 12.7149 18.7641 12.8041 18.6037 12.8831C18.3296 13.0181 18.1726 13.1642 16.0097 15.2963C14.7434 16.5445 13.6648 17.6376 13.6127 17.7253C13.5059 17.9052 12.54 21.0482 12.54 21.2158C12.54 21.3587 12.6127 21.5639 12.7107 21.6975C12.8089 21.8313 13.1399 22 13.304 22C13.4622 22 16.6612 21.1156 16.8421 21.0218C16.9174 20.9828 18.0196 19.908 19.2914 18.6333C21.4973 16.4224 21.6103 16.3022 21.746 16.0227C22.2034 15.0804 22.0354 14.0539 21.3041 13.3235C20.7217 12.7417 19.9489 12.5126 19.1495 12.6847ZM20.0698 14.3165C20.4835 14.5973 20.5533 15.0809 20.2377 15.4798L20.079 15.6804L19.5181 15.1211C19.0671 14.6714 18.966 14.5512 19.0022 14.5076C19.0678 14.4286 19.3523 14.2386 19.4431 14.213C19.6088 14.1664 19.9258 14.2187 20.0698 14.3165ZM9.06945 14.542C8.93913 14.6064 8.71382 14.8534 8.01787 15.6945C7.53072 16.2832 7.12762 16.7649 7.12206 16.7649C7.11651 16.7649 6.92878 16.582 6.70492 16.3583C6.37487 16.0286 6.26498 15.9429 6.12434 15.905C5.51317 15.7406 4.98289 16.2684 5.14711 16.8777C5.18504 17.0184 5.28962 17.1467 5.74474 17.6108C6.43757 18.3173 6.62506 18.4263 7.1422 18.4235C7.42066 18.422 7.51066 18.4046 7.69044 18.3177C7.97426 18.1805 8.14364 18.0012 9.20875 16.711C9.89345 15.8816 10.1193 15.5814 10.1554 15.4526C10.3363 14.8069 9.66763 14.2462 9.06945 14.542ZM17.5228 18.2142L16.0912 19.6446L15.3032 19.8614C14.8697 19.9807 14.5098 20.0732 14.5033 20.067C14.4969 20.0608 14.592 19.724 14.7147 19.3186L14.9379 18.5816L16.3883 17.1265L17.8387 15.6714L18.3965 16.2276L18.9543 16.7838L17.5228 18.2142Z" fill="#555555"/>
</svg>
