<svg width="25" height="25" viewBox="0 0 25 25" fill="none" xmlns="http://www.w3.org/2000/svg">
<path d="M6.8023 16.4595C6.08798 15.409 6.31008 13.9744 7.21048 13.074L8.96926 11.3152C9.2814 11.003 9.2814 10.4868 8.96926 10.1747C8.65712 9.86252 8.14089 9.86252 7.82875 10.1747L6.13 11.8734C4.5633 13.4401 4.31119 15.9853 5.72182 17.696C7.33654 19.6589 10.2478 19.7609 12.0006 18.0082L13.8314 16.1773C14.1436 15.8652 14.1436 15.349 13.8314 15.0368C13.5193 14.7247 13.0031 14.7247 12.6909 15.0368L10.8601 16.8676C9.71359 18.0142 7.76272 17.8761 6.8023 16.4595ZM10.8001 14.4065L14.4017 10.8049C14.7318 10.4748 14.7318 9.93456 14.4017 9.60441C14.0715 9.27426 13.5313 9.27426 13.2011 9.60441L9.59954 13.206C9.2694 13.5362 9.2694 14.0764 9.59954 14.4065C9.92969 14.7367 10.4699 14.7367 10.8001 14.4065ZM11.8686 6.13486L10.1698 7.83362C9.85766 8.14576 9.85766 8.66199 10.1698 8.97413C10.4819 9.28627 10.9982 9.28627 11.3103 8.97413L13.0691 7.21535C13.9695 6.31494 15.4041 6.09284 16.4546 6.80716C17.8712 7.76759 18.0093 9.71846 16.8628 10.865L15.032 12.6958C14.7198 13.0079 14.7198 13.5242 15.032 13.8363C15.3441 14.1484 15.8603 14.1484 16.1725 13.8363L18.0033 12.0055C19.7561 10.2527 19.654 7.3414 17.6972 5.72068C15.9864 4.31005 13.4353 4.56817 11.8686 6.13486Z" fill="#555555"/>
</svg>
