<svg width="16" height="16" viewBox="0 0 16 16" fill="none" xmlns="http://www.w3.org/2000/svg">
<path d="M10.667 2.66675H12.0003C12.3539 2.66675 12.6931 2.80722 12.9431 3.05727C13.1932 3.30732 13.3337 3.64646 13.3337 4.00008V13.3334C13.3337 13.687 13.1932 14.0262 12.9431 14.2762C12.6931 14.5263 12.3539 14.6667 12.0003 14.6667H4.00033C3.6467 14.6667 3.30756 14.5263 3.05752 14.2762C2.80747 14.0262 2.66699 13.687 2.66699 13.3334V4.00008C2.66699 3.64646 2.80747 3.30732 3.05752 3.05727C3.30756 2.80722 3.6467 2.66675 4.00033 2.66675H5.33366" stroke="#555555" stroke-width="1.5" stroke-linecap="round" stroke-linejoin="round"/>
<path d="M5.33325 6.66675L10.6666 6.66675M5.33325 9.33342L10.6666 9.33341M5.33325 12.0001L7.99992 12.0001" stroke="#555555" stroke-linecap="round" stroke-linejoin="round"/>
<path d="M9.99967 1.33325H5.99967C5.63148 1.33325 5.33301 1.63173 5.33301 1.99992V3.33325C5.33301 3.70144 5.63148 3.99992 5.99967 3.99992H9.99967C10.3679 3.99992 10.6663 3.70144 10.6663 3.33325V1.99992C10.6663 1.63173 10.3679 1.33325 9.99967 1.33325Z" stroke="#555555" stroke-width="1.5" stroke-linecap="round" stroke-linejoin="round"/>
</svg>
