<svg width="10" height="13" viewBox="0 0 10 13" fill="none" xmlns="http://www.w3.org/2000/svg">
<path d="M4.91041 11.75C3.98884 10.7663 3.17946 9.69116 2.496 8.54296C1.91276 7.67361 1.51156 6.70393 1.31475 5.68791C1.1616 5.08864 1.17343 4.46157 1.34909 3.868C1.52475 3.27443 1.85823 2.73467 2.31691 2.30152C3.01371 1.64491 3.94662 1.26888 4.92393 1.25069C5.90123 1.23251 6.84868 1.57355 7.57158 2.20374C8.26644 2.80849 8.69676 3.64259 8.77616 4.53862C8.7782 4.54082 8.77977 4.54339 8.78077 4.54617C8.78177 4.54895 8.78219 4.55189 8.782 4.55483C8.782 4.56544 8.782 4.57606 8.782 4.58723C8.78783 4.67216 8.79133 4.75485 8.79133 4.84033V4.85877C8.79133 4.92693 8.79133 4.99342 8.78433 5.06158C8.7607 5.43129 8.67665 5.79516 8.53525 6.13991C8.34165 6.69207 8.11494 7.23306 7.85625 7.76019C7.3483 8.80084 6.70694 9.7768 5.947 10.6655C5.62654 11.0481 5.28027 11.4108 4.91041 11.75ZM5.00025 3.26978C4.72287 3.27275 4.45261 3.35426 4.22349 3.50404C3.99437 3.65382 3.81663 3.86517 3.71266 4.1115C3.60868 4.35782 3.58311 4.6281 3.63917 4.88831C3.69523 5.14852 3.8304 5.38703 4.02768 5.57381C4.22496 5.7606 4.47553 5.88731 4.74783 5.93799C5.02014 5.98867 5.30201 5.96106 5.55797 5.85863C5.81392 5.7562 6.03252 5.58354 6.18624 5.36237C6.33996 5.1412 6.42193 4.88142 6.42183 4.61573C6.41921 4.25682 6.26807 3.91356 6.00157 3.66124C5.73508 3.40892 5.37497 3.26814 5.00025 3.26978Z" stroke="#555555" stroke-width="1.5"/>
</svg>
