<svg width="24" height="24" viewBox="0 0 24 24" fill="none" xmlns="http://www.w3.org/2000/svg">
<path d="M9.33655 9.7781V6.81534C9.3415 6.61592 9.38686 6.4194 9.47006 6.23701C9.55326 6.05462 9.67265 5.88994 9.82142 5.75237C9.97019 5.6148 10.1454 5.50704 10.3371 5.43525C10.5288 5.36345 10.7331 5.32904 10.9385 5.33396H15.7315C15.9369 5.32904 16.1413 5.36345 16.3329 5.43525C16.5246 5.50704 16.6998 5.6148 16.8486 5.75237C16.9974 5.88994 17.1168 6.05462 17.2 6.23701C17.2832 6.4194 17.3285 6.61592 17.3335 6.81534V17.185C17.3285 17.3844 17.2832 17.5809 17.2 17.7633C17.1168 17.9457 16.9974 18.1104 16.8486 18.248C16.6998 18.3855 16.5246 18.4933 16.3329 18.5651C16.1413 18.6369 15.9369 18.6713 15.7315 18.6664H10.9355C10.7301 18.6713 10.5257 18.6369 10.3341 18.5651C10.1424 18.4933 9.96714 18.3855 9.81837 18.248C9.6696 18.1104 9.55021 17.9457 9.46701 17.7633C9.38381 17.5809 9.33844 17.3844 9.3335 17.185V14.2222" stroke="#555555" stroke-width="1.3" stroke-linecap="round" stroke-linejoin="round"/>
<path d="M6 12.333L15.0986 12.3693" stroke="#555555" stroke-width="1.3" stroke-linecap="round" stroke-linejoin="bevel"/>
<path d="M12.5308 15.1483L14.9253 12.7305C14.9793 12.6772 15.0224 12.6127 15.0518 12.541C15.0812 12.4694 15.0964 12.3921 15.0964 12.314C15.0964 12.2358 15.0812 12.1585 15.0518 12.0869C15.0224 12.0152 14.9793 11.9507 14.9253 11.8974L12.57 9.51904" stroke="#555555" stroke-width="1.3" stroke-linecap="round" stroke-linejoin="bevel"/>
</svg>
