<svg width="17" height="16" viewBox="0 0 17 16" fill="none" xmlns="http://www.w3.org/2000/svg">
<path d="M6.05822 5.96313V3.24727C6.06275 3.06447 6.10434 2.88433 6.18061 2.71714C6.25687 2.54995 6.36631 2.39899 6.50269 2.27288C6.63906 2.14678 6.79969 2.048 6.97539 1.98219C7.1511 1.91638 7.33843 1.88483 7.5267 1.88934H11.9203C12.1085 1.88483 12.2959 1.91638 12.4716 1.98219C12.6473 2.048 12.8079 2.14678 12.9443 2.27288C13.0807 2.39899 13.1901 2.54995 13.2664 2.71714C13.3426 2.88433 13.3842 3.06447 13.3888 3.24727V12.7528C13.3842 12.9356 13.3426 13.1157 13.2664 13.2829C13.1901 13.4501 13.0807 13.6011 12.9443 13.7272C12.8079 13.8533 12.6473 13.9521 12.4716 14.0179C12.2959 14.0837 12.1085 14.1152 11.9203 14.1107H7.5239C7.33564 14.1152 7.1483 14.0837 6.9726 14.0179C6.79689 13.9521 6.63626 13.8533 6.49989 13.7272C6.36352 13.6011 6.25407 13.4501 6.17781 13.2829C6.10154 13.1157 6.05996 12.9356 6.05542 12.7528V10.0369" stroke="#EE4343" stroke-width="1.0625" stroke-linecap="round" stroke-linejoin="round"/>
<path d="M3 8.30518L11.3404 8.33848" stroke="#EE4343" stroke-width="1.0625" stroke-linecap="round" stroke-linejoin="bevel"/>
<path d="M8.98682 10.8855L11.1819 8.6692C11.2313 8.62032 11.2708 8.5612 11.2978 8.49551C11.3247 8.42982 11.3387 8.35897 11.3387 8.28735C11.3387 8.21573 11.3247 8.14488 11.2978 8.07919C11.2708 8.0135 11.2313 7.95438 11.1819 7.9055L9.02279 5.72534" stroke="#EE4343" stroke-width="1.0625" stroke-linecap="round" stroke-linejoin="bevel"/>
</svg>
