<svg width="24" height="24" viewBox="0 0 24 24" fill="none" xmlns="http://www.w3.org/2000/svg">
<path d="M11.8823 19C10.667 17.6883 9.59972 16.2549 8.69845 14.7239C7.92934 13.5648 7.40029 12.2719 7.14076 10.9172C6.9388 10.1182 6.9544 9.28209 7.18605 8.49066C7.41769 7.69923 7.85744 6.97957 8.4623 6.40202C9.38115 5.52655 10.6114 5.02517 11.9001 5.00092C13.1889 4.97668 14.4383 5.4314 15.3915 6.27165C16.3078 7.07798 16.8753 8.19012 16.98 9.38483C16.9827 9.38777 16.9847 9.39119 16.9861 9.39489C16.9874 9.3986 16.9879 9.40252 16.9877 9.40644C16.9877 9.42059 16.9877 9.43475 16.9877 9.44964C16.9954 9.56288 17 9.67313 17 9.78711V9.81169C17 9.90258 17 9.99123 16.9908 10.0821C16.9596 10.5751 16.8488 11.0602 16.6623 11.5199C16.407 12.2561 16.1081 12.9774 15.7669 13.6803C15.0971 15.0678 14.2514 16.3691 13.2492 17.554C12.8266 18.0642 12.37 18.5477 11.8823 19ZM12.0008 7.69303C11.635 7.697 11.2786 7.80568 10.9765 8.00539C10.6743 8.20509 10.4399 8.4869 10.3028 8.81533C10.1657 9.14376 10.132 9.50413 10.2059 9.85108C10.2799 10.198 10.4581 10.516 10.7183 10.7651C10.9784 11.0141 11.3088 11.1831 11.6679 11.2507C12.027 11.3182 12.3987 11.2814 12.7362 11.1448C13.0737 11.0083 13.362 10.778 13.5647 10.4832C13.7674 10.1883 13.8755 9.84189 13.8754 9.48764C13.8719 9.0091 13.6726 8.55142 13.3212 8.21499C12.9698 7.87856 12.4949 7.69085 12.0008 7.69303Z" stroke="#555555" stroke-width="1.3"/>
</svg>
