<svg width="24" height="24" viewBox="0 0 24 24" fill="none" xmlns="http://www.w3.org/2000/svg">
<path d="M9.34717 18.375L9.7461 17.065C9.93149 16.1861 10.4416 15.3887 11.1942 14.8013C11.9468 14.214 12.898 13.871 13.8945 13.8276" stroke="#555555" stroke-width="1.3" stroke-linecap="round" stroke-linejoin="round"/>
<path d="M13.8948 13.8276C15.1505 13.8276 16.1685 12.8097 16.1685 11.554C16.1685 10.2982 15.1505 9.28027 13.8948 9.28027C12.6391 9.28027 11.6211 10.2982 11.6211 11.554C11.6211 12.8097 12.6391 13.8276 13.8948 13.8276Z" stroke="#555555" stroke-width="1.3" stroke-linecap="round" stroke-linejoin="bevel"/>
<path d="M4.7998 15.0401L5.13224 13.5118C5.28674 12.4864 5.71182 11.556 6.33898 10.8709C6.96613 10.1857 7.75882 9.7855 8.58928 9.73486" stroke="#555555" stroke-width="1.3" stroke-linecap="round" stroke-linejoin="round"/>
<path d="M8.58911 9.73487C9.84483 9.73487 10.8628 8.7169 10.8628 7.46118C10.8628 6.20546 9.84483 5.1875 8.58911 5.1875C7.33339 5.1875 6.31543 6.20546 6.31543 7.46118C6.31543 8.7169 7.33339 9.73487 8.58911 9.73487Z" stroke="#555555" stroke-width="1.3" stroke-linecap="round" stroke-linejoin="bevel"/>
<path d="M16.926 19.1328C18.1817 19.1328 19.1997 18.1149 19.1997 16.8591C19.1997 15.6034 18.1817 14.5854 16.926 14.5854C15.6703 14.5854 14.6523 15.6034 14.6523 16.8591C14.6523 18.1149 15.6703 19.1328 16.926 19.1328Z" stroke="#555555" stroke-linecap="round" stroke-linejoin="round"/>
<path d="M15.7134 16.7838L16.4207 17.6169L17.9871 16.1011" stroke="#555555" stroke-linecap="round" stroke-linejoin="round"/>
</svg>
