<svg width="24" height="24" viewBox="0 0 24 24" fill="none" xmlns="http://www.w3.org/2000/svg">
<path fill-rule="evenodd" clip-rule="evenodd" d="M17.4446 16.6667H6.55566L8.28 8.04967C8.45205 7.1897 8.91672 6.41591 9.59496 5.8599C10.2732 5.3039 11.1231 5.00004 12.0001 5V5C12.8771 5.00004 13.727 5.3039 14.4053 5.8599C15.0835 6.41591 15.5482 7.1897 15.7202 8.04967L17.4446 16.6667Z" stroke="#555555" stroke-width="1.5" stroke-linecap="round" stroke-linejoin="round"/>
<path d="M5 16.6665H19" stroke="#555555" stroke-width="1.5" stroke-linecap="round" stroke-linejoin="round"/>
<path d="M14.3332 16.6665C14.3332 17.2853 14.0873 17.8788 13.6498 18.3164C13.2122 18.754 12.6187 18.9998 11.9998 18.9998C11.381 18.9998 10.7875 18.754 10.3499 18.3164C9.91234 17.8788 9.6665 17.2853 9.6665 16.6665" stroke="#555555" stroke-width="1.5" stroke-linecap="round" stroke-linejoin="round"/>
</svg>
