<svg width="24" height="24" viewBox="0 0 24 24" fill="none" xmlns="http://www.w3.org/2000/svg">
<path d="M12.4822 4.77832H11.7187C11.1394 4.85294 10.5875 5.0667 10.111 5.40094C9.63449 5.73518 9.24801 6.17973 8.98529 6.69575C8.72256 7.21177 8.59159 7.78357 8.60381 8.36119C8.61603 8.93882 8.77107 9.5047 9.05538 10.0094L11.7153 14.9034C11.7522 14.9732 11.8078 15.0316 11.8759 15.0724C11.9441 15.1132 12.0222 15.1347 12.1018 15.1347C12.1814 15.1347 12.2595 15.1132 12.3277 15.0724C12.3958 15.0316 12.4514 14.9732 12.4883 14.9034L15.1469 10.0243C15.4303 9.5183 15.5847 8.95156 15.5965 8.37322C15.6084 7.79489 15.4773 7.22244 15.2148 6.70555C14.9522 6.18866 14.5661 5.74295 14.0899 5.4071C13.6137 5.07125 13.0618 4.85542 12.4822 4.77832Z" stroke="#555555" stroke-width="1.1" stroke-linecap="round" stroke-linejoin="bevel"/>
<path fill-rule="evenodd" clip-rule="evenodd" d="M9.50913 10.8441C9.38855 10.8281 9.26386 10.8523 9.15571 10.9166L7.81218 11.7155C7.67894 11.7947 7.58532 11.9265 7.55435 12.0784L6.21081 18.669C6.16733 18.8822 6.25373 19.1011 6.43118 19.2272C6.60862 19.3532 6.84372 19.3628 7.03082 19.2516L9.43681 17.821L11.8428 19.2516C12.016 19.3546 12.2317 19.3546 12.405 19.2516L14.811 17.821L17.2169 19.2516C17.404 19.3628 17.6391 19.3532 17.8166 19.2272C17.994 19.1011 18.0804 18.8822 18.0369 18.669L16.6934 12.0784C16.6624 11.9265 16.5688 11.7947 16.4356 11.7155L15.092 10.9166C14.9711 10.8447 14.8295 10.823 14.6961 10.8515L13.6917 12.6947L14.811 12.0292L15.6642 12.5366L16.7109 17.6709L15.092 16.7083C14.9188 16.6053 14.7031 16.6053 14.5299 16.7083L12.1239 18.1389L9.7179 16.7083C9.54466 16.6053 9.32895 16.6053 9.15571 16.7083L7.5369 17.6709L8.58357 12.5366L9.43681 12.0292L10.4953 12.6586L9.50913 10.8441Z" fill="#555555"/>
<path d="M13.3542 8.20265C13.3542 7.51741 12.7925 6.96191 12.0997 6.96191C11.4069 6.96191 10.8452 7.51741 10.8452 8.20265C10.8452 8.88789 11.4069 9.44338 12.0997 9.44338C12.7925 9.44338 13.3542 8.88789 13.3542 8.20265Z" stroke="#555555" stroke-linecap="round" stroke-linejoin="bevel"/>
</svg>
