<svg width="24" height="24" viewBox="0 0 24 24" fill="none" xmlns="http://www.w3.org/2000/svg">
<path d="M12.347 21C10.7671 19.3136 9.37963 17.4706 8.20798 15.5022C7.20814 14.0119 6.52038 12.3496 6.18298 10.6078C5.92044 9.58053 5.94073 8.50555 6.24186 7.488C6.54299 6.47044 7.11467 5.54516 7.90098 4.8026C9.09549 3.67699 10.6948 3.03236 12.3701 3.00119C14.0455 2.97001 15.6697 3.55466 16.909 4.63498C18.1002 5.67169 18.8379 7.10159 18.974 8.63764C18.9775 8.64141 18.9802 8.64581 18.9819 8.65058C18.9836 8.65534 18.9843 8.66039 18.984 8.66542C18.984 8.68362 18.984 8.70182 18.984 8.72097C18.994 8.86656 19 9.00831 19 9.15486V9.18646C19 9.30331 19 9.41729 18.988 9.53415C18.9475 10.1679 18.8034 10.7917 18.561 11.3827C18.2291 12.3293 17.8405 13.2567 17.397 14.1603C16.5262 15.9443 15.4267 17.6174 14.124 19.1409C13.5746 19.7968 12.981 20.4184 12.347 21ZM12.501 6.46247C12.0255 6.46758 11.5622 6.6073 11.1694 6.86407C10.7766 7.12083 10.4719 7.48315 10.2937 7.90542C10.1154 8.32769 10.0716 8.79102 10.1677 9.2371C10.2638 9.68318 10.4955 10.0921 10.8337 10.4123C11.1719 10.7325 11.6015 10.9497 12.0683 11.0366C12.5351 11.1234 13.0183 11.0761 13.4571 10.9005C13.8959 10.7249 14.2706 10.4289 14.5341 10.0498C14.7976 9.67063 14.9382 9.22529 14.938 8.76982C14.9335 8.15455 14.6744 7.56611 14.2175 7.13356C13.7607 6.70101 13.1434 6.45967 12.501 6.46247Z" stroke="#555555" stroke-width="1.5"/>
</svg>
