<svg width="39" height="45" viewBox="0 0 39 45" fill="none" xmlns="http://www.w3.org/2000/svg">
<g filter="url(#filter0_d_4015_334)">
<path d="M30 13.4994C30 20.6338 21.0409 29.7703 19.5001 29.7703C17.3716 29.7703 9 20.6328 9 13.4994C9 12.1205 9.27159 10.7551 9.79928 9.4812C10.327 8.20728 11.1004 7.04979 12.0754 6.07478C13.0505 5.09977 14.208 4.32635 15.4819 3.7987C16.7558 3.27104 18.1212 2.99948 19.5001 2.99951C22.2849 2.99951 24.9555 4.10573 26.9247 6.07484C28.8938 8.04395 30 10.7146 30 13.4994Z" fill="white"/>
</g>
<path d="M19.4537 28.711C18.7489 28.5142 16.5101 26.7163 14.1706 23.5218C11.5498 19.9431 10.0469 16.2905 10.0469 13.5002C10.0497 10.9938 11.0466 8.59094 12.8189 6.81867C14.5912 5.0464 16.9941 4.0495 19.5005 4.04663C22.0068 4.0495 24.4097 5.0464 26.182 6.81867C27.9543 8.59094 28.9512 10.9938 28.954 13.5002C28.954 17.1658 26.3121 21.2497 24.7371 23.3573C22.4381 26.4349 20.1539 28.4099 19.4537 28.711Z" fill="#FFC117"/>
<path d="M14.7129 14.2067C14.7158 14.0396 14.7523 13.8746 14.8205 13.7213C14.8886 13.568 14.987 13.4293 15.11 13.3132C15.233 13.1971 15.3782 13.1058 15.5372 13.0446C15.6963 12.9834 15.8662 12.9534 16.0371 12.9565C16.2069 12.9538 16.3755 12.9841 16.5331 13.0457C16.6908 13.1073 16.8343 13.1989 16.9554 13.3152C17.0765 13.4316 17.1727 13.5703 17.2385 13.7233C17.3043 13.8764 17.3382 14.0407 17.3385 14.2066L17.3384 15.4679C17.3442 16.0148 17.5704 16.5374 17.9679 16.9221C18.3654 17.3069 18.9022 17.5227 19.4615 17.5226C20.0209 17.5226 20.5576 17.3068 20.9552 16.922C21.3527 16.5373 21.579 16.0147 21.5847 15.4678L21.5847 14.2065C21.5876 14.0394 21.6242 13.8745 21.6923 13.7212C21.7605 13.5679 21.8589 13.4292 21.9818 13.3131C22.1048 13.197 22.25 13.1057 22.4091 13.0445C22.5681 12.9833 22.738 12.9533 22.9089 12.9563C23.0786 12.9536 23.2472 12.984 23.4048 13.0456C23.5624 13.1072 23.706 13.1988 23.827 13.3151C23.9481 13.4315 24.0443 13.5702 24.1101 13.7232C24.1758 13.8762 24.2098 14.0405 24.21 14.2065L24.21 15.4677C24.1799 16.6796 23.6664 17.8321 22.7791 18.6788C21.8919 19.5256 20.7012 19.9996 19.4614 19.9997C18.2216 19.9997 17.0309 19.5257 16.1437 18.679C15.2565 17.8323 14.7431 16.6799 14.7131 15.4679L14.7129 14.2067Z" fill="#176CF7"/>
<path d="M17.3577 11.084C17.3577 11.3396 17.2801 11.5895 17.1348 11.802C16.9894 12.0145 16.7829 12.1801 16.5413 12.278C16.2996 12.3758 16.0337 12.4014 15.7772 12.3515C15.5207 12.3016 15.2851 12.1786 15.1002 11.9978C14.9152 11.8171 14.7893 11.5868 14.7383 11.3361C14.6872 11.0854 14.7134 10.8256 14.8135 10.5894C14.9136 10.3532 15.0831 10.1514 15.3005 10.0093C15.518 9.86732 15.7737 9.7915 16.0352 9.79147C16.3859 9.79149 16.7223 9.92767 16.9703 10.1701C17.2183 10.4124 17.3577 10.7412 17.3577 11.084Z" fill="#176CF7"/>
<path d="M24.2034 11.0063C24.2034 11.262 24.1258 11.5118 23.9805 11.7243C23.8351 11.9369 23.6286 12.1025 23.387 12.2003C23.1453 12.2981 22.8794 12.3237 22.6229 12.2739C22.3664 12.224 22.1308 12.1009 21.9459 11.9202C21.7609 11.7394 21.635 11.5092 21.584 11.2585C21.5329 11.0078 21.5591 10.7479 21.6592 10.5118C21.7593 10.2756 21.9288 10.0737 22.1462 9.93171C22.3637 9.78968 22.6194 9.71386 22.8809 9.71383C23.2316 9.71385 23.568 9.85003 23.816 10.0924C24.064 10.3348 24.2034 10.6635 24.2034 11.0063Z" fill="#176CF7"/>
<defs>
<filter id="filter0_d_4015_334" x="0" y="-0.000488281" width="39" height="44.7708" filterUnits="userSpaceOnUse" color-interpolation-filters="sRGB">
<feFlood flood-opacity="0" result="BackgroundImageFix"/>
<feColorMatrix in="SourceAlpha" type="matrix" values="0 0 0 0 0 0 0 0 0 0 0 0 0 0 0 0 0 0 127 0" result="hardAlpha"/>
<feOffset dy="6"/>
<feGaussianBlur stdDeviation="4.5"/>
<feColorMatrix type="matrix" values="0 0 0 0 0 0 0 0 0 0 0 0 0 0 0 0 0 0 0.161 0"/>
<feBlend mode="normal" in2="BackgroundImageFix" result="effect1_dropShadow_4015_334"/>
<feBlend mode="normal" in="SourceGraphic" in2="effect1_dropShadow_4015_334" result="shape"/>
</filter>
</defs>
</svg>
