<svg width="25" height="24" viewBox="0 0 25 24" fill="none" xmlns="http://www.w3.org/2000/svg">
<path d="M12.5459 8C13.6459 8 14.5459 7.1 14.5459 6C14.5459 4.9 13.6459 4 12.5459 4C11.4459 4 10.5459 4.9 10.5459 6C10.5459 7.1 11.4459 8 12.5459 8ZM12.5459 10C11.4459 10 10.5459 10.9 10.5459 12C10.5459 13.1 11.4459 14 12.5459 14C13.6459 14 14.5459 13.1 14.5459 12C14.5459 10.9 13.6459 10 12.5459 10ZM12.5459 16C11.4459 16 10.5459 16.9 10.5459 18C10.5459 19.1 11.4459 20 12.5459 20C13.6459 20 14.5459 19.1 14.5459 18C14.5459 16.9 13.6459 16 12.5459 16Z" fill="#555555"/>
</svg>
