<svg width="25" height="25" viewBox="0 0 25 25" fill="none" xmlns="http://www.w3.org/2000/svg">
<path d="M16.09 12.9V16.97C16.09 17.33 16.05 17.67 15.96 17.98C15.59 19.45 14.37 20.37 12.69 20.37H9.97L6.95 22.38C6.5 22.69 5.9 22.36 5.9 21.82V20.37C4.88 20.37 4.03 20.03 3.44 19.44C2.84 18.84 2.5 17.99 2.5 16.97V12.9C2.5 11 3.68 9.69 5.5 9.52C5.63 9.51 5.76 9.5 5.9 9.5H12.69C14.73 9.5 16.09 10.86 16.09 12.9Z" fill="white"/>
<path d="M18.25 16.1C19.52 16.1 20.59 15.68 21.33 14.93C22.08 14.19 22.5 13.12 22.5 11.85V6.75C22.5 4.4 20.6 2.5 18.25 2.5H9.75C7.4 2.5 5.5 4.4 5.5 6.75V7.5C5.5 7.78 5.72 8 6 8H12.69C15.4 8 17.59 10.19 17.59 12.9V15.6C17.59 15.88 17.81 16.1 18.09 16.1H18.25Z" fill="white"/>
</svg>
