<svg width="24" height="25" viewBox="0 0 24 25" fill="none" xmlns="http://www.w3.org/2000/svg">
<path d="M15.59 13.15V17.22C15.59 17.58 15.55 17.92 15.46 18.23C15.09 19.7 13.87 20.62 12.19 20.62H9.47L6.45 22.63C6 22.94 5.4 22.61 5.4 22.07V20.62C4.38 20.62 3.53 20.28 2.94 19.69C2.34 19.09 2 18.24 2 17.22V13.15C2 11.25 3.18 9.94 5 9.77C5.13 9.76 5.26 9.75 5.4 9.75H12.19C14.23 9.75 15.59 11.11 15.59 13.15Z" fill="white"/>
<path d="M17.75 16.35C19.02 16.35 20.09 15.93 20.83 15.18C21.58 14.44 22 13.37 22 12.1V7C22 4.65 20.1 2.75 17.75 2.75H9.25C6.9 2.75 5 4.65 5 7V7.75C5 8.03 5.22 8.25 5.5 8.25H12.19C14.9 8.25 17.09 10.44 17.09 13.15V15.85C17.09 16.13 17.31 16.35 17.59 16.35H17.75Z" fill="white"/>
</svg>
