<svg width="24" height="24" viewBox="0 0 24 24" fill="none" xmlns="http://www.w3.org/2000/svg">
<g clip-path="url(#clip0_2069_10464)">
<path fill-rule="evenodd" clip-rule="evenodd" d="M8.53199 5.2C6.50799 5.2 5.19999 6.5864 5.19999 8.7328V15.2672C5.19999 17.4136 6.50799 18.8 8.53199 18.8H15.4664C17.4912 18.8 18.8 17.4136 18.8 15.2672V8.7328C18.8 6.5864 17.4912 5.2 15.4672 5.2H8.53199ZM15.4664 20H8.532C5.8208 20 4 18.0976 4 15.2672V8.7328C4 5.9024 5.8208 4 8.532 4H15.4672C18.1784 4 20 5.9024 20 8.7328V15.2672C20 18.0976 18.1784 20 15.4664 20V20Z" fill="#555555"/>
<path fill-rule="evenodd" clip-rule="evenodd" d="M8.86497 12.4178C8.75636 12.3092 8.68904 12.1593 8.68961 11.9936C8.68961 11.6621 8.95774 11.394 9.28924 11.394H14.7108C15.0423 11.394 15.3104 11.6621 15.3104 11.9936C15.3104 12.3251 15.0423 12.5932 14.7108 12.5932H9.28924C9.12349 12.5938 8.97358 12.5265 8.86497 12.4178" fill="#555555"/>
</g>
<defs>
<clipPath id="clip0_2069_10464">
<rect width="16" height="16" fill="white" transform="translate(4 4)"/>
</clipPath>
</defs>
</svg>
