<svg width="16" height="16" viewBox="0 0 16 16" fill="none" xmlns="http://www.w3.org/2000/svg">
<path d="M3.66972 11.419H3.19716C2.87965 11.419 2.57515 11.2928 2.35064 11.0683C2.12613 10.8438 2 10.5393 2 10.2218V4.53035C2 4.21284 2.12613 3.90834 2.35064 3.68383C2.57515 3.45932 2.87965 3.33319 3.19716 3.33319H9.04792C9.20514 3.33319 9.36081 3.36416 9.50606 3.42432C9.6513 3.48448 9.78328 3.57266 9.89444 3.68383C10.0056 3.795 10.0938 3.92697 10.154 4.07222C10.2141 4.21746 10.2451 4.37314 10.2451 4.53035V8.66549" fill="#7B7B7B"/>
<path d="M10.229 5.54819H11.8942C12.0013 5.54809 12.1071 5.57234 12.2035 5.61912C12.2998 5.66591 12.3843 5.73399 12.4505 5.81822L13.8007 7.61396C13.9389 7.79882 14.0143 8.02311 14.0158 8.25394V11.2459C14.0158 11.2777 14.0032 11.3081 13.9807 11.3306C13.9583 11.353 13.9278 11.3657 13.8961 11.3657H12.0742" fill="#7B7B7B"/>
<path d="M10.6835 12.6519C11.4238 12.6519 12.0238 12.0519 12.0238 11.3117C12.0238 10.5714 11.4238 9.97137 10.6835 9.97137C9.94332 9.97137 9.34326 10.5714 9.34326 11.3117C9.34326 12.0519 9.94332 12.6519 10.6835 12.6519Z" fill="#555555"/>
<path d="M5.00385 12.6519C5.74406 12.6519 6.34413 12.0519 6.34413 11.3117C6.34413 10.5714 5.74406 9.97137 5.00385 9.97137C4.26364 9.97137 3.66357 10.5714 3.66357 11.3117C3.66357 12.0519 4.26364 12.6519 5.00385 12.6519Z" fill="#555555"/>
</svg>
