<svg width="136" height="32" viewBox="0 0 136 32" fill="none" xmlns="http://www.w3.org/2000/svg">
<path d="M48.3831 14.6432C48.3831 17.1438 47.6448 19.5883 46.2616 21.6675C44.8785 23.7467 42.9125 25.3672 40.6124 26.3241C38.3123 27.281 35.7813 27.5313 33.3396 27.0434C30.8978 26.5554 28.655 25.3512 26.8946 23.5829C25.1343 21.8146 23.9356 19.5617 23.45 17.1091C22.9644 14.6565 23.2139 12.1143 24.1667 9.8041C25.1196 7.49387 26.7331 5.51935 28.8033 4.13023C30.8734 2.74111 33.3071 1.99979 35.7967 2C37.4497 2 39.0866 2.32703 40.6137 2.96241C42.1409 3.59778 43.5285 4.52907 44.6974 5.7031C45.8662 6.87713 46.7934 8.27091 47.426 9.80485C48.0585 11.3388 48.3841 12.9829 48.3841 14.6432" fill="#FFC117"/>
<path d="M1.77395 8.43887C2.0665 8.43509 2.35512 8.50665 2.61231 8.64674C2.86949 8.78683 3.08664 8.99078 3.24306 9.23911C4.4812 8.56041 5.90541 8.30429 7.30108 8.50934C8.69675 8.71439 9.98826 9.3695 10.981 10.376C11.8559 9.47222 12.9768 8.84781 14.2033 8.58092C15.4298 8.31402 16.7074 8.4165 17.8763 8.87552C19.0451 9.33455 20.0531 10.1297 20.7741 11.1615C21.4951 12.1932 21.897 13.4157 21.9296 14.6758V20.5131C21.9152 20.9727 21.7207 21.4079 21.3885 21.7243C21.0564 22.0407 20.6133 22.2126 20.1556 22.2026C19.9306 22.2071 19.707 22.1669 19.4975 22.0843C19.288 22.0017 19.0968 21.8784 18.9349 21.7214C18.773 21.5644 18.6436 21.3769 18.554 21.1695C18.4644 20.9622 18.4165 20.7391 18.413 20.5131V14.6769C18.413 13.9192 18.1134 13.1926 17.58 12.6568C17.0466 12.1211 16.3232 11.8201 15.5689 11.8201C14.8145 11.8201 14.0911 12.1211 13.5577 12.6568C13.0243 13.1926 12.7247 13.9192 12.7247 14.6769V20.5131C12.7212 20.7391 12.6733 20.9622 12.5837 21.1695C12.4941 21.3769 12.3647 21.5644 12.2028 21.7214C12.0409 21.8784 11.8497 22.0017 11.6402 22.0843C11.4307 22.1669 11.2071 22.2071 10.9821 22.2026C10.5241 22.2131 10.0804 22.0415 9.74777 21.7251C9.41512 21.4087 9.22039 20.973 9.20597 20.5131V14.6769C9.20597 13.9192 8.90632 13.1926 8.37293 12.6568C7.83955 12.1211 7.11612 11.8201 6.3618 11.8201C5.60749 11.8201 4.88406 12.1211 4.35068 12.6568C3.81729 13.1926 3.51764 13.9192 3.51764 14.6769V20.5131C3.51413 20.7391 3.46621 20.9622 3.37665 21.1695C3.28708 21.3769 3.15763 21.5644 2.99572 21.7214C2.83381 21.8784 2.64263 22.0017 2.43315 22.0843C2.22368 22.1669 2.00002 22.2071 1.77504 22.2026C1.31719 22.2129 0.873833 22.0411 0.541418 21.7247C0.209003 21.4083 0.0144203 20.9729 0 20.5131V10.1306C0.0138621 9.67061 0.208051 9.23478 0.540292 8.91794C0.872534 8.60111 1.31593 8.42892 1.77395 8.43887Z" fill="white"/>
<path d="M49.6658 15.3219C49.6771 14.4059 49.868 13.5012 50.2278 12.6594C50.5875 11.8177 51.109 11.0555 51.7624 10.4164C52.4157 9.77729 53.1881 9.27386 54.0354 8.93492C54.8826 8.59597 55.7881 8.42816 56.7 8.44107C57.9822 8.4413 59.2403 8.79146 60.3398 9.45414C60.4769 9.14081 60.7052 8.87642 60.9945 8.69564C61.2839 8.51486 61.6209 8.42613 61.9613 8.44107C62.1864 8.43647 62.4102 8.47658 62.6198 8.55909C62.8294 8.6416 63.0207 8.76489 63.1827 8.92188C63.3447 9.07887 63.4742 9.26647 63.5639 9.4739C63.6535 9.68133 63.7015 9.9045 63.705 10.1306V20.5131C63.7015 20.7392 63.6535 20.9624 63.5639 21.1698C63.4742 21.3772 63.3447 21.5648 63.1827 21.7218C63.0207 21.8788 62.8294 22.0021 62.6198 22.0846C62.4102 22.1671 62.1864 22.2072 61.9613 22.2026C61.6209 22.2176 61.2839 22.1289 60.9945 21.9481C60.7052 21.7673 60.4769 21.5029 60.3398 21.1896C59.2403 21.8524 57.9822 22.2025 56.7 22.2026C55.7881 22.2156 54.8826 22.0477 54.0354 21.7088C53.1881 21.3699 52.4157 20.8664 51.7624 20.2273C51.109 19.5882 50.5875 18.826 50.2278 17.9843C49.868 17.1425 49.6771 16.2378 49.6658 15.3219ZM53.1823 15.3219C53.1738 16.0188 53.3715 16.7027 53.7505 17.2866C54.1295 17.8705 54.6727 18.3281 55.311 18.6015C55.9494 18.8748 56.6542 18.9515 57.3361 18.8219C58.0179 18.6922 58.6461 18.362 59.1408 17.8732C59.6355 17.3844 59.9745 16.759 60.1148 16.0764C60.255 15.3937 60.1903 14.6846 59.9286 14.039C59.667 13.3934 59.2204 12.8404 58.6454 12.4502C58.0703 12.06 57.3928 11.8501 56.6989 11.8473C56.2407 11.8431 55.7863 11.9297 55.3615 12.1022C54.9367 12.2746 54.55 12.5295 54.2234 12.8522C53.8967 13.1749 53.6367 13.5591 53.4581 13.9829C53.2794 14.4067 53.1857 14.8617 53.1823 15.3219Z" fill="white"/>
<path d="M66.0901 15.9669V6.22826C66.1045 5.76869 66.2989 5.33341 66.6311 5.01704C66.9633 4.70067 67.4064 4.52878 67.864 4.53874C68.0891 4.53414 68.3129 4.57424 68.5225 4.65675C68.7321 4.73927 68.9234 4.86256 69.0854 5.01955C69.2475 5.17654 69.377 5.36414 69.4666 5.57157C69.5563 5.779 69.6042 6.00217 69.6077 6.22826V8.41074H71.8098C72.0377 8.40257 72.265 8.44061 72.478 8.5226C72.6911 8.60459 72.8854 8.72884 73.0496 8.88795C73.2138 9.04705 73.3443 9.23775 73.4335 9.44865C73.5227 9.65955 73.5686 9.88633 73.5686 10.1155C73.5686 10.3446 73.5227 10.5714 73.4335 10.7823C73.3443 10.9932 73.2138 11.1839 73.0496 11.343C72.8854 11.5021 72.6911 11.6263 72.478 11.7083C72.265 11.7903 72.0377 11.8284 71.8098 11.8202H69.6077V15.968C69.6134 16.7208 69.916 17.4406 70.4491 17.9698C70.9822 18.4989 71.7024 18.7943 72.4519 18.7911H73.7664C73.9965 18.7794 74.2265 18.8149 74.4426 18.8953C74.6586 18.9757 74.8561 19.0994 75.0231 19.2588C75.19 19.4183 75.3229 19.6101 75.4138 19.8228C75.5046 20.0354 75.5515 20.2644 75.5515 20.4958C75.5515 20.7272 75.5046 20.9562 75.4138 21.1689C75.3229 21.3815 75.19 21.5734 75.0231 21.7328C74.8561 21.8923 74.6586 22.016 74.4426 22.0964C74.2265 22.1768 73.9965 22.2122 73.7664 22.2005H72.4519C71.6266 22.2107 70.8073 22.0575 70.041 21.7496C69.2746 21.4417 68.5761 20.9852 67.9855 20.4061C67.3948 19.827 66.9235 19.1368 66.5984 18.3747C66.2734 17.6126 66.1011 16.7937 66.0912 15.9647" fill="white"/>
<path d="M71.4439 8.44092H61.8672V11.7993H71.4439V8.44092Z" fill="white"/>
<path d="M29.4324 14.2305C29.4363 14.0005 29.4853 13.7736 29.5766 13.5627C29.6679 13.3517 29.7997 13.161 29.9645 13.0012C30.1292 12.8415 30.3237 12.716 30.5368 12.6318C30.7499 12.5476 30.9774 12.5064 31.2063 12.5105C31.4337 12.5068 31.6595 12.5485 31.8707 12.6332C32.0819 12.7179 32.2742 12.844 32.4365 13.004C32.5987 13.1641 32.7277 13.3549 32.8158 13.5654C32.904 13.776 32.9496 14.0021 32.95 14.2305V15.9678C32.95 16.7254 33.2497 17.4521 33.783 17.9878C34.3164 18.5236 35.0399 18.8245 35.7942 18.8245C36.5485 18.8245 37.2719 18.5236 37.8053 17.9878C38.3387 17.4521 38.6383 16.7254 38.6383 15.9678V14.2305C38.6423 14.0005 38.6913 13.7736 38.7826 13.5627C38.8739 13.3517 39.0057 13.161 39.1704 13.0012C39.3352 12.8415 39.5297 12.716 39.7428 12.6318C39.9558 12.5476 40.1834 12.5064 40.4123 12.5105C40.6396 12.5069 40.8653 12.5488 41.0764 12.6335C41.2874 12.7183 41.4796 12.8444 41.6417 13.0044C41.8039 13.1644 41.9327 13.3552 42.0208 13.5657C42.1089 13.7762 42.1545 14.0021 42.1549 14.2305V15.9678C42.1174 17.6374 41.4307 19.2259 40.2418 20.3934C39.0529 21.5609 37.4563 22.2146 35.7936 22.2146C34.131 22.2146 32.5343 21.5609 31.3455 20.3934C30.1566 19.2259 29.4699 17.6374 29.4324 15.9678V14.2305Z" fill="white"/>
<path d="M32.9782 9.93516C32.9782 10.2871 32.8742 10.6312 32.6796 10.9239C32.4849 11.2165 32.2081 11.4446 31.8844 11.5793C31.5606 11.714 31.2044 11.7493 30.8607 11.6806C30.517 11.6119 30.2013 11.4424 29.9535 11.1936C29.7057 10.9447 29.537 10.6276 29.4686 10.2824C29.4003 9.93714 29.4353 9.57931 29.5694 9.25412C29.7035 8.92893 29.9306 8.65099 30.222 8.45544C30.5134 8.25989 30.8559 8.15552 31.2064 8.15552C31.6763 8.15552 32.1269 8.34302 32.4592 8.67676C32.7915 9.01051 32.9782 9.46317 32.9782 9.93516Z" fill="white"/>
<path d="M42.1583 9.93516C42.1583 10.2871 42.0544 10.6312 41.8597 10.9239C41.665 11.2165 41.3883 11.4446 41.0646 11.5793C40.7408 11.714 40.3846 11.7493 40.0409 11.6806C39.6972 11.6119 39.3815 11.4424 39.1337 11.1936C38.8859 10.9447 38.7172 10.6276 38.6488 10.2824C38.5804 9.93714 38.6155 9.57931 38.7496 9.25412C38.8837 8.92893 39.1108 8.65099 39.4022 8.45544C39.6936 8.25989 40.0361 8.15552 40.3865 8.15552C40.8565 8.15552 41.3071 8.34302 41.6394 8.67676C41.9717 9.01051 42.1583 9.46317 42.1583 9.93516Z" fill="white"/>
<path d="M29.4324 14.2305C29.4363 14.0005 29.4853 13.7736 29.5766 13.5627C29.6679 13.3517 29.7997 13.161 29.9645 13.0012C30.1292 12.8415 30.3237 12.716 30.5368 12.6318C30.7499 12.5476 30.9774 12.5064 31.2063 12.5105C31.4337 12.5068 31.6595 12.5485 31.8707 12.6332C32.0819 12.7179 32.2742 12.844 32.4365 13.004C32.5987 13.1641 32.7277 13.3549 32.8158 13.5654C32.904 13.776 32.9496 14.0021 32.95 14.2305V15.9678C32.95 16.7254 33.2497 17.4521 33.783 17.9878C34.3164 18.5236 35.0399 18.8245 35.7942 18.8245C36.5485 18.8245 37.2719 18.5236 37.8053 17.9878C38.3387 17.4521 38.6383 16.7254 38.6383 15.9678V14.2305C38.6423 14.0005 38.6913 13.7736 38.7826 13.5627C38.8739 13.3517 39.0057 13.161 39.1704 13.0012C39.3352 12.8415 39.5297 12.716 39.7428 12.6318C39.9558 12.5476 40.1834 12.5064 40.4123 12.5105C40.6396 12.5069 40.8653 12.5488 41.0764 12.6335C41.2874 12.7183 41.4796 12.8444 41.6417 13.0044C41.8039 13.1644 41.9327 13.3552 42.0208 13.5657C42.1089 13.7762 42.1545 14.0021 42.1549 14.2305V15.9678C42.1174 17.6374 41.4307 19.2259 40.2418 20.3934C39.0529 21.5609 37.4563 22.2146 35.7936 22.2146C34.131 22.2146 32.5343 21.5609 31.3455 20.3934C30.1566 19.2259 29.4699 17.6374 29.4324 15.9678V14.2305Z" fill="#176CF7"/>
<path d="M32.9782 9.93516C32.9782 10.2871 32.8742 10.6312 32.6796 10.9239C32.4849 11.2165 32.2081 11.4446 31.8844 11.5793C31.5606 11.714 31.2044 11.7493 30.8607 11.6806C30.517 11.6119 30.2013 11.4424 29.9535 11.1936C29.7057 10.9447 29.537 10.6276 29.4686 10.2824C29.4003 9.93714 29.4353 9.57931 29.5694 9.25412C29.7035 8.92893 29.9306 8.65099 30.222 8.45544C30.5134 8.25989 30.8559 8.15552 31.2064 8.15552C31.6763 8.15552 32.1269 8.34302 32.4592 8.67676C32.7915 9.01051 32.9782 9.46317 32.9782 9.93516Z" fill="#176CF7"/>
<path d="M42.1583 9.93516C42.1583 10.2871 42.0544 10.6312 41.8597 10.9239C41.665 11.2165 41.3883 11.4446 41.0646 11.5793C40.7408 11.714 40.3846 11.7493 40.0409 11.6806C39.6972 11.6119 39.3815 11.4424 39.1337 11.1936C38.8859 10.9447 38.7172 10.6276 38.6488 10.2824C38.5804 9.93714 38.6155 9.57931 38.7496 9.25412C38.8837 8.92893 39.1108 8.65099 39.4022 8.45544C39.6936 8.25989 40.0361 8.15552 40.3865 8.15552C40.8565 8.15552 41.3071 8.34302 41.6394 8.67676C41.9717 9.01051 42.1583 9.46317 42.1583 9.93516Z" fill="#176CF7"/>
<path d="M79.9883 15.4669C79.9883 15.9363 80.0767 16.371 80.2536 16.7709C80.4305 17.1708 80.6693 17.5272 80.97 17.8402C81.2884 18.1358 81.651 18.3705 82.0579 18.5444C82.4647 18.7182 82.9069 18.8052 83.3845 18.8052C83.8621 18.8052 84.3043 18.7182 84.7112 18.5444C85.118 18.3705 85.4718 18.1358 85.7725 17.8402C86.0909 17.5272 86.3385 17.1708 86.5154 16.7709C86.6923 16.371 86.7807 15.9363 86.7807 15.4669C86.7807 14.9975 86.6923 14.5628 86.5154 14.1629C86.3385 13.763 86.0909 13.4153 85.7725 13.1197C85.4718 12.8067 85.118 12.5633 84.7112 12.3895C84.3043 12.2156 83.8621 12.1287 83.3845 12.1287C82.9069 12.1287 82.4647 12.2156 82.0579 12.3895C81.651 12.5633 81.2884 12.8067 80.97 13.1197C80.6693 13.4153 80.4305 13.763 80.2536 14.1629C80.0767 14.5628 79.9883 14.9975 79.9883 15.4669ZM76.592 15.4669C76.592 14.5454 76.7689 13.6848 77.1227 12.885C77.4765 12.0678 77.9629 11.3549 78.582 10.7464C79.2011 10.1379 79.9175 9.65974 80.7312 9.312C81.5626 8.96427 82.447 8.7904 83.3845 8.7904C84.322 8.7904 85.1976 8.96427 86.0113 9.312C86.8426 9.65974 87.5679 10.1379 88.187 10.7464C88.8061 11.3549 89.2925 12.0678 89.6463 12.885C90.0001 13.6848 90.177 14.5454 90.177 15.4669C90.177 16.3884 90.0001 17.2577 89.6463 18.0749C89.2925 18.8747 88.8061 19.5789 88.187 20.1874C87.5679 20.7959 86.8426 21.2741 86.0113 21.6218C85.1976 21.9695 84.322 22.1434 83.3845 22.1434C82.1286 22.1434 80.9965 21.8478 79.9883 21.2567V25.4817C79.9883 25.9337 79.8202 26.3249 79.4841 26.6553C79.1481 26.9856 78.7501 27.1508 78.2902 27.1508C77.8303 27.1508 77.4323 26.9856 77.0962 26.6553C76.7601 26.3249 76.592 25.9337 76.592 25.4817V15.4669Z" fill="white"/>
<path d="M91.0196 15.4669C91.0196 14.5454 91.1965 13.6848 91.5503 12.885C91.904 12.0678 92.3905 11.3549 93.0096 10.7464C93.6287 10.1379 94.3451 9.65974 95.1588 9.312C95.9901 8.96427 96.8746 8.7904 97.8121 8.7904C98.7496 8.7904 99.6252 8.96427 100.439 9.312C101.27 9.65974 101.995 10.1379 102.615 10.7464C103.234 11.3549 103.72 12.0678 104.074 12.885C104.428 13.6848 104.605 14.5454 104.605 15.4669V20.4743C104.605 20.9263 104.436 21.3175 104.1 21.6479C103.764 21.9782 103.366 22.1434 102.906 22.1434C102.553 22.1434 102.234 22.0565 101.951 21.8826C101.686 21.6913 101.482 21.4479 101.341 21.1524C100.828 21.4653 100.271 21.7087 99.6694 21.8826C99.0857 22.0565 98.4665 22.1434 97.8121 22.1434C96.8746 22.1434 95.9901 21.9695 95.1588 21.6218C94.3451 21.2741 93.6287 20.7959 93.0096 20.1874C92.3905 19.5789 91.904 18.8747 91.5503 18.0749C91.1965 17.2577 91.0196 16.3884 91.0196 15.4669ZM94.4158 15.4669C94.4158 15.9363 94.5043 16.371 94.6812 16.7709C94.8581 17.1708 95.0968 17.5272 95.3976 17.8402C95.716 18.1358 96.0786 18.3705 96.4854 18.5444C96.8923 18.7182 97.3345 18.8052 97.8121 18.8052C98.2897 18.8052 98.7319 18.7182 99.1387 18.5444C99.5456 18.3705 99.8993 18.1358 100.2 17.8402C100.518 17.5272 100.766 17.1708 100.943 16.7709C101.12 16.371 101.208 15.9363 101.208 15.4669C101.208 14.9975 101.12 14.5628 100.943 14.1629C100.766 13.763 100.518 13.4153 100.2 13.1197C99.8993 12.8067 99.5456 12.5633 99.1387 12.3895C98.7319 12.2156 98.2897 12.1287 97.8121 12.1287C97.3345 12.1287 96.8923 12.2156 96.4854 12.3895C96.0786 12.5633 95.716 12.8067 95.3976 13.1197C95.0968 13.4153 94.8581 13.763 94.6812 14.1629C94.5043 14.5628 94.4158 14.9975 94.4158 15.4669Z" fill="white"/>
<path d="M112.664 8.7904C113.124 8.7904 113.522 8.95557 113.858 9.28592C114.194 9.61627 114.362 10.0075 114.362 10.4595C114.362 10.9116 114.194 11.3028 113.858 11.6331C113.522 11.9635 113.124 12.1287 112.664 12.1287C112.187 12.1287 111.744 12.2156 111.338 12.3895C110.931 12.5633 110.568 12.8067 110.25 13.1197C109.949 13.4153 109.71 13.763 109.533 14.1629C109.356 14.5628 109.268 14.9975 109.268 15.4669V20.4743C109.268 20.9263 109.1 21.3175 108.764 21.6479C108.428 21.9782 108.03 22.1434 107.57 22.1434C107.11 22.1434 106.712 21.9782 106.376 21.6479C106.04 21.3175 105.872 20.9263 105.872 20.4743V15.4669C105.872 14.5454 106.049 13.6848 106.402 12.885C106.756 12.0678 107.243 11.3549 107.862 10.7464C108.481 10.1379 109.197 9.65974 110.011 9.312C110.842 8.96427 111.727 8.7904 112.664 8.7904Z" fill="white"/>
<path d="M121.143 18.8052C121.603 18.8052 122.001 18.9703 122.337 19.3007C122.673 19.631 122.841 20.0222 122.841 20.4743C122.841 20.9263 122.673 21.3175 122.337 21.6479C122.001 21.9782 121.603 22.1434 121.143 22.1434H120.294C119.587 22.1434 118.923 22.013 118.304 21.7522C117.685 21.4914 117.145 21.135 116.686 20.6829C116.226 20.2309 115.863 19.7006 115.598 19.092C115.332 18.4835 115.2 17.8315 115.2 17.136V7.12127C115.2 6.66922 115.368 6.27802 115.704 5.94767C116.04 5.61732 116.438 5.45215 116.898 5.45215C117.358 5.45215 117.756 5.61732 118.092 5.94767C118.428 6.27802 118.596 6.66922 118.596 7.12127V8.7904H121.143C121.603 8.7904 122.001 8.95557 122.337 9.28592C122.673 9.61627 122.841 10.0075 122.841 10.4595C122.841 10.9116 122.673 11.3028 122.337 11.6331C122.001 11.9635 121.603 12.1287 121.143 12.1287H118.596V17.136C118.596 17.5881 118.764 17.9793 119.1 18.3096C119.436 18.64 119.834 18.8052 120.294 18.8052H121.143Z" fill="white"/>
<path d="M131.755 18.8052C132.002 18.8052 132.206 18.7269 132.365 18.5704C132.524 18.4139 132.604 18.214 132.604 17.9706C132.604 17.7272 132.524 17.5272 132.365 17.3707C132.206 17.2143 132.002 17.136 131.755 17.136H128.358C127.775 17.136 127.226 17.0317 126.713 16.8231C126.2 16.597 125.749 16.2928 125.36 15.9103C124.971 15.5278 124.662 15.0844 124.432 14.5802C124.219 14.076 124.113 13.537 124.113 12.9632C124.113 12.3895 124.219 11.8505 124.432 11.3462C124.662 10.842 124.971 10.3987 125.36 10.0162C125.749 9.63366 126.2 9.33808 126.713 9.12944C127.226 8.90341 127.775 8.7904 128.358 8.7904H133.453C133.913 8.7904 134.311 8.95557 134.647 9.28592C134.983 9.61627 135.151 10.0075 135.151 10.4595C135.151 10.9116 134.983 11.3028 134.647 11.6331C134.311 11.9635 133.913 12.1287 133.453 12.1287H128.358C128.111 12.1287 127.907 12.2069 127.748 12.3634C127.589 12.5199 127.509 12.7198 127.509 12.9632C127.509 13.2066 127.589 13.4066 127.748 13.5631C127.907 13.7195 128.111 13.7978 128.358 13.7978H131.755C132.338 13.7978 132.887 13.9108 133.4 14.1368C133.913 14.3455 134.364 14.641 134.753 15.0235C135.142 15.406 135.443 15.8494 135.655 16.3536C135.885 16.8578 136 17.3968 136 17.9706C136 18.5443 135.885 19.0833 135.655 19.5876C135.443 20.0918 135.142 20.5351 134.753 20.9176C134.364 21.3001 133.913 21.6044 133.4 21.8304C132.887 22.0391 132.338 22.1434 131.755 22.1434H125.811C125.351 22.1434 124.953 21.9782 124.617 21.6479C124.281 21.3175 124.113 20.9263 124.113 20.4743C124.113 20.0222 124.281 19.631 124.617 19.3007C124.953 18.9703 125.351 18.8052 125.811 18.8052H131.755Z" fill="white"/>
</svg>
