<svg width="24" height="24" viewBox="0 0 24 24" fill="none" xmlns="http://www.w3.org/2000/svg">
<path fill-rule="evenodd" clip-rule="evenodd" d="M11.4514 4.11817C11.2503 4.20049 9.78743 4.93311 8.20571 5.73981C7.05667 6.31987 5.93175 6.89558 5.29013 7.22395C5.04853 7.34759 4.87546 7.43617 4.79543 7.4767C4.49371 7.64133 4.21943 7.85535 4.13714 8.00352C4.01829 8.20932 4 8.83492 4 11.9959C4 15.1568 4.01829 15.7825 4.13714 15.9882C4.21943 16.1364 4.49371 16.3504 4.79543 16.5151C4.87545 16.5556 5.0485 16.6442 5.29006 16.7678C5.93167 17.0961 7.05663 17.6719 8.20571 18.252C9.78743 19.0587 11.2686 19.7913 11.4971 19.8818C11.7623 19.9806 12.0091 20.0218 12.1829 19.9888C12.3383 19.9641 14.0754 19.1163 16.0594 18.112C19.1863 16.5151 19.68 16.2352 19.8263 15.9882C19.9909 15.7166 20 15.4614 20 11.9959C20 8.52212 19.9909 8.27517 19.8263 8.00352C19.6891 7.77304 19.3966 7.58371 18.3909 7.06511C17.8083 6.7722 16.5996 6.15799 15.4747 5.58631C15.2402 5.46715 15.0093 5.34985 14.7886 5.23768C13.5086 4.58738 12.3109 4.03586 12.1371 4.01116C11.9269 3.97824 11.6891 4.01939 11.4514 4.11817ZM10.9424 5.68211C10.1159 6.11016 9.89556 6.25833 9.98738 6.32418C10.0517 6.37357 11.4291 7.07326 13.0452 7.87997L15.9836 9.34521C16.6999 8.99124 17.1957 8.74429 17.5447 8.55497C18.1232 8.26686 18.1691 8.21747 18.0038 8.14338C17.9028 8.09399 16.5438 7.41076 14.9735 6.62052C13.4033 5.83028 12.0994 5.17175 12.0718 5.15528C12.0443 5.14705 11.5301 5.38577 10.9424 5.68211ZM7.19587 7.5754C6.50718 7.92113 5.9654 8.23393 6.00213 8.25863C6.03886 8.29155 7.40707 8.99124 9.05076 9.80618C10.6944 10.6293 12.0627 11.2961 12.1086 11.2961C12.1453 11.2961 12.733 11.008 13.4125 10.6623C14.1012 10.3083 14.6246 9.99551 14.5879 9.97081C14.5511 9.93789 13.2105 9.26289 11.6219 8.47265C10.0333 7.67418 8.66509 7.00741 8.59163 6.98272C8.51817 6.95802 7.88457 7.22143 7.19587 7.5754ZM5.23998 15.4284L5.21243 12.3333C5.20325 10.6293 5.21243 9.23819 5.23998 9.23819C5.26752 9.23819 6.67246 9.92965 11.4474 12.3251L11.4382 15.3955C11.4382 17.7909 11.4107 18.4577 11.328 18.4577C11.2638 18.4577 9.86801 17.7744 5.23998 15.4284ZM17.6824 9.79795L16.6264 10.3495C16.5805 13.494 16.5529 13.7409 16.4152 13.8726C16.3326 13.9549 16.1305 14.0208 15.9836 14.0208C15.8275 14.0208 15.6347 13.9549 15.552 13.8726C15.4143 13.7409 15.3868 13.5434 15.3868 12.3909C15.3868 11.6501 15.3592 11.0492 15.3133 11.0492C15.2766 11.0492 14.6797 11.3373 13.991 11.6912L12.7238 12.3251C12.7238 16.4738 12.6963 17.8485 12.6595 18.0708C12.6044 18.3589 12.6136 18.4577 12.6963 18.4577C12.7605 18.4577 14.1563 17.7827 15.8 16.9595L18.7751 15.4531C18.7843 10.6376 18.7751 9.23819 18.7568 9.23819C18.7528 9.2418 18.657 9.29125 18.5021 9.3713L18.5018 9.37143L18.5018 9.37147C18.3031 9.47409 18.0072 9.62694 17.6824 9.79795Z" fill="#555555"/>
</svg>
