<svg width="136" height="36" viewBox="0 0 136 36" fill="none" xmlns="http://www.w3.org/2000/svg">
<path d="M48.383 12.6432C48.383 15.1438 47.6447 17.5883 46.2615 19.6675C44.8784 21.7467 42.9124 23.3672 40.6123 24.3241C38.3122 25.281 35.7812 25.5313 33.3395 25.0434C30.8977 24.5554 28.6549 23.3512 26.8946 21.5829C25.1342 19.8146 23.9355 17.5617 23.4499 15.1091C22.9643 12.6565 23.2138 10.1143 24.1666 7.8041C25.1195 5.49387 26.733 3.51935 28.8032 2.13023C30.8733 0.741112 33.307 -0.00021471 35.7966 4.6647e-08C37.4496 4.6647e-08 39.0865 0.327026 40.6136 0.962405C42.1408 1.59778 43.5284 2.52907 44.6973 3.7031C45.8661 4.87713 46.7933 6.27091 47.4259 7.80485C48.0585 9.33879 48.384 10.9829 48.384 12.6432" fill="#FFC117"/>
<path d="M1.77395 6.43875C2.0665 6.43496 2.35512 6.50653 2.61231 6.64662C2.86949 6.78671 3.08664 6.99065 3.24306 7.23899C4.4812 6.56029 5.90541 6.30417 7.30108 6.50922C8.69675 6.71427 9.98826 7.36938 10.981 8.37583C11.8559 7.4721 12.9768 6.84769 14.2033 6.58079C15.4298 6.3139 16.7074 6.41638 17.8763 6.8754C19.0451 7.33443 20.0531 8.12959 20.7741 9.16133C21.4951 10.1931 21.897 11.4155 21.9296 12.6756V18.513C21.9152 18.9725 21.7207 19.4078 21.3885 19.7242C21.0564 20.0406 20.6133 20.2124 20.1556 20.2025C19.9306 20.2069 19.707 20.1667 19.4975 20.0842C19.288 20.0016 19.0968 19.8783 18.9349 19.7213C18.773 19.5643 18.6436 19.3768 18.554 19.1694C18.4644 18.962 18.4165 18.739 18.413 18.513V12.6767C18.413 11.9191 18.1134 11.1924 17.58 10.6567C17.0466 10.1209 16.3232 9.81996 15.5689 9.81996C14.8145 9.81996 14.0911 10.1209 13.5577 10.6567C13.0243 11.1924 12.7247 11.9191 12.7247 12.6767V18.513C12.7212 18.739 12.6733 18.962 12.5837 19.1694C12.4941 19.3768 12.3647 19.5643 12.2028 19.7213C12.0409 19.8783 11.8497 20.0016 11.6402 20.0842C11.4307 20.1667 11.2071 20.2069 10.9821 20.2025C10.5241 20.213 10.0804 20.0414 9.74777 19.725C9.41512 19.4085 9.22039 18.9729 9.20597 18.513V12.6767C9.20597 11.9191 8.90632 11.1924 8.37293 10.6567C7.83955 10.1209 7.11612 9.81996 6.3618 9.81996C5.60749 9.81996 4.88406 10.1209 4.35068 10.6567C3.81729 11.1924 3.51764 11.9191 3.51764 12.6767V18.513C3.51413 18.739 3.46621 18.962 3.37665 19.1694C3.28708 19.3768 3.15763 19.5643 2.99572 19.7213C2.83381 19.8783 2.64263 20.0016 2.43315 20.0842C2.22368 20.1667 2.00002 20.2069 1.77504 20.2025C1.31719 20.2127 0.873833 20.041 0.541418 19.7246C0.209003 19.4082 0.0144203 18.9727 0 18.513V8.13044C0.0138621 7.67049 0.208051 7.23466 0.540292 6.91782C0.872534 6.60099 1.31593 6.4288 1.77395 6.43875Z" fill="white"/>
<path d="M49.6657 13.3219C49.677 12.4059 49.868 11.5012 50.2277 10.6594C50.5875 9.8177 51.109 9.05548 51.7623 8.41639C52.4156 7.77729 53.188 7.27386 54.0353 6.93492C54.8826 6.59597 55.788 6.42816 56.6999 6.44107C57.9821 6.4413 59.2402 6.79146 60.3397 7.45414C60.4769 7.14081 60.7051 6.87642 60.9945 6.69564C61.2838 6.51486 61.6208 6.42613 61.9612 6.44107C62.1863 6.43647 62.4101 6.47658 62.6197 6.55909C62.8293 6.6416 63.0206 6.76489 63.1826 6.92188C63.3446 7.07887 63.4742 7.26647 63.5638 7.4739C63.6535 7.68133 63.7014 7.9045 63.7049 8.13059V18.5131C63.7014 18.7392 63.6535 18.9624 63.5638 19.1698C63.4742 19.3772 63.3446 19.5648 63.1826 19.7218C63.0206 19.8788 62.8293 20.0021 62.6197 20.0846C62.4101 20.1671 62.1863 20.2072 61.9612 20.2026C61.6208 20.2176 61.2838 20.1289 60.9945 19.9481C60.7051 19.7673 60.4769 19.5029 60.3397 19.1896C59.2403 19.8524 57.9822 20.2025 56.6999 20.2026C55.788 20.2156 54.8826 20.0477 54.0353 19.7088C53.188 19.3699 52.4156 18.8664 51.7623 18.2273C51.109 17.5882 50.5875 16.826 50.2277 15.9843C49.868 15.1425 49.677 14.2378 49.6657 13.3219ZM53.1823 13.3219C53.1737 14.0188 53.3715 14.7027 53.7505 15.2866C54.1295 15.8705 54.6726 16.3281 55.311 16.6015C55.9494 16.8748 56.6542 16.9515 57.336 16.8219C58.0179 16.6922 58.646 16.362 59.1407 15.8732C59.6355 15.3844 59.9745 14.759 60.1147 14.0764C60.255 13.3937 60.1902 12.6846 59.9286 12.039C59.667 11.3934 59.2203 10.8404 58.6453 10.4502C58.0703 10.06 57.3928 9.85011 56.6988 9.84726C56.2407 9.84311 55.7862 9.92973 55.3615 10.1022C54.9367 10.2746 54.5499 10.5295 54.2233 10.8522C53.8967 11.1749 53.6366 11.5591 53.458 11.9829C53.2794 12.4067 53.1857 12.8617 53.1823 13.3219Z" fill="white"/>
<path d="M66.09 13.9667V4.22802C66.1044 3.76845 66.2989 3.33317 66.6311 3.0168C66.9632 2.70043 67.4063 2.52854 67.864 2.5385C68.0891 2.53389 68.3128 2.574 68.5224 2.65651C68.732 2.73902 68.9233 2.86231 69.0854 3.01931C69.2474 3.1763 69.3769 3.3639 69.4666 3.57132C69.5562 3.77875 69.6042 4.00192 69.6077 4.22802V6.4105H71.8097C72.0377 6.40232 72.265 6.44037 72.478 6.52236C72.691 6.60434 72.8854 6.7286 73.0495 6.88771C73.2137 7.04681 73.3443 7.2375 73.4334 7.4484C73.5226 7.6593 73.5686 7.88609 73.5686 8.11522C73.5686 8.34435 73.5226 8.57114 73.4334 8.78204C73.3443 8.99294 73.2137 9.18363 73.0495 9.34274C72.8854 9.50184 72.691 9.6261 72.478 9.70809C72.265 9.79008 72.0377 9.82812 71.8097 9.81994H69.6077V13.9677C69.6134 14.7205 69.9159 15.4404 70.449 15.9695C70.9822 16.4987 71.7023 16.794 72.4518 16.7909H73.7663C73.9964 16.7792 74.2265 16.8146 74.4425 16.895C74.6585 16.9754 74.856 17.0991 75.023 17.2586C75.19 17.418 75.3229 17.6099 75.4137 17.8225C75.5046 18.0352 75.5514 18.2642 75.5514 18.4956C75.5514 18.727 75.5046 18.956 75.4137 19.1686C75.3229 19.3813 75.19 19.5731 75.023 19.7326C74.856 19.892 74.6585 20.0157 74.4425 20.0961C74.2265 20.1765 73.9964 20.212 73.7663 20.2003H72.4518C71.6265 20.2105 70.8073 20.0573 70.0409 19.7494C69.2745 19.4415 68.5761 18.985 67.9854 18.4059C67.3947 17.8268 66.9234 17.1365 66.5984 16.3745C66.2734 15.6124 66.101 14.7935 66.0911 13.9645" fill="white"/>
<path d="M71.444 6.44141H61.8673V9.79982H71.444V6.44141Z" fill="white"/>
<path d="M29.4325 12.23C29.4364 12 29.4854 11.7731 29.5767 11.5622C29.668 11.3513 29.7998 11.1605 29.9646 11.0007C30.1293 10.841 30.3238 10.7155 30.5369 10.6313C30.75 10.5471 30.9775 10.5059 31.2064 10.5101C31.4338 10.5063 31.6596 10.548 31.8708 10.6327C32.082 10.7174 32.2743 10.8435 32.4366 11.0035C32.5988 11.1636 32.7278 11.3544 32.8159 11.565C32.9041 11.7755 32.9497 12.0016 32.9501 12.23V13.9673C32.9501 14.7249 33.2498 15.4516 33.7831 15.9873C34.3165 16.5231 35.0399 16.824 35.7943 16.824C36.5486 16.824 37.272 16.5231 37.8054 15.9873C38.3388 15.4516 38.6384 14.7249 38.6384 13.9673V12.23C38.6424 12 38.6914 11.7731 38.7827 11.5622C38.874 11.3513 39.0058 11.1605 39.1705 11.0007C39.3353 10.841 39.5298 10.7155 39.7428 10.6313C39.9559 10.5471 40.1834 10.5059 40.4124 10.5101C40.6397 10.5065 40.8654 10.5483 41.0765 10.633C41.2875 10.7178 41.4797 10.8439 41.6418 11.0039C41.804 11.1639 41.9328 11.3547 42.0209 11.5652C42.109 11.7757 42.1546 12.0017 42.155 12.23V13.9673C42.1175 15.6369 41.4308 17.2254 40.2419 18.3929C39.053 19.5604 37.4564 20.2141 35.7937 20.2141C34.1311 20.2141 32.5344 19.5604 31.3456 18.3929C30.1567 17.2254 29.47 15.6369 29.4325 13.9673V12.23Z" fill="white"/>
<path d="M32.9782 7.93492C32.9782 8.2869 32.8742 8.63097 32.6796 8.92364C32.4849 9.2163 32.2081 9.4444 31.8844 9.57909C31.5606 9.71379 31.2044 9.74904 30.8607 9.68037C30.517 9.6117 30.2013 9.44221 29.9535 9.19332C29.7057 8.94443 29.537 8.62733 29.4686 8.28211C29.4003 7.93689 29.4353 7.57906 29.5694 7.25388C29.7035 6.92869 29.9306 6.65075 30.222 6.4552C30.5134 6.25965 30.8559 6.15527 31.2064 6.15527C31.6763 6.15527 32.1269 6.34277 32.4592 6.67652C32.7915 7.01027 32.9782 7.46293 32.9782 7.93492Z" fill="white"/>
<path d="M42.1584 7.93492C42.1584 8.2869 42.0545 8.63097 41.8598 8.92364C41.6651 9.2163 41.3884 9.4444 41.0646 9.57909C40.7409 9.71379 40.3846 9.74904 40.041 9.68037C39.6973 9.6117 39.3815 9.44221 39.1338 9.19332C38.886 8.94443 38.7172 8.62733 38.6489 8.28211C38.5805 7.93689 38.6156 7.57906 38.7497 7.25388C38.8838 6.92869 39.1109 6.65075 39.4022 6.4552C39.6936 6.25965 40.0362 6.15527 40.3866 6.15527C40.8565 6.15527 41.3072 6.34277 41.6395 6.67652C41.9717 7.01027 42.1584 7.46293 42.1584 7.93492Z" fill="white"/>
<path d="M29.4325 12.23C29.4364 12 29.4854 11.7731 29.5767 11.5622C29.668 11.3513 29.7998 11.1605 29.9646 11.0007C30.1293 10.841 30.3238 10.7155 30.5369 10.6313C30.75 10.5471 30.9775 10.5059 31.2064 10.5101C31.4338 10.5063 31.6596 10.548 31.8708 10.6327C32.082 10.7174 32.2743 10.8435 32.4366 11.0035C32.5988 11.1636 32.7278 11.3544 32.8159 11.565C32.9041 11.7755 32.9497 12.0016 32.9501 12.23V13.9673C32.9501 14.7249 33.2498 15.4516 33.7831 15.9873C34.3165 16.5231 35.0399 16.824 35.7943 16.824C36.5486 16.824 37.272 16.5231 37.8054 15.9873C38.3388 15.4516 38.6384 14.7249 38.6384 13.9673V12.23C38.6424 12 38.6914 11.7731 38.7827 11.5622C38.874 11.3513 39.0058 11.1605 39.1705 11.0007C39.3353 10.841 39.5298 10.7155 39.7428 10.6313C39.9559 10.5471 40.1834 10.5059 40.4124 10.5101C40.6397 10.5065 40.8654 10.5483 41.0765 10.633C41.2875 10.7178 41.4797 10.8439 41.6418 11.0039C41.804 11.1639 41.9328 11.3547 42.0209 11.5652C42.109 11.7757 42.1546 12.0017 42.155 12.23V13.9673C42.1175 15.6369 41.4308 17.2254 40.2419 18.3929C39.053 19.5604 37.4564 20.2141 35.7937 20.2141C34.1311 20.2141 32.5344 19.5604 31.3456 18.3929C30.1567 17.2254 29.47 15.6369 29.4325 13.9673V12.23Z" fill="#176CF7"/>
<path d="M32.9782 7.93492C32.9782 8.2869 32.8742 8.63097 32.6796 8.92364C32.4849 9.2163 32.2081 9.4444 31.8844 9.57909C31.5606 9.71379 31.2044 9.74904 30.8607 9.68037C30.517 9.6117 30.2013 9.44221 29.9535 9.19332C29.7057 8.94443 29.537 8.62733 29.4686 8.28211C29.4003 7.93689 29.4353 7.57906 29.5694 7.25388C29.7035 6.92869 29.9306 6.65075 30.222 6.4552C30.5134 6.25965 30.8559 6.15527 31.2064 6.15527C31.6763 6.15527 32.1269 6.34277 32.4592 6.67652C32.7915 7.01027 32.9782 7.46293 32.9782 7.93492Z" fill="#176CF7"/>
<path d="M42.1584 7.93492C42.1584 8.2869 42.0545 8.63097 41.8598 8.92364C41.6651 9.2163 41.3884 9.4444 41.0646 9.57909C40.7409 9.71379 40.3846 9.74904 40.041 9.68037C39.6973 9.6117 39.3815 9.44221 39.1338 9.19332C38.886 8.94443 38.7172 8.62733 38.6489 8.28211C38.5805 7.93689 38.6156 7.57906 38.7497 7.25388C38.8838 6.92869 39.1109 6.65075 39.4022 6.4552C39.6936 6.25965 40.0362 6.15527 40.3866 6.15527C40.8565 6.15527 41.3072 6.34277 41.6395 6.67652C41.9717 7.01027 42.1584 7.46293 42.1584 7.93492Z" fill="#176CF7"/>
<path d="M79.9883 13.4669C79.9883 13.9363 80.0767 14.371 80.2536 14.7709C80.4305 15.1708 80.6693 15.5272 80.97 15.8402C81.2884 16.1358 81.651 16.3705 82.0579 16.5444C82.4647 16.7182 82.9069 16.8052 83.3845 16.8052C83.8621 16.8052 84.3043 16.7182 84.7112 16.5444C85.118 16.3705 85.4718 16.1358 85.7725 15.8402C86.0909 15.5272 86.3385 15.1708 86.5154 14.7709C86.6923 14.371 86.7807 13.9363 86.7807 13.4669C86.7807 12.9975 86.6923 12.5628 86.5154 12.1629C86.3385 11.763 86.0909 11.4153 85.7725 11.1197C85.4718 10.8067 85.118 10.5633 84.7112 10.3895C84.3043 10.2156 83.8621 10.1287 83.3845 10.1287C82.9069 10.1287 82.4647 10.2156 82.0579 10.3895C81.651 10.5633 81.2884 10.8067 80.97 11.1197C80.6693 11.4153 80.4305 11.763 80.2536 12.1629C80.0767 12.5628 79.9883 12.9975 79.9883 13.4669ZM76.592 13.4669C76.592 12.5454 76.7689 11.6848 77.1227 10.885C77.4765 10.0678 77.9629 9.35494 78.582 8.74641C79.2011 8.13787 79.9175 7.65974 80.7312 7.312C81.5626 6.96427 82.447 6.7904 83.3845 6.7904C84.322 6.7904 85.1976 6.96427 86.0113 7.312C86.8426 7.65974 87.5679 8.13787 88.187 8.74641C88.8061 9.35494 89.2925 10.0678 89.6463 10.885C90.0001 11.6848 90.177 12.5454 90.177 13.4669C90.177 14.3884 90.0001 15.2577 89.6463 16.0749C89.2925 16.8747 88.8061 17.5789 88.187 18.1874C87.5679 18.7959 86.8426 19.2741 86.0113 19.6218C85.1976 19.9695 84.322 20.1434 83.3845 20.1434C82.1286 20.1434 80.9965 19.8478 79.9883 19.2567V23.4817C79.9883 23.9337 79.8202 24.3249 79.4841 24.6553C79.1481 24.9856 78.7501 25.1508 78.2902 25.1508C77.8303 25.1508 77.4323 24.9856 77.0962 24.6553C76.7601 24.3249 76.592 23.9337 76.592 23.4817V13.4669Z" fill="white"/>
<path d="M91.0196 13.4669C91.0196 12.5454 91.1965 11.6848 91.5503 10.885C91.904 10.0678 92.3905 9.35494 93.0096 8.74641C93.6287 8.13787 94.3451 7.65974 95.1588 7.312C95.9901 6.96427 96.8746 6.7904 97.8121 6.7904C98.7496 6.7904 99.6252 6.96427 100.439 7.312C101.27 7.65974 101.995 8.13787 102.615 8.74641C103.234 9.35494 103.72 10.0678 104.074 10.885C104.428 11.6848 104.605 12.5454 104.605 13.4669V18.4743C104.605 18.9263 104.436 19.3175 104.1 19.6479C103.764 19.9782 103.366 20.1434 102.906 20.1434C102.553 20.1434 102.234 20.0565 101.951 19.8826C101.686 19.6913 101.482 19.4479 101.341 19.1524C100.828 19.4653 100.271 19.7087 99.6694 19.8826C99.0857 20.0565 98.4665 20.1434 97.8121 20.1434C96.8746 20.1434 95.9901 19.9695 95.1588 19.6218C94.3451 19.2741 93.6287 18.7959 93.0096 18.1874C92.3905 17.5789 91.904 16.8747 91.5503 16.0749C91.1965 15.2577 91.0196 14.3884 91.0196 13.4669ZM94.4158 13.4669C94.4158 13.9363 94.5043 14.371 94.6812 14.7709C94.8581 15.1708 95.0968 15.5272 95.3976 15.8402C95.716 16.1358 96.0786 16.3705 96.4854 16.5444C96.8923 16.7182 97.3345 16.8052 97.8121 16.8052C98.2897 16.8052 98.7319 16.7182 99.1387 16.5444C99.5456 16.3705 99.8993 16.1358 100.2 15.8402C100.518 15.5272 100.766 15.1708 100.943 14.7709C101.12 14.371 101.208 13.9363 101.208 13.4669C101.208 12.9975 101.12 12.5628 100.943 12.1629C100.766 11.763 100.518 11.4153 100.2 11.1197C99.8993 10.8067 99.5456 10.5633 99.1387 10.3895C98.7319 10.2156 98.2897 10.1287 97.8121 10.1287C97.3345 10.1287 96.8923 10.2156 96.4854 10.3895C96.0786 10.5633 95.716 10.8067 95.3976 11.1197C95.0968 11.4153 94.8581 11.763 94.6812 12.1629C94.5043 12.5628 94.4158 12.9975 94.4158 13.4669Z" fill="white"/>
<path d="M112.664 6.7904C113.124 6.7904 113.522 6.95557 113.858 7.28592C114.194 7.61627 114.362 8.00747 114.362 8.45953C114.362 8.91158 114.194 9.30278 113.858 9.63313C113.522 9.96348 113.124 10.1287 112.664 10.1287C112.187 10.1287 111.744 10.2156 111.338 10.3895C110.931 10.5633 110.568 10.8067 110.25 11.1197C109.949 11.4153 109.71 11.763 109.533 12.1629C109.356 12.5628 109.268 12.9975 109.268 13.4669V18.4743C109.268 18.9263 109.1 19.3175 108.764 19.6479C108.428 19.9782 108.03 20.1434 107.57 20.1434C107.11 20.1434 106.712 19.9782 106.376 19.6479C106.04 19.3175 105.872 18.9263 105.872 18.4743V13.4669C105.872 12.5454 106.049 11.6848 106.402 10.885C106.756 10.0678 107.243 9.35494 107.862 8.74641C108.481 8.13787 109.197 7.65974 110.011 7.312C110.842 6.96427 111.727 6.7904 112.664 6.7904Z" fill="white"/>
<path d="M121.143 16.8052C121.603 16.8052 122.001 16.9703 122.337 17.3007C122.673 17.631 122.841 18.0222 122.841 18.4743C122.841 18.9263 122.673 19.3175 122.337 19.6479C122.001 19.9782 121.603 20.1434 121.143 20.1434H120.294C119.587 20.1434 118.923 20.013 118.304 19.7522C117.685 19.4914 117.145 19.135 116.686 18.6829C116.226 18.2309 115.863 17.7006 115.598 17.092C115.332 16.4835 115.2 15.8315 115.2 15.136V5.12127C115.2 4.66922 115.368 4.27802 115.704 3.94767C116.04 3.61732 116.438 3.45215 116.898 3.45215C117.358 3.45215 117.756 3.61732 118.092 3.94767C118.428 4.27802 118.596 4.66922 118.596 5.12127V6.7904H121.143C121.603 6.7904 122.001 6.95557 122.337 7.28592C122.673 7.61627 122.841 8.00747 122.841 8.45953C122.841 8.91158 122.673 9.30278 122.337 9.63313C122.001 9.96348 121.603 10.1287 121.143 10.1287H118.596V15.136C118.596 15.5881 118.764 15.9793 119.1 16.3096C119.436 16.64 119.834 16.8052 120.294 16.8052H121.143Z" fill="white"/>
<path d="M131.755 16.8052C132.002 16.8052 132.206 16.7269 132.365 16.5704C132.524 16.4139 132.604 16.214 132.604 15.9706C132.604 15.7272 132.524 15.5272 132.365 15.3707C132.206 15.2143 132.002 15.136 131.755 15.136H128.358C127.775 15.136 127.226 15.0317 126.713 14.8231C126.2 14.597 125.749 14.2928 125.36 13.9103C124.971 13.5278 124.662 13.0844 124.432 12.5802C124.219 12.076 124.113 11.537 124.113 10.9632C124.113 10.3895 124.219 9.85046 124.432 9.34625C124.662 8.84203 124.971 8.39867 125.36 8.01616C125.749 7.63366 126.2 7.33808 126.713 7.12944C127.226 6.90341 127.775 6.7904 128.358 6.7904H133.453C133.913 6.7904 134.311 6.95557 134.647 7.28592C134.983 7.61627 135.151 8.00747 135.151 8.45953C135.151 8.91158 134.983 9.30278 134.647 9.63313C134.311 9.96348 133.913 10.1287 133.453 10.1287H128.358C128.111 10.1287 127.907 10.2069 127.748 10.3634C127.589 10.5199 127.509 10.7198 127.509 10.9632C127.509 11.2066 127.589 11.4066 127.748 11.5631C127.907 11.7195 128.111 11.7978 128.358 11.7978H131.755C132.338 11.7978 132.887 11.9108 133.4 12.1368C133.913 12.3455 134.364 12.641 134.753 13.0235C135.142 13.406 135.443 13.8494 135.655 14.3536C135.885 14.8578 136 15.3968 136 15.9706C136 16.5443 135.885 17.0833 135.655 17.5876C135.443 18.0918 135.142 18.5351 134.753 18.9176C134.364 19.3001 133.913 19.6044 133.4 19.8304C132.887 20.0391 132.338 20.1434 131.755 20.1434H125.811C125.351 20.1434 124.953 19.9782 124.617 19.6479C124.281 19.3175 124.113 18.9263 124.113 18.4743C124.113 18.0222 124.281 17.631 124.617 17.3007C124.953 16.9703 125.351 16.8052 125.811 16.8052H131.755Z" fill="white"/>
<path d="M110.593 27.9131L109.599 29.0026C109.271 28.5789 108.628 28.2642 108.022 28.2642C107.319 28.2642 106.506 28.6031 106.506 29.4384C106.506 30.2253 107.173 30.4553 108.143 30.7579C109.247 31.0969 110.654 31.5811 110.654 33.2638C110.654 35.1039 109.211 35.9997 107.525 35.9997C106.409 35.9997 105.257 35.576 104.578 34.7771L105.669 33.7602C106.094 34.3413 106.87 34.7044 107.549 34.7044C108.265 34.7044 109.101 34.3534 109.101 33.4333C109.101 32.5375 108.204 32.2833 107.125 31.9443C106.082 31.6175 104.954 31.109 104.954 29.5111C104.954 27.7678 106.542 26.9931 108.095 26.9931C108.956 26.9931 109.938 27.2957 110.593 27.9131Z" fill="white"/>
<path d="M113.228 32.2954H116.211C116.211 31.5448 115.787 30.8911 114.841 30.8911C113.98 30.8911 113.288 31.4843 113.228 32.2954ZM117.667 32.9491C117.667 33.0823 117.667 33.2033 117.655 33.3365H113.228C113.288 34.1597 114.04 34.765 114.889 34.765C115.617 34.765 116.102 34.4744 116.43 34.0144L117.4 34.7892C116.83 35.5639 116.005 35.9513 114.902 35.9513C113.107 35.9513 111.772 34.8013 111.772 32.9128C111.772 31.0364 113.094 29.8016 114.853 29.8016C116.478 29.8016 117.667 30.8548 117.667 32.9491Z" fill="white"/>
<path d="M119.101 35.7818V26.6299H120.556V35.7818H119.101Z" fill="white"/>
<path d="M122.346 35.7818V26.6299H123.801V35.7818H122.346Z" fill="white"/>
<path d="M126.683 32.2954H129.666C129.666 31.5448 129.242 30.8911 128.296 30.8911C127.435 30.8911 126.743 31.4843 126.683 32.2954ZM131.122 32.9491C131.122 33.0823 131.122 33.2033 131.11 33.3365H126.683C126.743 34.1597 127.495 34.765 128.344 34.765C129.072 34.765 129.557 34.4744 129.885 34.0144L130.855 34.7892C130.285 35.5639 129.46 35.9513 128.356 35.9513C126.561 35.9513 125.227 34.8013 125.227 32.9128C125.227 31.0364 126.549 29.8016 128.308 29.8016C129.933 29.8016 131.122 30.8548 131.122 32.9491Z" fill="white"/>
<path d="M132.531 35.7818V29.9711H133.926V30.9395H133.95C134.266 30.2737 134.884 29.8016 135.648 29.8016C135.757 29.8016 135.903 29.8137 136 29.8379V31.1695C135.806 31.1211 135.685 31.109 135.551 31.109C134.241 31.109 133.987 32.247 133.987 32.6707V35.7818H132.531Z" fill="white"/>
</svg>
