<svg width="109" height="110" viewBox="0 0 109 110" fill="none" xmlns="http://www.w3.org/2000/svg">
<g filter="url(#filter0_d_4435_68921)">
<path d="M54.5078 78.263C49.7178 78.263 45.0718 77.3222 40.699 75.4666C36.4726 73.6732 32.6761 71.1049 29.4149 67.8331C26.1518 64.5595 23.59 60.7474 21.8004 56.5028C19.9474 52.1075 19.0078 47.4372 19.0078 42.6215C19.0078 37.8058 19.9474 33.1355 21.8004 28.7402C23.59 24.4955 26.1518 20.6834 29.4149 17.4098C32.6761 14.138 36.4726 11.5698 40.699 9.77635C45.0718 7.92082 49.7178 6.97998 54.5078 6.97998C59.2979 6.97998 63.9438 7.92082 68.3166 9.77635C72.543 11.5698 76.3395 14.138 79.6008 17.4098C82.8638 20.6834 85.4257 24.4955 87.2152 28.7402C89.0682 33.1355 90.0078 37.8058 90.0078 42.6215C90.0078 47.4372 89.0682 52.1075 87.2152 56.5028C85.4257 60.7474 82.8638 64.5595 79.6008 67.8331C76.3395 71.1049 72.543 73.6732 68.3166 75.4666C63.9438 77.3222 59.2979 78.263 54.5078 78.263Z" fill="#C22716"/>
<path d="M54.5078 8.46017C49.9237 8.46017 45.4763 9.3604 41.2916 11.1361C37.2445 12.8535 33.608 15.3139 30.4843 18.4478C27.3569 21.5853 24.9008 25.2399 23.1854 29.3088C21.4085 33.5233 20.5078 38.0031 20.5078 42.6216C20.5078 47.2401 21.4085 51.7199 23.1854 55.9344C24.9008 60.0033 27.3569 63.6579 30.4843 66.7954C33.608 69.9293 37.2445 72.3897 41.2916 74.107C45.4763 75.8828 49.9237 76.783 54.5078 76.783C59.092 76.783 63.5393 75.8828 67.724 74.107C71.7711 72.3897 75.4076 69.9293 78.5314 66.7954C81.6587 63.6579 84.1148 60.0033 85.8303 55.9344C87.6071 51.7199 88.5078 47.2401 88.5078 42.6216C88.5078 38.0031 87.6071 33.5233 85.8303 29.3088C84.1148 25.2399 81.6587 21.5853 78.5314 18.4478C75.4076 15.3139 71.7711 12.8535 67.724 11.1361C63.5393 9.3604 59.092 8.46017 54.5078 8.46017ZM54.5078 5.5C74.9408 5.5 91.5078 22.1184 91.5078 42.6216C91.5078 63.1248 74.9408 79.7432 54.5078 79.7432C34.0748 79.7432 17.5078 63.1248 17.5078 42.6216C17.5078 22.1184 34.0748 5.5 54.5078 5.5Z" fill="#C22716" stroke="white"/>
</g>
<path d="M40.0041 41.9939C40.0126 41.4953 40.1202 41.0032 40.3207 40.5457C40.5213 40.0883 40.811 39.6744 41.1731 39.3278C41.5353 38.9812 41.9629 38.7086 42.4315 38.5257C42.9001 38.3427 43.4005 38.2529 43.9041 38.2614C44.4046 38.2533 44.9018 38.3438 45.3666 38.5276C45.8315 38.7115 46.2547 38.9851 46.6118 39.3324C46.9689 39.6797 47.2526 40.0939 47.4465 40.5508C47.6404 41.0078 47.7405 41.4983 47.7411 41.9939V45.756C47.7619 47.3861 48.4305 48.9423 49.6022 50.0877C50.7738 51.2331 52.354 51.8754 54.0006 51.8754C55.6471 51.8754 57.2274 51.2331 58.399 50.0877C59.5706 48.9423 60.2393 47.3861 60.2601 45.756V41.9939C60.2686 41.4953 60.3762 41.0032 60.5767 40.5457C60.7773 40.0883 61.067 39.6744 61.4291 39.3278C61.7913 38.9812 62.2189 38.7086 62.6875 38.5257C63.1561 38.3427 63.6564 38.2529 64.1601 38.2614C64.6605 38.2534 65.1576 38.344 65.6223 38.5279C66.087 38.7119 66.5102 38.9854 66.8672 39.3328C67.2241 39.6801 67.5078 40.0942 67.7016 40.5511C67.8954 41.0079 67.9955 41.4984 67.9961 41.9939V45.756C67.9961 49.4321 66.5211 52.9576 63.8956 55.5569C61.2701 58.1563 57.7091 59.6166 53.9961 59.6166C50.2831 59.6166 46.7221 58.1563 44.0966 55.5569C41.4711 52.9576 39.9961 49.4321 39.9961 45.756L40.0041 41.9939Z" fill="white"/>
<path d="M47.8039 32.6734C47.8039 33.4371 47.5752 34.1836 47.1466 34.8186C46.7181 35.4535 46.109 35.9484 45.3964 36.2407C44.6837 36.5329 43.8996 36.6094 43.1431 36.4604C42.3865 36.3114 41.6916 35.9437 41.1462 35.4037C40.6008 34.8637 40.2293 34.1757 40.0788 33.4267C39.9284 32.6777 40.0056 31.9014 40.3008 31.1958C40.596 30.4903 41.0958 29.8872 41.7372 29.463C42.3785 29.0387 43.1326 28.8123 43.9039 28.8123C44.9382 28.8123 45.9302 29.2191 46.6616 29.9432C47.393 30.6673 47.8039 31.6494 47.8039 32.6734Z" fill="white"/>
<path d="M68.007 32.6734C68.007 33.4371 67.7783 34.1836 67.3498 34.8186C66.9212 35.4535 66.3121 35.9484 65.5995 36.2407C64.8869 36.5329 64.1027 36.6094 63.3462 36.4604C62.5897 36.3114 61.8947 35.9437 61.3493 35.4037C60.8039 34.8637 60.4325 34.1757 60.282 33.4267C60.1315 32.6777 60.2087 31.9014 60.5039 31.1958C60.7991 30.4903 61.299 29.8872 61.9403 29.463C62.5817 29.0387 63.3357 28.8123 64.107 28.8123C65.1414 28.8123 66.1334 29.2191 66.8647 29.9432C67.5961 30.6673 68.007 31.6494 68.007 32.6734Z" fill="white"/>
<defs>
<filter id="filter0_d_4435_68921" x="0.0078125" y="0" width="109" height="109.243" filterUnits="userSpaceOnUse" color-interpolation-filters="sRGB">
<feFlood flood-opacity="0" result="BackgroundImageFix"/>
<feColorMatrix in="SourceAlpha" type="matrix" values="0 0 0 0 0 0 0 0 0 0 0 0 0 0 0 0 0 0 127 0" result="hardAlpha"/>
<feOffset dy="12"/>
<feGaussianBlur stdDeviation="8.5"/>
<feColorMatrix type="matrix" values="0 0 0 0 0 0 0 0 0 0 0 0 0 0 0 0 0 0 0.161 0"/>
<feBlend mode="normal" in2="BackgroundImageFix" result="effect1_dropShadow_4435_68921"/>
<feBlend mode="normal" in="SourceGraphic" in2="effect1_dropShadow_4435_68921" result="shape"/>
</filter>
</defs>
</svg>
