<svg width="75" height="76" viewBox="0 0 75 76" fill="none" xmlns="http://www.w3.org/2000/svg">
<path d="M37.5078 73.3341C32.7178 73.3341 28.0718 72.3963 23.699 70.5468C19.4726 68.7592 15.6761 66.1992 12.4149 62.938C9.15182 59.675 6.58996 55.8752 4.80042 51.6443C2.94738 47.2632 2.00781 42.6079 2.00781 37.8078C2.00781 33.0077 2.94738 28.3524 4.80042 23.9714C6.58996 19.7404 9.15182 15.9407 12.4149 12.6776C15.6761 9.41642 19.4726 6.85644 23.699 5.06883C28.0718 3.21929 32.7178 2.28149 37.5078 2.28149C42.2979 2.28149 46.9438 3.21929 51.3166 5.06883C55.543 6.85644 59.3395 9.41642 62.6008 12.6776C65.8638 15.9407 68.4257 19.7404 70.2152 23.9714C72.0682 28.3524 73.0078 33.0077 73.0078 37.8078C73.0078 42.6079 72.0682 47.2632 70.2152 51.6443C68.4257 55.8752 65.8638 59.675 62.6008 62.938C59.3395 66.1992 55.543 68.7592 51.3166 70.5468C46.9438 72.3963 42.2979 73.3341 37.5078 73.3341Z" fill="#C22716"/>
<path d="M50.7235 6.42245L50.5287 6.88295L50.7235 6.42245C46.5389 4.65251 42.0917 3.75523 37.5078 3.75523C32.9239 3.75523 28.4767 4.65251 24.2921 6.42245L24.4869 6.88295L24.2921 6.42245C20.2451 8.13419 16.6086 10.5867 13.4848 13.7105C10.3574 16.8379 7.90113 20.4809 6.18559 24.5369C4.40863 28.7381 3.50781 33.2039 3.50781 37.8079C3.50781 42.4119 4.40863 46.8776 6.18559 51.0788C7.90113 55.1348 10.3574 58.7778 13.4848 61.9053C16.6086 65.029 20.2451 67.4815 24.2921 69.1933C28.4767 70.9632 32.9239 71.8605 37.5078 71.8605C42.0917 71.8605 46.5389 70.9632 50.7235 69.1933C54.7705 67.4815 58.407 65.029 61.5308 61.9053C64.6582 58.7778 67.1145 55.1348 68.83 51.0788C70.607 46.8776 71.5078 42.4119 71.5078 37.8079C71.5078 33.2039 70.607 28.7381 68.83 24.5369C67.1145 20.4809 64.6582 16.8379 61.5308 13.7105C58.407 10.5867 54.7705 8.13419 50.7235 6.42245ZM37.5078 0.807861C57.9423 0.807861 74.5078 17.3733 74.5078 37.8079C74.5078 58.2424 57.9423 74.8079 37.5078 74.8079C17.0733 74.8079 0.507812 58.2424 0.507812 37.8079C0.507812 17.3733 17.0733 0.807861 37.5078 0.807861Z" fill="#C22716" stroke="white"/>
<path d="M23.0041 37.1821C23.0126 36.6851 23.1202 36.1946 23.3207 35.7386C23.5213 35.2827 23.811 34.8702 24.1731 34.5247C24.5353 34.1792 24.9629 33.9075 25.4315 33.7251C25.9001 33.5427 26.4005 33.4532 26.9041 33.4617C27.4046 33.4536 27.9018 33.5438 28.3666 33.7271C28.8315 33.9104 29.2547 34.183 29.6118 34.5293C29.9689 34.8755 30.2526 35.2883 30.4465 35.7438C30.6404 36.1992 30.7405 36.6881 30.7411 37.1821V40.9321C30.7619 42.5569 31.4305 44.1081 32.6022 45.2498C33.7738 46.3915 35.354 47.0317 37.0006 47.0317C38.6471 47.0317 40.2274 46.3915 41.399 45.2498C42.5706 44.1081 43.2393 42.5569 43.2601 40.9321V37.1821C43.2686 36.6851 43.3762 36.1946 43.5767 35.7386C43.7773 35.2827 44.067 34.8702 44.4291 34.5247C44.7913 34.1792 45.2189 33.9075 45.6875 33.7251C46.1561 33.5427 46.6564 33.4532 47.1601 33.4617C47.6605 33.4538 48.1576 33.5441 48.6223 33.7274C49.087 33.9107 49.5102 34.1834 49.8672 34.5296C50.2241 34.8758 50.5078 35.2886 50.7016 35.744C50.8954 36.1994 50.9955 36.6882 50.9961 37.1821V40.9321C50.9961 44.5963 49.5211 48.1104 46.8956 50.7014C44.2701 53.2923 40.7091 54.7479 36.9961 54.7479C33.2831 54.7479 29.7221 53.2923 27.0966 50.7014C24.4711 48.1104 22.9961 44.5963 22.9961 40.9321L23.0041 37.1821Z" fill="white"/>
<path d="M30.8039 27.8919C30.8039 28.6531 30.5752 29.3972 30.1466 30.0301C29.7181 30.663 29.109 31.1563 28.3964 31.4476C27.6837 31.7389 26.8996 31.8151 26.1431 31.6666C25.3865 31.5181 24.6916 31.1516 24.1462 30.6133C23.6008 30.0751 23.2293 29.3893 23.0788 28.6427C22.9284 27.8962 23.0056 27.1223 23.3008 26.4191C23.596 25.7158 24.0958 25.1147 24.7372 24.6918C25.3785 24.2689 26.1326 24.0432 26.9039 24.0432C27.9382 24.0432 28.9302 24.4487 29.6616 25.1705C30.393 25.8922 30.8039 26.8712 30.8039 27.8919" fill="white"/>
<path d="M51.007 27.8919C51.007 28.6531 50.7783 29.3972 50.3498 30.0301C49.9212 30.663 49.3121 31.1563 48.5995 31.4476C47.8869 31.7389 47.1027 31.8151 46.3462 31.6666C45.5897 31.5181 44.8947 31.1516 44.3493 30.6133C43.8039 30.0751 43.4325 29.3893 43.282 28.6427C43.1315 27.8962 43.2087 27.1223 43.5039 26.4191C43.7991 25.7158 44.299 25.1147 44.9403 24.6918C45.5817 24.2689 46.3357 24.0432 47.107 24.0432C48.1414 24.0432 49.1334 24.4487 49.8647 25.1705C50.5961 25.8922 51.007 26.8712 51.007 27.8919" fill="white"/>
</svg>
