<svg width="40" height="40" viewBox="0 0 40 40" fill="none" xmlns="http://www.w3.org/2000/svg">
<g clip-path="url(#clip0_2534_41349)">
<rect x="5" y="5" width="30" height="30" rx="2.75862" fill="url(#paint0_linear_2534_41349)"/>
</g>
<path d="M20 1.66748L5 8.33427V18.3338C5 27.5843 11.3994 36.2389 20 38.3341C28.5993 36.2389 35 27.5843 35 18.3338V8.33427L20 1.66748ZM16.6661 28.3346L9.99956 21.6678L12.3501 19.3172L16.6713 23.6177L27.6539 12.6347L30.0044 15.0011L16.6661 28.3346Z" fill="url(#paint1_linear_2534_41349)"/>
<path d="M12.4141 21.3033L17.0825 26.2075L27.5865 15.173" stroke="url(#paint2_linear_2534_41349)" stroke-width="4.13793" stroke-linecap="round" stroke-linejoin="round"/>
<defs>
<linearGradient id="paint0_linear_2534_41349" x1="5" y1="20" x2="35" y2="20" gradientUnits="userSpaceOnUse">
<stop stop-color="#D29A00"/>
<stop offset="0.35" stop-color="#FFD664"/>
<stop offset="0.69" stop-color="#D09C0C"/>
<stop offset="1" stop-color="#FFDA71"/>
</linearGradient>
<linearGradient id="paint1_linear_2534_41349" x1="5" y1="20.0008" x2="35" y2="20.0008" gradientUnits="userSpaceOnUse">
<stop stop-color="#D29A00"/>
<stop offset="0.35" stop-color="#FFD664"/>
<stop offset="0.69" stop-color="#D09C0C"/>
<stop offset="1" stop-color="#FFDA71"/>
</linearGradient>
<linearGradient id="paint2_linear_2534_41349" x1="17.8508" y1="28.7539" x2="28.5" y2="20.7914" gradientUnits="userSpaceOnUse">
<stop stop-color="#770000"/>
<stop offset="0.51" stop-color="#BF0808"/>
<stop offset="1" stop-color="#770000"/>
</linearGradient>
<clipPath id="clip0_2534_41349">
<rect width="22" height="18" fill="white" transform="translate(9 11)"/>
</clipPath>
</defs>
</svg>
