<svg width="24" height="25" viewBox="0 0 24 25" fill="none" xmlns="http://www.w3.org/2000/svg">
<path d="M10.5508 11.087L11.7682 9.86963V14.7392H10.5508H12.9856" stroke="#555555" stroke-width="1.2" stroke-linecap="round" stroke-linejoin="round"/>
<path fill-rule="evenodd" clip-rule="evenodd" d="M13.5992 5H7.4C7.0287 5 6.6726 5.1475 6.41005 5.41005C6.1475 5.6726 6 6.0287 6 6.4V17.6C6 17.9713 6.1475 18.3274 6.41005 18.5899C6.6726 18.8525 7.0287 19 7.4 19H15.8C16.1713 19 16.5274 18.8525 16.7899 18.5899C17.0525 18.3274 17.2 17.9713 17.2 17.6V9.8433C17.2 9.69953 17.1558 9.55924 17.0733 9.4415L14.1725 5.2982C14.1079 5.20609 14.0221 5.13089 13.9223 5.07899C13.8225 5.02708 13.7117 4.99998 13.5992 5Z" stroke="#555555" stroke-width="1.2" stroke-linecap="round" stroke-linejoin="bevel"/>
</svg>
