<svg width="25" height="25" viewBox="0 0 25 25" fill="none" xmlns="http://www.w3.org/2000/svg">
<path d="M19.8399 14.99L18.8399 13.33C18.6299 12.96 18.4399 12.26 18.4399 11.85V9.32C18.4399 6.97 17.0599 4.94 15.0699 3.99C14.5499 3.07 13.5899 2.5 12.4899 2.5C11.3999 2.5 10.4199 3.09 9.89994 4.02C7.94994 4.99 6.59994 7 6.59994 9.32V11.85C6.59994 12.26 6.40994 12.96 6.19994 13.32L5.18994 14.99C4.78994 15.66 4.69994 16.4 4.94994 17.08C5.18994 17.75 5.75994 18.27 6.49994 18.52C8.43994 19.18 10.4799 19.5 12.5199 19.5C14.5599 19.5 16.5999 19.18 18.5399 18.53C19.2399 18.3 19.7799 17.77 20.0399 17.08C20.2999 16.39 20.2299 15.63 19.8399 14.99Z" fill="white"/>
<path d="M15.3301 20.51C14.9101 21.67 13.8001 22.5 12.5001 22.5C11.7101 22.5 10.9301 22.18 10.3801 21.61C10.0601 21.31 9.82005 20.91 9.68005 20.5C9.81005 20.52 9.94005 20.53 10.0801 20.55C10.3101 20.58 10.5501 20.61 10.7901 20.63C11.3601 20.68 11.9401 20.71 12.5201 20.71C13.0901 20.71 13.6601 20.68 14.2201 20.63C14.4301 20.61 14.6401 20.6 14.8401 20.57C15.0001 20.55 15.1601 20.53 15.3301 20.51Z" fill="white"/>
</svg>
