<svg width="24" height="24" viewBox="0 0 24 24" fill="none" xmlns="http://www.w3.org/2000/svg">
<g clip-path="url(#clip0_2069_10173)">
<path d="M5.85449 14.7441H9.58082" stroke="#555555" stroke-width="1.5" stroke-linecap="round" stroke-linejoin="round"/>
<path d="M5.94336 17.9614H10.9115" stroke="#555555" stroke-width="1.5" stroke-linecap="round" stroke-linejoin="round"/>
<path d="M20.3106 8.85854V11.7781C20.3106 12.1336 20.2062 12.4745 20.0204 12.7258C19.8347 12.9772 19.5827 13.1184 19.3199 13.1184H11.4243C11.1615 13.1184 10.9095 12.9772 10.7238 12.7258C10.538 12.4745 10.4336 12.1336 10.4336 11.7781V5.5771C10.4336 5.22163 10.538 4.88073 10.7238 4.62937C10.9095 4.37802 11.1615 4.23682 11.4243 4.23682H14.7595" stroke="#555555" stroke-width="1.5" stroke-linecap="round" stroke-linejoin="bevel"/>
<path d="M14.0249 16.2798V19.5238C14.0249 19.9187 13.9111 20.2975 13.7084 20.5768C13.5057 20.8561 13.2308 21.013 12.9442 21.013H4.33073C4.04411 21.013 3.76922 20.8561 3.56654 20.5768C3.36386 20.2975 3.25 19.9187 3.25 19.5238V12.6337C3.25 12.2388 3.36386 11.86 3.56654 11.5807C3.76922 11.3014 4.04411 11.1445 4.33073 11.1445H7.96921" stroke="#555555" stroke-width="1.5" stroke-linecap="round" stroke-linejoin="bevel"/>
<path d="M19.1742 3.68245C19.1242 3.62739 19.0648 3.58372 18.9994 3.55392C18.934 3.52413 18.8638 3.50879 18.793 3.50879C18.7222 3.50879 18.6521 3.52413 18.5867 3.55392C18.5213 3.58372 18.4619 3.62739 18.4119 3.68245L15.1893 7.22422L15.1354 8.9956C15.1346 9.01347 15.1372 9.03133 15.1432 9.04796C15.1492 9.06458 15.1584 9.07959 15.1702 9.09196C15.182 9.10433 15.196 9.11376 15.2114 9.11961C15.2268 9.12546 15.2431 9.12759 15.2593 9.12587L16.8711 9.06666L20.0919 5.52685C20.1846 5.4164 20.2356 5.27134 20.2346 5.12108C20.2336 4.97082 20.1806 4.8266 20.0865 4.71764L19.1742 3.68245Z" stroke="#555555" stroke-width="1.5" stroke-linecap="round" stroke-linejoin="round"/>
</g>
<defs>
<clipPath id="clip0_2069_10173">
<rect width="24" height="24" fill="white"/>
</clipPath>
</defs>
</svg>
