<svg width="24" height="24" viewBox="0 0 24 24" fill="none" xmlns="http://www.w3.org/2000/svg">
<path d="M12 21.402C16.1421 21.402 19.5 18.306 19.5 14.4869C19.5 10.6678 16.1421 7.57178 12 7.57178C7.85786 7.57178 4.5 10.6678 4.5 14.4869C4.5 18.306 7.85786 21.402 12 21.402Z" stroke="#555555" stroke-width="1.3" stroke-linecap="round" stroke-linejoin="round"/>
<path d="M9.45878 7.57195L6.64628 4.57858C6.53682 4.4574 6.4687 4.31166 6.44975 4.15811C6.4308 4.00456 6.46181 3.84945 6.53919 3.71064C6.61657 3.57183 6.73719 3.45495 6.88716 3.37346C7.03714 3.29197 7.21036 3.24918 7.38691 3.25001H16.6119C16.7877 3.25072 16.9596 3.29463 17.1082 3.37673C17.2568 3.45883 17.376 3.57581 17.4523 3.71433C17.5285 3.85285 17.5587 4.00733 17.5394 4.16015C17.5201 4.31296 17.4521 4.45795 17.3432 4.57858L14.5307 7.57195" stroke="#555555" stroke-width="1.3" stroke-linecap="round" stroke-linejoin="round"/>
<path d="M10.1157 13.0266L12.2626 10.7705V17.6856" stroke="#555555" stroke-width="1.5" stroke-linecap="round" stroke-linejoin="round"/>
</svg>
