<svg width="24" height="24" viewBox="0 0 24 24" fill="none" xmlns="http://www.w3.org/2000/svg">
<path d="M6.41389 4.81469L6.41389 4.81468C6.40686 4.70625 6.40434 4.60681 6.40634 4.52372C6.40828 4.44295 6.4146 4.37038 6.42825 4.31968C6.42825 4.31967 6.42826 4.31967 6.42826 4.31966L6.41389 4.81469ZM6.41389 4.81469L6.429 5.04777M6.41389 4.81469L6.429 5.04777M6.429 5.04777H5.44454H5.44432C4.83462 5.04777 4.51231 5.04777 4.3276 5.07955C4.2312 5.09613 4.15921 5.12313 4.10075 5.17204C4.04666 5.2173 4.01191 5.27588 3.97929 5.33087L3.97719 5.3344L3.97719 5.33441C3.95971 5.36387 3.94226 5.39406 3.9291 5.42934C3.91547 5.46591 3.90782 5.50392 3.90381 5.55061C3.89625 5.6387 3.90088 5.7727 3.90988 6.01111L3.90988 6.01111C3.9718 7.64788 4.31372 9.07208 4.95607 10.3578C5.91805 12.2832 7.35568 13.4802 8.9941 13.6819L9.20425 13.7077L9.45087 13.9411C9.60236 14.0844 9.83814 14.2801 9.97772 14.3779L9.97773 14.3779L10.1801 14.5196V16.4567L9.75626 16.457C9.40098 16.4573 9.16743 16.4711 9.03628 16.506C8.40749 16.6733 7.89359 17.1802 7.72821 17.7993C7.69479 17.9243 7.66809 18.2114 7.65668 18.5274L7.65668 18.5275L7.6408 18.9685L7.60909 18.9744L7.62751 19.0727L7.60909 18.9744C7.51325 18.9924 7.42076 19.0526 7.34916 19.123L6.429 5.04777ZM7.5096 20.044C7.26044 19.9399 7.11567 19.6437 7.18751 19.3837L7.5096 20.044ZM7.5096 20.044C7.52462 20.0503 7.54032 20.0526 7.54638 20.0535L7.54662 20.0536C7.55584 20.055 7.56649 20.0561 7.5778 20.0572C7.6006 20.0592 7.6307 20.0611 7.66693 20.0629C7.73964 20.0665 7.84092 20.0698 7.96622 20.0728C8.21701 20.0789 8.56658 20.0839 8.98168 20.0879C9.81202 20.096 10.9061 20.1 12 20.1C13.0939 20.1 14.188 20.096 15.0183 20.0879C15.4334 20.0839 15.783 20.0789 16.0338 20.0728C16.1591 20.0698 16.2604 20.0665 16.3331 20.0629C16.3693 20.0611 16.3994 20.0592 16.4222 20.0572C16.4335 20.0561 16.4442 20.055 16.4534 20.0536L16.4536 20.0535C16.4597 20.0526 16.4753 20.0503 16.4903 20.044C16.4904 20.044 16.4904 20.044 16.4904 20.044L16.4518 19.9517C16.6548 19.867 16.7745 19.6216 16.7161 19.4103M7.5096 20.044L16.391 18.9744L16.391 18.9744C16.4868 18.9924 16.5793 19.0526 16.6509 19.123C16.7231 19.194 16.7856 19.2866 16.8125 19.3837M16.7161 19.4103L16.8125 19.3837M16.7161 19.4103C16.6741 19.2583 16.5118 19.0988 16.3726 19.0727L16.8125 19.3837M16.7161 19.4103L16.8124 19.3836C16.8124 19.3837 16.8125 19.3837 16.8125 19.3837M7.62313 10.8522L7.53018 10.8891C7.00739 9.57127 6.64956 7.99921 6.4981 6.36036L6.48329 6.20019L5.04649 6.18563C5.05599 6.25556 5.07054 6.41137 5.08044 6.54706M7.62313 10.8522L5.08044 6.54706M7.62313 10.8522L7.53018 10.8891C7.68717 11.2848 7.99051 11.9288 8.17358 12.2575C8.15503 12.2484 8.13598 12.2389 8.11666 12.2292L8.11665 12.2292C7.32544 11.8314 6.6125 11.0514 6.07322 10.0458C5.53456 9.04131 5.17323 7.81887 5.08044 6.54706M7.62313 10.8522L5.08044 6.54706M18.9535 6.18547H18.2574C18.0346 6.18547 17.8309 6.18811 17.6823 6.19233C17.6135 6.19428 17.5573 6.19656 17.5167 6.19901C17.516 6.20427 17.5153 6.20981 17.5146 6.21561C17.5084 6.26644 17.5016 6.33415 17.4957 6.40617C17.4957 6.40618 17.4957 6.40619 17.4957 6.40619L17.3961 6.39805L18.9535 6.18547ZM18.9535 6.18547C18.9441 6.2546 18.9295 6.41076 18.9196 6.54711M18.9535 6.18547L18.9196 6.54711M18.9196 6.54711C18.9196 6.54709 18.9196 6.54708 18.9196 6.54706L19.0193 6.55434L18.9196 6.54711ZM18.9196 6.54711C18.7556 8.79455 17.7591 10.8904 16.3842 11.922L16.3841 11.922C16.2889 11.9935 16.1048 12.1058 15.933 12.2014C15.8957 12.2222 15.8593 12.242 15.8249 12.2602L18.9196 6.54711ZM15.1827 18.565V18.565C15.1822 18.1488 15.1705 18.0693 15.1339 17.9891C15.1079 17.9322 15.0599 17.8644 14.9997 17.8006C14.9397 17.7369 14.8727 17.6826 14.8128 17.6494C14.8103 17.648 14.7954 17.6402 14.7234 17.6332C14.6527 17.6264 14.5386 17.6211 14.3467 17.6171C13.9637 17.6091 13.2826 17.6062 12.0467 17.6031L11.8735 17.6027C10.5247 17.5993 9.85563 17.5976 9.50185 17.6154C9.31611 17.6247 9.22846 17.6391 9.17786 17.6565C9.13756 17.6704 9.12088 17.6853 9.08015 17.7216C9.07699 17.7244 9.07369 17.7274 9.07021 17.7305L15.1827 18.565ZM15.1827 18.565L15.1833 18.9572M15.1827 18.565L15.1833 18.9572M15.1833 18.9572H8.81673L8.81728 18.565C8.81769 18.2668 8.82601 18.1129 8.85999 18.005C8.89098 17.9067 8.94511 17.8417 9.0702 17.7305L15.1833 18.9572ZM6.77204 3.93325L6.772 3.93326L14.9637 16.506C14.8325 16.4711 14.599 16.4573 14.2437 16.457L13.8199 16.4567V14.5196L14.0223 14.3779L14.0223 14.3779C14.1619 14.2801 14.3977 14.0844 14.5491 13.9411L14.7957 13.7077L15.0059 13.6819C16.6443 13.4802 18.082 12.2832 19.0439 10.3578C19.6863 9.07208 20.0282 7.64788 20.0901 6.01111C20.0991 5.77271 20.1038 5.6387 20.0962 5.55061C20.0922 5.50392 20.0845 5.46592 20.0709 5.42937C20.0578 5.39409 20.0403 5.36391 20.0229 5.33447L20.0228 5.33438L20.0209 5.33103C19.9882 5.27598 19.9534 5.21739 19.8993 5.17211C19.8409 5.12323 19.769 5.0962 19.6728 5.0796C19.4885 5.04779 19.1671 5.04777 18.5595 5.04777H17.5741L17.5801 4.73033C17.5843 4.50674 17.5842 4.36101 17.5503 4.25378C17.5122 4.13298 17.4344 4.06725 17.3326 3.9912L17.3325 3.99117L17.3323 3.99101C17.3192 3.98124 17.2995 3.96655 17.2659 3.95527C17.2367 3.94546 17.2005 3.93928 17.1519 3.93448C17.0541 3.92483 16.8806 3.91861 16.5541 3.91422C15.8985 3.9054 14.6102 3.9039 12.0369 3.90091C10.3522 3.89896 9.05779 3.90016 8.17813 3.9044C7.73835 3.90652 7.40192 3.90941 7.1721 3.91304C7.05727 3.91486 6.96853 3.91687 6.90662 3.91909C6.87579 3.9202 6.85078 3.92138 6.83221 3.92269C6.82303 3.92333 6.81436 3.92408 6.80687 3.92499C6.80671 3.92501 6.80652 3.92503 6.80629 3.92506C6.80219 3.92554 6.7868 3.92736 6.77204 3.93325ZM7.57679 5.43278L7.57679 5.43278L7.56016 5.02896H16.4398L16.4232 5.43278C16.3048 8.30974 15.4496 11.0753 14.2121 12.629C13.5813 13.421 12.8893 13.8434 12.2029 13.9134C11.5186 13.9831 10.8179 13.7047 10.1626 13.0486C9.45027 12.3354 8.83594 11.2311 8.38325 9.90116C7.93101 8.57258 7.64236 7.02543 7.57679 5.43278ZM11.3182 16.4567V14.9926C11.3642 15.0029 11.4254 15.0164 11.4784 15.0279L11.4997 14.9302L11.4784 15.0279C11.5675 15.0473 11.8025 15.061 12 15.061C12.1975 15.061 12.4325 15.0473 12.5216 15.0279L12.5003 14.9302L12.5216 15.0279C12.5746 15.0164 12.6358 15.0029 12.6818 14.9926V16.4567H11.3182Z" fill="#555555" stroke="#555555" stroke-width="0.2"/>
</svg>
