<svg width="24" height="24" viewBox="0 0 24 24" fill="none" xmlns="http://www.w3.org/2000/svg">
<path d="M4.72754 19.1313L5.30193 17.0592C6.25371 13.6561 8.76357 11.9365 11.2727 11.9365" stroke="#555555" stroke-width="1.3" stroke-linecap="round" stroke-linejoin="round"/>
<path d="M11.2727 11.9223C13.281 11.9223 14.9091 10.3117 14.9091 8.32493C14.9091 6.33815 13.281 4.72754 11.2727 4.72754C9.26432 4.72754 7.63623 6.33815 7.63623 8.32493C7.63623 10.3117 9.26432 11.9223 11.2727 11.9223Z" stroke="#555555" stroke-width="1.3" stroke-linecap="round" stroke-linejoin="bevel"/>
<path d="M12.8866 16.6588C12.8806 16.6437 12.8723 16.6312 12.8629 16.6214C12.854 16.6122 12.8444 16.6056 12.8351 16.6014L12.7733 16.5777L12.7626 16.5736L12.7627 16.5735C12.5541 16.4879 12.3793 16.339 12.2599 16.1503C12.1406 15.9617 12.0814 15.7415 12.0884 15.5195L12.0889 15.5068L12.089 15.5068C12.1016 15.2857 12.1793 15.0719 12.314 14.8946C12.4489 14.717 12.6352 14.5837 12.8498 14.516L12.8562 14.5139L12.8563 14.514L12.9256 14.4931L12.9277 14.4925L12.9277 14.4925C12.9388 14.4892 12.9504 14.4832 12.9613 14.4738C12.9719 14.4647 12.9818 14.4525 12.9894 14.4373C12.9943 14.4266 12.9973 14.4142 12.9976 14.401C12.9979 14.3876 12.9954 14.3748 12.9909 14.3636L12.9652 14.3041L12.9573 14.2847C12.8777 14.0773 12.8631 13.8502 12.9148 13.6344C12.9665 13.4187 13.0827 13.2223 13.2503 13.0743C13.4146 12.9288 13.6178 12.8337 13.8364 12.803C14.0552 12.7723 14.2774 12.8078 14.4757 12.9041L14.4875 12.9098L14.4875 12.91L14.5489 12.9418C14.5633 12.949 14.5781 12.9528 14.5927 12.9538C14.6076 12.9547 14.6228 12.9526 14.6377 12.9473L14.6413 12.946L14.6413 12.946C14.6519 12.9423 14.6629 12.9359 14.6732 12.9263C14.6835 12.9165 14.6929 12.9036 14.6998 12.8878L14.7034 12.8854L14.7254 12.8315L14.7353 12.809C14.8279 12.6108 14.9757 12.4422 15.163 12.326C15.3505 12.2097 15.5684 12.1517 15.7898 12.1612C16.0112 12.1706 16.2233 12.2469 16.4002 12.3783C16.5769 12.5095 16.7104 12.6894 16.7867 12.8941L16.7974 12.9257L16.8156 12.9866C16.8209 13.0006 16.8284 13.0124 16.8368 13.0219C16.8462 13.0323 16.8564 13.0394 16.8663 13.0438L16.8691 13.045L16.8691 13.045C16.8838 13.0517 16.899 13.055 16.9139 13.0553C16.9285 13.0555 16.9435 13.0529 16.958 13.047L17.02 13.0212L17.0271 13.0182L17.0272 13.0182C17.2344 12.9355 17.4614 12.9173 17.6793 12.9664C17.8967 13.0155 18.093 13.1287 18.2452 13.2894C18.401 13.453 18.5003 13.6613 18.5321 13.8832C18.5639 14.1054 18.5268 14.3331 18.4247 14.5338L18.4216 14.5399L18.4216 14.5399L18.3886 14.6025C18.3832 14.613 18.3795 14.6254 18.3786 14.639C18.3778 14.6519 18.3795 14.6646 18.3835 14.676C18.3894 14.6912 18.3978 14.7039 18.4073 14.7137C18.4162 14.723 18.4259 14.7296 18.4353 14.7338L18.4974 14.7577L18.508 14.7617L18.508 14.7619C18.7166 14.8474 18.8914 14.9964 19.0108 15.1851C19.1301 15.3736 19.1892 15.5938 19.1822 15.8158L19.1818 15.8285L19.1817 15.8285C19.1691 16.0497 19.0914 16.2634 18.9567 16.4408C18.8218 16.6184 18.6355 16.7516 18.4209 16.8194L18.4144 16.8214L18.4144 16.8214L18.3451 16.8422L18.343 16.8428L18.343 16.8428C18.3319 16.8461 18.3203 16.8521 18.3094 16.8615C18.2987 16.8706 18.2889 16.8828 18.2813 16.898C18.2764 16.9087 18.2734 16.9212 18.2731 16.9344C18.2728 16.9477 18.2752 16.9605 18.2798 16.9717L18.3055 17.0313L18.3109 17.0438L18.3108 17.0439C18.394 17.252 18.4115 17.481 18.3613 17.6991C18.3111 17.9174 18.195 18.1165 18.0262 18.2666C17.8615 18.4138 17.6571 18.51 17.437 18.5409C17.2162 18.572 16.9921 18.5355 16.7925 18.4373L16.7852 18.4336L16.7852 18.4336L16.7222 18.4013C16.722 18.4012 16.7219 18.4011 16.7217 18.401C16.7071 18.3937 16.692 18.3897 16.6773 18.3888C16.6624 18.3878 16.6472 18.3899 16.6323 18.3953L16.6287 18.3965L16.6287 18.3965C16.6181 18.4002 16.6071 18.4066 16.5968 18.4163C16.5872 18.4254 16.5783 18.4372 16.5716 18.4517L16.5474 18.511L16.5375 18.5336C16.4448 18.7317 16.2971 18.9003 16.1098 19.0165C15.9223 19.1329 15.7043 19.1908 15.4829 19.1814C15.2616 19.1719 15.0495 19.0957 14.8725 18.9643C14.6958 18.8331 14.5624 18.6532 14.486 18.4484L14.4754 18.4168L14.4556 18.3504C14.4504 18.3352 14.4427 18.3223 14.4338 18.3121C14.4244 18.3014 14.4142 18.2942 14.4042 18.2896L14.4019 18.2886C14.387 18.2817 14.3716 18.2782 14.3566 18.2779C14.3423 18.2776 14.3276 18.2801 14.3133 18.2856L14.2544 18.3109L14.2429 18.3158L14.2428 18.3157C14.0356 18.3984 13.8086 18.4166 13.5907 18.3675C13.3733 18.3185 13.177 18.2052 13.0248 18.0445M12.8866 16.6588L12.8814 16.7321C12.8815 16.7318 12.8816 16.7316 12.8817 16.7313M12.8866 16.6588C12.8905 16.6702 12.8922 16.6828 12.8914 16.6956C12.8905 16.7089 12.887 16.721 12.8817 16.7313M12.8866 16.6588L12.8817 16.7313M13.0248 18.0445C13.0245 18.0442 13.0242 18.0439 13.0239 18.0436L13.3873 17.7002L13.0256 18.0454C13.0254 18.0451 13.0251 18.0448 13.0248 18.0445ZM13.0248 18.0445C12.869 17.8809 12.7697 17.6726 12.7379 17.4507C12.7061 17.2285 12.7432 17.0008 12.8453 16.8001L12.8494 16.7919L12.8495 16.7919L12.8817 16.7313" stroke="#555555" stroke-linecap="round" stroke-linejoin="bevel"/>
<path d="M15.6365 16.8397C16.2909 16.8397 16.8214 16.3149 16.8214 15.6676C16.8214 15.0203 16.2909 14.4956 15.6365 14.4956C14.9821 14.4956 14.4517 15.0203 14.4517 15.6676C14.4517 16.3149 14.9821 16.8397 15.6365 16.8397Z" stroke="#555555" stroke-linecap="round" stroke-linejoin="bevel"/>
</svg>
