<svg width="24" height="24" viewBox="0 0 24 24" fill="none" xmlns="http://www.w3.org/2000/svg">
<path d="M8 6C8 5.44772 8.44772 5 9 5H15C15.5523 5 16 5.44772 16 6V8.8C16 9.05678 15.9012 9.30371 15.7241 9.48966L13.9901 11.3103C13.6223 11.6966 13.6223 12.3034 13.9901 12.6897L15.7241 14.5103C15.9012 14.6963 16 14.9432 16 15.2V18C16 18.5523 15.5523 19 15 19H9C8.44772 19 8 18.5523 8 18V15.2C8 14.9432 8.09877 14.6963 8.27586 14.5103L10.0099 12.6897C10.3777 12.3034 10.3777 11.6966 10.0099 11.3103L8.27586 9.48966C8.09877 9.30371 8 9.05678 8 8.8V6ZM14.6667 15.55C14.6667 15.2932 14.5679 15.0463 14.3908 14.8603L12.7241 13.1103C12.33 12.6966 11.67 12.6966 11.2759 13.1103L9.6092 14.8603C9.43211 15.0463 9.33333 15.2932 9.33333 15.55V16.6C9.33333 17.1523 9.78105 17.6 10.3333 17.6H13.6667C14.219 17.6 14.6667 17.1523 14.6667 16.6V15.55ZM11.2759 10.8897C11.67 11.3034 12.33 11.3034 12.7241 10.8897L14.3908 9.13966C14.5679 8.95371 14.6667 8.70678 14.6667 8.45V7.4C14.6667 6.84772 14.219 6.4 13.6667 6.4H10.3333C9.78105 6.4 9.33333 6.84772 9.33333 7.4V8.45C9.33333 8.70678 9.43211 8.95371 9.6092 9.13966L11.2759 10.8897ZM10.6667 8.175C10.6667 7.96789 10.8346 7.8 11.0417 7.8H12.9583C13.1654 7.8 13.3333 7.96789 13.3333 8.175V8.175C13.3333 8.27129 13.2963 8.36389 13.2299 8.43362L12.7241 8.96466C12.33 9.37845 11.67 9.37845 11.2759 8.96466L10.7701 8.43362C10.7037 8.36389 10.6667 8.27129 10.6667 8.175V8.175Z" fill="#555555"/>
</svg>
