<svg width="24" height="24" viewBox="0 0 24 24" fill="none" xmlns="http://www.w3.org/2000/svg">
<path fill-rule="evenodd" clip-rule="evenodd" d="M8.532 5.2C6.508 5.2 5.2 6.5864 5.2 8.7328V15.2672C5.2 17.4136 6.508 18.8 8.532 18.8H15.4664C17.4912 18.8 18.8 17.4136 18.8 15.2672V8.7328C18.8 6.5864 17.4912 5.2 15.4672 5.2H8.532ZM15.4664 20H8.532C5.8208 20 4 18.0976 4 15.2672V8.7328C4 5.9024 5.8208 4 8.532 4H15.4672C18.1784 4 20 5.9024 20 8.7328V15.2672C20 18.0976 18.1784 20 15.4664 20V20Z" fill="#555555"/>
<path fill-rule="evenodd" clip-rule="evenodd" d="M8.08121 12.5221C7.94545 12.3863 7.8613 12.1989 7.86201 11.9917C7.86201 11.5774 8.19718 11.2422 8.61154 11.2422H15.3885C15.8028 11.2422 16.138 11.5774 16.138 11.9917C16.138 12.4061 15.8028 12.7413 15.3885 12.7413H8.61154C8.40436 12.742 8.21698 12.6578 8.08121 12.5221" fill="#555555"/>
<path fill-rule="evenodd" clip-rule="evenodd" d="M11.469 15.913C11.3332 15.7772 11.2491 15.5898 11.2498 15.3826L11.2505 8.59937C11.2505 8.185 11.5856 7.84984 12 7.84984C12.4151 7.85054 12.7502 8.18571 12.7495 8.59937L12.7488 15.3826C12.7488 15.797 12.4137 16.1322 11.9993 16.1322C11.7921 16.1329 11.604 16.048 11.469 15.913" fill="#555555"/>
</svg>
