<svg width="24" height="24" viewBox="0 0 24 24" fill="none" xmlns="http://www.w3.org/2000/svg">
<path fill-rule="evenodd" clip-rule="evenodd" d="M6.87859 7.20654H6.06021C5.5003 7.20654 4.96351 7.4293 4.56787 7.8255C4.17227 8.22167 3.9502 8.75879 3.9502 9.31866V16.2381C3.9502 16.798 4.17227 17.3351 4.56787 17.7313C4.9635 18.1275 5.5003 18.3502 6.06021 18.3502H6.6284C6.98738 18.3502 7.2784 18.0592 7.2784 17.7002C7.2784 17.3412 6.98738 17.0502 6.6284 17.0502H6.06021C5.84568 17.0502 5.63975 16.9649 5.48777 16.8127C5.33576 16.6605 5.2502 16.4538 5.2502 16.2381V9.31866C5.2502 9.10297 5.33576 8.8963 5.48777 8.74408C5.63975 8.59188 5.84568 8.50654 6.06021 8.50654H6.89528C6.84943 8.30189 6.82395 8.09243 6.81964 7.88122C6.81501 7.65402 6.83495 7.42785 6.87859 7.20654ZM12.8944 8.50654C12.9382 8.30551 12.9625 8.09999 12.9665 7.89281C12.971 7.66165 12.9502 7.43156 12.905 7.20654H13.1656C13.7255 7.20654 14.2623 7.4293 14.6579 7.8255C15.0535 8.22167 15.2756 8.75879 15.2756 9.31866V14.3508C15.2756 14.7098 14.9846 15.0008 14.6256 15.0008C14.2666 15.0008 13.9756 14.7098 13.9756 14.3508V9.31866C13.9756 9.10297 13.89 8.8963 13.738 8.74408C13.5861 8.59188 13.3801 8.50654 13.1656 8.50654H12.8944Z" fill="#555555"/>
<path d="M14.6489 10.5566H16.6185C16.7487 10.5563 16.8773 10.5856 16.9945 10.6424C17.1117 10.6992 17.2145 10.7819 17.295 10.8844L18.9387 13.069C19.1065 13.294 19.1982 13.5668 19.2003 13.8476V17.4883C19.2003 17.5075 19.1966 17.5265 19.1892 17.5442C19.1819 17.562 19.1711 17.5781 19.1576 17.5917C19.144 17.6052 19.1279 17.616 19.1102 17.6234C19.0925 17.6307 19.0735 17.6345 19.0543 17.6345H16.8375" stroke="#555555" stroke-width="1.5" stroke-linecap="round" stroke-linejoin="round"/>
<path d="M15.1511 19.2C16.0508 19.2 16.7802 18.4695 16.7802 17.5685C16.7802 16.6674 16.0508 15.937 15.1511 15.937C14.2514 15.937 13.522 16.6674 13.522 17.5685C13.522 18.4695 14.2514 19.2 15.1511 19.2Z" stroke="#555555" stroke-width="1.3" stroke-linecap="round" stroke-linejoin="round"/>
<path d="M8.25022 19.2C9.14997 19.2 9.87936 18.4695 9.87936 17.5685C9.87936 16.6674 9.14997 15.937 8.25022 15.937C7.35048 15.937 6.62109 16.6674 6.62109 17.5685C6.62109 18.4695 7.35048 19.2 8.25022 19.2Z" stroke="#555555" stroke-width="1.3" stroke-linecap="round" stroke-linejoin="round"/>
<path d="M13.1322 17.6802L10.0986 17.6802" stroke="#555555" stroke-width="1.5" stroke-linecap="round" stroke-linejoin="round"/>
<path d="M10.2296 4.69189H9.56042C9.05097 4.75808 8.56545 4.94818 8.14627 5.24559C7.72709 5.543 7.38701 5.93867 7.15573 6.39805C6.92446 6.85743 6.80902 7.36653 6.8195 7.88088C6.82999 8.39523 6.96608 8.89919 7.21588 9.34873L9.56042 13.7083C9.59288 13.7703 9.64168 13.8222 9.70151 13.8585C9.76135 13.8947 9.82994 13.9139 9.89987 13.9139C9.9698 13.9139 10.0384 13.8947 10.0982 13.8585C10.1581 13.8222 10.2069 13.7703 10.2393 13.7083L12.5729 9.36213C12.8213 8.91153 12.9564 8.40709 12.9664 7.89247C12.9763 7.37784 12.861 6.86853 12.6302 6.40861C12.3994 5.94869 12.0602 5.552 11.6419 5.25288C11.2237 4.95376 10.7389 4.76121 10.2296 4.69189Z" stroke="#555555" stroke-width="1.3" stroke-linecap="round" stroke-linejoin="bevel"/>
<path d="M10.9973 7.74122C10.9973 7.13122 10.5035 6.63672 9.89442 6.63672C9.2853 6.63672 8.7915 7.13122 8.7915 7.74122C8.7915 8.35123 9.2853 8.84573 9.89442 8.84573C10.5035 8.84573 10.9973 8.35123 10.9973 7.74122Z" stroke="#555555" stroke-width="1.3" stroke-linecap="round" stroke-linejoin="bevel"/>
</svg>
