<svg width="16" height="16" viewBox="0 0 16 16" fill="none" xmlns="http://www.w3.org/2000/svg">
<rect x="3" y="6" width="10" height="8" fill="#EF9892"/>
<mask id="path-2-inside-1_4184_20473" fill="white">
<path d="M6 9.5C6 9.22386 6.22386 9 6.5 9H9.5C9.77614 9 10 9.22386 10 9.5V14H6V9.5Z"/>
</mask>
<path d="M6 9.5C6 9.22386 6.22386 9 6.5 9H9.5C9.77614 9 10 9.22386 10 9.5V14H6V9.5Z" fill="#EC5241"/>
<path d="M5.6 9.5C5.6 9.00294 6.00294 8.6 6.5 8.6H9.5C9.99706 8.6 10.4 9.00294 10.4 9.5L9.6 9.5C9.6 9.44477 9.55523 9.4 9.5 9.4H6.5C6.44477 9.4 6.4 9.44477 6.4 9.5L5.6 9.5ZM10 14H6H10ZM5.6 14V9.5C5.6 9.00294 6.00294 8.6 6.5 8.6L6.5 9.4C6.44477 9.4 6.4 9.44477 6.4 9.5V14H5.6ZM9.5 8.6C9.99706 8.6 10.4 9.00294 10.4 9.5V14H9.6V9.5C9.6 9.44477 9.55523 9.4 9.5 9.4V8.6Z" fill="#BA2818" mask="url(#path-2-inside-1_4184_20473)"/>
<path d="M1.34212 7.20507L3.11403 2.49341H12.8069C12.8317 2.49464 12.8558 2.50275 12.8763 2.51683C12.8969 2.5309 12.9131 2.5504 12.9233 2.57316L14.665 7.21791C14.672 7.23655 14.6744 7.25663 14.6719 7.2764C14.6693 7.29617 14.662 7.31502 14.6505 7.3313C14.639 7.34758 14.6237 7.3608 14.606 7.3698C14.5882 7.3788 14.5685 7.3833 14.5485 7.38291H11.6702L9.83595 6.16007L8.00262 7.38199L6.16928 6.16007L4.33595 7.38199H1.45762C1.43615 7.38336 1.41471 7.37902 1.39547 7.36942C1.37622 7.35982 1.35986 7.3453 1.34804 7.32734C1.33621 7.30937 1.32936 7.2886 1.32815 7.26713C1.32695 7.24565 1.33237 7.22425 1.34212 7.20507Z" fill="#C50018"/>
</svg>
