<svg width="16" height="16" viewBox="0 0 16 16" fill="none" xmlns="http://www.w3.org/2000/svg">
<path fill-rule="evenodd" clip-rule="evenodd" d="M5.15408 13.8887C4.81603 14.0651 4.40707 14.0341 4.09956 13.8086C3.79204 13.5831 3.63947 13.2024 3.70614 12.8269L4.2457 9.73429L1.97409 7.55738C1.69642 7.29259 1.59466 6.89231 1.71215 6.52706C1.82964 6.1618 2.14568 5.89592 2.52565 5.84267L5.67963 5.39181L7.10356 2.55129C7.27239 2.21063 7.61973 1.99512 7.99993 1.99512C8.38013 1.99512 8.72747 2.21063 8.8963 2.55129L10.3202 5.39181L13.4742 5.84267C13.8542 5.89592 14.1702 6.1618 14.2877 6.52706C14.4052 6.89231 14.3034 7.29259 14.0258 7.55738L11.7542 9.73429L12.2937 12.8276C12.3604 13.203 12.2078 13.5837 11.9003 13.8092C11.5928 14.0347 11.1838 14.0658 10.8458 13.8894L7.99993 12.4187L5.15408 13.8887Z" fill="#FEA010"/>
</svg>
