<svg width="16" height="16" viewBox="0 0 16 16" fill="none" xmlns="http://www.w3.org/2000/svg">
<path fill-rule="evenodd" clip-rule="evenodd" d="M11.3357 5.38703V5.38703C11.5436 5.59497 11.6604 5.87699 11.6604 6.17105C11.6604 6.46511 11.5436 6.74713 11.3357 6.95507L10.2732 8.01747C10.1107 8.18001 9.89025 8.27131 9.6604 8.27131C9.43054 8.27131 9.2101 8.18001 9.04757 8.01747L7.98515 6.95505C7.77722 6.74711 7.6604 6.46509 7.6604 6.17103C7.6604 5.87697 7.77722 5.59495 7.98515 5.38701V5.38701C8.41815 4.95403 9.12015 4.95403 9.55315 5.38701L9.66036 5.49423L9.76758 5.38701C9.97552 5.17907 10.2576 5.06225 10.5516 5.06226C10.8457 5.06226 11.1277 5.17909 11.3357 5.38703V5.38703Z" stroke="#555555" stroke-width="1.5" stroke-linecap="round" stroke-linejoin="round"/>
<path fill-rule="evenodd" clip-rule="evenodd" d="M8.338 12H12C13.1046 12 14 11.1046 14 10V4C14 2.89543 13.1046 2 12 2H4C2.89543 2 2 2.89543 2 4V10C2 11.1046 2.89543 12 4 12H5.338V13.6286C5.338 13.7711 5.41969 13.901 5.54813 13.9627C5.67658 14.0245 5.82904 14.0071 5.94033 13.9181L8.338 12Z" stroke="#555555" stroke-width="1.5" stroke-linecap="round" stroke-linejoin="round"/>
</svg>
