<svg width="16" height="16" viewBox="0 0 16 16" fill="none" xmlns="http://www.w3.org/2000/svg">
<path d="M9.03269 12.4395C8.78714 12.7327 8.52782 13.0152 8.25557 13.2857C7.36701 12.2904 6.57882 11.2167 5.90163 10.0791L5.89473 10.0675L5.8872 10.0562C5.25743 9.11753 4.82494 8.0716 4.61286 6.97681L4.61006 6.96235L4.60642 6.94809C4.45374 6.35068 4.4655 5.72583 4.64069 5.13388C4.81589 4.54187 5.14918 4.00107 5.61045 3.56542C6.31426 2.90231 7.26062 2.51923 8.25606 2.5007C9.25164 2.48218 10.2134 2.82987 10.9441 3.46688L10.9444 3.46715C11.6436 4.07568 12.0722 4.91072 12.1513 5.80256L12.1614 5.91639C12.1648 5.9799 12.1667 6.04129 12.1667 6.10324V6.12431C12.1667 6.2061 12.1662 6.2567 12.1613 6.30502L12.1603 6.31459L12.1597 6.3242C12.1361 6.69216 12.0525 7.05472 11.9114 7.39874L11.9065 7.41077L11.9022 7.42303C11.6875 8.03528 11.4361 8.63525 11.1491 9.21994L11.1487 9.2209C10.5869 10.3718 9.87728 11.4518 9.03598 12.4357L9.03596 12.4356L9.03269 12.4395ZM8.33181 3.80832L8.3318 3.80831L8.32862 3.80834C7.91762 3.81275 7.51546 3.93345 7.17267 4.15754C6.82968 4.38176 6.56029 4.7004 6.40181 5.07584C6.24322 5.45155 6.20388 5.86507 6.28968 6.26337C6.37545 6.66148 6.58164 7.0233 6.87872 7.30458C7.17558 7.58564 7.55007 7.77407 7.95402 7.84926C8.35791 7.92443 8.77623 7.88365 9.15715 7.73122C9.53821 7.57872 9.86709 7.32028 10.1 6.98521C10.3331 6.64986 10.4588 6.25358 10.4587 5.84636L10.4586 5.84289C10.4546 5.29322 10.223 4.77217 9.82213 4.39263C9.42198 4.01377 8.88568 3.8059 8.33181 3.80832Z" fill="#176CF7" stroke="#176CF7"/>
</svg>
