<svg width="24" height="24" viewBox="0 0 24 24" fill="none" xmlns="http://www.w3.org/2000/svg">
<path fill-rule="evenodd" clip-rule="evenodd" d="M11.3143 2.14772C11.0629 2.25061 9.23429 3.16639 7.25714 4.17477C5.82082 4.89984 4.41466 5.61949 3.61264 6.02994C3.31065 6.18449 3.09432 6.29521 2.99429 6.34587C2.61714 6.55166 2.27429 6.81919 2.17143 7.0044C2.02286 7.26164 2 8.04365 2 11.9949C2 15.9461 2.02286 16.7281 2.17143 16.9853C2.27429 17.1705 2.61714 17.438 2.99429 17.6438C3.09431 17.6945 3.31061 17.8052 3.61254 17.9597C4.41454 18.3702 5.82076 19.0898 7.25714 19.8149C9.23429 20.8233 11.0857 21.7391 11.3714 21.8523C11.7029 21.9758 12.0114 22.0272 12.2286 21.986C12.4229 21.9552 14.5943 20.8953 17.0743 19.64C20.9829 17.6438 21.6 17.294 21.7829 16.9853C21.9886 16.6458 22 16.3268 22 11.9949C22 7.65265 21.9886 7.34396 21.7829 7.0044C21.6114 6.7163 21.2457 6.47964 19.9886 5.83139C19.2604 5.46527 17.7497 4.69756 16.3435 3.98299C16.0504 3.83401 15.7618 3.68734 15.4857 3.5471C13.8857 2.73423 12.3886 2.04482 12.1714 2.01395C11.9086 1.9728 11.6114 2.02424 11.3143 2.14772ZM10.6781 4.10275C9.64505 4.63781 9.36957 4.82302 9.48435 4.90534C9.5647 4.96708 11.2864 5.84169 13.3066 6.85007L16.9797 8.68162C17.875 8.23917 18.4948 7.93048 18.931 7.69382C19.6541 7.33368 19.7115 7.27195 19.5049 7.17934C19.3786 7.1176 17.6798 6.26357 15.717 5.27577C13.7543 4.28797 12.1244 3.4648 12.0899 3.44422C12.0555 3.43393 11.4127 3.73233 10.6781 4.10275ZM5.99496 6.46936C5.13409 6.90152 4.45687 7.29253 4.50279 7.32339C4.5487 7.36455 6.25896 8.23917 8.31357 9.25784C10.3682 10.2868 12.0784 11.1203 12.1358 11.1203C12.1817 11.1203 12.9164 10.7601 13.7657 10.328C14.6266 9.8855 15.2809 9.4945 15.235 9.46363C15.189 9.42247 13.5132 8.57872 11.5275 7.59092C9.54174 6.59283 7.83148 5.75938 7.73966 5.72851C7.64783 5.69764 6.85583 6.02691 5.99496 6.46936ZM3.55009 16.2856L3.51566 12.4167C3.50418 10.2868 3.51566 8.54786 3.55009 8.54786C3.58453 8.54786 5.3407 9.41218 11.3094 12.4065L11.2979 16.2445C11.2979 19.2387 11.2635 20.0722 11.1602 20.0722C11.0798 20.0722 9.33514 19.2182 3.55009 16.2856ZM19.1031 9.24755L17.7831 9.93695C17.7257 13.8676 17.6913 14.1763 17.5191 14.3409C17.4158 14.4438 17.1633 14.5261 16.9797 14.5261C16.7845 14.5261 16.5435 14.4438 16.4402 14.3409C16.268 14.1763 16.2336 13.9293 16.2336 12.4888C16.2336 11.5627 16.1991 10.8116 16.1417 10.8116C16.0958 10.8116 15.3497 11.1717 14.4889 11.6142L12.9049 12.4065C12.9049 17.5924 12.8704 19.3108 12.8245 19.5886C12.7557 19.9487 12.7671 20.0722 12.8704 20.0722C12.9508 20.0722 14.6955 19.2284 16.7501 18.1995L20.469 16.3165C20.4805 10.2971 20.469 8.54786 20.4461 8.54786C20.4411 8.55237 20.3213 8.61425 20.1274 8.71442L20.1271 8.71454C19.8788 8.84282 19.5091 9.03384 19.1031 9.24755Z" fill="black"/>
</svg>
