<svg width="24" height="24" viewBox="0 0 24 24" fill="none" xmlns="http://www.w3.org/2000/svg">
<path d="M12.95 5.6V19.35H5.6C5.34804 19.35 5.10641 19.2499 4.92825 19.0718C4.75009 18.8936 4.65 18.652 4.65 18.4V5.6C4.65 5.34804 4.75009 5.10641 4.92825 4.92825C5.10641 4.75009 5.34804 4.65 5.6 4.65H12C12.252 4.65 12.4936 4.75009 12.6718 4.92825C12.8499 5.10641 12.95 5.34804 12.95 5.6Z" stroke="#555555" stroke-width="1.3" stroke-linecap="round" stroke-linejoin="round"/>
<mask id="path-2-inside-1_2069_10366" fill="white">
<path fill-rule="evenodd" clip-rule="evenodd" d="M13.6001 10.3999H18.4001C18.8244 10.3999 19.2314 10.5685 19.5315 10.8685C19.8315 11.1686 20.0001 11.5756 20.0001 11.9999V18.3999C20.0001 18.8242 19.8315 19.2312 19.5315 19.5313C19.2314 19.8313 18.8244 19.9999 18.4001 19.9999H13.6001"/>
</mask>
<path d="M13.6001 9.0999C12.8821 9.0999 12.3001 9.68193 12.3001 10.3999C12.3001 11.1179 12.8821 11.6999 13.6001 11.6999V9.0999ZM13.6001 18.6999C12.8821 18.6999 12.3001 19.2819 12.3001 19.9999C12.3001 20.7179 12.8821 21.2999 13.6001 21.2999V18.6999ZM13.6001 11.6999H18.4001V9.0999H13.6001V11.6999ZM18.4001 11.6999C18.4797 11.6999 18.556 11.7315 18.6122 11.7878L20.4507 9.94929C19.9069 9.40544 19.1692 9.0999 18.4001 9.0999V11.6999ZM18.6122 11.7878C18.6685 11.844 18.7001 11.9203 18.7001 11.9999H21.3001C21.3001 11.2308 20.9946 10.4931 20.4507 9.94929L18.6122 11.7878ZM18.7001 11.9999V18.3999H21.3001V11.9999H18.7001ZM18.7001 18.3999C18.7001 18.4795 18.6685 18.5558 18.6122 18.612L20.4507 20.4505C20.9946 19.9067 21.3001 19.169 21.3001 18.3999H18.7001ZM18.6122 18.612C18.556 18.6683 18.4797 18.6999 18.4001 18.6999V21.2999C19.1692 21.2999 19.9069 20.9944 20.4507 20.4505L18.6122 18.612ZM18.4001 18.6999H13.6001V21.2999H18.4001V18.6999Z" fill="#555555" mask="url(#path-2-inside-1_2069_10366)"/>
<path d="M6.63965 7.68018H7.53965" stroke="#555555" stroke-width="1.3" stroke-linecap="round" stroke-linejoin="round"/>
<path d="M6.63965 10.6802H7.53965" stroke="#555555" stroke-width="1.3" stroke-linecap="round" stroke-linejoin="round"/>
<path d="M6.63965 13.6802H7.53965" stroke="#555555" stroke-width="1.3" stroke-linecap="round" stroke-linejoin="round"/>
<path d="M6.63965 16.6802H7.53965" stroke="#555555" stroke-width="1.3" stroke-linecap="round" stroke-linejoin="round"/>
<path d="M9.52002 7.68018H11.32" stroke="#555555" stroke-width="1.3" stroke-linecap="round" stroke-linejoin="round"/>
<path d="M9.52002 10.6802H11.32" stroke="#555555" stroke-width="1.3" stroke-linecap="round" stroke-linejoin="round"/>
<path d="M9.52002 13.6802H11.32" stroke="#555555" stroke-width="1.3" stroke-linecap="round" stroke-linejoin="round"/>
<path d="M9.52002 16.6802H11.32" stroke="#555555" stroke-width="1.3" stroke-linecap="round" stroke-linejoin="round"/>
<path d="M15.6001 13.6001H17.4001" stroke="#555555" stroke-width="1.3" stroke-linecap="round" stroke-linejoin="round"/>
<path d="M15.6001 16.6001H17.4001" stroke="#555555" stroke-width="1.3" stroke-linecap="round" stroke-linejoin="round"/>
</svg>
