<svg width="24" height="24" viewBox="0 0 24 24" fill="none" xmlns="http://www.w3.org/2000/svg">
<path d="M7.3 5.75H17.7C18.0038 5.75 18.25 5.99624 18.25 6.3V16.7C18.25 17.0038 18.0038 17.25 17.7 17.25H7.3C6.99624 17.25 6.75 17.0038 6.75 16.7V6.3C6.75 5.99624 6.99624 5.75 7.3 5.75Z" stroke="#555555" stroke-width="1.5" stroke-linecap="round" stroke-linejoin="round"/>
<path d="M15.0999 8.8999L9.8999 14.0999" stroke="#555555" stroke-width="1.3" stroke-linecap="round" stroke-linejoin="round"/>
<path d="M10.1167 9.98333C10.5953 9.98333 10.9833 9.59531 10.9833 9.11667C10.9833 8.63802 10.5953 8.25 10.1167 8.25C9.63802 8.25 9.25 8.63802 9.25 9.11667C9.25 9.59531 9.63802 9.98333 10.1167 9.98333Z" stroke="#555555" stroke-width="1.3" stroke-linecap="round" stroke-linejoin="round"/>
<path d="M14.6665 14.5331C15.1451 14.5331 15.5331 14.1451 15.5331 13.6665C15.5331 13.1878 15.1451 12.7998 14.6665 12.7998C14.1878 12.7998 13.7998 13.1878 13.7998 13.6665C13.7998 14.1451 14.1878 14.5331 14.6665 14.5331Z" stroke="#555555" stroke-width="1.3" stroke-linecap="round" stroke-linejoin="round"/>
</svg>
