<svg width="24" height="24" viewBox="0 0 24 24" fill="none" xmlns="http://www.w3.org/2000/svg">
<path fill-rule="evenodd" clip-rule="evenodd" d="M11.0803 2.02536C9.83154 2.15036 8.65305 2.48508 7.57683 3.02041C4.68436 4.45924 2.67581 7.15688 2.13051 10.3352C1.9833 11.1932 1.95801 12.3628 2.06799 13.2257C2.14185 13.8053 2.43004 14.0874 2.91818 14.0581C3.18788 14.0419 3.29543 13.982 3.49304 13.738C3.60486 13.6 3.61252 13.5697 3.61154 13.2713C3.61096 13.0959 3.5954 12.6796 3.57698 12.3463C3.48017 10.5944 3.97633 8.81497 4.98334 7.3026C5.91094 5.90952 7.36293 4.73606 8.88752 4.14739C11.1515 3.27319 13.5653 3.37164 15.7261 4.42632C16.1324 4.62463 17.0863 5.22084 17.1423 5.31147C17.1555 5.3327 17.0061 5.34803 16.7812 5.34853C16.494 5.34916 16.358 5.36742 16.2397 5.42118C15.6486 5.68963 15.6452 6.54229 16.234 6.81645C16.4365 6.91075 16.4385 6.91083 17.8483 6.91122C18.8005 6.9115 19.303 6.89715 19.3926 6.86712C19.5936 6.79983 19.7705 6.65184 19.868 6.46949C19.9543 6.30797 19.9556 6.28396 19.9556 4.81984C19.9556 3.3626 19.954 3.33101 19.8694 3.17286C19.557 2.58884 18.7809 2.58689 18.4838 3.1693C18.4212 3.29191 18.3985 3.42997 18.3819 3.78995C18.3702 4.0446 18.3525 4.25292 18.3425 4.25292C18.3325 4.25292 18.2402 4.18246 18.1373 4.09633C17.5515 3.60584 16.302 2.91227 15.4258 2.59119C14.8982 2.39785 14.0752 2.19082 13.4653 2.098C12.8792 2.00882 11.6267 1.97066 11.0803 2.02536ZM20.8158 9.97647C20.6429 10.0519 20.4141 10.3242 20.3826 10.4917C20.3677 10.571 20.3781 10.9325 20.4055 11.2949C20.5538 13.2502 20.0762 15.0993 19.017 16.6705C17.7278 18.5828 15.8433 19.8359 13.5886 20.2799C11.352 20.7204 8.92846 20.1903 7.0926 18.859L6.81919 18.6607L7.249 18.6402C7.71935 18.6177 7.85357 18.5708 8.02267 18.3699C8.34894 17.9821 8.22758 17.4071 7.7715 17.1798L7.56569 17.0772L6.15609 17.0775C5.29307 17.0776 4.68917 17.0936 4.59877 17.1187C4.41368 17.1701 4.21029 17.3461 4.11544 17.5369C4.04952 17.6695 4.0415 17.8108 4.03021 19.0422C4.0155 20.6412 4.02942 20.7547 4.27085 21.0054C4.56425 21.31 5.00218 21.3406 5.31387 21.0784C5.53826 20.8896 5.58705 20.7331 5.58705 20.2025C5.58705 19.8385 5.59847 19.732 5.63593 19.7464C5.66283 19.7568 5.84315 19.8835 6.03668 20.0279C8.82445 22.1083 12.5106 22.5748 15.7911 21.2622C16.147 21.1198 16.9225 20.718 17.3051 20.4776C18.4708 19.7452 19.585 18.6551 20.3535 17.4949C21.6391 15.5545 22.2137 13.1041 21.9283 10.7795C21.8779 10.3692 21.7538 10.1454 21.5036 10.0132C21.3075 9.90965 21.0057 9.89354 20.8158 9.97647Z" fill="#555555"/>
<path fill-rule="evenodd" clip-rule="evenodd" d="M15.6848 8.61996C15.1646 8.97132 14.7055 9.29222 14.6648 9.33302C14.5872 9.41064 14.7389 9.73147 14.8531 9.73147C14.8862 9.73147 15.3798 9.41906 15.95 9.03723C16.9449 8.37109 16.9824 8.33641 16.8788 8.18025C16.8193 8.09076 16.7392 8.00931 16.7007 7.99929C16.6622 7.98926 16.2051 8.26859 15.6848 8.61996ZM13.3407 8.70049C12.3146 9.27446 12.219 9.29222 9.89761 9.34236L7.83176 9.38699L7.8088 9.82715L7.78585 10.2673H7.44031C6.80464 10.2673 6.79883 10.2784 6.79883 11.4921C6.79883 12.7058 6.80464 12.7169 7.44031 12.7169H7.78585L7.8088 13.1571C7.83046 13.5727 7.84339 13.5986 8.04018 13.6213L8.24868 13.6453L8.26972 14.8078L8.29084 15.9703L8.93462 15.9928C9.39806 16.0089 9.59607 15.9875 9.64122 15.9162C9.67572 15.8618 9.70449 15.3264 9.70518 14.7264L9.70633 13.6355L10.6054 13.6368C11.8065 13.6387 12.3908 13.7729 13.277 14.2509C13.858 14.5643 14.0225 14.6233 14.1107 14.5501C14.2028 14.4737 14.2206 13.9779 14.2206 11.4981C14.2206 8.62998 14.2001 8.34476 13.9949 8.35586C13.9718 8.35708 13.6774 8.51217 13.3407 8.70049ZM13.7615 11.4931V13.9436L13.2262 13.674C12.4248 13.2702 11.9208 13.1787 10.4906 13.1774L9.24725 13.1762V11.5004V9.82455L10.6819 9.78888C12.2168 9.75076 12.6246 9.66655 13.3407 9.23948C13.509 9.13904 13.6726 9.05369 13.7041 9.04971C13.7357 9.04573 13.7615 10.1453 13.7615 11.4931ZM8.71166 11.4921V13.1762H8.48212H8.25258V11.4921V9.80802H8.48212H8.71166V11.4921ZM7.7935 11.4921V12.1811H7.56396H7.33442V11.4921V10.8032H7.56396H7.7935V11.4921ZM14.7298 13.3928C14.6602 13.4698 14.6032 13.5535 14.6032 13.5788C14.6032 13.6041 15.0731 13.9897 15.6474 14.4356C16.6397 15.206 16.6987 15.24 16.8334 15.118C16.9113 15.0474 16.9751 14.9627 16.9751 14.9297C16.9751 14.8763 14.9502 13.2528 14.8834 13.2528C14.8686 13.2528 14.7994 13.3158 14.7298 13.3928ZM9.17074 14.5924V15.5493H8.9412H8.71166V14.5924V13.6355H8.9412H9.17074V14.5924Z" fill="#555555" stroke="#555555" stroke-width="0.3"/>
<path d="M15.1899 11.2339C15.247 11.2251 15.8073 11.2385 16.4352 11.2635C17.063 11.2886 17.5971 11.3342 17.6221 11.3651C17.6471 11.3959 17.6632 11.5089 17.6578 11.6161C17.6484 11.8032 17.5975 11.8088 16.4004 11.7563C15.7143 11.7262 15.1311 11.6856 15.1045 11.6661C15.0125 11.5985 15.0812 11.2504 15.1899 11.2339Z" fill="#555555" stroke="#555555" stroke-width="0.3"/>
</svg>
