<svg width="25" height="24" viewBox="0 0 25 24" fill="none" xmlns="http://www.w3.org/2000/svg">
<mask id="path-1-outside-1_2069_10659" maskUnits="userSpaceOnUse" x="3.9458" y="4.6001" width="17" height="14" fill="black">
<rect fill="white" x="3.9458" y="4.6001" width="17" height="14"/>
<path fill-rule="evenodd" clip-rule="evenodd" d="M15.6503 5.7093C15.1793 5.94169 15.1765 5.947 15.1487 6.65318C15.1258 7.23635 15.0735 7.65093 14.9853 7.94646C14.893 8.25611 14.9032 8.25034 14.6685 8.12479C14.3698 7.96498 13.7957 7.53081 13.7957 7.46466C13.7957 7.44959 13.8559 7.29126 13.9294 7.11281C14.119 6.65252 14.1098 6.47297 13.8842 6.2241C13.7527 6.07908 13.6408 6.05387 13.3066 6.09402L13.0049 6.13025L12.682 5.95205L12.3591 5.77382L11.9712 5.79583C11.4719 5.82415 11.3144 5.85627 11.1924 5.95463C11.057 6.06382 11.0043 6.18523 11.0043 6.38767C11.0043 6.50889 10.9731 6.64429 10.8972 6.85232C10.8384 7.01376 10.7834 7.15771 10.7751 7.17215C10.7668 7.18659 10.7181 7.15567 10.6668 7.10342C10.5546 6.98899 10.4972 6.96466 10.1762 6.89546C9.79655 6.81358 9.77645 6.82259 9.34347 7.26841C9.07855 7.54117 8.8702 7.7216 8.62648 7.88944C8.22267 8.16748 8.18308 8.22845 8.18308 8.57277C8.18308 8.77424 8.17277 8.81417 8.08229 8.96371C7.98301 9.12778 7.97669 9.13205 7.65911 9.24953C7.48179 9.31515 7.22982 9.41411 7.09915 9.46949C6.81867 9.58836 6.7659 9.60289 6.47324 9.64214C6.27893 9.66816 6.19002 9.70555 5.76863 9.93826C5.02951 10.3465 5.06426 10.2836 5.04861 11.2402C5.03967 11.7867 5.02633 11.9799 4.99156 12.068C4.90229 12.2938 4.93508 12.4208 5.16626 12.7451C5.26925 12.8896 5.2988 12.9623 5.32487 13.1356C5.34572 13.2742 5.38792 13.4001 5.44586 13.4966C5.53115 13.6386 5.53361 13.6525 5.50546 13.8331C5.45987 14.1255 5.48523 14.2475 5.65462 14.5507C5.7882 14.7897 5.80735 14.8455 5.80735 14.9953C5.80735 15.1313 5.78867 15.1986 5.71663 15.3224C5.60672 15.5112 5.58077 15.656 5.62905 15.8107C5.67387 15.9542 6.00884 16.3355 6.1872 16.446C6.31404 16.5246 6.33393 16.5272 6.7501 16.521C7.05633 16.5165 7.20541 16.5016 7.26379 16.4696C7.30905 16.4449 7.46282 16.317 7.60554 16.1855L7.86503 15.9463L8.41753 15.968C8.79715 15.983 8.99647 15.9789 9.05447 15.955C9.10091 15.9359 9.25459 15.8033 9.39598 15.6603C9.8095 15.2421 9.80211 15.2459 10.2024 15.2459H10.544L10.8262 15.0662C11.0697 14.9111 11.1398 14.8818 11.3381 14.8526L11.5678 14.8189L11.783 14.9539C11.9884 15.0829 12.0082 15.0888 12.2217 15.0847L12.4452 15.0805L12.647 15.3596C12.7654 15.5234 12.8663 15.7002 12.8912 15.7877C12.9501 15.9943 13.0098 16.0798 13.2251 16.266C13.4577 16.4671 13.5695 16.5173 13.7874 16.5182C14.0753 16.5193 14.3859 16.7062 14.4509 16.9174C14.5236 17.1537 14.7522 17.6035 14.8591 17.721C14.9978 17.8733 15.1296 17.9451 15.3856 18.0079C15.4974 18.0353 15.6915 18.1067 15.8171 18.1667C16.0955 18.2996 16.1775 18.3019 16.3915 18.1829L16.5582 18.0902L16.8003 18.2457C17.1694 18.4827 17.299 18.4588 17.6406 18.0906L17.8477 17.8675H18.0182C18.2325 17.8675 18.4918 17.7676 18.5866 17.6484C18.6272 17.5975 18.7114 17.3817 18.7809 17.1508C18.9066 16.7332 19.341 15.5582 19.6855 14.7043C19.7917 14.441 19.8933 14.1514 19.9113 14.0607C19.9292 13.9701 19.9921 13.7201 20.051 13.5052C20.1374 13.1894 20.1549 13.0809 20.142 12.9401C20.1243 12.7479 19.8189 11.713 19.7431 11.5883C19.7168 11.5452 19.5793 11.3686 19.4375 11.1959C19.217 10.9274 19.1767 10.8607 19.159 10.7354C19.1228 10.4799 19.0093 10.3581 18.6374 10.1758C18.6136 10.1641 18.5467 10.0175 18.489 9.85001C18.4311 9.68248 18.349 9.50707 18.3063 9.4602C18.2637 9.41332 18.0678 9.26963 17.871 9.14091L17.5132 8.90682L17.477 8.65427C17.4315 8.33674 17.395 8.24208 17.2597 8.09041C17.1619 7.98084 17.1514 7.95202 17.1508 7.79293C17.1496 7.47411 17.0341 7.30354 16.7243 7.16311C16.6489 7.12895 16.5865 7.09699 16.5856 7.09206C16.5848 7.0871 16.5528 6.82739 16.5145 6.51485C16.4402 5.90835 16.4051 5.79476 16.2572 5.68346C16.0997 5.56488 15.9282 5.5722 15.6503 5.7093ZM16.017 6.38453C16.0349 6.52697 16.0654 6.7819 16.0847 6.951C16.1291 7.34106 16.1773 7.42137 16.4614 7.5791L16.6763 7.69837V7.90298C16.6763 8.13684 16.6988 8.19577 16.855 8.3703C16.9528 8.47959 16.9718 8.5264 17.0021 8.73135C17.0705 9.19472 17.0835 9.21236 17.6127 9.56465L17.9637 9.79827L18.0759 10.1203C18.1959 10.4649 18.3139 10.6244 18.4789 10.6649C18.6267 10.7012 18.6957 10.7659 18.6957 10.868C18.6957 11.0256 18.7665 11.1492 19.0637 11.5099L19.3482 11.8552L19.5 12.3564C19.5834 12.6321 19.6584 12.9011 19.6666 12.9542C19.6752 13.0105 19.6497 13.1611 19.6052 13.3163C19.5634 13.4624 19.5037 13.695 19.4727 13.8331C19.4417 13.9713 19.2599 14.4799 19.0688 14.9634C18.6988 15.8992 18.376 16.7891 18.2942 17.0983C18.2668 17.2019 18.223 17.3043 18.1971 17.3259C18.1696 17.3487 18.0638 17.3651 17.9446 17.3651C17.6768 17.3651 17.5784 17.4175 17.3505 17.6815L17.1659 17.8953L16.929 17.7401C16.6385 17.5498 16.5049 17.5362 16.2786 17.6738L16.1333 17.7621L15.8605 17.6433C15.7105 17.578 15.5286 17.5149 15.4564 17.5031C15.3842 17.4913 15.2893 17.4552 15.2455 17.4228C15.1669 17.3647 15.007 17.0457 14.8875 16.7088C14.7636 16.3592 14.3326 16.0576 13.9024 16.0194C13.6985 16.0013 13.664 15.9879 13.5278 15.8739C13.4061 15.7721 13.3692 15.7176 13.333 15.5865C13.2852 15.4134 12.9002 14.84 12.7302 14.6888C12.6277 14.5976 12.43 14.5525 12.2605 14.5815C12.1723 14.5967 12.1203 14.5788 11.9578 14.4774C11.6985 14.3157 11.6513 14.3066 11.2956 14.3503C10.9801 14.3891 10.9072 14.4179 10.5675 14.6377L10.3739 14.763L10.1416 14.7416C10.0138 14.7298 9.86263 14.7294 9.80552 14.7408C9.66215 14.7692 9.33822 15.0068 9.08372 15.2702L8.87076 15.4906L8.35615 15.4595C8.04475 15.4406 7.80296 15.4395 7.74378 15.4567C7.68997 15.4723 7.51624 15.6039 7.35772 15.7492L7.06946 16.0132L6.74707 16.0142C6.43146 16.0151 6.42228 16.0131 6.30961 15.9188C6.24633 15.8658 6.16846 15.7837 6.13657 15.7364L6.07863 15.6503L6.17313 15.4968C6.26489 15.3477 6.26765 15.333 6.26765 14.9963V14.6494L6.11023 14.371L5.95281 14.0927L5.98619 13.8599C6.02571 13.5842 6.01128 13.4959 5.89493 13.302C5.83815 13.2073 5.79542 13.0781 5.77264 12.9323C5.74238 12.7386 5.71657 12.6786 5.5821 12.4897L5.42658 12.2711L5.47267 12.1416C5.50469 12.0518 5.51731 11.9162 5.51398 11.6982C5.51137 11.5256 5.51734 11.2147 5.52725 11.0075L5.54531 10.6308L5.96513 10.3978C6.34543 10.1868 6.41147 10.1607 6.66656 10.121C6.84852 10.0926 7.0642 10.0291 7.27609 9.94165C7.45643 9.86718 7.72917 9.75965 7.88219 9.70273C8.03519 9.64578 8.20137 9.56993 8.25147 9.53417C8.30157 9.49841 8.41026 9.35631 8.49296 9.21839C8.63708 8.97815 8.64379 8.95699 8.65362 8.71408L8.66387 8.46056L8.99671 8.23379C9.23119 8.07405 9.41979 7.9113 9.63503 7.68299L9.94052 7.35889L10.1209 7.3987C10.2575 7.42884 10.3228 7.4629 10.3902 7.5392C10.5568 7.72763 10.7702 7.7741 10.9712 7.66572C11.114 7.58867 11.1483 7.53197 11.317 7.09435C11.4075 6.8597 11.4601 6.67108 11.4709 6.54279L11.4873 6.34786L11.6096 6.33191C11.6768 6.32312 11.8476 6.30723 11.9892 6.29662L12.2465 6.27728L12.5766 6.45711L12.9067 6.63695L13.1625 6.61616C13.3031 6.60474 13.4495 6.58706 13.4879 6.57689C13.6084 6.5449 13.6035 6.6421 13.4681 6.9667C13.3107 7.34413 13.2891 7.44174 13.3276 7.60199C13.3644 7.75545 13.6097 8.00482 14.0058 8.29169C14.5677 8.69857 14.9323 8.81034 15.1535 8.6435C15.3268 8.51284 15.5005 8.01682 15.5747 7.44064C15.5916 7.30922 15.6145 6.99134 15.6254 6.73421L15.6454 6.26676L15.7822 6.19892C15.8575 6.16162 15.9337 6.12985 15.9516 6.12831C15.9706 6.12668 15.998 6.23449 16.017 6.38453ZM11.0488 9.55947C10.9671 9.60019 10.8711 9.66716 10.8353 9.70832C10.6565 9.91418 10.5967 10.2892 10.7033 10.5366C10.7613 10.6712 10.9577 10.8778 11.0604 10.9122C11.1189 10.9319 11.123 10.9551 11.123 11.2622C11.123 11.5696 11.1278 11.5963 11.1959 11.6683C11.2756 11.7525 11.3485 11.7641 11.4599 11.7105C11.5681 11.6583 11.5982 11.5534 11.5982 11.2279C11.5982 10.9577 11.6033 10.9316 11.6595 10.9127C11.6933 10.9014 11.7675 10.8488 11.8246 10.7958C12.2018 10.4457 12.1271 9.80094 11.6823 9.56657C11.4781 9.45901 11.2553 9.45653 11.0488 9.55947ZM11.5253 10.0642C11.5656 10.1069 11.5982 10.1781 11.5982 10.2236C11.5982 10.3159 11.4533 10.4895 11.3763 10.4895C11.3029 10.4895 11.1623 10.404 11.1415 10.3468C11.0446 10.0798 11.3366 9.86476 11.5253 10.0642ZM15.897 12.5416C15.6596 12.6353 15.514 12.7987 15.4398 13.0547C15.3444 13.384 15.479 13.7164 15.7928 13.9269C15.8711 13.9794 15.8745 13.9923 15.8745 14.2402C15.8745 14.5272 15.9126 14.6823 15.9944 14.7286C16.088 14.7815 16.2245 14.764 16.2891 14.6906C16.3419 14.6307 16.3496 14.5805 16.3496 14.2988V13.9757L16.4647 13.9136C16.6992 13.7872 16.8248 13.5536 16.8248 13.2441C16.8248 12.854 16.5491 12.5399 16.1816 12.5113C16.0752 12.503 15.9652 12.5147 15.897 12.5416ZM16.2767 13.0782C16.4665 13.2788 16.2635 13.5871 16.0095 13.484C15.9371 13.4546 15.8704 13.2962 15.892 13.205C15.9157 13.1053 16.0384 13.0012 16.1323 13.0012C16.1716 13.0012 16.2366 13.0358 16.2767 13.0782Z"/>
</mask>
<path fill-rule="evenodd" clip-rule="evenodd" d="M15.6503 5.7093C15.1793 5.94169 15.1765 5.947 15.1487 6.65318C15.1258 7.23635 15.0735 7.65093 14.9853 7.94646C14.893 8.25611 14.9032 8.25034 14.6685 8.12479C14.3698 7.96498 13.7957 7.53081 13.7957 7.46466C13.7957 7.44959 13.8559 7.29126 13.9294 7.11281C14.119 6.65252 14.1098 6.47297 13.8842 6.2241C13.7527 6.07908 13.6408 6.05387 13.3066 6.09402L13.0049 6.13025L12.682 5.95205L12.3591 5.77382L11.9712 5.79583C11.4719 5.82415 11.3144 5.85627 11.1924 5.95463C11.057 6.06382 11.0043 6.18523 11.0043 6.38767C11.0043 6.50889 10.9731 6.64429 10.8972 6.85232C10.8384 7.01376 10.7834 7.15771 10.7751 7.17215C10.7668 7.18659 10.7181 7.15567 10.6668 7.10342C10.5546 6.98899 10.4972 6.96466 10.1762 6.89546C9.79655 6.81358 9.77645 6.82259 9.34347 7.26841C9.07855 7.54117 8.8702 7.7216 8.62648 7.88944C8.22267 8.16748 8.18308 8.22845 8.18308 8.57277C8.18308 8.77424 8.17277 8.81417 8.08229 8.96371C7.98301 9.12778 7.97669 9.13205 7.65911 9.24953C7.48179 9.31515 7.22982 9.41411 7.09915 9.46949C6.81867 9.58836 6.7659 9.60289 6.47324 9.64214C6.27893 9.66816 6.19002 9.70555 5.76863 9.93826C5.02951 10.3465 5.06426 10.2836 5.04861 11.2402C5.03967 11.7867 5.02633 11.9799 4.99156 12.068C4.90229 12.2938 4.93508 12.4208 5.16626 12.7451C5.26925 12.8896 5.2988 12.9623 5.32487 13.1356C5.34572 13.2742 5.38792 13.4001 5.44586 13.4966C5.53115 13.6386 5.53361 13.6525 5.50546 13.8331C5.45987 14.1255 5.48523 14.2475 5.65462 14.5507C5.7882 14.7897 5.80735 14.8455 5.80735 14.9953C5.80735 15.1313 5.78867 15.1986 5.71663 15.3224C5.60672 15.5112 5.58077 15.656 5.62905 15.8107C5.67387 15.9542 6.00884 16.3355 6.1872 16.446C6.31404 16.5246 6.33393 16.5272 6.7501 16.521C7.05633 16.5165 7.20541 16.5016 7.26379 16.4696C7.30905 16.4449 7.46282 16.317 7.60554 16.1855L7.86503 15.9463L8.41753 15.968C8.79715 15.983 8.99647 15.9789 9.05447 15.955C9.10091 15.9359 9.25459 15.8033 9.39598 15.6603C9.8095 15.2421 9.80211 15.2459 10.2024 15.2459H10.544L10.8262 15.0662C11.0697 14.9111 11.1398 14.8818 11.3381 14.8526L11.5678 14.8189L11.783 14.9539C11.9884 15.0829 12.0082 15.0888 12.2217 15.0847L12.4452 15.0805L12.647 15.3596C12.7654 15.5234 12.8663 15.7002 12.8912 15.7877C12.9501 15.9943 13.0098 16.0798 13.2251 16.266C13.4577 16.4671 13.5695 16.5173 13.7874 16.5182C14.0753 16.5193 14.3859 16.7062 14.4509 16.9174C14.5236 17.1537 14.7522 17.6035 14.8591 17.721C14.9978 17.8733 15.1296 17.9451 15.3856 18.0079C15.4974 18.0353 15.6915 18.1067 15.8171 18.1667C16.0955 18.2996 16.1775 18.3019 16.3915 18.1829L16.5582 18.0902L16.8003 18.2457C17.1694 18.4827 17.299 18.4588 17.6406 18.0906L17.8477 17.8675H18.0182C18.2325 17.8675 18.4918 17.7676 18.5866 17.6484C18.6272 17.5975 18.7114 17.3817 18.7809 17.1508C18.9066 16.7332 19.341 15.5582 19.6855 14.7043C19.7917 14.441 19.8933 14.1514 19.9113 14.0607C19.9292 13.9701 19.9921 13.7201 20.051 13.5052C20.1374 13.1894 20.1549 13.0809 20.142 12.9401C20.1243 12.7479 19.8189 11.713 19.7431 11.5883C19.7168 11.5452 19.5793 11.3686 19.4375 11.1959C19.217 10.9274 19.1767 10.8607 19.159 10.7354C19.1228 10.4799 19.0093 10.3581 18.6374 10.1758C18.6136 10.1641 18.5467 10.0175 18.489 9.85001C18.4311 9.68248 18.349 9.50707 18.3063 9.4602C18.2637 9.41332 18.0678 9.26963 17.871 9.14091L17.5132 8.90682L17.477 8.65427C17.4315 8.33674 17.395 8.24208 17.2597 8.09041C17.1619 7.98084 17.1514 7.95202 17.1508 7.79293C17.1496 7.47411 17.0341 7.30354 16.7243 7.16311C16.6489 7.12895 16.5865 7.09699 16.5856 7.09206C16.5848 7.0871 16.5528 6.82739 16.5145 6.51485C16.4402 5.90835 16.4051 5.79476 16.2572 5.68346C16.0997 5.56488 15.9282 5.5722 15.6503 5.7093ZM16.017 6.38453C16.0349 6.52697 16.0654 6.7819 16.0847 6.951C16.1291 7.34106 16.1773 7.42137 16.4614 7.5791L16.6763 7.69837V7.90298C16.6763 8.13684 16.6988 8.19577 16.855 8.3703C16.9528 8.47959 16.9718 8.5264 17.0021 8.73135C17.0705 9.19472 17.0835 9.21236 17.6127 9.56465L17.9637 9.79827L18.0759 10.1203C18.1959 10.4649 18.3139 10.6244 18.4789 10.6649C18.6267 10.7012 18.6957 10.7659 18.6957 10.868C18.6957 11.0256 18.7665 11.1492 19.0637 11.5099L19.3482 11.8552L19.5 12.3564C19.5834 12.6321 19.6584 12.9011 19.6666 12.9542C19.6752 13.0105 19.6497 13.1611 19.6052 13.3163C19.5634 13.4624 19.5037 13.695 19.4727 13.8331C19.4417 13.9713 19.2599 14.4799 19.0688 14.9634C18.6988 15.8992 18.376 16.7891 18.2942 17.0983C18.2668 17.2019 18.223 17.3043 18.1971 17.3259C18.1696 17.3487 18.0638 17.3651 17.9446 17.3651C17.6768 17.3651 17.5784 17.4175 17.3505 17.6815L17.1659 17.8953L16.929 17.7401C16.6385 17.5498 16.5049 17.5362 16.2786 17.6738L16.1333 17.7621L15.8605 17.6433C15.7105 17.578 15.5286 17.5149 15.4564 17.5031C15.3842 17.4913 15.2893 17.4552 15.2455 17.4228C15.1669 17.3647 15.007 17.0457 14.8875 16.7088C14.7636 16.3592 14.3326 16.0576 13.9024 16.0194C13.6985 16.0013 13.664 15.9879 13.5278 15.8739C13.4061 15.7721 13.3692 15.7176 13.333 15.5865C13.2852 15.4134 12.9002 14.84 12.7302 14.6888C12.6277 14.5976 12.43 14.5525 12.2605 14.5815C12.1723 14.5967 12.1203 14.5788 11.9578 14.4774C11.6985 14.3157 11.6513 14.3066 11.2956 14.3503C10.9801 14.3891 10.9072 14.4179 10.5675 14.6377L10.3739 14.763L10.1416 14.7416C10.0138 14.7298 9.86263 14.7294 9.80552 14.7408C9.66215 14.7692 9.33822 15.0068 9.08372 15.2702L8.87076 15.4906L8.35615 15.4595C8.04475 15.4406 7.80296 15.4395 7.74378 15.4567C7.68997 15.4723 7.51624 15.6039 7.35772 15.7492L7.06946 16.0132L6.74707 16.0142C6.43146 16.0151 6.42228 16.0131 6.30961 15.9188C6.24633 15.8658 6.16846 15.7837 6.13657 15.7364L6.07863 15.6503L6.17313 15.4968C6.26489 15.3477 6.26765 15.333 6.26765 14.9963V14.6494L6.11023 14.371L5.95281 14.0927L5.98619 13.8599C6.02571 13.5842 6.01128 13.4959 5.89493 13.302C5.83815 13.2073 5.79542 13.0781 5.77264 12.9323C5.74238 12.7386 5.71657 12.6786 5.5821 12.4897L5.42658 12.2711L5.47267 12.1416C5.50469 12.0518 5.51731 11.9162 5.51398 11.6982C5.51137 11.5256 5.51734 11.2147 5.52725 11.0075L5.54531 10.6308L5.96513 10.3978C6.34543 10.1868 6.41147 10.1607 6.66656 10.121C6.84852 10.0926 7.0642 10.0291 7.27609 9.94165C7.45643 9.86718 7.72917 9.75965 7.88219 9.70273C8.03519 9.64578 8.20137 9.56993 8.25147 9.53417C8.30157 9.49841 8.41026 9.35631 8.49296 9.21839C8.63708 8.97815 8.64379 8.95699 8.65362 8.71408L8.66387 8.46056L8.99671 8.23379C9.23119 8.07405 9.41979 7.9113 9.63503 7.68299L9.94052 7.35889L10.1209 7.3987C10.2575 7.42884 10.3228 7.4629 10.3902 7.5392C10.5568 7.72763 10.7702 7.7741 10.9712 7.66572C11.114 7.58867 11.1483 7.53197 11.317 7.09435C11.4075 6.8597 11.4601 6.67108 11.4709 6.54279L11.4873 6.34786L11.6096 6.33191C11.6768 6.32312 11.8476 6.30723 11.9892 6.29662L12.2465 6.27728L12.5766 6.45711L12.9067 6.63695L13.1625 6.61616C13.3031 6.60474 13.4495 6.58706 13.4879 6.57689C13.6084 6.5449 13.6035 6.6421 13.4681 6.9667C13.3107 7.34413 13.2891 7.44174 13.3276 7.60199C13.3644 7.75545 13.6097 8.00482 14.0058 8.29169C14.5677 8.69857 14.9323 8.81034 15.1535 8.6435C15.3268 8.51284 15.5005 8.01682 15.5747 7.44064C15.5916 7.30922 15.6145 6.99134 15.6254 6.73421L15.6454 6.26676L15.7822 6.19892C15.8575 6.16162 15.9337 6.12985 15.9516 6.12831C15.9706 6.12668 15.998 6.23449 16.017 6.38453ZM11.0488 9.55947C10.9671 9.60019 10.8711 9.66716 10.8353 9.70832C10.6565 9.91418 10.5967 10.2892 10.7033 10.5366C10.7613 10.6712 10.9577 10.8778 11.0604 10.9122C11.1189 10.9319 11.123 10.9551 11.123 11.2622C11.123 11.5696 11.1278 11.5963 11.1959 11.6683C11.2756 11.7525 11.3485 11.7641 11.4599 11.7105C11.5681 11.6583 11.5982 11.5534 11.5982 11.2279C11.5982 10.9577 11.6033 10.9316 11.6595 10.9127C11.6933 10.9014 11.7675 10.8488 11.8246 10.7958C12.2018 10.4457 12.1271 9.80094 11.6823 9.56657C11.4781 9.45901 11.2553 9.45653 11.0488 9.55947ZM11.5253 10.0642C11.5656 10.1069 11.5982 10.1781 11.5982 10.2236C11.5982 10.3159 11.4533 10.4895 11.3763 10.4895C11.3029 10.4895 11.1623 10.404 11.1415 10.3468C11.0446 10.0798 11.3366 9.86476 11.5253 10.0642ZM15.897 12.5416C15.6596 12.6353 15.514 12.7987 15.4398 13.0547C15.3444 13.384 15.479 13.7164 15.7928 13.9269C15.8711 13.9794 15.8745 13.9923 15.8745 14.2402C15.8745 14.5272 15.9126 14.6823 15.9944 14.7286C16.088 14.7815 16.2245 14.764 16.2891 14.6906C16.3419 14.6307 16.3496 14.5805 16.3496 14.2988V13.9757L16.4647 13.9136C16.6992 13.7872 16.8248 13.5536 16.8248 13.2441C16.8248 12.854 16.5491 12.5399 16.1816 12.5113C16.0752 12.503 15.9652 12.5147 15.897 12.5416ZM16.2767 13.0782C16.4665 13.2788 16.2635 13.5871 16.0095 13.484C15.9371 13.4546 15.8704 13.2962 15.892 13.205C15.9157 13.1053 16.0384 13.0012 16.1323 13.0012C16.1716 13.0012 16.2366 13.0358 16.2767 13.0782Z" fill="#555555"/>
<path fill-rule="evenodd" clip-rule="evenodd" d="M15.6503 5.7093C15.1793 5.94169 15.1765 5.947 15.1487 6.65318C15.1258 7.23635 15.0735 7.65093 14.9853 7.94646C14.893 8.25611 14.9032 8.25034 14.6685 8.12479C14.3698 7.96498 13.7957 7.53081 13.7957 7.46466C13.7957 7.44959 13.8559 7.29126 13.9294 7.11281C14.119 6.65252 14.1098 6.47297 13.8842 6.2241C13.7527 6.07908 13.6408 6.05387 13.3066 6.09402L13.0049 6.13025L12.682 5.95205L12.3591 5.77382L11.9712 5.79583C11.4719 5.82415 11.3144 5.85627 11.1924 5.95463C11.057 6.06382 11.0043 6.18523 11.0043 6.38767C11.0043 6.50889 10.9731 6.64429 10.8972 6.85232C10.8384 7.01376 10.7834 7.15771 10.7751 7.17215C10.7668 7.18659 10.7181 7.15567 10.6668 7.10342C10.5546 6.98899 10.4972 6.96466 10.1762 6.89546C9.79655 6.81358 9.77645 6.82259 9.34347 7.26841C9.07855 7.54117 8.8702 7.7216 8.62648 7.88944C8.22267 8.16748 8.18308 8.22845 8.18308 8.57277C8.18308 8.77424 8.17277 8.81417 8.08229 8.96371C7.98301 9.12778 7.97669 9.13205 7.65911 9.24953C7.48179 9.31515 7.22982 9.41411 7.09915 9.46949C6.81867 9.58836 6.7659 9.60289 6.47324 9.64214C6.27893 9.66816 6.19002 9.70555 5.76863 9.93826C5.02951 10.3465 5.06426 10.2836 5.04861 11.2402C5.03967 11.7867 5.02633 11.9799 4.99156 12.068C4.90229 12.2938 4.93508 12.4208 5.16626 12.7451C5.26925 12.8896 5.2988 12.9623 5.32487 13.1356C5.34572 13.2742 5.38792 13.4001 5.44586 13.4966C5.53115 13.6386 5.53361 13.6525 5.50546 13.8331C5.45987 14.1255 5.48523 14.2475 5.65462 14.5507C5.7882 14.7897 5.80735 14.8455 5.80735 14.9953C5.80735 15.1313 5.78867 15.1986 5.71663 15.3224C5.60672 15.5112 5.58077 15.656 5.62905 15.8107C5.67387 15.9542 6.00884 16.3355 6.1872 16.446C6.31404 16.5246 6.33393 16.5272 6.7501 16.521C7.05633 16.5165 7.20541 16.5016 7.26379 16.4696C7.30905 16.4449 7.46282 16.317 7.60554 16.1855L7.86503 15.9463L8.41753 15.968C8.79715 15.983 8.99647 15.9789 9.05447 15.955C9.10091 15.9359 9.25459 15.8033 9.39598 15.6603C9.8095 15.2421 9.80211 15.2459 10.2024 15.2459H10.544L10.8262 15.0662C11.0697 14.9111 11.1398 14.8818 11.3381 14.8526L11.5678 14.8189L11.783 14.9539C11.9884 15.0829 12.0082 15.0888 12.2217 15.0847L12.4452 15.0805L12.647 15.3596C12.7654 15.5234 12.8663 15.7002 12.8912 15.7877C12.9501 15.9943 13.0098 16.0798 13.2251 16.266C13.4577 16.4671 13.5695 16.5173 13.7874 16.5182C14.0753 16.5193 14.3859 16.7062 14.4509 16.9174C14.5236 17.1537 14.7522 17.6035 14.8591 17.721C14.9978 17.8733 15.1296 17.9451 15.3856 18.0079C15.4974 18.0353 15.6915 18.1067 15.8171 18.1667C16.0955 18.2996 16.1775 18.3019 16.3915 18.1829L16.5582 18.0902L16.8003 18.2457C17.1694 18.4827 17.299 18.4588 17.6406 18.0906L17.8477 17.8675H18.0182C18.2325 17.8675 18.4918 17.7676 18.5866 17.6484C18.6272 17.5975 18.7114 17.3817 18.7809 17.1508C18.9066 16.7332 19.341 15.5582 19.6855 14.7043C19.7917 14.441 19.8933 14.1514 19.9113 14.0607C19.9292 13.9701 19.9921 13.7201 20.051 13.5052C20.1374 13.1894 20.1549 13.0809 20.142 12.9401C20.1243 12.7479 19.8189 11.713 19.7431 11.5883C19.7168 11.5452 19.5793 11.3686 19.4375 11.1959C19.217 10.9274 19.1767 10.8607 19.159 10.7354C19.1228 10.4799 19.0093 10.3581 18.6374 10.1758C18.6136 10.1641 18.5467 10.0175 18.489 9.85001C18.4311 9.68248 18.349 9.50707 18.3063 9.4602C18.2637 9.41332 18.0678 9.26963 17.871 9.14091L17.5132 8.90682L17.477 8.65427C17.4315 8.33674 17.395 8.24208 17.2597 8.09041C17.1619 7.98084 17.1514 7.95202 17.1508 7.79293C17.1496 7.47411 17.0341 7.30354 16.7243 7.16311C16.6489 7.12895 16.5865 7.09699 16.5856 7.09206C16.5848 7.0871 16.5528 6.82739 16.5145 6.51485C16.4402 5.90835 16.4051 5.79476 16.2572 5.68346C16.0997 5.56488 15.9282 5.5722 15.6503 5.7093ZM16.017 6.38453C16.0349 6.52697 16.0654 6.7819 16.0847 6.951C16.1291 7.34106 16.1773 7.42137 16.4614 7.5791L16.6763 7.69837V7.90298C16.6763 8.13684 16.6988 8.19577 16.855 8.3703C16.9528 8.47959 16.9718 8.5264 17.0021 8.73135C17.0705 9.19472 17.0835 9.21236 17.6127 9.56465L17.9637 9.79827L18.0759 10.1203C18.1959 10.4649 18.3139 10.6244 18.4789 10.6649C18.6267 10.7012 18.6957 10.7659 18.6957 10.868C18.6957 11.0256 18.7665 11.1492 19.0637 11.5099L19.3482 11.8552L19.5 12.3564C19.5834 12.6321 19.6584 12.9011 19.6666 12.9542C19.6752 13.0105 19.6497 13.1611 19.6052 13.3163C19.5634 13.4624 19.5037 13.695 19.4727 13.8331C19.4417 13.9713 19.2599 14.4799 19.0688 14.9634C18.6988 15.8992 18.376 16.7891 18.2942 17.0983C18.2668 17.2019 18.223 17.3043 18.1971 17.3259C18.1696 17.3487 18.0638 17.3651 17.9446 17.3651C17.6768 17.3651 17.5784 17.4175 17.3505 17.6815L17.1659 17.8953L16.929 17.7401C16.6385 17.5498 16.5049 17.5362 16.2786 17.6738L16.1333 17.7621L15.8605 17.6433C15.7105 17.578 15.5286 17.5149 15.4564 17.5031C15.3842 17.4913 15.2893 17.4552 15.2455 17.4228C15.1669 17.3647 15.007 17.0457 14.8875 16.7088C14.7636 16.3592 14.3326 16.0576 13.9024 16.0194C13.6985 16.0013 13.664 15.9879 13.5278 15.8739C13.4061 15.7721 13.3692 15.7176 13.333 15.5865C13.2852 15.4134 12.9002 14.84 12.7302 14.6888C12.6277 14.5976 12.43 14.5525 12.2605 14.5815C12.1723 14.5967 12.1203 14.5788 11.9578 14.4774C11.6985 14.3157 11.6513 14.3066 11.2956 14.3503C10.9801 14.3891 10.9072 14.4179 10.5675 14.6377L10.3739 14.763L10.1416 14.7416C10.0138 14.7298 9.86263 14.7294 9.80552 14.7408C9.66215 14.7692 9.33822 15.0068 9.08372 15.2702L8.87076 15.4906L8.35615 15.4595C8.04475 15.4406 7.80296 15.4395 7.74378 15.4567C7.68997 15.4723 7.51624 15.6039 7.35772 15.7492L7.06946 16.0132L6.74707 16.0142C6.43146 16.0151 6.42228 16.0131 6.30961 15.9188C6.24633 15.8658 6.16846 15.7837 6.13657 15.7364L6.07863 15.6503L6.17313 15.4968C6.26489 15.3477 6.26765 15.333 6.26765 14.9963V14.6494L6.11023 14.371L5.95281 14.0927L5.98619 13.8599C6.02571 13.5842 6.01128 13.4959 5.89493 13.302C5.83815 13.2073 5.79542 13.0781 5.77264 12.9323C5.74238 12.7386 5.71657 12.6786 5.5821 12.4897L5.42658 12.2711L5.47267 12.1416C5.50469 12.0518 5.51731 11.9162 5.51398 11.6982C5.51137 11.5256 5.51734 11.2147 5.52725 11.0075L5.54531 10.6308L5.96513 10.3978C6.34543 10.1868 6.41147 10.1607 6.66656 10.121C6.84852 10.0926 7.0642 10.0291 7.27609 9.94165C7.45643 9.86718 7.72917 9.75965 7.88219 9.70273C8.03519 9.64578 8.20137 9.56993 8.25147 9.53417C8.30157 9.49841 8.41026 9.35631 8.49296 9.21839C8.63708 8.97815 8.64379 8.95699 8.65362 8.71408L8.66387 8.46056L8.99671 8.23379C9.23119 8.07405 9.41979 7.9113 9.63503 7.68299L9.94052 7.35889L10.1209 7.3987C10.2575 7.42884 10.3228 7.4629 10.3902 7.5392C10.5568 7.72763 10.7702 7.7741 10.9712 7.66572C11.114 7.58867 11.1483 7.53197 11.317 7.09435C11.4075 6.8597 11.4601 6.67108 11.4709 6.54279L11.4873 6.34786L11.6096 6.33191C11.6768 6.32312 11.8476 6.30723 11.9892 6.29662L12.2465 6.27728L12.5766 6.45711L12.9067 6.63695L13.1625 6.61616C13.3031 6.60474 13.4495 6.58706 13.4879 6.57689C13.6084 6.5449 13.6035 6.6421 13.4681 6.9667C13.3107 7.34413 13.2891 7.44174 13.3276 7.60199C13.3644 7.75545 13.6097 8.00482 14.0058 8.29169C14.5677 8.69857 14.9323 8.81034 15.1535 8.6435C15.3268 8.51284 15.5005 8.01682 15.5747 7.44064C15.5916 7.30922 15.6145 6.99134 15.6254 6.73421L15.6454 6.26676L15.7822 6.19892C15.8575 6.16162 15.9337 6.12985 15.9516 6.12831C15.9706 6.12668 15.998 6.23449 16.017 6.38453ZM11.0488 9.55947C10.9671 9.60019 10.8711 9.66716 10.8353 9.70832C10.6565 9.91418 10.5967 10.2892 10.7033 10.5366C10.7613 10.6712 10.9577 10.8778 11.0604 10.9122C11.1189 10.9319 11.123 10.9551 11.123 11.2622C11.123 11.5696 11.1278 11.5963 11.1959 11.6683C11.2756 11.7525 11.3485 11.7641 11.4599 11.7105C11.5681 11.6583 11.5982 11.5534 11.5982 11.2279C11.5982 10.9577 11.6033 10.9316 11.6595 10.9127C11.6933 10.9014 11.7675 10.8488 11.8246 10.7958C12.2018 10.4457 12.1271 9.80094 11.6823 9.56657C11.4781 9.45901 11.2553 9.45653 11.0488 9.55947ZM11.5253 10.0642C11.5656 10.1069 11.5982 10.1781 11.5982 10.2236C11.5982 10.3159 11.4533 10.4895 11.3763 10.4895C11.3029 10.4895 11.1623 10.404 11.1415 10.3468C11.0446 10.0798 11.3366 9.86476 11.5253 10.0642ZM15.897 12.5416C15.6596 12.6353 15.514 12.7987 15.4398 13.0547C15.3444 13.384 15.479 13.7164 15.7928 13.9269C15.8711 13.9794 15.8745 13.9923 15.8745 14.2402C15.8745 14.5272 15.9126 14.6823 15.9944 14.7286C16.088 14.7815 16.2245 14.764 16.2891 14.6906C16.3419 14.6307 16.3496 14.5805 16.3496 14.2988V13.9757L16.4647 13.9136C16.6992 13.7872 16.8248 13.5536 16.8248 13.2441C16.8248 12.854 16.5491 12.5399 16.1816 12.5113C16.0752 12.503 15.9652 12.5147 15.897 12.5416ZM16.2767 13.0782C16.4665 13.2788 16.2635 13.5871 16.0095 13.484C15.9371 13.4546 15.8704 13.2962 15.892 13.205C15.9157 13.1053 16.0384 13.0012 16.1323 13.0012C16.1716 13.0012 16.2366 13.0358 16.2767 13.0782Z" stroke="#555555" stroke-width="0.4" mask="url(#path-1-outside-1_2069_10659)"/>
</svg>
