<svg width="20" height="20" viewBox="0 0 20 20" fill="none" xmlns="http://www.w3.org/2000/svg">
<path fill-rule="evenodd" clip-rule="evenodd" d="M4.58105 10.2085C4.58981 9.05956 5.52677 8.13438 6.67576 8.14016C7.82475 8.146 8.7523 9.08061 8.74942 10.2296C8.74653 11.3786 7.81428 12.3086 6.66528 12.3086C6.11017 12.3072 5.57842 12.0851 5.18738 11.6911C4.79635 11.2971 4.5782 10.7636 4.58105 10.2085V10.2085Z" stroke="#555555" stroke-width="1.25" stroke-linecap="round" stroke-linejoin="round"/>
<path d="M11.6678 8.12419C11.5834 8.12374 11.5071 8.17423 11.4745 8.25208C11.4419 8.32992 11.4594 8.41975 11.5189 8.47959C11.5785 8.53943 11.6682 8.55746 11.7462 8.52527C11.8242 8.49308 11.8751 8.41701 11.8751 8.33261C11.8756 8.2774 11.8539 8.22431 11.815 8.18517C11.776 8.14602 11.723 8.12407 11.6678 8.12419" stroke="#555555" stroke-width="1.25" stroke-linecap="round" stroke-linejoin="round"/>
<path d="M14.2615 8.12419C14.1771 8.12374 14.1008 8.17423 14.0681 8.25208C14.0355 8.32992 14.0531 8.41975 14.1126 8.47959C14.1721 8.53943 14.2619 8.55746 14.3399 8.52527C14.4179 8.49308 14.4688 8.41701 14.4688 8.33261C14.4692 8.2774 14.4476 8.22431 14.4086 8.18517C14.3697 8.14602 14.3167 8.12407 14.2615 8.12419" stroke="#555555" stroke-width="1.25" stroke-linecap="round" stroke-linejoin="round"/>
<path fill-rule="evenodd" clip-rule="evenodd" d="M2.49689 16.9822V16.4612C2.50025 15.3115 3.43141 14.3803 4.58109 14.377H8.74949C9.89917 14.3803 10.8303 15.3115 10.8337 16.4612V16.9822C10.8329 17.2696 10.6001 17.5024 10.3126 17.5033H3.01794C2.73052 17.5024 2.49773 17.2696 2.49689 16.9822V16.9822Z" stroke="#555555" stroke-width="1.25" stroke-linecap="round" stroke-linejoin="round"/>
<path d="M6.89603 4.99785C8.36024 2.90206 11.0193 2.00503 13.4538 2.78556C15.8884 3.56609 17.5301 5.84199 17.5028 8.39845C17.4754 10.9549 15.7854 13.1952 13.3347 13.9235" stroke="#555555" stroke-width="1.25" stroke-linecap="round" stroke-linejoin="round"/>
</svg>
