<svg width="24" height="24" viewBox="0 0 24 24" fill="none" xmlns="http://www.w3.org/2000/svg">
<path d="M15.4178 6.75L18.3 10.8614V18.6C18.3 18.7724 18.2315 18.9377 18.1096 19.0596C17.9877 19.1815 17.8224 19.25 17.65 19.25H9.25008C9.0777 19.25 8.91237 19.1815 8.79048 19.0596C8.66858 18.9377 8.6001 18.7724 8.6001 18.6V7.4C8.6001 7.22761 8.66858 7.06228 8.79048 6.94038C8.91237 6.81848 9.0777 6.75 9.25008 6.75H15.4178Z" stroke="#555555" stroke-width="1.5" stroke-linecap="round" stroke-linejoin="bevel"/>
<path fill-rule="evenodd" clip-rule="evenodd" d="M6.99504 4C6.45976 4 5.95032 4.21822 5.57772 4.60031C5.20573 4.98175 5 5.49518 5 6.0267V16.2403C5 16.7718 5.20573 17.2852 5.57772 17.6667C5.95032 18.0488 6.45976 18.267 6.99504 18.267H8.32383C8.26909 18.13 8.24033 17.9843 8.24033 17.836V16.767H6.99504C6.86991 16.767 6.74598 16.7162 6.65161 16.6194C6.55661 16.522 6.5 16.386 6.5 16.2403V6.0267C6.5 5.88102 6.55661 5.74498 6.65161 5.64757C6.74598 5.55079 6.86991 5.5 6.99504 5.5H12.4314L13.0095 6.3457H14.8265L13.636 4.60429L13.6348 4.60246C13.5119 4.42142 13.3474 4.27119 13.1537 4.16576C12.9593 4.05991 12.7418 4.00272 12.5195 4.00005L12.5195 4H12.5105H6.99504Z" fill="#555555"/>
</svg>
