<svg width="24" height="24" viewBox="0 0 24 24" fill="none" xmlns="http://www.w3.org/2000/svg">
<path fill-rule="evenodd" clip-rule="evenodd" d="M10.9412 17.7895C6.55538 17.7895 3 14.2549 3 9.89473C3 5.53459 6.55538 2 10.9412 2C15.327 2 18.8823 5.53459 18.8823 9.89473C18.8823 11.9794 18.0695 13.8754 16.7418 15.2866L20.7679 20.2898C21.1332 20.7437 21.0592 21.4061 20.6026 21.7693C20.1459 22.1325 19.4796 22.0589 19.1143 21.6049L15.1028 16.6198C13.8926 17.3615 12.4672 17.7895 10.9412 17.7895ZM10.9412 15.6842C14.1574 15.6842 16.7647 13.0922 16.7647 9.89473C16.7647 6.69729 14.1574 4.10526 10.9412 4.10526C7.72492 4.10526 5.11764 6.69729 5.11764 9.89473C5.11764 13.0922 7.72492 15.6842 10.9412 15.6842Z" fill="#555555"/>
</svg>
