<svg width="24" height="24" viewBox="0 0 24 24" fill="none" xmlns="http://www.w3.org/2000/svg">
<path d="M16.8337 8.40002C18.3064 8.40002 19.5003 7.19119 19.5003 5.70001C19.5003 4.20884 18.3064 3 16.8337 3C15.3609 3 14.167 4.20884 14.167 5.70001C14.167 7.19119 15.3609 8.40002 16.8337 8.40002Z" stroke="#555555" stroke-width="1.5" stroke-linecap="round" stroke-linejoin="round"/>
<path d="M6.16667 14.7003C7.63943 14.7003 8.83334 13.4915 8.83334 12.0003C8.83334 10.5091 7.63943 9.30029 6.16667 9.30029C4.69391 9.30029 3.5 10.5091 3.5 12.0003C3.5 13.4915 4.69391 14.7003 6.16667 14.7003Z" stroke="#555555" stroke-width="1.5" stroke-linecap="round" stroke-linejoin="round"/>
<path d="M16.8337 21.0001C18.3064 21.0001 19.5003 19.7913 19.5003 18.3001C19.5003 16.8089 18.3064 15.6001 16.8337 15.6001C15.3609 15.6001 14.167 16.8089 14.167 18.3001C14.167 19.7913 15.3609 21.0001 16.8337 21.0001Z" stroke="#555555" stroke-width="1.5" stroke-linecap="round" stroke-linejoin="round"/>
<path d="M8.46973 13.3589L14.5408 16.9409" stroke="#555555" stroke-width="1.5" stroke-linecap="round" stroke-linejoin="round"/>
<path d="M14.532 7.05957L8.46973 10.6416" stroke="#555555" stroke-width="1.5" stroke-linecap="round" stroke-linejoin="round"/>
</svg>
