<svg width="24" height="24" viewBox="0 0 24 24" fill="none" xmlns="http://www.w3.org/2000/svg">
<path d="M4.72754 19.1313L5.30193 17.0592C6.25371 13.6561 8.76357 11.9365 11.2727 11.9365" stroke="#555555" stroke-width="1.1" stroke-linecap="round" stroke-linejoin="round"/>
<path d="M11.2722 11.9223C13.2805 11.9223 14.9086 10.3117 14.9086 8.32493C14.9086 6.33815 13.2805 4.72754 11.2722 4.72754C9.26384 4.72754 7.63574 6.33815 7.63574 8.32493C7.63574 10.3117 9.26384 11.9223 11.2722 11.9223Z" stroke="#555555" stroke-width="1.1" stroke-linecap="round" stroke-linejoin="bevel"/>
<path d="M12.5949 18.5653H12.2905C12.0862 18.5653 11.8902 18.4841 11.7457 18.3396C11.6012 18.1951 11.52 17.9991 11.52 17.7947V14.1309C11.52 13.9265 11.6012 13.7305 11.7457 13.586C11.8902 13.4415 12.0862 13.3604 12.2905 13.3604H16.0584C16.2628 13.3604 16.4588 13.4415 16.6033 13.586C16.7478 13.7305 16.829 13.9265 16.829 14.1309V16.7931" stroke="#555555" stroke-linecap="round" stroke-linejoin="round"/>
<path d="M17.1201 14.8005L17.8883 14.7871C17.9573 14.7869 18.0253 14.8025 18.0874 14.8325C18.1495 14.8625 18.2039 14.9063 18.2466 14.9605L19.1173 16.1163C19.2063 16.2354 19.2549 16.3798 19.256 16.5285V18.4548C19.256 18.4753 19.2479 18.4949 19.2334 18.5093C19.219 18.5238 19.1994 18.5319 19.1789 18.5319H18.0039" stroke="#555555" stroke-linecap="round" stroke-linejoin="round"/>
<path d="M17.1101 19.3588C17.5867 19.3588 17.9731 18.9724 17.9731 18.4958C17.9731 18.0192 17.5867 17.6328 17.1101 17.6328C16.6334 17.6328 16.2471 18.0192 16.2471 18.4958C16.2471 18.9724 16.6334 19.3588 17.1101 19.3588Z" stroke="#555555" stroke-linecap="round" stroke-linejoin="round"/>
<path d="M13.4543 19.3588C13.9309 19.3588 14.3173 18.9724 14.3173 18.4958C14.3173 18.0192 13.9309 17.6328 13.4543 17.6328C12.9777 17.6328 12.5913 18.0192 12.5913 18.4958C12.5913 18.9724 12.9777 19.3588 13.4543 19.3588Z" stroke="#555555" stroke-linecap="round" stroke-linejoin="round"/>
<path d="M16.2509 18.5459H14.3198" stroke="#555555" stroke-linecap="round" stroke-linejoin="round"/>
</svg>
