<svg width="24" height="24" viewBox="0 0 24 24" fill="none" xmlns="http://www.w3.org/2000/svg">
<path d="M13.6033 12.0001L20.4174 5.18563C20.8609 4.74238 20.8609 4.0257 20.4174 3.58244C19.9742 3.13919 19.2575 3.13919 18.8143 3.58244L11.9999 10.3969L5.18575 3.58244C4.74229 3.13919 4.02584 3.13919 3.58259 3.58244C3.13914 4.0257 3.13914 4.74238 3.58259 5.18563L10.3967 12.0001L3.58259 18.8146C3.13914 19.2579 3.13914 19.9746 3.58259 20.4178C3.80349 20.6389 4.09393 20.75 4.38417 20.75C4.67441 20.75 4.96464 20.6389 5.18575 20.4178L11.9999 13.6033L18.8143 20.4178C19.0354 20.6389 19.3256 20.75 19.6158 20.75C19.9061 20.75 20.1963 20.6389 20.4174 20.4178C20.8609 19.9746 20.8609 19.2579 20.4174 18.8146L13.6033 12.0001Z" fill="#555555"/>
</svg>
