<svg width="16" height="17" viewBox="0 0 16 17" fill="none" xmlns="http://www.w3.org/2000/svg">
<path fill-rule="evenodd" clip-rule="evenodd" d="M5.15408 14.3887C4.81603 14.5651 4.40707 14.5341 4.09956 14.3086C3.79204 14.0831 3.63947 13.7024 3.70614 13.3269L4.2457 10.2343L1.97409 8.05738C1.69642 7.79259 1.59466 7.39231 1.71215 7.02706C1.82964 6.6618 2.14568 6.39592 2.52565 6.34267L5.67963 5.89181L7.10356 3.05129C7.27239 2.71063 7.61973 2.49512 7.99993 2.49512C8.38013 2.49512 8.72747 2.71063 8.8963 3.05129L10.3202 5.89181L13.4742 6.34267C13.8542 6.39592 14.1702 6.6618 14.2877 7.02706C14.4052 7.39231 14.3034 7.79259 14.0258 8.05738L11.7542 10.2343L12.2937 13.3276C12.3604 13.703 12.2078 14.0837 11.9003 14.3092C11.5928 14.5347 11.1838 14.5658 10.8458 14.3894L7.99993 12.9187L5.15408 14.3887Z" fill="#FEA010"/>
</svg>
