<svg width="16" height="16" viewBox="0 0 16 16" fill="none" xmlns="http://www.w3.org/2000/svg">
<path d="M2.8138 7.26001V13.9267" stroke="white" stroke-linecap="round" stroke-linejoin="round"/>
<path d="M13.1868 7.26001V13.9267" stroke="white" stroke-linecap="round" stroke-linejoin="round"/>
<path d="M9.4822 13.9259V10.9633C9.4822 10.1453 8.81886 9.48193 8.00086 9.48193C7.18286 9.48193 6.51953 10.1453 6.51953 10.9633V13.9259" stroke="white" stroke-linecap="round" stroke-linejoin="round"/>
<path d="M1.33398 13.9266H14.6673" stroke="white" stroke-linecap="round" stroke-linejoin="round"/>
<path fill-rule="evenodd" clip-rule="evenodd" d="M2.86771 7.25931C1.73571 7.25131 0.997708 6.13064 1.48837 5.16464L2.63171 2.91331C2.89237 2.39997 3.44037 2.07397 4.04171 2.07397H11.959C12.5604 2.07397 13.1084 2.39997 13.369 2.91331L14.513 5.16464C15.0037 6.13064 14.2657 7.25131 13.1337 7.25931C12.189 7.25931 11.423 6.61397 11.423 5.81731V5.78531C11.423 6.59931 10.657 7.25931 9.71237 7.25931C8.76771 7.25931 8.00171 6.59931 8.00171 5.78531C8.00171 6.59931 7.23571 7.25931 6.29104 7.25931C5.34637 7.25931 4.58037 6.59931 4.58037 5.78531V5.81731C4.57837 6.61397 3.81237 7.25931 2.86771 7.25931Z" stroke="white" stroke-linecap="round" stroke-linejoin="round"/>
</svg>
