<svg width="25" height="24" viewBox="0 0 25 24" fill="none" xmlns="http://www.w3.org/2000/svg">
<path fill-rule="evenodd" clip-rule="evenodd" d="M17.3746 7.26934C16.6329 7.76132 15.9785 8.21065 15.9203 8.26778C15.8097 8.37646 16.026 8.82568 16.1889 8.82568C16.236 8.82568 16.9397 8.38825 17.7527 7.85361C19.171 6.92087 19.2246 6.87232 19.0768 6.65366C18.992 6.52836 18.8778 6.41431 18.8229 6.40027C18.7681 6.38623 18.1164 6.77735 17.3746 7.26934ZM14.0327 7.3821C12.5697 8.18578 12.4335 8.21065 9.12392 8.28085L6.79573 8.33025C6.44777 8.33763 6.1644 8.61212 6.14595 8.95966V8.95966L6.13935 9.08406C6.1247 9.35986 5.8968 9.57599 5.62061 9.57599V9.57599C4.71435 9.57599 4.70605 9.59153 4.70605 11.291C4.70605 12.9904 4.71435 13.0059 5.62061 13.0059V13.0059C5.8968 13.0059 6.1247 13.2221 6.13935 13.4979L6.14595 13.6223C6.17682 14.2042 6.19526 14.2405 6.47582 14.2722V14.2722C6.64592 14.2915 6.77543 14.4338 6.77858 14.605L6.80307 15.9336L6.81619 16.6432C6.82571 17.1579 7.23646 17.5752 7.751 17.5928V17.5928C8.41171 17.6154 8.69402 17.5854 8.75838 17.4856C8.80758 17.4094 8.84859 16.6597 8.84957 15.8196L8.85014 15.2925C8.85073 14.7401 9.29914 14.2928 9.85156 14.2936L10.1329 14.294C11.8453 14.2966 12.6784 14.4846 13.9418 15.1539C14.7702 15.5927 15.0047 15.6753 15.1305 15.5727C15.2617 15.4658 15.2871 14.7716 15.2871 11.2993C15.2871 7.28338 15.2579 6.884 14.9653 6.89954C14.9324 6.90126 14.5126 7.11842 14.0327 7.3821ZM14.6326 11.2924V13.8721C14.6326 14.2642 14.2209 14.5199 13.8695 14.346V14.346C12.7268 13.7806 12.0083 13.6525 9.96931 13.6507L9.19581 13.65C8.64387 13.6495 8.19671 13.2019 8.19671 12.65V11.3025V9.9319C8.19671 9.38912 8.62969 8.94545 9.1723 8.93219L10.242 8.90607C12.4303 8.85269 13.0117 8.73479 14.0327 8.13679C14.2726 7.99617 14.5059 7.87665 14.5508 7.87108C14.5957 7.86551 14.6326 9.40513 14.6326 11.2924ZM7.43313 11.291V13.3218C7.43313 13.5026 7.28662 13.6491 7.10588 13.6491V13.6491V13.6491C6.92515 13.6491 6.77863 13.5026 6.77863 13.3218V11.291V9.26012C6.77863 9.07938 6.92515 8.93287 7.10588 8.93287V8.93287V8.93287C7.28662 8.93287 7.43313 9.07938 7.43313 9.26012V11.291ZM6.12413 11.291V11.9284C6.12413 12.1091 5.97762 12.2556 5.79688 12.2556V12.2556V12.2556C5.61615 12.2556 5.46964 12.1091 5.46964 11.9284V11.291V10.6535C5.46964 10.4728 5.61615 10.3263 5.79688 10.3263V10.3263V10.3263C5.97762 10.3263 6.12413 10.4728 6.12413 10.6535V11.291ZM16.0131 13.9523C15.9138 14.0601 15.8325 14.1773 15.8325 14.2128C15.8325 14.2482 16.5025 14.7881 17.3213 15.4125C18.736 16.4912 18.8201 16.5387 19.0121 16.368C19.1232 16.2691 19.2141 16.1505 19.2141 16.1043C19.2141 16.0295 16.3272 13.7563 16.2321 13.7563C16.2109 13.7563 16.1123 13.8445 16.0131 13.9523ZM8.08763 15.632V16.6446C8.08763 16.8253 7.94111 16.9718 7.76038 16.9718V16.9718V16.9718C7.57964 16.9718 7.43313 16.8253 7.43313 16.6446V15.632V14.6194C7.43313 14.4387 7.57964 14.2922 7.76038 14.2922V14.2922V14.2922C7.94111 14.2922 8.08763 14.4387 8.08763 14.6194V15.632Z" fill="#555555" stroke="#555555" stroke-width="0.3"/>
<path d="M16.6689 10.9294C16.7503 10.9172 17.5492 10.9358 18.4443 10.9709C19.3394 11.006 20.1009 11.0699 20.1365 11.1131C20.1722 11.1563 20.195 11.3145 20.1874 11.4646C20.1739 11.7265 20.1014 11.7345 18.3948 11.661C17.4165 11.6188 16.5852 11.562 16.5472 11.5346C16.4161 11.4399 16.5141 10.9526 16.6689 10.9294Z" fill="#555555" stroke="#555555" stroke-width="0.3"/>
</svg>
