<svg width="25" height="24" viewBox="0 0 25 24" fill="none" xmlns="http://www.w3.org/2000/svg">
<path d="M6.7857 5.6001H13.9857C14.3676 5.6001 14.7339 5.75181 15.0039 6.02186C15.274 6.29192 15.4257 6.65819 15.4257 7.0401V11.3601C15.4257 11.742 15.274 12.1083 15.0039 12.3783C14.7339 12.6484 14.3676 12.8001 13.9857 12.8001H11.8257L9.6657 14.9601L7.5057 12.8001H6.7857C6.40379 12.8001 6.03752 12.6484 5.76747 12.3783C5.49742 12.1083 5.3457 11.742 5.3457 11.3601V7.0401C5.3457 6.65819 5.49742 6.29192 5.76747 6.02186C6.03752 5.75181 6.40379 5.6001 6.7857 5.6001V5.6001Z" stroke="#555555" stroke-width="1.3" stroke-linecap="round" stroke-linejoin="round"/>
<path d="M15.4255 9.2002H18.3055C18.6874 9.2002 19.0537 9.35191 19.3238 9.62196C19.5938 9.89201 19.7455 10.2583 19.7455 10.6402V14.9602C19.7455 15.3421 19.5938 15.7084 19.3238 15.9784C19.0537 16.2485 18.6874 16.4002 18.3055 16.4002H16.8655L15.4255 18.5602L13.2655 16.4002H11.1055C10.7236 16.4002 10.3573 16.2485 10.0873 15.9784C9.81724 15.7084 9.66553 15.3421 9.66553 14.9602V14.9602" stroke="#555555" stroke-width="1.3" stroke-linecap="round" stroke-linejoin="round"/>
</svg>
