<svg width="16" height="16" viewBox="0 0 16 16" fill="none" xmlns="http://www.w3.org/2000/svg">
<g clip-path="url(#clip0_4741_19508)">
<path d="M8.00016 4.66652C8.91683 4.66652 9.66683 3.91652 9.66683 2.99986C9.66683 2.08319 8.91683 1.33319 8.00016 1.33319C7.0835 1.33319 6.3335 2.08319 6.3335 2.99986C6.3335 3.91652 7.0835 4.66652 8.00016 4.66652ZM8.00016 6.33319C7.0835 6.33319 6.3335 7.08319 6.3335 7.99986C6.3335 8.91652 7.0835 9.66652 8.00016 9.66652C8.91683 9.66652 9.66683 8.91652 9.66683 7.99986C9.66683 7.08319 8.91683 6.33319 8.00016 6.33319ZM8.00016 11.3332C7.0835 11.3332 6.3335 12.0832 6.3335 12.9999C6.3335 13.9165 7.0835 14.6665 8.00016 14.6665C8.91683 14.6665 9.66683 13.9165 9.66683 12.9999C9.66683 12.0832 8.91683 11.3332 8.00016 11.3332Z" fill="#555555"/>
</g>
<defs>
<clipPath id="clip0_4741_19508">
<rect width="16" height="16" fill="white"/>
</clipPath>
</defs>
</svg>
