<svg width="16" height="16" viewBox="0 0 16 16" fill="none" xmlns="http://www.w3.org/2000/svg">
<g clip-path="url(#clip0_533_175152)">
<path d="M2.08332 8.00033C2.08332 4.73264 4.7323 2.08366 7.99999 2.08366C11.2677 2.08366 13.9167 4.73264 13.9167 8.00033C13.9167 11.268 11.2677 13.917 7.99999 13.917C4.7323 13.917 2.08332 11.268 2.08332 8.00033Z" stroke="#868686" stroke-width="1.5"/>
<path d="M2.08332 8.00033C2.08332 4.73264 4.7323 2.08366 7.99999 2.08366C11.2677 2.08366 13.9167 4.73264 13.9167 8.00033C13.9167 11.268 11.2677 13.917 7.99999 13.917C4.7323 13.917 2.08332 11.268 2.08332 8.00033Z" stroke="#868686" stroke-width="1.5"/>
<rect x="8.58334" y="9" width="1.16667" height="4.91667" rx="0.583333" transform="rotate(-180 8.58334 9)" fill="#868686" stroke="#868686" stroke-width="0.5"/>
<rect x="8.58334" y="11.5" width="1.16667" height="1.16667" rx="0.583333" transform="rotate(-180 8.58334 11.5)" fill="#868686" stroke="#868686" stroke-width="0.5"/>
</g>
<defs>
<clipPath id="clip0_533_175152">
<rect width="16" height="16" fill="white" transform="matrix(-1 0 0 -1 16 16)"/>
</clipPath>
</defs>
</svg>
