<svg width="25" height="24" viewBox="0 0 25 24" fill="none" xmlns="http://www.w3.org/2000/svg">
<path d="M7.34937 16.1028H6.78229C6.40128 16.1028 6.03588 15.9515 5.76647 15.682C5.49706 15.4126 5.3457 15.0472 5.3457 14.6662V7.83649C5.3457 7.45548 5.49706 7.09008 5.76647 6.82067C6.03588 6.55126 6.40128 6.3999 6.78229 6.3999H13.8032C13.9919 6.3999 14.1787 6.43706 14.353 6.50926C14.5273 6.58145 14.6856 6.68727 14.819 6.82067C14.9524 6.95407 15.0583 7.11244 15.1304 7.28673C15.2026 7.46103 15.2398 7.64784 15.2398 7.83649V12.7987" stroke="#555555" stroke-width="1.2" stroke-linecap="round" stroke-linejoin="round"/>
<path d="M15.2207 9.05811H17.219C17.3475 9.05798 17.4744 9.08709 17.5901 9.14323C17.7057 9.19937 17.8071 9.28107 17.8865 9.38215L19.5067 11.537C19.6726 11.7589 19.7631 12.028 19.7649 12.305V15.8954C19.7649 15.9335 19.7497 15.97 19.7228 15.997C19.6958 16.0239 19.6593 16.0391 19.6212 16.0391H17.435" stroke="#555555" stroke-width="1.2" stroke-linecap="round" stroke-linejoin="round"/>
<path d="M15.7665 17.5829C16.6548 17.5829 17.3749 16.8628 17.3749 15.9745C17.3749 15.0863 16.6548 14.3662 15.7665 14.3662C14.8783 14.3662 14.1582 15.0863 14.1582 15.9745C14.1582 16.8628 14.8783 17.5829 15.7665 17.5829Z" stroke="#555555" stroke-width="1.2" stroke-linecap="round" stroke-linejoin="round"/>
<path d="M8.95013 17.5829C9.83838 17.5829 10.5585 16.8628 10.5585 15.9745C10.5585 15.0863 9.83838 14.3662 8.95013 14.3662C8.06187 14.3662 7.3418 15.0863 7.3418 15.9745C7.3418 16.8628 8.06187 17.5829 8.95013 17.5829Z" stroke="#555555" stroke-width="1.2" stroke-linecap="round" stroke-linejoin="round"/>
<path d="M14.1648 16.0664H10.4805" stroke="#555555" stroke-width="1.2" stroke-linecap="round" stroke-linejoin="round"/>
</svg>
