<svg width="16" height="16" viewBox="0 0 16 16" fill="none" xmlns="http://www.w3.org/2000/svg">
<path d="M3.66978 11.4207H3.19722C2.87971 11.4207 2.57521 11.2946 2.3507 11.0701C2.12619 10.8456 2.00006 10.5411 2.00006 10.2236V4.53212C2.00006 4.21461 2.12619 3.91011 2.3507 3.6856C2.57521 3.46109 2.87971 3.33496 3.19722 3.33496H9.04798C9.2052 3.33496 9.36087 3.36593 9.50612 3.42609C9.65136 3.48625 9.78334 3.57443 9.8945 3.6856C10.0057 3.79677 10.0939 3.92874 10.154 4.07399C10.2142 4.21923 10.2451 4.37491 10.2451 4.53212V8.66726" stroke="#555555" stroke-linecap="round" stroke-linejoin="round"/>
<path d="M10.229 5.54981H11.8942C12.0013 5.5497 12.1071 5.57396 12.2035 5.62074C12.2998 5.66752 12.3843 5.73561 12.4505 5.81984L13.8007 7.61558C13.9389 7.80044 14.0143 8.02473 14.0158 8.25556V11.2476C14.0158 11.2793 14.0032 11.3098 13.9807 11.3322C13.9583 11.3547 13.9278 11.3673 13.8961 11.3673H12.0742" stroke="#555555" stroke-linecap="round" stroke-linejoin="round"/>
<path d="M10.6837 12.6542C11.4239 12.6542 12.0239 12.0541 12.0239 11.3139C12.0239 10.5737 11.4239 9.97363 10.6837 9.97363C9.94345 9.97363 9.34338 10.5737 9.34338 11.3139C9.34338 12.0541 9.94345 12.6542 10.6837 12.6542Z" stroke="#555555" stroke-linecap="round" stroke-linejoin="round"/>
<path d="M5.00385 12.6542C5.74406 12.6542 6.34413 12.0541 6.34413 11.3139C6.34413 10.5737 5.74406 9.97363 5.00385 9.97363C4.26364 9.97363 3.66357 10.5737 3.66357 11.3139C3.66357 12.0541 4.26364 12.6542 5.00385 12.6542Z" stroke="#555555" stroke-linecap="round" stroke-linejoin="round"/>
<path d="M9.34948 11.3906H6.27917" stroke="#555555" stroke-linecap="round" stroke-linejoin="round"/>
</svg>
