<svg width="20" height="20" viewBox="0 0 20 20" fill="none" xmlns="http://www.w3.org/2000/svg">
<path fill-rule="evenodd" clip-rule="evenodd" d="M14.1696 6.73361V6.73361C14.4295 6.99353 14.5756 7.34605 14.5756 7.71363C14.5756 8.08121 14.4295 8.43373 14.1696 8.69365L12.8416 10.0217C12.6384 10.2248 12.3629 10.339 12.0756 10.339C11.7882 10.339 11.5127 10.2248 11.3095 10.0217L9.9815 8.69362C9.72158 8.43371 9.57556 8.08118 9.57556 7.7136C9.57556 7.34602 9.72158 6.9935 9.9815 6.73358V6.73358C10.5227 6.19236 11.4003 6.19236 11.9415 6.73358L12.0755 6.86761L12.2095 6.73358C12.4695 6.47366 12.822 6.32763 13.1896 6.32764C13.5572 6.32764 13.9097 6.47367 14.1696 6.73361V6.73361Z" stroke="#555555" stroke-width="1.25" stroke-linecap="round" stroke-linejoin="round"/>
<path fill-rule="evenodd" clip-rule="evenodd" d="M10.4225 15H15C16.3807 15 17.5 13.8807 17.5 12.5V5C17.5 3.61929 16.3807 2.5 15 2.5H5C3.61929 2.5 2.5 3.61929 2.5 5V12.5C2.5 13.8807 3.61929 15 5 15H6.6725V17.0357C6.6725 17.2139 6.77461 17.3763 6.93517 17.4534C7.09572 17.5306 7.2863 17.5089 7.42541 17.3976L10.4225 15Z" stroke="#555555" stroke-width="1.25" stroke-linecap="round" stroke-linejoin="round"/>
</svg>
