<svg width="25" height="24" viewBox="0 0 25 24" fill="none" xmlns="http://www.w3.org/2000/svg">
<path d="M5.12988 15.5347L5.40887 14.5176C6.33057 11.1628 10.2858 11.1628 11.2075 14.5176L11.4865 15.5347" stroke="#555555" stroke-linecap="round" stroke-linejoin="round"/>
<path d="M8.30819 11.9963C9.28337 11.9963 10.0739 11.2057 10.0739 10.2306C10.0739 9.25538 9.28337 8.46484 8.30819 8.46484C7.33302 8.46484 6.54248 9.25538 6.54248 10.2306C6.54248 11.2057 7.33302 11.9963 8.30819 11.9963Z" stroke="#555555" stroke-linecap="round" stroke-linejoin="bevel"/>
<path d="M13.6055 15.5347L13.8845 14.5176C14.8062 11.1628 18.7614 11.1628 19.6831 14.5176L19.962 15.5347" stroke="#555555" stroke-linecap="round" stroke-linejoin="round"/>
<path d="M16.7833 11.9963C17.7585 11.9963 18.549 11.2057 18.549 10.2306C18.549 9.25538 17.7585 8.46484 16.7833 8.46484C15.8081 8.46484 15.0176 9.25538 15.0176 10.2306C15.0176 11.2057 15.8081 11.9963 16.7833 11.9963Z" stroke="#555555" stroke-linecap="round" stroke-linejoin="bevel"/>
<path d="M11.1602 11.6431H13.9323" stroke="#555555" stroke-linecap="round" stroke-linejoin="bevel"/>
<path d="M13.1553 12.6276L13.881 11.781C13.9139 11.7424 13.9323 11.6902 13.9323 11.6357C13.9323 11.5813 13.9139 11.5291 13.881 11.4905L13.1747 10.6665" stroke="#555555" stroke-linecap="round" stroke-linejoin="bevel"/>
</svg>
