<svg width="20" height="20" viewBox="0 0 20 20" fill="none" xmlns="http://www.w3.org/2000/svg">
<path d="M5.16453 17.4452L12.7133 10.3405L16.2657 13.8929M5.16453 17.4452H14.0455C15.5169 17.4452 16.7098 16.2524 16.7098 14.781V10.3405M5.16453 17.4452C3.69309 17.4452 2.50024 16.2524 2.50024 14.781V5.90001C2.50024 4.42856 3.69309 3.23572 5.16453 3.23572H10.9371M15.8217 7.52382L15.8217 5.01191M15.8217 5.01191L15.8217 2.5M15.8217 5.01191L13.3098 5.01191M15.8217 5.01191L18.3336 5.01191M7.82881 7.23215C7.82881 7.96787 7.23239 8.56429 6.49667 8.56429C5.76095 8.56429 5.16453 7.96787 5.16453 7.23215C5.16453 6.49643 5.76095 5.90001 6.49667 5.90001C7.23239 5.90001 7.82881 6.49643 7.82881 7.23215Z" stroke="#555555" stroke-width="1.5" stroke-linecap="round" stroke-linejoin="round"/>
</svg>
