<svg width="22" height="22" viewBox="0 0 22 22" fill="none" xmlns="http://www.w3.org/2000/svg">
<path fill-rule="evenodd" clip-rule="evenodd" d="M1.02344 11.6695C1.02344 9.29028 2.89737 7.34837 5.24968 7.23934L5.45844 7.23452H6.39144C6.80565 7.23452 7.14144 7.5703 7.14144 7.98452C7.14144 8.36421 6.85928 8.67801 6.49321 8.72767L6.39144 8.73452H5.45844C3.89554 8.73452 2.6177 9.95653 2.52842 11.4971L2.52344 11.6695L2.52344 16.5445C2.52344 18.1066 3.74557 19.3843 5.28601 19.4735L5.45844 19.4785H16.5884C18.1512 19.4785 19.4292 18.2566 19.5185 16.7169L19.5234 16.5445V11.6595C19.5234 10.1022 18.3058 8.82847 16.7712 8.73948L16.5994 8.73452H15.6564C15.2422 8.73452 14.9064 8.39873 14.9064 7.98452C14.9064 7.60482 15.1886 7.29103 15.5547 7.24136L15.6564 7.23452H16.5994C18.9707 7.23452 20.9065 9.10132 21.0183 11.4452L21.0234 11.6595V16.5445C21.0234 18.923 19.1493 20.8647 16.7972 20.9737L16.5884 20.9785H5.45844C3.07938 20.9785 1.1373 19.1048 1.02827 16.7532L1.02344 16.5445L1.02344 11.6695ZM10.4816 0.672306C10.6182 0.52977 10.8104 0.441015 11.0233 0.441015C11.2384 0.441015 11.4324 0.531559 11.5691 0.676613L14.4707 3.59008C14.7629 3.88357 14.762 4.35844 14.4685 4.65073C14.2017 4.91645 13.785 4.9398 13.4918 4.72135L13.4078 4.64856L11.7733 3.00849L11.7733 13.232C11.7733 13.6462 11.4376 13.982 11.0233 13.982C10.6436 13.982 10.3298 13.6999 10.2802 13.3338L10.2733 13.232L10.2733 3.00681L8.63975 4.64846C8.37407 4.91532 7.95746 4.94046 7.66337 4.72326L7.57909 4.65083C7.31223 4.38515 7.2871 3.96854 7.5043 3.67445L7.57673 3.59017L10.4816 0.672306Z" fill="white"/>
<path d="M5.24968 7.23934L5.24389 6.98934L5.2381 6.98961L5.24968 7.23934ZM5.45844 7.23452V6.98445L5.45266 6.98458L5.45844 7.23452ZM6.49321 8.72767L6.50999 8.97711L6.51843 8.97654L6.52682 8.9754L6.49321 8.72767ZM6.39144 8.73452V8.98452H6.39984L6.40822 8.98395L6.39144 8.73452ZM2.52842 11.4971L2.27873 11.4826L2.27852 11.4899L2.52842 11.4971ZM2.52344 11.6695L2.27344 11.6623V11.6695H2.52344ZM5.28601 19.4735L5.27154 19.7232L5.27879 19.7234L5.28601 19.4735ZM5.45844 19.4785L5.45121 19.7285H5.45844V19.4785ZM19.5185 16.7169L19.7681 16.7313L19.7683 16.7241L19.5185 16.7169ZM19.5234 16.5445L19.7734 16.5517V16.5445H19.5234ZM16.7712 8.73948L16.7857 8.4898L16.7784 8.48959L16.7712 8.73948ZM16.5994 8.73452L16.6067 8.48452H16.5994V8.73452ZM15.5547 7.24136L15.5379 6.99193L15.5294 6.99249L15.5211 6.99363L15.5547 7.24136ZM15.6564 7.23452V6.98452H15.648L15.6397 6.98508L15.6564 7.23452ZM21.0183 11.4452L21.2683 11.4392L21.2681 11.4333L21.0183 11.4452ZM21.0234 11.6595H21.2735L21.2734 11.6536L21.0234 11.6595ZM16.7972 20.9737L16.803 21.2237L16.8088 21.2234L16.7972 20.9737ZM16.5884 20.9785V21.2286L16.5942 21.2284L16.5884 20.9785ZM1.02827 16.7532L0.778265 16.759L0.778534 16.7648L1.02827 16.7532ZM1.02344 16.5445H0.773371L0.773504 16.5503L1.02344 16.5445ZM10.4816 0.672306L10.6588 0.848722L10.6622 0.845234L10.4816 0.672306ZM11.5691 0.676613L11.3872 0.848177L11.392 0.853025L11.5691 0.676613ZM14.4707 3.59008L14.2935 3.76649V3.76649L14.4707 3.59008ZM14.4685 4.65073L14.6449 4.82787L14.4685 4.65073ZM13.4918 4.72135L13.328 4.91025L13.335 4.91629L13.3424 4.92181L13.4918 4.72135ZM13.4078 4.64856L13.2307 4.82503L13.2372 4.83149L13.2441 4.83746L13.4078 4.64856ZM11.7733 3.00849L11.9504 2.83201L11.5233 2.40347V3.00849H11.7733ZM10.2802 13.3338L10.0307 13.3506L10.0313 13.359L10.0325 13.3674L10.2802 13.3338ZM10.2733 13.232H10.0233V13.2404L10.0239 13.2488L10.2733 13.232ZM10.2733 3.00681H10.5233V2.40115L10.0961 2.83047L10.2733 3.00681ZM8.63975 4.64846L8.81692 4.82485L8.81696 4.82481L8.63975 4.64846ZM7.66337 4.72326L7.50042 4.91286L7.50742 4.91887L7.51485 4.92436L7.66337 4.72326ZM7.57909 4.65083L7.4027 4.828L7.4092 4.83446L7.41614 4.84043L7.57909 4.65083ZM7.5043 3.67445L7.3147 3.5115L7.30868 3.5185L7.3032 3.52592L7.5043 3.67445ZM7.57673 3.59017L7.39956 3.41379L7.3931 3.42027L7.38713 3.42722L7.57673 3.59017ZM5.2381 6.98961C2.753 7.10479 0.773438 9.15608 0.773438 11.6695H1.27344C1.27344 9.42448 3.04175 7.59194 5.26125 7.48908L5.2381 6.98961ZM5.45266 6.98458L5.24389 6.98941L5.25546 7.48928L5.46422 7.48445L5.45266 6.98458ZM6.39144 6.98452H5.45844V7.48452H6.39144V6.98452ZM7.39144 7.98452C7.39144 7.43223 6.94372 6.98452 6.39144 6.98452V7.48452C6.66758 7.48452 6.89144 7.70837 6.89144 7.98452H7.39144ZM6.52682 8.9754C7.01516 8.90915 7.39144 8.49098 7.39144 7.98452H6.89144C6.89144 8.23744 6.70341 8.44686 6.4596 8.47994L6.52682 8.9754ZM6.40822 8.98395L6.50999 8.97711L6.47643 8.47823L6.37466 8.48508L6.40822 8.98395ZM5.45844 8.98452H6.39144V8.48452H5.45844V8.98452ZM2.778 11.5115C2.85966 10.1025 4.02877 8.98452 5.45844 8.98452V8.48452C3.76231 8.48452 2.37574 9.81062 2.27884 11.4826L2.778 11.5115ZM2.77333 11.6767L2.77832 11.5043L2.27852 11.4899L2.27354 11.6623L2.77333 11.6767ZM2.77344 16.5445L2.77344 11.6695H2.27344L2.27344 16.5445H2.77344ZM5.30048 19.224C3.89142 19.1423 2.77344 17.9733 2.77344 16.5445H2.27344C2.27344 18.2399 3.59972 19.6262 5.27155 19.7231L5.30048 19.224ZM5.46566 19.2286L5.29323 19.2236L5.27879 19.7234L5.45122 19.7284L5.46566 19.2286ZM16.5884 19.2285H5.45844V19.7285H16.5884V19.2285ZM19.2689 16.7024C19.1872 18.1106 18.018 19.2285 16.5884 19.2285V19.7285C18.2844 19.7285 19.6711 18.4026 19.768 16.7313L19.2689 16.7024ZM19.2735 16.5373L19.2686 16.7096L19.7683 16.7241L19.7733 16.5517L19.2735 16.5373ZM19.2734 11.6595V16.5445H19.7734V11.6595H19.2734ZM16.7567 8.98906C18.1598 9.07043 19.2734 10.2353 19.2734 11.6595H19.7734C19.7734 9.969 18.4518 8.58652 16.7857 8.4899L16.7567 8.98906ZM16.5922 8.98441L16.764 8.98938L16.7784 8.48959L16.6067 8.48462L16.5922 8.98441ZM15.6564 8.98452H16.5994V8.48452H15.6564V8.98452ZM14.6564 7.98452C14.6564 8.5368 15.1042 8.98452 15.6564 8.98452V8.48452C15.3803 8.48452 15.1564 8.26066 15.1564 7.98452H14.6564ZM15.5211 6.99363C15.0327 7.05988 14.6564 7.47805 14.6564 7.98452H15.1564C15.1564 7.73159 15.3445 7.52217 15.5883 7.48909L15.5211 6.99363ZM15.6397 6.98508L15.5379 6.99193L15.5714 7.4908L15.6732 7.48395L15.6397 6.98508ZM16.5994 6.98452H15.6564V7.48452H16.5994V6.98452ZM21.2681 11.4333C21.1499 8.95683 19.1048 6.98452 16.5994 6.98452V7.48452C18.8365 7.48452 20.6631 9.24582 20.7686 11.4571L21.2681 11.4333ZM21.2734 11.6536L21.2683 11.4392L20.7684 11.4511L20.7735 11.6655L21.2734 11.6536ZM21.2734 16.5445V11.6595H20.7734V16.5445H21.2734ZM16.8088 21.2234C19.2937 21.1083 21.2734 19.0572 21.2734 16.5445H20.7734C20.7734 18.7887 19.005 20.6211 16.7856 20.724L16.8088 21.2234ZM16.5942 21.2284L16.803 21.2236L16.7914 20.7238L16.5827 20.7286L16.5942 21.2284ZM5.45844 21.2285H16.5884V20.7285H5.45844V21.2285ZM0.778534 16.7648C0.893727 19.2492 2.94523 21.2285 5.45844 21.2285V20.7285C3.21353 20.7285 1.38087 18.9603 1.278 16.7416L0.778534 16.7648ZM0.773504 16.5503L0.778332 16.759L1.2782 16.7474L1.27337 16.5387L0.773504 16.5503ZM0.773438 11.6695L0.773438 16.5445H1.27344L1.27344 11.6695H0.773438ZM11.0233 0.191015C10.7394 0.191015 10.4828 0.309654 10.3011 0.499378L10.6622 0.845234C10.7535 0.749886 10.8813 0.691015 11.0233 0.691015V0.191015ZM11.751 0.505114C11.569 0.312048 11.3101 0.191015 11.0233 0.191015V0.691015C11.1668 0.691015 11.2957 0.75107 11.3872 0.848112L11.751 0.505114ZM11.392 0.853025L14.2935 3.76649L14.6478 3.41366L11.7463 0.5002L11.392 0.853025ZM14.2935 3.76649C14.4884 3.96215 14.4877 4.27873 14.2921 4.47359L14.6449 4.82787C15.0362 4.43815 15.0375 3.80499 14.6478 3.41366L14.2935 3.76649ZM14.2921 4.47359C14.1143 4.65058 13.8364 4.66638 13.6412 4.52088L13.3424 4.92181C13.7335 5.21322 14.289 5.18232 14.6449 4.82787L14.2921 4.47359ZM13.6555 4.53244L13.5716 4.45965L13.2441 4.83746L13.328 4.91025L13.6555 4.53244ZM13.5849 4.47208L11.9504 2.83201L11.5963 3.18496L13.2307 4.82503L13.5849 4.47208ZM12.0233 13.232L12.0233 3.00849H11.5233L11.5233 13.232H12.0233ZM11.0233 14.232C11.5756 14.232 12.0233 13.7843 12.0233 13.232H11.5233C11.5233 13.5082 11.2995 13.732 11.0233 13.732V14.232ZM10.0325 13.3674C10.0987 13.8557 10.5169 14.232 11.0233 14.232V13.732C10.7704 13.732 10.561 13.544 10.5279 13.3002L10.0325 13.3674ZM10.0239 13.2488L10.0307 13.3506L10.5296 13.317L10.5228 13.2152L10.0239 13.2488ZM10.0233 3.00681L10.0233 13.232H10.5233L10.5233 3.00681H10.0233ZM10.0961 2.83047L8.46253 4.47212L8.81696 4.82481L10.4505 3.18315L10.0961 2.83047ZM8.46258 4.47208C8.28562 4.64983 8.00777 4.66682 7.81189 4.52215L7.51485 4.92436C7.90716 5.21409 8.46253 5.18082 8.81692 4.82485L8.46258 4.47208ZM7.82631 4.53365L7.74203 4.46122L7.41614 4.84043L7.50042 4.91286L7.82631 4.53365ZM7.75547 4.47366C7.57772 4.2967 7.56073 4.01885 7.7054 3.82297L7.3032 3.52592C7.01346 3.91824 7.04674 4.47361 7.4027 4.828L7.75547 4.47366ZM7.6939 3.83739L7.76633 3.75311L7.38713 3.42722L7.3147 3.5115L7.6939 3.83739ZM7.7539 3.76655L10.6588 0.848688L10.3045 0.495924L7.39956 3.41379L7.7539 3.76655Z" fill="white"/>
</svg>
