<svg width="17" height="16" viewBox="0 0 17 16" fill="none" xmlns="http://www.w3.org/2000/svg">
<path d="M2.43921 13.9424L2.91787 12.2157C3.71102 9.37974 5.80257 7.94678 7.89354 7.94678" stroke="#555555" stroke-width="1.5" stroke-linecap="round" stroke-linejoin="round"/>
<path d="M7.89366 7.93486C9.56729 7.93486 10.924 6.59269 10.924 4.93704C10.924 3.28138 9.56729 1.93921 7.89366 1.93921C6.22003 1.93921 4.86328 3.28138 4.86328 4.93704C4.86328 6.59269 6.22003 7.93486 7.89366 7.93486Z" stroke="#555555" stroke-width="1.5" stroke-linecap="round" stroke-linejoin="bevel"/>
<mask id="path-3-outside-1_2320_504153" maskUnits="userSpaceOnUse" x="6.98975" y="6.5498" width="9" height="9" fill="black">
<rect fill="white" x="6.98975" y="6.5498" width="9" height="9"/>
<path fill-rule="evenodd" clip-rule="evenodd" d="M11.1342 8.90543L11.1567 8.85027C11.2004 8.75685 11.2694 8.6787 11.3553 8.6254C11.4412 8.57211 11.5402 8.54599 11.6403 8.55026C11.7403 8.55452 11.8369 8.58899 11.9183 8.64942C11.9997 8.70985 12.0623 8.79362 12.0984 8.89044L12.1163 8.95039C12.1387 9.01703 12.1742 9.0781 12.2206 9.12972C12.267 9.18133 12.3232 9.22236 12.3857 9.25018C12.4494 9.27896 12.5179 9.29442 12.5874 9.29565C12.6568 9.29689 12.7258 9.28388 12.7904 9.25737L12.8436 9.23519C12.9384 9.19736 13.0417 9.18913 13.141 9.2115C13.2402 9.23388 13.3309 9.28588 13.402 9.3611C13.4712 9.43361 13.5163 9.52713 13.5308 9.62805C13.5452 9.72897 13.5283 9.83204 13.4824 9.92229L13.4546 9.97505C13.4228 10.0357 13.404 10.1028 13.3996 10.1718C13.3951 10.2407 13.405 10.3098 13.4286 10.3744C13.4532 10.4401 13.4907 10.4997 13.5387 10.5497C13.5866 10.5996 13.644 10.6387 13.7073 10.6646L13.7651 10.6867C13.8572 10.7245 13.9357 10.7908 13.9901 10.8767C14.0444 10.9626 14.0718 11.0637 14.0686 11.1664C14.0627 11.2691 14.0267 11.3675 13.9653 11.4483C13.9039 11.5291 13.8201 11.5885 13.7252 11.6185L13.6674 11.6358C13.601 11.6555 13.5394 11.6892 13.4862 11.7348C13.4331 11.7804 13.3897 11.8369 13.3587 11.9009C13.3288 11.9635 13.3125 12.0322 13.3109 12.1021C13.3093 12.1721 13.3224 12.2415 13.3494 12.3056L13.372 12.3577C13.4097 12.452 13.4177 12.5562 13.3949 12.6555C13.372 12.7548 13.3195 12.8441 13.2448 12.9105C13.1679 12.9794 13.0734 13.0237 12.9727 13.0378C12.872 13.052 12.7695 13.0355 12.6777 12.9903L12.6239 12.9627C12.5614 12.9309 12.4935 12.9123 12.4241 12.9078C12.3546 12.9034 12.285 12.9133 12.2192 12.9369C12.1547 12.9595 12.0954 12.9957 12.045 13.0431C11.9946 13.0906 11.9541 13.1483 11.9261 13.2127L11.9036 13.2679C11.8599 13.3613 11.7909 13.4394 11.705 13.4927C11.6191 13.546 11.5201 13.5721 11.4201 13.5679C11.32 13.5636 11.2234 13.5291 11.142 13.4687C11.0606 13.4083 10.998 13.3245 10.9619 13.2277L10.944 13.1677C10.9225 13.1001 10.8876 13.038 10.8415 12.9853C10.7954 12.9326 10.7391 12.8906 10.6763 12.862C10.6122 12.8323 10.543 12.8162 10.4728 12.8147C10.4026 12.8132 10.3329 12.8262 10.2676 12.853L10.2144 12.8757C10.1196 12.9136 10.0163 12.9218 9.91703 12.8994C9.8178 12.8771 9.72705 12.8251 9.65597 12.7498C9.58677 12.6773 9.54166 12.5838 9.52721 12.4829C9.51276 12.382 9.52972 12.2789 9.57561 12.1886L9.60336 12.1365C9.63517 12.0758 9.65396 12.0087 9.65844 11.9398C9.66293 11.8709 9.65302 11.8017 9.62938 11.7372C9.60474 11.6717 9.56733 11.6121 9.51949 11.5623C9.47164 11.5124 9.41439 11.4734 9.35131 11.4476L9.2935 11.4254C9.20142 11.3876 9.12284 11.3213 9.06851 11.2354C9.01418 11.1496 8.98676 11.0484 8.99 10.9457C8.99586 10.843 9.03191 10.7447 9.09331 10.6638C9.1547 10.583 9.23848 10.5236 9.33339 10.4937L9.3912 10.4763C9.45753 10.4566 9.5192 10.423 9.57234 10.3773C9.62547 10.3317 9.66891 10.2752 9.6999 10.2113C9.7298 10.1486 9.74612 10.0799 9.74771 10.01C9.74931 9.94008 9.73615 9.87065 9.70915 9.80657L9.68661 9.75441C9.65055 9.66039 9.64382 9.55702 9.66735 9.45883C9.69089 9.36063 9.74352 9.27256 9.81784 9.20701C9.89443 9.13909 9.98828 9.09551 10.0881 9.08147C10.188 9.06744 10.2896 9.08354 10.3809 9.12787L10.4341 9.15545C10.4966 9.18723 10.5645 9.20587 10.6339 9.21029C10.7034 9.21472 10.773 9.20484 10.8388 9.18123C10.9033 9.15861 10.9626 9.12245 11.013 9.075C11.0634 9.02754 11.1039 8.96982 11.1318 8.90543H11.1342Z"/>
</mask>
<path d="M11.1342 8.90543V10.1054L12.245 9.35945L11.1342 8.90543ZM11.1567 8.85027L10.0696 8.34205L10.0459 8.39625L11.1567 8.85027ZM12.0984 8.89044L13.2482 8.54678L13.2227 8.4709L12.0984 8.89044ZM12.1163 8.95039L10.9666 9.29405L10.9787 9.33214L12.1163 8.95039ZM12.3857 9.25018L12.8801 8.15671L12.8736 8.15381L12.3857 9.25018ZM12.7904 9.25737L13.246 10.3675L13.2524 10.3649L12.7904 9.25737ZM12.8436 9.23519L12.3988 8.12067L12.3816 8.12767L12.8436 9.23519ZM13.402 9.3611L12.5298 10.1853L12.5339 10.1896L13.402 9.3611ZM13.4824 9.92229L14.5445 10.4809L14.552 10.4663L13.4824 9.92229ZM13.4546 9.97505L12.3926 9.41648L12.3917 9.41807L13.4546 9.97505ZM13.4286 10.3744L12.3017 10.7869L12.305 10.7957L13.4286 10.3744ZM13.7073 10.6646L13.2537 11.7755L13.2773 11.7849L13.7073 10.6646ZM13.7651 10.6867L14.2204 9.57646L14.195 9.56639L13.7651 10.6867ZM14.0686 11.1664L15.2666 11.2347L15.268 11.2043L14.0686 11.1664ZM13.7252 11.6185L14.0708 12.7676L14.0863 12.7628L13.7252 11.6185ZM13.6674 11.6358L14.0081 12.7865L14.013 12.785L13.6674 11.6358ZM13.3587 11.9009L12.279 11.3771L12.2755 11.3843L13.3587 11.9009ZM13.3494 12.3056L12.2435 12.7715L12.2479 12.7817L13.3494 12.3056ZM13.372 12.3577L14.486 11.9118L14.4735 11.8816L13.372 12.3577ZM13.2448 12.9105L12.4473 12.0138L12.4438 12.017L13.2448 12.9105ZM12.6777 12.9903L12.1299 14.058L12.1476 14.0668L12.6777 12.9903ZM12.6239 12.9627L13.1716 11.895L13.168 11.8931L12.6239 12.9627ZM12.2192 12.9369L12.6163 14.0694L12.6248 14.0663L12.2192 12.9369ZM11.9261 13.2127L10.8254 12.7348L10.8154 12.7587L11.9261 13.2127ZM11.9036 13.2679L12.9907 13.7761L13.0144 13.7219L11.9036 13.2679ZM10.9619 13.2277L9.81215 13.5713L9.83761 13.6472L10.9619 13.2277ZM10.944 13.1677L12.0937 12.8241L12.0878 12.8049L10.944 13.1677ZM10.6763 12.862L10.1727 13.9512L10.1783 13.9537L10.6763 12.862ZM10.2676 12.853L9.81185 11.7429L9.79506 11.7499L10.2676 12.853ZM10.2144 12.8757L10.6592 13.9903L10.6869 13.9788L10.2144 12.8757ZM9.65597 12.7498L10.5282 11.9256L10.5241 11.9214L9.65597 12.7498ZM9.57561 12.1886L8.51619 11.6251L8.506 11.6447L9.57561 12.1886ZM9.60336 12.1365L10.6628 12.7001L10.6663 12.6935L9.60336 12.1365ZM9.62938 11.7372L10.7563 11.3246L10.7526 11.3149L9.62938 11.7372ZM9.35131 11.4476L9.80592 10.337L9.78124 10.3272L9.35131 11.4476ZM9.2935 11.4254L8.83821 12.5357L8.86358 12.5457L9.2935 11.4254ZM8.99 10.9457L7.79195 10.8774L7.7906 10.9079L8.99 10.9457ZM9.33339 10.4937L8.98776 9.34453L8.97224 9.34931L9.33339 10.4937ZM9.3912 10.4763L9.05046 9.32567L9.04557 9.32714L9.3912 10.4763ZM9.6999 10.2113L10.7796 10.735L10.783 10.7278L9.6999 10.2113ZM9.70915 9.80657L10.8151 9.34065L10.8107 9.33047L9.70915 9.80657ZM9.68661 9.75441L8.56619 10.1841L8.5851 10.2305L9.68661 9.75441ZM9.81784 9.20701L10.6117 10.1069L10.6139 10.1049L9.81784 9.20701ZM10.3809 9.12787L10.9333 8.06258L10.9051 8.04842L10.3809 9.12787ZM10.4341 9.15545L9.88165 10.2208L9.88999 10.225L10.4341 9.15545ZM10.8388 9.18123L10.4417 8.04877L10.4332 8.05183L10.8388 9.18123ZM11.1318 8.90543V7.70543L10.0311 8.42752L11.1318 8.90543ZM12.245 9.35945L12.2675 9.30429L10.0459 8.39625L10.0234 8.45141L12.245 9.35945ZM12.2438 9.35849C12.1909 9.47156 12.1041 9.57302 11.9879 9.64509L10.7227 7.60572C10.4347 7.78438 10.2098 8.04215 10.0696 8.34205L12.2438 9.35849ZM11.9879 9.64509C11.8712 9.7175 11.7324 9.75528 11.5891 9.74916L11.6914 7.35135C11.3481 7.3367 11.0112 7.42672 10.7227 7.60572L11.9879 9.64509ZM11.5891 9.74916C11.4459 9.74306 11.3118 9.6937 11.2029 9.61288L12.6337 7.68596C12.362 7.48427 12.0346 7.36599 11.6914 7.35135L11.5891 9.74916ZM11.2029 9.61288C11.0946 9.53245 11.0173 9.42566 10.9741 9.30997L13.2227 8.4709C13.1073 8.16158 12.9048 7.88725 12.6337 7.68596L11.2029 9.61288ZM10.9487 9.2341L10.9666 9.29405L13.2661 8.60674L13.2482 8.54678L10.9487 9.2341ZM10.9787 9.33214C11.0525 9.55209 11.1707 9.75667 11.328 9.9318L13.1132 8.32764C13.1778 8.39954 13.2249 8.48197 13.254 8.56865L10.9787 9.33214ZM11.328 9.9318C11.4855 10.107 11.6791 10.2492 11.8979 10.3465L12.8736 8.15381C12.9674 8.19554 13.0484 8.25563 13.1132 8.32764L11.328 9.9318ZM11.8914 10.3436C12.1029 10.4393 12.3323 10.4913 12.566 10.4955L12.6087 8.09584C12.7035 8.09753 12.7959 8.11867 12.8801 8.15673L11.8914 10.3436ZM12.566 10.4955C12.7998 10.4996 13.031 10.4558 13.246 10.3675L12.3348 8.14723C12.4206 8.112 12.5139 8.09415 12.6087 8.09584L12.566 10.4955ZM13.2524 10.3649L13.3055 10.3427L12.3816 8.12767L12.3284 8.14985L13.2524 10.3649ZM13.2884 10.3497C13.1588 10.4014 13.0151 10.4132 12.877 10.3821L13.4049 8.04089C13.0684 7.96501 12.7179 7.99329 12.3988 8.12067L13.2884 10.3497ZM12.877 10.3821C12.7393 10.3511 12.6195 10.2802 12.5298 10.1853L14.2742 8.53691C14.0423 8.29154 13.7411 8.11668 13.4049 8.04089L12.877 10.3821ZM12.5339 10.1896C12.4274 10.078 12.3632 9.94008 12.3429 9.79814L14.7187 9.45796C14.6694 9.11417 14.515 8.78925 14.2702 8.53264L12.5339 10.1896ZM12.3429 9.79814C12.3226 9.65637 12.3458 9.50988 12.4128 9.3783L14.552 10.4663C14.7107 10.1542 14.7679 9.80158 14.7187 9.45796L12.3429 9.79814ZM12.4203 9.36372L12.3926 9.41648L14.5167 10.5336L14.5445 10.4809L12.4203 9.36372ZM12.3917 9.41807C12.2815 9.62848 12.2174 9.8589 12.2021 10.0937L14.597 10.2498C14.5907 10.3468 14.5642 10.443 14.5175 10.532L12.3917 9.41807ZM12.2021 10.0937C12.1868 10.3286 12.2205 10.5648 12.3018 10.7869L14.5555 9.9618C14.5895 10.0548 14.6033 10.1528 14.597 10.2498L12.2021 10.0937ZM12.305 10.7957C12.3861 11.012 12.5106 11.2116 12.6731 11.3808L14.4042 9.71855C14.4708 9.78786 14.5204 9.86811 14.5522 9.95307L12.305 10.7957ZM12.6731 11.3808C12.8357 11.5501 13.0329 11.6854 13.2537 11.7755L14.1608 9.55357C14.2552 9.59209 14.3376 9.64913 14.4042 9.71855L12.6731 11.3808ZM13.2773 11.7849L13.3351 11.8071L14.195 9.56639L14.1372 9.54421L13.2773 11.7849ZM13.3098 11.797C13.1664 11.7382 13.0518 11.6382 12.976 11.5183L15.0041 10.2351C14.8196 9.94352 14.5479 9.71078 14.2204 9.57646L13.3098 11.797ZM12.976 11.5183C12.9005 11.399 12.8649 11.2631 12.8692 11.1285L15.268 11.2043C15.2787 10.8644 15.1883 10.5261 15.0041 10.2351L12.976 11.5183ZM12.8705 11.098C12.8781 10.9658 12.9246 10.8345 13.0097 10.7225L14.9209 12.1742C15.1288 11.9004 15.2474 11.5724 15.2666 11.2347L12.8705 11.098ZM13.0097 10.7225C13.0952 10.6099 13.2173 10.5204 13.364 10.4741L14.0863 12.7628C14.4229 12.6566 14.7125 12.4484 14.9209 12.1742L13.0097 10.7225ZM13.3796 10.4693L13.3217 10.4867L14.013 12.785L14.0708 12.7676L13.3796 10.4693ZM13.3266 10.4852C13.096 10.5535 12.8845 10.6698 12.7046 10.8243L14.2679 12.6453C14.1943 12.7085 14.1061 12.7574 14.0081 12.7865L13.3266 10.4852ZM12.7046 10.8243C12.5248 10.9786 12.3807 11.1674 12.279 11.3771L14.4384 12.4246C14.3986 12.5065 14.3414 12.5822 14.2679 12.6453L12.7046 10.8243ZM12.2755 11.3843C12.1722 11.6011 12.1166 11.8366 12.1112 12.0747L14.5105 12.1296C14.5083 12.2279 14.4854 12.326 14.4418 12.4174L12.2755 11.3843ZM12.1112 12.0747C12.1057 12.3129 12.1505 12.5505 12.2436 12.7715L14.4553 11.8397C14.4944 11.9325 14.5128 12.0312 14.5105 12.1296L12.1112 12.0747ZM12.2479 12.7817L12.2705 12.8338L14.4735 11.8816L14.4509 11.8295L12.2479 12.7817ZM12.2579 12.8036C12.2044 12.67 12.1936 12.5247 12.2254 12.3865L14.5643 12.9246C14.6418 12.5877 14.615 12.234 14.486 11.9118L12.2579 12.8036ZM12.2254 12.3865C12.2573 12.248 12.3321 12.1163 12.4473 12.0139L14.0423 13.8072C14.3068 13.5719 14.4868 13.2617 14.5643 12.9246L12.2254 12.3865ZM12.4438 12.017C12.5414 11.9295 12.6666 11.8691 12.8056 11.8495L13.1397 14.2261C13.4801 14.1783 13.7944 14.0294 14.0458 13.8041L12.4438 12.017ZM12.8056 11.8495C12.9448 11.8299 13.0851 11.8533 13.2078 11.9137L12.1476 14.0668C12.4539 14.2176 12.7991 14.274 13.1397 14.2261L12.8056 11.8495ZM13.2254 11.9226L13.1716 11.895L12.0762 14.0304L12.1299 14.058L13.2254 11.9226ZM13.168 11.8931C12.961 11.7878 12.734 11.7252 12.5004 11.7103L12.3478 14.1054C12.253 14.0994 12.1619 14.074 12.0798 14.0322L13.168 11.8931ZM12.5004 11.7103C12.2667 11.6954 12.0331 11.7287 11.8137 11.8075L12.6248 14.0663C12.5369 14.0979 12.4426 14.1114 12.3478 14.1054L12.5004 11.7103ZM11.8222 11.8045C11.5973 11.8833 11.3936 12.0084 11.2226 12.1692L12.8673 13.9171C12.7973 13.983 12.7121 14.0357 12.6162 14.0693L11.8222 11.8045ZM11.2226 12.1692C11.0518 12.33 10.9174 12.523 10.8254 12.7348L13.0269 13.6906C12.9908 13.7736 12.9373 13.8512 12.8673 13.9171L11.2226 12.1692ZM10.8154 12.7587L10.7928 12.8138L13.0144 13.7219L13.0369 13.6667L10.8154 12.7587ZM10.8165 12.7596C10.8694 12.6466 10.9562 12.5451 11.0724 12.473L12.3377 14.5124C12.6256 14.3338 12.8505 14.076 12.9907 13.7761L10.8165 12.7596ZM11.0724 12.473C11.1891 12.4006 11.3279 12.3629 11.4712 12.369L11.3689 14.7668C11.7122 14.7814 12.0491 14.6914 12.3377 14.5124L11.0724 12.473ZM11.4712 12.369C11.6144 12.3751 11.7485 12.4244 11.8574 12.5052L10.4266 14.4322C10.6983 14.6339 11.0257 14.7521 11.3689 14.7668L11.4712 12.369ZM11.8574 12.5052C11.9657 12.5857 12.043 12.6925 12.0862 12.8082L9.83761 13.6472C9.95304 13.9566 10.1555 14.2309 10.4266 14.4322L11.8574 12.5052ZM12.1116 12.884L12.0937 12.8241L9.79423 13.5114L9.81215 13.5713L12.1116 12.884ZM12.0878 12.8049C12.017 12.5818 11.9009 12.3736 11.7444 12.1949L9.93856 13.7757C9.87436 13.7024 9.82803 13.6185 9.80014 13.5306L12.0878 12.8049ZM11.7444 12.1949C11.5879 12.0161 11.3942 11.8705 11.1744 11.7702L10.1783 13.9537C10.084 13.9107 10.0029 13.8492 9.93856 13.7757L11.7444 12.1949ZM11.1799 11.7727C10.967 11.6743 10.7354 11.6202 10.4992 11.615L10.4464 14.0144C10.3506 14.0123 10.2574 13.9903 10.1727 13.9512L11.1799 11.7727ZM10.4992 11.615C10.263 11.6098 10.0292 11.6537 9.81185 11.7429L10.7233 13.9631C10.6366 13.9987 10.5423 14.0165 10.4464 14.0144L10.4992 11.615ZM9.79506 11.7499L9.74188 11.7727L10.6869 13.9788L10.7401 13.956L9.79506 11.7499ZM9.7696 11.7612C9.89922 11.7095 10.0429 11.6977 10.181 11.7288L9.6531 14.07C9.98962 14.1459 10.3401 14.1176 10.6592 13.9903L9.7696 11.7612ZM10.181 11.7288C10.3187 11.7599 10.4385 11.8307 10.5282 11.9257L8.78378 13.574C9.01565 13.8194 9.31692 13.9943 9.6531 14.07L10.181 11.7288ZM10.5241 11.9214C10.6306 12.033 10.6948 12.1709 10.7151 12.3128L8.33933 12.653C8.38855 12.9968 8.54295 13.3217 8.78783 13.5783L10.5241 11.9214ZM10.7151 12.3128C10.7354 12.4546 10.7121 12.6011 10.6452 12.7326L8.506 11.6447C8.34729 11.9567 8.29013 12.3094 8.33933 12.653L10.7151 12.3128ZM10.635 12.7522L10.6628 12.7001L8.54394 11.5729L8.51619 11.6251L10.635 12.7522ZM10.6663 12.6935C10.7765 12.4831 10.8406 12.2526 10.8559 12.0178L8.46098 11.8618C8.4673 11.7648 8.4938 11.6685 8.54046 11.5795L10.6663 12.6935ZM10.8559 12.0178C10.8712 11.783 10.8375 11.5467 10.7562 11.3246L8.50253 12.1497C8.4685 12.0568 8.45466 11.9588 8.46098 11.8618L10.8559 12.0178ZM10.7526 11.3149C10.6715 11.0991 10.5472 10.9 10.3851 10.7312L8.65391 12.3934C8.5875 12.3243 8.53799 12.2442 8.50613 12.1594L10.7526 11.3149ZM10.3851 10.7312C10.2229 10.5622 10.0261 10.4272 9.80592 10.337L8.89671 12.5581C8.80263 12.5196 8.72042 12.4627 8.65391 12.3934L10.3851 10.7312ZM9.78124 10.3272L9.72343 10.3051L8.86358 12.5457L8.92139 12.5679L9.78124 10.3272ZM9.7488 10.3151C9.89217 10.3739 10.0067 10.474 10.0826 10.5938L8.05446 11.8771C8.23894 12.1686 8.51067 12.4014 8.83821 12.5357L9.7488 10.3151ZM10.0826 10.5938C10.1581 10.7131 10.1937 10.8491 10.1894 10.9836L7.7906 10.9079C7.77987 11.2477 7.8703 11.586 8.05446 11.8771L10.0826 10.5938ZM10.1881 11.0141C10.1805 11.1463 10.134 11.2776 10.0489 11.3897L8.13772 9.93798C7.92981 10.2117 7.81122 10.5397 7.79195 10.8774L10.1881 11.0141ZM10.0489 11.3897C9.96336 11.5023 9.84125 11.5917 9.69454 11.638L8.97224 9.34931C8.63571 9.45552 8.34604 9.66374 8.13772 9.93798L10.0489 11.3897ZM9.67903 11.6428L9.73683 11.6254L9.04557 9.32714L8.98776 9.34453L9.67903 11.6428ZM9.73194 11.6269C9.96257 11.5586 10.1741 11.4423 10.354 11.2879L8.7907 9.46683C8.86432 9.40362 8.95248 9.3547 9.05047 9.32568L9.73194 11.6269ZM10.354 11.2879C10.5337 11.1335 10.6779 10.9447 10.7796 10.735L8.62021 9.68757C8.65995 9.60565 8.7172 9.52992 8.7907 9.46683L10.354 11.2879ZM10.783 10.7278C10.8864 10.5111 10.942 10.2755 10.9474 10.0374L8.54803 9.98257C8.55027 9.88425 8.57319 9.78612 8.61678 9.69472L10.783 10.7278ZM10.9474 10.0374C10.9528 9.79927 10.9081 9.56165 10.815 9.34067L8.60329 10.2725C8.56419 10.1797 8.54578 10.0809 8.54803 9.98257L10.9474 10.0374ZM10.8107 9.33047L10.7881 9.27831L8.5851 10.2305L8.60764 10.2827L10.8107 9.33047ZM10.807 9.32468C10.858 9.4577 10.8671 9.60171 10.8343 9.73857L8.50042 9.17908C8.42053 9.51233 8.44305 9.86309 8.56619 10.1841L10.807 9.32468ZM10.8343 9.73857C10.8014 9.8757 10.7263 10.0058 10.6117 10.1069L9.024 8.30711C8.76074 8.53934 8.58037 8.84557 8.50042 9.17908L10.8343 9.73857ZM10.6139 10.1049C10.5168 10.191 10.3927 10.2505 10.2552 10.2698L9.92111 7.89316C9.58382 7.94056 9.27205 8.08717 9.02172 8.30912L10.6139 10.1049ZM10.2552 10.2698C10.1174 10.2892 9.97851 10.2665 9.85668 10.2073L10.9051 8.04842C10.6008 7.90062 10.2586 7.84572 9.92111 7.89316L10.2552 10.2698ZM9.82848 10.1931L9.88166 10.2207L10.9865 8.09016L10.9333 8.06258L9.82848 10.1931ZM9.88999 10.225C10.097 10.3303 10.324 10.393 10.5576 10.4079L10.7102 8.01272C10.805 8.01876 10.8961 8.04415 10.9782 8.08588L9.88999 10.225ZM10.5576 10.4079C10.7913 10.4228 11.0249 10.3894 11.2443 10.3106L10.4332 8.05183C10.5211 8.02027 10.6154 8.00668 10.7102 8.01272L10.5576 10.4079ZM11.2358 10.3137C11.4607 10.2348 11.6644 10.1098 11.8354 9.94892L10.1907 8.20108C10.2607 8.13512 10.3459 8.08242 10.4418 8.0488L11.2358 10.3137ZM11.8354 9.94892C12.0062 9.78817 12.1406 9.59515 12.2326 9.38333L10.0311 8.42752C10.0672 8.34449 10.1207 8.26692 10.1907 8.20108L11.8354 9.94892ZM11.1318 10.1054H11.1342V7.70543H11.1318V10.1054Z" fill="#555555" mask="url(#path-3-outside-1_2320_504153)"/>
<path d="M11.5301 12.0327C12.0754 12.0327 12.5175 11.5954 12.5175 11.056C12.5175 10.5166 12.0754 10.0793 11.5301 10.0793C10.9848 10.0793 10.5427 10.5166 10.5427 11.056C10.5427 11.5954 10.9848 12.0327 11.5301 12.0327Z" stroke="#555555" stroke-width="1.2" stroke-linecap="round" stroke-linejoin="bevel"/>
</svg>
