<svg width="24" height="24" viewBox="0 0 24 24" fill="none" xmlns="http://www.w3.org/2000/svg">
<path fill-rule="evenodd" clip-rule="evenodd" d="M12.5299 4.45957C12.4662 4.34345 12.4153 4.25058 12.398 4.21442C12.2957 4.00007 11.9021 3.85427 11.6659 4.24014C11.5253 4.46987 11.408 4.71701 11.3366 4.88261C11.1062 5.27997 10.8952 5.56972 10.6117 5.87947C9.43749 7.16225 7.8333 7.72991 5.94004 7.53257C5.80303 7.51828 5.64842 7.49957 5.59646 7.49098C5.5445 7.48239 5.46732 7.4729 5.42494 7.46992L5.34787 7.4645L5.32557 7.5331C5.27674 7.68343 5.17553 8.15804 5.13269 8.43774C5.03099 9.10151 5.00053 9.59875 5.00001 10.6029C4.99955 11.4539 5.01479 11.737 5.09408 12.3508C5.50257 15.5129 7.05928 18.1017 9.27644 19.3061C9.93797 19.6655 10.6238 19.8842 11.3826 19.9777C11.4881 19.9907 11.7443 20 11.9966 20C12.4493 20 12.6303 19.9848 13.0157 19.9145C15.0746 19.5387 16.8975 17.9694 17.9654 15.6536C18.4997 14.495 18.8147 13.2936 18.9468 11.911C19.0455 10.8773 19.0028 9.28105 18.8523 8.3833C18.803 8.0897 18.7167 7.70064 18.6716 7.56947L18.6371 7.46882L18.5484 7.48069C18.4996 7.48722 18.3761 7.50345 18.2738 7.51674C17.346 7.63735 16.4387 7.56078 15.6257 7.29322C14.5007 6.92297 13.4896 6.11527 12.8651 5.08795C12.8598 5.07923 12.8546 5.07054 12.8493 5.06193C12.7681 4.89417 12.6324 4.64669 12.5299 4.45957ZM15.0983 8.65343C13.9784 8.25336 12.9917 7.54521 12.2289 6.59414C12.1249 6.46445 12.0381 6.35833 12.0361 6.35833C12.034 6.35833 11.9874 6.41813 11.9324 6.49124C11.7719 6.70478 11.2812 7.2285 11.0677 7.4143C10.2144 8.15674 9.29498 8.62966 8.24154 8.86806C7.74116 8.9813 7.31977 9.0304 6.75368 9.04147L6.41517 9.04807L6.40455 9.13949C6.34428 9.65782 6.33003 11.186 6.3806 11.7091C6.45828 12.5126 6.58447 13.1669 6.79243 13.8443C7.53461 16.2618 9.09179 17.9601 10.989 18.421C11.3378 18.5057 11.5288 18.5256 11.9966 18.5259C12.4574 18.5262 12.552 18.5168 12.9413 18.432C14.534 18.085 15.9435 16.8004 16.7898 14.9247C17.1903 14.037 17.4481 13.0924 17.569 12.0692C17.6323 11.5329 17.641 11.3443 17.6398 10.5343C17.6388 9.83 17.6302 9.58697 17.5915 9.15995L17.5819 9.05469L17.2651 9.04315C16.4327 9.01282 15.7714 8.89389 15.0983 8.65343Z" fill="#555555"/>
<path d="M8.7334 13.4339L10.5725 15L15.2667 11" stroke="#555555" stroke-width="1.5" stroke-linecap="round" stroke-linejoin="round"/>
</svg>
