<svg width="25" height="24" viewBox="0 0 25 24" fill="none" xmlns="http://www.w3.org/2000/svg">
<path fill-rule="evenodd" clip-rule="evenodd" d="M19.7457 14.8227V17.097C19.7457 17.5513 19.4231 17.9199 19.0257 17.9199H6.0657C5.66826 17.9199 5.3457 17.5513 5.3457 17.097V14.8227C5.3457 14.7034 5.40474 14.5947 5.49762 14.5413V14.5413C6.28746 14.0903 6.7857 13.1687 6.7857 12.1599V12.1599C6.7857 11.1511 6.28674 10.2295 5.49762 9.77855V9.77855C5.40474 9.72507 5.3457 9.61645 5.3457 9.49714V7.22276C5.3457 6.76854 5.66826 6.3999 6.0657 6.3999H19.0257C19.4231 6.3999 19.7457 6.76854 19.7457 7.22276V9.49714C19.7457 9.61645 19.6867 9.72507 19.5938 9.77855L19.5621 9.79748C18.7903 10.255 18.3057 11.1659 18.3057 12.1599V12.1599C18.3057 13.1679 18.8039 14.0903 19.5931 14.5413H19.5938C19.6867 14.5947 19.7457 14.7034 19.7457 14.8227Z" stroke="#555555" stroke-width="1.2" stroke-linecap="round" stroke-linejoin="round"/>
<path d="M10.6953 14.0102L14.2953 10.4102" stroke="#555555" stroke-width="1.2" stroke-linecap="round" stroke-linejoin="round"/>
<path d="M14.3451 13.7801C14.2458 13.7801 14.1651 13.8607 14.1658 13.9601C14.1658 14.0595 14.2465 14.1401 14.3458 14.1401C14.4452 14.1401 14.5258 14.0595 14.5258 13.9601C14.5258 13.8607 14.4452 13.7801 14.3451 13.7801" stroke="#555555" stroke-width="1.2" stroke-linecap="round" stroke-linejoin="round"/>
<path d="M10.745 10.18C10.6457 10.18 10.565 10.2606 10.5657 10.36C10.5657 10.4594 10.6464 10.54 10.7457 10.54C10.8451 10.54 10.9257 10.4594 10.9257 10.36C10.9257 10.2606 10.8451 10.18 10.745 10.18" stroke="#555555" stroke-width="1.2" stroke-linecap="round" stroke-linejoin="round"/>
</svg>
