<svg width="16" height="16" viewBox="0 0 16 16" fill="none" xmlns="http://www.w3.org/2000/svg">
<path fill-rule="evenodd" clip-rule="evenodd" d="M14 10.3522V12.2475C14 12.6261 13.7312 12.9333 13.4 12.9333H2.6C2.2688 12.9333 2 12.6261 2 12.2475V10.3522C2 10.2528 2.0492 10.1623 2.1266 10.1177V10.1177C2.7848 9.74194 3.2 8.97394 3.2 8.13325V8.13325C3.2 7.29257 2.7842 6.52457 2.1266 6.14879V6.14879C2.0492 6.10422 2 6.01371 2 5.91428V4.01897C2 3.64045 2.2688 3.33325 2.6 3.33325H13.4C13.7312 3.33325 14 3.64045 14 4.01897V5.91428C14 6.01371 13.9508 6.10422 13.8734 6.14879L13.847 6.16457C13.2038 6.54582 12.8 7.30491 12.8 8.13325V8.13325C12.8 8.97325 13.2152 9.74194 13.8728 10.1177H13.8734C13.9508 10.1623 14 10.2528 14 10.3522Z" stroke="#555555" stroke-width="1.5" stroke-linecap="round" stroke-linejoin="round"/>
<path d="M6.45801 9.67529L9.45801 6.67529" stroke="#555555" stroke-linecap="round" stroke-linejoin="round"/>
<path d="M9.49935 9.48325C9.41655 9.48325 9.34935 9.55045 9.34995 9.63325C9.34995 9.71605 9.41715 9.78325 9.49995 9.78325C9.58275 9.78325 9.64995 9.71605 9.64995 9.63325C9.64995 9.55045 9.58275 9.48325 9.49935 9.48325" stroke="#555555" stroke-linecap="round" stroke-linejoin="round"/>
<path d="M6.49935 6.48325C6.41655 6.48325 6.34935 6.55045 6.34995 6.63325C6.34995 6.71605 6.41715 6.78325 6.49995 6.78325C6.58275 6.78325 6.64995 6.71605 6.64995 6.63325C6.64995 6.55045 6.58275 6.48325 6.49935 6.48325" stroke="#555555" stroke-linecap="round" stroke-linejoin="round"/>
</svg>
