<svg width="20" height="20" viewBox="0 0 20 20" fill="none" xmlns="http://www.w3.org/2000/svg">
<g clip-path="url(#clip0_1413_671)">
<path d="M10 7.08337V10.4167M10 12.5V12.5084" stroke="#FFCA2E" stroke-width="2.25" stroke-linecap="round" stroke-linejoin="round"/>
<path d="M4.16666 15.8333H15.8333C16.1053 15.8314 16.3726 15.763 16.612 15.634C16.8514 15.5051 17.0556 15.3195 17.2068 15.0935C17.3581 14.8675 17.4517 14.6079 17.4795 14.3374C17.5074 14.0669 17.4686 13.7937 17.3667 13.5416L11.45 3.33331C11.3059 3.0728 11.0946 2.85566 10.8381 2.70446C10.5817 2.55326 10.2894 2.47351 9.99166 2.47351C9.69394 2.47351 9.40166 2.55326 9.1452 2.70446C8.88874 2.85566 8.67746 3.0728 8.53333 3.33331L2.61666 13.5416C2.51661 13.788 2.47694 14.0546 2.50095 14.3194C2.52497 14.5842 2.61197 14.8394 2.75471 15.0636C2.89744 15.2879 3.09175 15.4748 3.32143 15.6087C3.55111 15.7426 3.80949 15.8196 4.075 15.8333" stroke="#FFCA2E" stroke-width="2.25" stroke-linecap="round" stroke-linejoin="round"/>
</g>
<defs>
<clipPath id="clip0_1413_671">
<rect width="20" height="20" fill="white"/>
</clipPath>
</defs>
</svg>
