<svg width="24" height="24" viewBox="0 0 24 24" fill="none" xmlns="http://www.w3.org/2000/svg">
<path fill-rule="evenodd" clip-rule="evenodd" d="M17.6722 6.32209C16.3053 4.96227 14.4884 4.1431 12.5599 4.01706C10.6313 3.89101 8.72243 4.46668 7.18854 5.63691C5.65465 6.80713 4.60026 8.49219 4.22164 10.3784C3.84302 12.2646 4.16596 14.2235 5.13035 15.8905L4 20L8.22708 18.8969C9.39484 19.5287 10.703 19.8595 12.0322 19.859V19.859C13.6082 19.8582 15.1485 19.3925 16.4587 18.5208C17.7688 17.6491 18.79 16.4105 19.3931 14.9615C19.9962 13.5124 20.1543 11.918 19.8473 10.3796C19.5403 8.84121 18.7821 7.42789 17.6683 6.31819L17.6722 6.32209ZM12.0361 18.5237C10.8502 18.5238 9.68597 18.2065 8.66544 17.6052L8.42356 17.4626L5.91862 18.117L6.58791 15.6848L6.43135 15.4355C5.65107 14.1975 5.3063 12.7365 5.45123 11.2823C5.59615 9.82803 6.22256 8.46293 7.23199 7.40159C8.24141 6.34026 9.5766 5.64286 11.0277 5.41903C12.4787 5.1952 13.9634 5.45763 15.2483 6.16508C16.5332 6.87252 17.5454 7.98485 18.1259 9.32722C18.7063 10.6696 18.8221 12.1659 18.455 13.5809C18.0878 14.9958 17.2586 16.2493 16.0977 17.1442C14.9368 18.039 13.51 18.5246 12.0416 18.5245L12.0361 18.5237ZM15.6691 13.5868C15.4703 13.4879 14.4949 13.0087 14.3086 12.9425C14.1223 12.8763 13.9955 12.8436 13.8608 13.0415C13.7262 13.2393 13.3465 13.6865 13.2307 13.8205C13.1148 13.9545 12.9958 13.9693 12.7994 13.8704C12.2124 13.6377 11.6707 13.305 11.1986 12.8872C10.7633 12.4866 10.39 12.024 10.0909 11.5145C9.97505 11.3158 10.0909 11.2192 10.1786 11.1102C10.3605 10.8969 10.5262 10.6703 10.6741 10.4324C10.7006 10.3777 10.7131 10.3173 10.7102 10.2566C10.7073 10.1959 10.6893 10.1369 10.6576 10.0849C10.6083 9.986 10.2099 9.01062 10.0439 8.6133C9.87799 8.21598 9.7183 8.27908 9.59618 8.27285C9.47406 8.26662 9.34725 8.26584 9.21496 8.26584C9.11411 8.26845 9.01489 8.29182 8.92355 8.33445C8.83221 8.37709 8.75073 8.43808 8.68423 8.51358C8.45913 8.72589 8.28094 8.98253 8.16099 9.26715C8.04104 9.55178 7.98197 9.85814 7.98754 10.1667C8.0523 10.9135 8.33439 11.6252 8.7993 12.2149C9.65322 13.4889 10.8253 14.5201 12.2005 15.2072C12.5712 15.3664 12.9501 15.5057 13.3356 15.6248C13.7413 15.7473 14.1701 15.7739 14.588 15.7027C14.8652 15.6465 15.1277 15.5338 15.359 15.3717C15.5903 15.2096 15.7855 15.0016 15.9321 14.7608C16.0624 14.4646 16.1027 14.1369 16.048 13.8182C16.0002 13.7356 15.8671 13.6857 15.6683 13.5868H15.6691Z" fill="#555555"/>
</svg>
