<svg width="16" height="16" viewBox="0 0 16 16" fill="none" xmlns="http://www.w3.org/2000/svg">
<path d="M1.93945 13.9428L2.41812 12.216C3.21126 9.38011 5.30281 7.94714 7.39378 7.94714" stroke="#555555" stroke-width="1.5" stroke-linecap="round" stroke-linejoin="round"/>
<path d="M7.39366 7.93511C9.06729 7.93511 10.424 6.59293 10.424 4.93728C10.424 3.28163 9.06729 1.93945 7.39366 1.93945C5.72003 1.93945 4.36328 3.28163 4.36328 4.93728C4.36328 6.59293 5.72003 7.93511 7.39366 7.93511Z" stroke="#555555" stroke-width="1.5" stroke-linecap="round" stroke-linejoin="bevel"/>
<mask id="path-3-outside-1_4232_421007" maskUnits="userSpaceOnUse" x="6.49023" y="6.5498" width="9" height="9" fill="black">
<rect fill="white" x="6.49023" y="6.5498" width="9" height="9"/>
<path fill-rule="evenodd" clip-rule="evenodd" d="M10.6346 8.90543L10.6572 8.85027C10.7009 8.75685 10.7699 8.6787 10.8558 8.6254C10.9417 8.57211 11.0407 8.54599 11.1407 8.55026C11.2408 8.55452 11.3374 8.58899 11.4188 8.64942C11.5002 8.70985 11.5628 8.79362 11.5989 8.89044L11.6168 8.95039C11.6392 9.01703 11.6747 9.0781 11.7211 9.12972C11.7675 9.18133 11.8237 9.22236 11.8862 9.25018C11.9499 9.27896 12.0184 9.29442 12.0879 9.29565C12.1573 9.29689 12.2263 9.28388 12.2909 9.25737L12.3441 9.23519C12.4388 9.19736 12.5422 9.18913 12.6415 9.2115C12.7407 9.23388 12.8314 9.28588 12.9025 9.3611C12.9717 9.43361 13.0168 9.52713 13.0313 9.62805C13.0457 9.72897 13.0288 9.83204 12.9829 9.92229L12.9551 9.97505C12.9233 10.0357 12.9045 10.1028 12.9 10.1718C12.8955 10.2407 12.9055 10.3098 12.9291 10.3744C12.9537 10.4401 12.9912 10.4997 13.0392 10.5497C13.0871 10.5996 13.1445 10.6387 13.2077 10.6646L13.2656 10.6867C13.3576 10.7245 13.4362 10.7908 13.4906 10.8767C13.5449 10.9626 13.5723 11.0637 13.5691 11.1664C13.5632 11.2691 13.5271 11.3675 13.4658 11.4483C13.4044 11.5291 13.3206 11.5885 13.2257 11.6185L13.1679 11.6358C13.1015 11.6555 13.0399 11.6892 12.9867 11.7348C12.9336 11.7804 12.8902 11.8369 12.8592 11.9009C12.8293 11.9635 12.8129 12.0322 12.8113 12.1021C12.8098 12.1721 12.8229 12.2415 12.8499 12.3056L12.8725 12.3577C12.9102 12.452 12.9182 12.5562 12.8954 12.6555C12.8725 12.7548 12.82 12.8441 12.7453 12.9105C12.6684 12.9794 12.5738 13.0237 12.4731 13.0378C12.3725 13.052 12.27 13.0355 12.1782 12.9903L12.1244 12.9627C12.0619 12.9309 11.994 12.9123 11.9246 12.9078C11.8551 12.9034 11.7855 12.9133 11.7197 12.9369C11.6552 12.9595 11.5959 12.9957 11.5455 13.0431C11.4951 13.0906 11.4546 13.1483 11.4266 13.2127L11.4041 13.2679C11.3604 13.3613 11.2914 13.4394 11.2055 13.4927C11.1196 13.546 11.0206 13.5721 10.9205 13.5679C10.8205 13.5636 10.7239 13.5291 10.6425 13.4687C10.5611 13.4083 10.4985 13.3245 10.4624 13.2277L10.4445 13.1677C10.423 13.1001 10.3881 13.038 10.342 12.9853C10.2959 12.9326 10.2396 12.8906 10.1768 12.862C10.1127 12.8323 10.0435 12.8162 9.97331 12.8147C9.90313 12.8132 9.83335 12.8262 9.76808 12.853L9.7149 12.8757C9.62012 12.9136 9.51675 12.9218 9.41752 12.8994C9.31829 12.8771 9.22754 12.8251 9.15646 12.7498C9.08726 12.6773 9.04215 12.5838 9.0277 12.4829C9.01325 12.382 9.03021 12.2789 9.0761 12.1886L9.10385 12.1365C9.13565 12.0758 9.15444 12.0087 9.15893 11.9398C9.16342 11.8709 9.15351 11.8017 9.12987 11.7372C9.10523 11.6717 9.06782 11.6121 9.01997 11.5623C8.97213 11.5124 8.91487 11.4734 8.8518 11.4476L8.79399 11.4254C8.70191 11.3876 8.62332 11.3213 8.569 11.2354C8.51467 11.1496 8.48725 11.0484 8.49049 10.9457C8.49635 10.843 8.5324 10.7447 8.59379 10.6638C8.65519 10.583 8.73897 10.5236 8.83388 10.4937L8.89169 10.4763C8.95801 10.4566 9.01969 10.423 9.07282 10.3773C9.12596 10.3317 9.1694 10.2752 9.20039 10.2113C9.23029 10.1486 9.2466 10.0799 9.2482 10.01C9.2498 9.94008 9.23664 9.87065 9.20964 9.80657L9.1871 9.75441C9.15104 9.66039 9.1443 9.55702 9.16784 9.45883C9.19138 9.36063 9.24401 9.27256 9.31832 9.20701C9.39492 9.13909 9.48877 9.09551 9.58862 9.08147C9.68848 9.06744 9.79013 9.08354 9.88139 9.12787L9.93457 9.15545C9.99705 9.18723 10.065 9.20587 10.1344 9.21029C10.2039 9.21472 10.2735 9.20484 10.3392 9.18123C10.4037 9.15861 10.4631 9.12245 10.5135 9.075C10.5639 9.02754 10.6044 8.96982 10.6323 8.90543H10.6346Z"/>
</mask>
<path d="M10.6346 8.90543V10.1054L11.7454 9.35945L10.6346 8.90543ZM10.6572 8.85027L9.57013 8.34205L9.5464 8.39625L10.6572 8.85027ZM11.5989 8.89044L12.7486 8.54678L12.7232 8.4709L11.5989 8.89044ZM11.6168 8.95039L10.4671 9.29405L10.4792 9.33214L11.6168 8.95039ZM11.8862 9.25018L12.3806 8.15671L12.3741 8.15381L11.8862 9.25018ZM12.2909 9.25737L12.7465 10.3675L12.7528 10.3649L12.2909 9.25737ZM12.3441 9.23519L11.8993 8.12067L11.8821 8.12767L12.3441 9.23519ZM12.9025 9.3611L12.0303 10.1853L12.0344 10.1896L12.9025 9.3611ZM12.9829 9.92229L14.0449 10.4809L14.0525 10.4663L12.9829 9.92229ZM12.9551 9.97505L11.893 9.41648L11.8922 9.41807L12.9551 9.97505ZM12.9291 10.3744L11.8022 10.7869L11.8055 10.7957L12.9291 10.3744ZM13.2077 10.6646L12.7542 11.7755L12.7778 11.7849L13.2077 10.6646ZM13.2656 10.6867L13.7209 9.57646L13.6955 9.56639L13.2656 10.6867ZM13.5691 11.1664L14.7671 11.2347L14.7685 11.2043L13.5691 11.1664ZM13.2257 11.6185L13.5713 12.7676L13.5868 12.7628L13.2257 11.6185ZM13.1679 11.6358L13.5086 12.7865L13.5135 12.785L13.1679 11.6358ZM12.8592 11.9009L11.7794 11.3771L11.776 11.3843L12.8592 11.9009ZM12.8499 12.3056L11.744 12.7715L11.7484 12.7817L12.8499 12.3056ZM12.8725 12.3577L13.9865 11.9118L13.974 11.8816L12.8725 12.3577ZM12.7453 12.9105L11.9478 12.0138L11.9443 12.017L12.7453 12.9105ZM12.1782 12.9903L11.6304 14.058L11.6481 14.0668L12.1782 12.9903ZM12.1244 12.9627L12.6721 11.895L12.6685 11.8931L12.1244 12.9627ZM11.7197 12.9369L12.1167 14.0694L12.1253 14.0663L11.7197 12.9369ZM11.4266 13.2127L10.3259 12.7348L10.3158 12.7587L11.4266 13.2127ZM11.4041 13.2679L12.4912 13.7761L12.5149 13.7219L11.4041 13.2679ZM10.4624 13.2277L9.31264 13.5713L9.3381 13.6472L10.4624 13.2277ZM10.4445 13.1677L11.5942 12.8241L11.5883 12.8049L10.4445 13.1677ZM10.1768 12.862L9.6732 13.9512L9.67874 13.9537L10.1768 12.862ZM9.76808 12.853L9.31234 11.7429L9.29555 11.7499L9.76808 12.853ZM9.7149 12.8757L10.1597 13.9903L10.1874 13.9788L9.7149 12.8757ZM9.15646 12.7498L10.0287 11.9256L10.0246 11.9214L9.15646 12.7498ZM9.0761 12.1886L8.01668 11.6251L8.00649 11.6447L9.0761 12.1886ZM9.10385 12.1365L10.1633 12.7001L10.1668 12.6935L9.10385 12.1365ZM9.12987 11.7372L10.2568 11.3246L10.2531 11.3149L9.12987 11.7372ZM8.8518 11.4476L9.30641 10.337L9.28173 10.3272L8.8518 11.4476ZM8.79399 11.4254L8.33869 12.5357L8.36407 12.5457L8.79399 11.4254ZM8.49049 10.9457L7.29244 10.8774L7.29109 10.9079L8.49049 10.9457ZM8.83388 10.4937L8.48825 9.34453L8.47273 9.34931L8.83388 10.4937ZM8.89169 10.4763L8.55095 9.32567L8.54606 9.32714L8.89169 10.4763ZM9.20039 10.2113L10.2801 10.735L10.2835 10.7278L9.20039 10.2113ZM9.20964 9.80657L10.3156 9.34065L10.3112 9.33047L9.20964 9.80657ZM9.1871 9.75441L8.06668 10.1841L8.08558 10.2305L9.1871 9.75441ZM9.31832 9.20701L10.1122 10.1069L10.1144 10.1049L9.31832 9.20701ZM9.88139 9.12787L10.4338 8.06258L10.4056 8.04842L9.88139 9.12787ZM9.93457 9.15545L9.38213 10.2208L9.39048 10.225L9.93457 9.15545ZM10.3392 9.18123L9.94223 8.04877L9.93369 8.05183L10.3392 9.18123ZM10.6323 8.90543V7.70543L9.5316 8.42752L10.6323 8.90543ZM11.7454 9.35945L11.768 9.30429L9.5464 8.39625L9.52385 8.45141L11.7454 9.35945ZM11.7443 9.35849C11.6914 9.47156 11.6046 9.57302 11.4884 9.64509L10.2231 7.60572C9.93518 7.78438 9.71034 8.04215 9.57013 8.34205L11.7443 9.35849ZM11.4884 9.64509C11.3717 9.7175 11.2329 9.75528 11.0896 9.74916L11.1919 7.35135C10.8486 7.3367 10.5117 7.42672 10.2231 7.60572L11.4884 9.64509ZM11.0896 9.74916C10.9464 9.74306 10.8123 9.6937 10.7034 9.61288L12.1341 7.68596C11.8625 7.48427 11.5351 7.36599 11.1919 7.35135L11.0896 9.74916ZM10.7034 9.61288C10.5951 9.53245 10.5178 9.42566 10.4746 9.30997L12.7232 8.4709C12.6078 8.16158 12.4053 7.88725 12.1341 7.68596L10.7034 9.61288ZM10.4492 9.2341L10.4671 9.29405L12.7666 8.60674L12.7486 8.54678L10.4492 9.2341ZM10.4792 9.33214C10.553 9.55209 10.6711 9.75667 10.8285 9.9318L12.6136 8.32764C12.6782 8.39954 12.7254 8.48197 12.7545 8.56865L10.4792 9.33214ZM10.8285 9.9318C10.986 10.107 11.1796 10.2492 11.3984 10.3465L12.3741 8.15381C12.4678 8.19554 12.5489 8.25563 12.6136 8.32764L10.8285 9.9318ZM11.3919 10.3436C11.6034 10.4393 11.8328 10.4913 12.0665 10.4955L12.1092 8.09584C12.204 8.09753 12.2964 8.11867 12.3806 8.15673L11.3919 10.3436ZM12.0665 10.4955C12.3003 10.4996 12.5315 10.4558 12.7465 10.3675L11.8353 8.14723C11.9211 8.112 12.0144 8.09415 12.1092 8.09584L12.0665 10.4955ZM12.7528 10.3649L12.806 10.3427L11.8821 8.12767L11.8289 8.14985L12.7528 10.3649ZM12.7889 10.3497C12.6593 10.4014 12.5156 10.4132 12.3775 10.3821L12.9054 8.04089C12.5689 7.96501 12.2184 7.99329 11.8993 8.12067L12.7889 10.3497ZM12.3775 10.3821C12.2398 10.3511 12.12 10.2802 12.0303 10.1853L13.7747 8.53691C13.5428 8.29154 13.2416 8.11668 12.9054 8.04089L12.3775 10.3821ZM12.0344 10.1896C11.9279 10.078 11.8637 9.94008 11.8434 9.79814L14.2192 9.45796C14.1699 9.11417 14.0155 8.78925 13.7707 8.53264L12.0344 10.1896ZM11.8434 9.79814C11.8231 9.65637 11.8463 9.50988 11.9133 9.3783L14.0525 10.4663C14.2112 10.1542 14.2684 9.80158 14.2192 9.45796L11.8434 9.79814ZM11.9208 9.36372L11.893 9.41648L14.0172 10.5336L14.0449 10.4809L11.9208 9.36372ZM11.8922 9.41807C11.782 9.62848 11.7179 9.8589 11.7026 10.0937L14.0975 10.2498C14.0912 10.3468 14.0647 10.443 14.018 10.532L11.8922 9.41807ZM11.7026 10.0937C11.6873 10.3286 11.7209 10.5648 11.8023 10.7869L14.056 9.9618C14.09 10.0548 14.1038 10.1528 14.0975 10.2498L11.7026 10.0937ZM11.8055 10.7957C11.8866 11.012 12.0111 11.2116 12.1736 11.3808L13.9047 9.71855C13.9713 9.78786 14.0209 9.86811 14.0527 9.95307L11.8055 10.7957ZM12.1736 11.3808C12.3362 11.5501 12.5334 11.6854 12.7542 11.7755L13.6613 9.55357C13.7557 9.59209 13.8381 9.64913 13.9047 9.71855L12.1736 11.3808ZM12.7778 11.7849L12.8356 11.8071L13.6955 9.56639L13.6377 9.54421L12.7778 11.7849ZM12.8103 11.797C12.6669 11.7382 12.5523 11.6382 12.4765 11.5183L14.5046 10.2351C14.3201 9.94352 14.0484 9.71078 13.7209 9.57646L12.8103 11.797ZM12.4765 11.5183C12.401 11.399 12.3654 11.2631 12.3697 11.1285L14.7685 11.2043C14.7792 10.8644 14.6888 10.5261 14.5046 10.2351L12.4765 11.5183ZM12.371 11.098C12.3786 10.9658 12.425 10.8345 12.5102 10.7225L14.4213 12.1742C14.6293 11.9004 14.7478 11.5724 14.7671 11.2347L12.371 11.098ZM12.5102 10.7225C12.5957 10.6099 12.7178 10.5204 12.8645 10.4741L13.5868 12.7628C13.9234 12.6566 14.213 12.4484 14.4213 12.1742L12.5102 10.7225ZM12.88 10.4693L12.8222 10.4867L13.5135 12.785L13.5713 12.7676L12.88 10.4693ZM12.8271 10.4852C12.5965 10.5535 12.385 10.6698 12.2051 10.8243L13.7684 12.6453C13.6947 12.7085 13.6066 12.7574 13.5086 12.7865L12.8271 10.4852ZM12.2051 10.8243C12.0253 10.9786 11.8812 11.1674 11.7795 11.3771L13.9388 12.4246C13.8991 12.5065 13.8419 12.5822 13.7684 12.6453L12.2051 10.8243ZM11.776 11.3843C11.6727 11.6011 11.6171 11.8366 11.6117 12.0747L14.011 12.1296C14.0088 12.2279 13.9859 12.326 13.9423 12.4174L11.776 11.3843ZM11.6117 12.0747C11.6062 12.3129 11.6509 12.5505 11.744 12.7715L13.9558 11.8397C13.9949 11.9325 14.0133 12.0312 14.011 12.1296L11.6117 12.0747ZM11.7484 12.7817L11.7709 12.8338L13.974 11.8816L13.9514 11.8295L11.7484 12.7817ZM11.7584 12.8036C11.7049 12.67 11.6941 12.5247 11.7259 12.3865L14.0648 12.9246C14.1423 12.5877 14.1155 12.234 13.9865 11.9118L11.7584 12.8036ZM11.7259 12.3865C11.7578 12.248 11.8326 12.1163 11.9478 12.0139L13.5428 13.8072C13.8073 13.5719 13.9873 13.2617 14.0648 12.9246L11.7259 12.3865ZM11.9443 12.017C12.0419 11.9295 12.1671 11.8691 12.3061 11.8495L12.6402 14.2261C12.9806 14.1783 13.2949 14.0294 13.5463 13.8041L11.9443 12.017ZM12.3061 11.8495C12.4453 11.8299 12.5856 11.8533 12.7082 11.9137L11.6481 14.0668C11.9544 14.2176 12.2996 14.274 12.6402 14.2261L12.3061 11.8495ZM12.7259 11.9226L12.6721 11.895L11.5767 14.0304L11.6304 14.058L12.7259 11.9226ZM12.6685 11.8931C12.4615 11.7878 12.2345 11.7252 12.0008 11.7103L11.8483 14.1054C11.7535 14.0994 11.6623 14.074 11.5803 14.0322L12.6685 11.8931ZM12.0008 11.7103C11.7671 11.6954 11.5336 11.7287 11.3142 11.8075L12.1253 14.0663C12.0374 14.0979 11.943 14.1114 11.8483 14.1054L12.0008 11.7103ZM11.3227 11.8045C11.0978 11.8833 10.8941 12.0084 10.7231 12.1692L12.3678 13.9171C12.2977 13.983 12.2126 14.0357 12.1167 14.0693L11.3227 11.8045ZM10.7231 12.1692C10.5523 12.33 10.4179 12.523 10.3259 12.7348L12.5274 13.6906C12.4913 13.7736 12.4378 13.8512 12.3678 13.9171L10.7231 12.1692ZM10.3158 12.7587L10.2933 12.8138L12.5149 13.7219L12.5374 13.6667L10.3158 12.7587ZM10.317 12.7596C10.3699 12.6466 10.4567 12.5451 10.5728 12.473L11.8381 14.5124C12.1261 14.3338 12.351 14.076 12.4912 13.7761L10.317 12.7596ZM10.5728 12.473C10.6896 12.4006 10.8284 12.3629 10.9717 12.369L10.8694 14.7668C11.2127 14.7814 11.5496 14.6914 11.8381 14.5124L10.5728 12.473ZM10.9717 12.369C11.1149 12.3751 11.249 12.4244 11.3579 12.5052L9.92714 14.4322C10.1988 14.6339 10.5262 14.7521 10.8694 14.7668L10.9717 12.369ZM11.3579 12.5052C11.4662 12.5857 11.5435 12.6925 11.5866 12.8082L9.3381 13.6472C9.45353 13.9566 9.65603 14.2309 9.92714 14.4322L11.3579 12.5052ZM11.6121 12.884L11.5942 12.8241L9.29471 13.5114L9.31264 13.5713L11.6121 12.884ZM11.5883 12.8049C11.5175 12.5818 11.4014 12.3736 11.2449 12.1949L9.43905 13.7757C9.37485 13.7024 9.32852 13.6185 9.30063 13.5306L11.5883 12.8049ZM11.2449 12.1949C11.0884 12.0161 10.8947 11.8705 10.6748 11.7702L9.67874 13.9537C9.58447 13.9107 9.50335 13.8492 9.43905 13.7757L11.2449 12.1949ZM10.6804 11.7727C10.4675 11.6743 10.2359 11.6202 9.99971 11.615L9.94692 14.0144C9.85107 14.0123 9.7579 13.9903 9.6732 13.9512L10.6804 11.7727ZM9.99971 11.615C9.76349 11.6098 9.52964 11.6537 9.31234 11.7429L10.2238 13.9631C10.1371 13.9987 10.0428 14.0165 9.94692 14.0144L9.99971 11.615ZM9.29555 11.7499L9.24237 11.7727L10.1874 13.9788L10.2406 13.956L9.29555 11.7499ZM9.27009 11.7612C9.39971 11.7095 9.54339 11.6977 9.68145 11.7288L9.15358 14.07C9.49011 14.1459 9.84054 14.1176 10.1597 13.9903L9.27009 11.7612ZM9.68145 11.7288C9.81916 11.7599 9.93894 11.8307 10.0286 11.9257L8.28427 13.574C8.51613 13.8194 8.81741 13.9943 9.15358 14.07L9.68145 11.7288ZM10.0246 11.9214C10.1311 12.033 10.1953 12.1709 10.2156 12.3128L7.83982 12.653C7.88904 12.9968 8.04344 13.3217 8.28832 13.5783L10.0246 11.9214ZM10.2156 12.3128C10.2359 12.4546 10.2126 12.6011 10.1457 12.7326L8.00649 11.6447C7.84778 11.9567 7.79061 12.3094 7.83982 12.653L10.2156 12.3128ZM10.1355 12.7522L10.1633 12.7001L8.04443 11.5729L8.01668 11.6251L10.1355 12.7522ZM10.1668 12.6935C10.277 12.4831 10.3411 12.2526 10.3564 12.0178L7.96147 11.8618C7.96779 11.7648 7.99429 11.6685 8.04095 11.5795L10.1668 12.6935ZM10.3564 12.0178C10.3717 11.783 10.338 11.5467 10.2567 11.3246L8.00301 12.1497C7.96898 12.0568 7.95515 11.9588 7.96147 11.8618L10.3564 12.0178ZM10.2531 11.3149C10.172 11.0991 10.0477 10.9 9.88555 10.7312L8.1544 12.3934C8.08799 12.3243 8.03848 12.2442 8.00662 12.1594L10.2531 11.3149ZM9.88555 10.7312C9.72335 10.5622 9.52663 10.4272 9.30641 10.337L8.39719 12.5581C8.30311 12.5196 8.22091 12.4627 8.1544 12.3934L9.88555 10.7312ZM9.28173 10.3272L9.22392 10.3051L8.36407 12.5457L8.42188 12.5679L9.28173 10.3272ZM9.24929 10.3151C9.39266 10.3739 9.50723 10.474 9.58305 10.5938L7.55495 11.8771C7.73942 12.1686 8.01116 12.4014 8.33869 12.5357L9.24929 10.3151ZM9.58305 10.5938C9.65855 10.7131 9.69415 10.8491 9.68989 10.9836L7.29109 10.9079C7.28035 11.2477 7.37079 11.586 7.55495 11.8771L9.58305 10.5938ZM9.68854 11.0141C9.681 11.1463 9.63451 11.2776 9.54938 11.3897L7.63821 9.93798C7.43029 10.2117 7.31171 10.5397 7.29244 10.8774L9.68854 11.0141ZM9.54938 11.3897C9.46385 11.5023 9.34174 11.5917 9.19503 11.638L8.47273 9.34931C8.1362 9.45552 7.84652 9.66374 7.63821 9.93798L9.54938 11.3897ZM9.17951 11.6428L9.23732 11.6254L8.54606 9.32714L8.48825 9.34453L9.17951 11.6428ZM9.23242 11.6269C9.46306 11.5586 9.67457 11.4423 9.85446 11.2879L8.29119 9.46683C8.36481 9.40362 8.45297 9.3547 8.55096 9.32568L9.23242 11.6269ZM9.85446 11.2879C10.0342 11.1335 10.1784 10.9447 10.2801 10.735L8.1207 9.68757C8.16044 9.60565 8.21769 9.52992 8.29119 9.46683L9.85446 11.2879ZM10.2835 10.7278C10.3869 10.5111 10.4424 10.2755 10.4479 10.0374L8.04851 9.98257C8.05076 9.88425 8.07368 9.78612 8.11727 9.69472L10.2835 10.7278ZM10.4479 10.0374C10.4533 9.79927 10.4086 9.56165 10.3155 9.34067L8.10378 10.2725C8.06468 10.1797 8.04627 10.0809 8.04851 9.98257L10.4479 10.0374ZM10.3112 9.33047L10.2886 9.27831L8.08558 10.2305L8.10813 10.2827L10.3112 9.33047ZM10.3075 9.32468C10.3585 9.4577 10.3676 9.60171 10.3348 9.73857L8.00091 9.17908C7.92102 9.51233 7.94354 9.86309 8.06668 10.1841L10.3075 9.32468ZM10.3348 9.73857C10.3019 9.8757 10.2268 10.0058 10.1122 10.1069L8.52448 8.30711C8.26123 8.53934 8.08086 8.84557 8.00091 9.17908L10.3348 9.73857ZM10.1144 10.1049C10.0173 10.191 9.89322 10.2505 9.75565 10.2698L9.4216 7.89316C9.08431 7.94056 8.77254 8.08717 8.52221 8.30912L10.1144 10.1049ZM9.75565 10.2698C9.61786 10.2892 9.47899 10.2665 9.35717 10.2073L10.4056 8.04842C10.1013 7.90062 9.7591 7.84572 9.4216 7.89316L9.75565 10.2698ZM9.32897 10.1931L9.38215 10.2207L10.487 8.09016L10.4338 8.06258L9.32897 10.1931ZM9.39048 10.225C9.59747 10.3303 9.82445 10.393 10.0581 10.4079L10.2107 8.01272C10.3055 8.01876 10.3966 8.04415 10.4787 8.08588L9.39048 10.225ZM10.0581 10.4079C10.2918 10.4228 10.5254 10.3894 10.7448 10.3106L9.93369 8.05183C10.0216 8.02027 10.1159 8.00668 10.2107 8.01272L10.0581 10.4079ZM10.7362 10.3137C10.9612 10.2348 11.1649 10.1098 11.3358 9.94892L9.69114 8.20108C9.76123 8.13512 9.84634 8.08242 9.94224 8.0488L10.7362 10.3137ZM11.3358 9.94892C11.5067 9.78817 11.6411 9.59515 11.7331 9.38333L9.5316 8.42752C9.56765 8.34449 9.62117 8.26692 9.69114 8.20108L11.3358 9.94892ZM10.6323 10.1054H10.6346V7.70543H10.6323V10.1054Z" fill="#555555" mask="url(#path-3-outside-1_4232_421007)"/>
<path d="M11.0304 12.0327C11.5757 12.0327 12.0177 11.5954 12.0177 11.056C12.0177 10.5166 11.5757 10.0793 11.0304 10.0793C10.485 10.0793 10.043 10.5166 10.043 11.056C10.043 11.5954 10.485 12.0327 11.0304 12.0327Z" stroke="#555555" stroke-width="1.2" stroke-linecap="round" stroke-linejoin="bevel"/>
</svg>
