<svg width="16" height="16" viewBox="0 0 16 16" fill="none" xmlns="http://www.w3.org/2000/svg">
<path d="M6.28968 3.55006H6.28968V3.5535V4.82016C6.28968 5.42103 6.13262 5.75656 5.94434 5.94483C5.75607 6.13311 5.42054 6.29016 4.81967 6.29016H3.55301C2.95214 6.29016 2.61661 6.13311 2.42834 5.94483C2.24006 5.75656 2.08301 5.42103 2.08301 4.82016V3.5535C2.08301 2.95264 2.24004 2.61753 2.42858 2.42942C2.61739 2.24103 2.9546 2.0835 3.55967 2.0835H4.82634C5.42748 2.0835 5.76245 2.24068 5.94959 2.42823C6.13642 2.61549 6.29244 2.94983 6.28968 3.55006Z" stroke="#555555" stroke-width="1.5"/>
<path d="M11.18 2.0835H12.4466C13.0475 2.0835 13.383 2.24055 13.5713 2.42883C13.7596 2.6171 13.9166 2.95263 13.9166 3.5535V4.82016C13.9166 5.42103 13.7596 5.75656 13.5713 5.94483C13.383 6.13311 13.0475 6.29016 12.4466 6.29016H11.18C10.5791 6.29016 10.2436 6.13311 10.0553 5.94483C9.86702 5.75656 9.70996 5.42103 9.70996 4.82016V3.5535C9.70996 2.95263 9.86702 2.6171 10.0553 2.42883C10.2436 2.24055 10.5791 2.0835 11.18 2.0835Z" stroke="#555555" stroke-width="1.5"/>
<path d="M11.18 9.70312H12.4466C13.0475 9.70312 13.383 9.86018 13.5713 10.0485C13.7596 10.2367 13.9166 10.5723 13.9166 11.1731V12.4398C13.9166 13.0407 13.7596 13.3762 13.5713 13.5645C13.383 13.7527 13.0475 13.9098 12.4466 13.9098H11.18C10.5791 13.9098 10.2436 13.7527 10.0553 13.5645C9.86702 13.3762 9.70996 13.0407 9.70996 12.4398V11.1731C9.70996 10.5723 9.86702 10.2367 10.0553 10.0485C10.2436 9.86018 10.5791 9.70312 11.18 9.70312Z" stroke="#555555" stroke-width="1.5"/>
<path d="M6.28968 11.1764H6.28968V11.1798V12.4465C6.28968 13.0473 6.13262 13.3829 5.94434 13.5711C5.75607 13.7594 5.42054 13.9165 4.81967 13.9165H3.55301C2.95215 13.9165 2.61705 13.7594 2.42893 13.5709C2.24054 13.3821 2.08301 13.0449 2.08301 12.4398V11.1731C2.08301 10.5723 2.24004 10.2372 2.42858 10.049C2.61739 9.86066 2.9546 9.70312 3.55967 9.70312H4.82634C5.42747 9.70312 5.76201 9.86028 5.949 10.0481C6.13595 10.2359 6.29244 10.5719 6.28968 11.1764Z" stroke="#555555" stroke-width="1.5"/>
</svg>
