<svg width="16" height="16" viewBox="0 0 16 16" fill="none" xmlns="http://www.w3.org/2000/svg">
<path d="M14.0003 9.33333L12.0003 7.33333H7.33366C7.15685 7.33333 6.98728 7.26309 6.86225 7.13807C6.73723 7.01305 6.66699 6.84348 6.66699 6.66667V2.66667C6.66699 2.48986 6.73723 2.32029 6.86225 2.19526C6.98728 2.07024 7.15685 2 7.33366 2H13.3337C13.5105 2 13.68 2.07024 13.8051 2.19526C13.9301 2.32029 14.0003 2.48986 14.0003 2.66667V9.33333Z" stroke="#555555" stroke-width="1.5" stroke-linecap="round" stroke-linejoin="round"/>
<path d="M9.33333 9.99996V11.3333C9.33333 11.5101 9.2631 11.6797 9.13807 11.8047C9.01305 11.9297 8.84348 12 8.66667 12H4L2 14V7.33329C2 7.15648 2.07024 6.98691 2.19526 6.86189C2.32029 6.73686 2.48986 6.66663 2.66667 6.66663H4" stroke="#555555" stroke-width="1.5" stroke-linecap="round" stroke-linejoin="round"/>
</svg>
