<svg width="16" height="16" viewBox="0 0 16 16" fill="none" xmlns="http://www.w3.org/2000/svg">
<g clip-path="url(#clip0_4351_27388)">
<path fill-rule="evenodd" clip-rule="evenodd" d="M4.73715 1.07468C4.88456 0.983572 5.06863 0.97529 5.22363 1.05279L6.00002 1.44098L6.77641 1.05279C6.91729 0.982346 7.08313 0.982408 7.22396 1.05296L7.99963 1.44152L8.78815 1.05177C8.92913 0.982084 9.09468 0.982786 9.23506 1.05366L10.0004 1.44006L10.7687 1.05338C10.9098 0.982347 11.0762 0.982201 11.2175 1.05298L11.9925 1.44135L12.778 1.05201C12.9184 0.982402 13.0834 0.982678 13.2236 1.05276L14.0003 1.44098L14.7764 1.05281C14.9314 0.975293 15.1154 0.983559 15.2629 1.07466C15.4103 1.16576 15.5 1.3267 15.5 1.5V8.5H14.5V2.30913L14.224 2.44719C14.0832 2.51759 13.9176 2.51761 13.7768 2.44724L12.9991 2.05851L12.2133 2.44799C12.0727 2.51768 11.9076 2.51732 11.7673 2.44702L10.994 2.05951L10.2248 2.44662C10.0832 2.51789 9.91618 2.51779 9.77467 2.44634L9.00734 2.05892L8.2197 2.44823C8.07922 2.51767 7.91431 2.51723 7.7742 2.44705L6.99981 2.05912L6.22363 2.44721C6.08286 2.5176 5.91718 2.5176 5.77641 2.44721L5.50002 2.30902V10.5H4.50002V1.5C4.50002 1.32671 4.58975 1.16578 4.73715 1.07468Z" fill="#555555"/>
<path fill-rule="evenodd" clip-rule="evenodd" d="M14.5 12V8.5H15.5V12C15.5 12.7956 15.1839 13.5587 14.6213 14.1213C14.0587 14.6839 13.2957 15 12.5 15H3.50002C2.87606 15 2.35056 14.8982 1.91888 14.681C1.47923 14.4599 1.1663 14.1337 0.951942 13.7383C0.544182 12.9861 0.500075 11.9851 0.50002 11.0018C0.499196 10.8705 0.524373 10.7403 0.574107 10.6187C0.624168 10.4963 0.698108 10.3851 0.791612 10.2916C0.885114 10.1981 0.996306 10.1241 1.1187 10.0741C1.24029 10.0244 1.37051 9.99918 1.50185 10H10C10.2762 10 10.5 10.2239 10.5 10.5V12C10.5 12.5304 10.7107 13.0391 11.0858 13.4142C11.4609 13.7893 11.9696 14 12.5 14C13.0305 14 13.5392 13.7893 13.9142 13.4142C14.2893 13.0391 14.5 12.5304 14.5 12ZM10.2639 14C9.77329 13.4515 9.50002 12.7398 9.50002 12V11H1.50002C1.50002 12.0161 1.56142 12.7643 1.83107 13.2617C1.95554 13.4913 2.12452 13.6651 2.36825 13.7877C2.61995 13.9143 2.97929 14 3.50002 14H10.2639Z" fill="#555555"/>
<path fill-rule="evenodd" clip-rule="evenodd" d="M6.50002 4.5C6.50002 4.22386 6.72388 4 7.00002 4H13C13.2762 4 13.5 4.22386 13.5 4.5C13.5 4.77614 13.2762 5 13 5H7.00002C6.72388 5 6.50002 4.77614 6.50002 4.5Z" fill="#555555"/>
<path fill-rule="evenodd" clip-rule="evenodd" d="M8.50002 7C8.50002 6.72386 8.72388 6.5 9.00002 6.5H13C13.2762 6.5 13.5 6.72386 13.5 7C13.5 7.27614 13.2762 7.5 13 7.5H9.00002C8.72388 7.5 8.50002 7.27614 8.50002 7Z" fill="#555555"/>
<path d="M15.5 8.5V1.5C15.5 1.3267 15.4103 1.16576 15.2629 1.07466C15.1154 0.983559 14.9314 0.975293 14.7764 1.05281L14.0003 1.44098L13.2236 1.05276C13.0834 0.982678 12.9184 0.982402 12.778 1.05201L11.9925 1.44135L11.2175 1.05298C11.0762 0.982201 10.9098 0.982347 10.7687 1.05338L10.0004 1.44006L9.23506 1.05366C9.09468 0.982786 8.92913 0.982084 8.78815 1.05177L7.99963 1.44152L7.22396 1.05296C7.08313 0.982408 6.91729 0.982346 6.77641 1.05279L6.00002 1.44098L5.22363 1.05279C5.06863 0.97529 4.88456 0.983572 4.73715 1.07468C4.58975 1.16578 4.50002 1.32671 4.50002 1.5V10.5H5.50002V2.30902L5.77641 2.44721C5.91718 2.5176 6.08286 2.5176 6.22363 2.44721L6.99981 2.05912L7.7742 2.44705C7.91431 2.51723 8.07922 2.51767 8.2197 2.44823L9.00734 2.05892L9.77467 2.44634C9.91618 2.51779 10.0832 2.51789 10.2248 2.44662L10.994 2.05951L11.7673 2.44702C11.9076 2.51732 12.0727 2.51768 12.2133 2.44799L12.9991 2.05851L13.7768 2.44724C13.9176 2.51761 14.0832 2.51759 14.224 2.44719L14.5 2.30913V8.5M15.5 8.5H14.5M15.5 8.5V12C15.5 12.7956 15.1839 13.5587 14.6213 14.1213C14.0587 14.6839 13.2957 15 12.5 15H3.50002C2.87606 15 2.35056 14.8982 1.91888 14.681C1.47923 14.4599 1.1663 14.1337 0.951942 13.7383C0.544182 12.9861 0.500075 11.9851 0.50002 11.0018C0.499196 10.8705 0.524373 10.7403 0.574107 10.6187C0.624168 10.4963 0.698108 10.3851 0.791612 10.2916C0.885114 10.1981 0.996306 10.1241 1.1187 10.0741C1.24029 10.0244 1.37051 9.99918 1.50185 10H10C10.2762 10 10.5 10.2239 10.5 10.5V12C10.5 12.5304 10.7107 13.0391 11.0858 13.4142C11.4609 13.7893 11.9696 14 12.5 14C13.0305 14 13.5392 13.7893 13.9142 13.4142C14.2893 13.0391 14.5 12.5304 14.5 12V8.5M9.50002 12C9.50002 12.7398 9.77329 13.4515 10.2639 14H3.50002C2.97929 14 2.61995 13.9143 2.36825 13.7877C2.12452 13.6651 1.95554 13.4913 1.83107 13.2617C1.56142 12.7643 1.50002 12.0161 1.50002 11H9.50002V12ZM7.00002 4C6.72388 4 6.50002 4.22386 6.50002 4.5C6.50002 4.77614 6.72388 5 7.00002 5H13C13.2762 5 13.5 4.77614 13.5 4.5C13.5 4.22386 13.2762 4 13 4H7.00002ZM9.00002 6.5C8.72388 6.5 8.50002 6.72386 8.50002 7C8.50002 7.27614 8.72388 7.5 9.00002 7.5H13C13.2762 7.5 13.5 7.27614 13.5 7C13.5 6.72386 13.2762 6.5 13 6.5H9.00002Z" stroke="#555555" stroke-width="0.5" stroke-linecap="round" stroke-linejoin="round"/>
</g>
<defs>
<clipPath id="clip0_4351_27388">
<rect width="16" height="16" fill="white"/>
</clipPath>
</defs>
</svg>
