<svg width="16" height="16" viewBox="0 0 16 16" fill="none" xmlns="http://www.w3.org/2000/svg">
<path fill-rule="evenodd" clip-rule="evenodd" d="M3.66506 8.1668C3.67207 7.24762 4.42164 6.50748 5.34083 6.51211C6.26002 6.51678 7.00206 7.26446 6.99976 8.18366C6.99744 9.10286 6.25165 9.84683 5.33244 9.84683C4.88836 9.84577 4.46295 9.66802 4.15013 9.35282C3.8373 9.03762 3.66278 8.61088 3.66506 8.1668V8.1668Z" stroke="#555555" stroke-width="1.5" stroke-linecap="round" stroke-linejoin="round"/>
<path d="M9.33437 6.49938C9.26685 6.49902 9.20578 6.53941 9.17969 6.60168C9.1536 6.66396 9.16764 6.73582 9.21526 6.78369C9.26287 6.83157 9.33466 6.846 9.39707 6.82024C9.45949 6.79449 9.50021 6.73363 9.50021 6.66611C9.50055 6.62194 9.48321 6.57947 9.45206 6.54816C9.42091 6.51684 9.37854 6.49928 9.33437 6.49938" stroke="#555555" stroke-width="1.5" stroke-linecap="round" stroke-linejoin="round"/>
<path d="M11.4096 6.49938C11.342 6.49902 11.281 6.53941 11.2549 6.60168C11.2288 6.66396 11.2428 6.73582 11.2905 6.78369C11.3381 6.83157 11.4099 6.846 11.4723 6.82024C11.5347 6.79449 11.5754 6.73363 11.5754 6.66611C11.5757 6.62194 11.5584 6.57947 11.5273 6.54816C11.4961 6.51684 11.4537 6.49928 11.4096 6.49938" stroke="#555555" stroke-width="1.5" stroke-linecap="round" stroke-linejoin="round"/>
<path fill-rule="evenodd" clip-rule="evenodd" d="M1.99805 13.5857V13.1688C2.00074 12.2491 2.74567 11.5042 3.66541 11.5015H7.00013C7.91987 11.5042 8.6648 12.2491 8.66749 13.1688V13.5857C8.66682 13.8156 8.48059 14.0018 8.25065 14.0025H2.41489C2.18495 14.0018 1.99872 13.8156 1.99805 13.5857V13.5857Z" stroke="#555555" stroke-width="1.5" stroke-linecap="round" stroke-linejoin="round"/>
<path d="M5.51758 3.99842C6.68895 2.32179 8.81617 1.60417 10.7638 2.22859C12.7114 2.85302 14.0249 4.67374 14.003 6.71891C13.9811 8.76408 12.6291 10.5563 10.6685 11.1389" stroke="#555555" stroke-width="1.5" stroke-linecap="round" stroke-linejoin="round"/>
</svg>
