<svg width="16" height="16" viewBox="0 0 16 16" fill="none" xmlns="http://www.w3.org/2000/svg">
<path d="M10.667 2.66699H12.0003C12.3539 2.66699 12.6931 2.80747 12.9431 3.05752C13.1932 3.30756 13.3337 3.6467 13.3337 4.00033V13.3337C13.3337 13.6873 13.1932 14.0264 12.9431 14.2765C12.6931 14.5265 12.3539 14.667 12.0003 14.667H4.00033C3.6467 14.667 3.30756 14.5265 3.05752 14.2765C2.80747 14.0264 2.66699 13.6873 2.66699 13.3337V4.00033C2.66699 3.6467 2.80747 3.30756 3.05752 3.05752C3.30756 2.80747 3.6467 2.66699 4.00033 2.66699H5.33366" stroke="#555555" stroke-width="1.5" stroke-linecap="round" stroke-linejoin="round"/>
<path d="M5.33301 6.6665L10.6663 6.6665M5.33301 9.33317L10.6663 9.33317M5.33301 11.9998L7.99967 11.9998" stroke="#555555" stroke-width="1.5" stroke-linecap="round" stroke-linejoin="round"/>
<path d="M9.99967 1.33301H5.99967C5.63148 1.33301 5.33301 1.63148 5.33301 1.99967V3.33301C5.33301 3.7012 5.63148 3.99967 5.99967 3.99967H9.99967C10.3679 3.99967 10.6663 3.7012 10.6663 3.33301V1.99967C10.6663 1.63148 10.3679 1.33301 9.99967 1.33301Z" stroke="#555555" stroke-width="1.5" stroke-linecap="round" stroke-linejoin="round"/>
</svg>
