<svg width="16" height="16" viewBox="0 0 16 16" fill="none" xmlns="http://www.w3.org/2000/svg">
<g clip-path="url(#clip0_4351_9105)">
<path d="M0.49707 10.6128L0.786053 9.54299C0.939352 8.80945 1.31808 8.15119 1.86237 7.67225C2.40665 7.19332 3.08545 6.92104 3.79147 6.89844" stroke="#555555" stroke-width="1.5" stroke-linecap="round" stroke-linejoin="round"/>
<path d="M3.79116 6.89108C4.80196 6.89108 5.62138 6.0596 5.62138 5.03392C5.62138 4.00824 4.80196 3.17676 3.79116 3.17676C2.78036 3.17676 1.96094 4.00824 1.96094 5.03392C1.96094 6.0596 2.78036 6.89108 3.79116 6.89108Z" stroke="#555555" stroke-width="1.5" stroke-linecap="round" stroke-linejoin="bevel"/>
<path d="M15.5044 10.6128L15.2154 9.54299C15.0621 8.80945 14.6834 8.15119 14.1391 7.67225C13.5948 7.19332 12.916 6.92104 12.21 6.89844" stroke="#555555" stroke-width="1.5" stroke-linecap="round" stroke-linejoin="round"/>
<path d="M12.2101 6.89108C13.2209 6.89108 14.0403 6.0596 14.0403 5.03392C14.0403 4.00824 13.2209 3.17676 12.2101 3.17676C11.1993 3.17676 10.3799 4.00824 10.3799 5.03392C10.3799 6.0596 11.1993 6.89108 12.2101 6.89108Z" stroke="#555555" stroke-width="1.5" stroke-linecap="round" stroke-linejoin="bevel"/>
<path d="M4.68164 13.0653L4.97062 11.9955C5.92587 8.46568 10.0251 8.46568 10.9804 11.9955L11.2694 13.0653" stroke="#555555" stroke-width="1.5" stroke-linecap="round" stroke-linejoin="round"/>
<path d="M7.97573 9.34372C8.98653 9.34372 9.80595 8.51224 9.80595 7.48656C9.80595 6.46087 8.98653 5.62939 7.97573 5.62939C6.96493 5.62939 6.14551 6.46087 6.14551 7.48656C6.14551 8.51224 6.96493 9.34372 7.97573 9.34372Z" stroke="#555555" stroke-width="1.5" stroke-linecap="round" stroke-linejoin="bevel"/>
<path d="M7.97573 9.34372C8.98653 9.34372 9.80595 8.51224 9.80595 7.48656C9.80595 6.46087 8.98653 5.62939 7.97573 5.62939C6.96493 5.62939 6.14551 6.46087 6.14551 7.48656C6.14551 8.51224 6.96493 9.34372 7.97573 9.34372Z" stroke="#555555" stroke-width="1.5" stroke-linecap="round" stroke-linejoin="bevel"/>
</g>
<defs>
<clipPath id="clip0_4351_9105">
<rect width="16" height="12" fill="white" transform="translate(0 2)"/>
</clipPath>
</defs>
</svg>
