<svg width="16" height="16" viewBox="0 0 16 16" fill="none" xmlns="http://www.w3.org/2000/svg">
<path d="M8.31418 1.60815H7.64613C7.13928 1.67344 6.65629 1.86049 6.23937 2.15294C5.82245 2.4454 5.48428 2.83438 5.2544 3.2859C5.02452 3.73742 4.90992 4.23774 4.92061 4.74317C4.9313 5.24859 5.06696 5.74373 5.31573 6.18535L7.64314 10.4676C7.67548 10.5287 7.72409 10.5798 7.78371 10.6155C7.84333 10.6511 7.91167 10.67 7.98135 10.67C8.05103 10.67 8.11938 10.6511 8.17899 10.6155C8.23861 10.5798 8.28722 10.5287 8.31956 10.4676L10.6458 6.19835C10.8938 5.75563 11.0289 5.25974 11.0392 4.75369C11.0496 4.24765 10.9349 3.74676 10.7052 3.29448C10.4755 2.8422 10.1376 2.4522 9.72092 2.15834C9.30425 1.86447 8.82137 1.67561 8.31418 1.60815Z" stroke="#555555" stroke-width="1.5" stroke-linecap="round" stroke-linejoin="bevel"/>
<path fill-rule="evenodd" clip-rule="evenodd" d="M5.5665 6.64749C5.46197 6.65906 5.35933 6.69266 5.26577 6.74829L4.09017 7.44729C3.90848 7.55532 3.78082 7.73501 3.73859 7.94213L2.563 13.7089C2.50371 13.9997 2.62152 14.2982 2.86349 14.4701C3.10546 14.642 3.42606 14.6551 3.68119 14.5034L5.64907 13.3333L7.61696 14.5034C7.85319 14.6438 8.14734 14.6438 8.38357 14.5034L10.3515 13.3333L12.3193 14.5034C12.5745 14.6551 12.8951 14.642 13.137 14.4701C13.379 14.2982 13.4968 13.9997 13.4375 13.7089L12.2619 7.94213C12.2197 7.73501 12.092 7.55532 11.9104 7.44729L10.7348 6.74829C10.6317 6.68702 10.5177 6.65247 10.4022 6.64465L9.12011 8.99765L10.3515 8.2655L10.8585 8.56697L11.6292 12.3479L10.7348 11.8161C10.4985 11.6756 10.2044 11.6756 9.96815 11.8161L8.00026 12.9862L6.03238 11.8161C5.79614 11.6756 5.502 11.6756 5.26577 11.8161L4.3713 12.3479L5.14207 8.56696L5.64907 8.2655L6.82633 8.96549L5.5665 6.64749Z" fill="#555555"/>
<path d="M9.07719 4.6042C9.07719 4.00461 8.58575 3.51855 7.97951 3.51855C7.37328 3.51855 6.88184 4.00461 6.88184 4.6042C6.88184 5.20378 7.37328 5.68984 7.97951 5.68984C8.58575 5.68984 9.07719 5.20378 9.07719 4.6042Z" stroke="#555555" stroke-linecap="round" stroke-linejoin="bevel"/>
</svg>
