<svg width="16" height="16" viewBox="0 0 16 16" fill="none" xmlns="http://www.w3.org/2000/svg">
<path fill-rule="evenodd" clip-rule="evenodd" d="M14 10.3525V12.2478C14 12.6263 13.7312 12.9335 13.4 12.9335H2.6C2.2688 12.9335 2 12.6263 2 12.2478V10.3525C2 10.253 2.0492 10.1625 2.1266 10.118V10.118C2.7848 9.74218 3.2 8.97418 3.2 8.1335V8.1335C3.2 7.29281 2.7842 6.52481 2.1266 6.14904V6.14904C2.0492 6.10447 2 6.01395 2 5.91452V4.01921C2 3.6407 2.2688 3.3335 2.6 3.3335H13.4C13.7312 3.3335 14 3.6407 14 4.01921V5.91452C14 6.01395 13.9508 6.10447 13.8734 6.14904L13.847 6.16481C13.2038 6.54607 12.8 7.30515 12.8 8.1335V8.1335C12.8 8.9735 13.2152 9.74218 13.8728 10.118H13.8734C13.9508 10.1625 14 10.253 14 10.3525Z" stroke="#555555" stroke-width="1.5" stroke-linecap="round" stroke-linejoin="round"/>
<path d="M6.45801 9.67529L9.45801 6.67529" stroke="#555555" stroke-width="1.5" stroke-linecap="round" stroke-linejoin="round"/>
<path d="M9.4996 9.4835C9.4168 9.4835 9.3496 9.5507 9.3502 9.6335C9.3502 9.7163 9.4174 9.7835 9.5002 9.7835C9.583 9.7835 9.6502 9.7163 9.6502 9.6335C9.6502 9.5507 9.583 9.4835 9.4996 9.4835" stroke="#555555" stroke-width="1.5" stroke-linecap="round" stroke-linejoin="round"/>
<path d="M6.4996 6.4835C6.4168 6.4835 6.3496 6.5507 6.3502 6.6335C6.3502 6.7163 6.4174 6.7835 6.5002 6.7835C6.583 6.7835 6.6502 6.7163 6.6502 6.6335C6.6502 6.5507 6.583 6.4835 6.4996 6.4835" stroke="#555555" stroke-width="1.5" stroke-linecap="round" stroke-linejoin="round"/>
</svg>
