<svg width="16" height="16" viewBox="0 0 16 16" fill="none" xmlns="http://www.w3.org/2000/svg">
<path fill-rule="evenodd" clip-rule="evenodd" d="M11.3354 5.38691V5.38691C11.5433 5.59485 11.6602 5.87686 11.6602 6.17093C11.6602 6.46499 11.5433 6.74701 11.3354 6.95494L10.273 8.01735C10.1104 8.17988 9.89001 8.27119 9.66015 8.27119C9.4303 8.27119 9.20986 8.17988 9.04733 8.01735L7.98491 6.95492C7.77697 6.74699 7.66016 6.46497 7.66016 6.17091C7.66016 5.87684 7.77697 5.59483 7.98491 5.38689V5.38689C8.4179 4.95391 9.11991 4.95391 9.55291 5.38689L9.66012 5.49411L9.76734 5.38689C9.97528 5.17895 10.2573 5.06213 10.5514 5.06213C10.8454 5.06214 11.1275 5.17896 11.3354 5.38691V5.38691Z" stroke="#555555" stroke-width="1.5" stroke-linecap="round" stroke-linejoin="round"/>
<path fill-rule="evenodd" clip-rule="evenodd" d="M8.338 12H12C13.1046 12 14 11.1046 14 10V4C14 2.89543 13.1046 2 12 2H4C2.89543 2 2 2.89543 2 4V10C2 11.1046 2.89543 12 4 12H5.338V13.6286C5.338 13.7711 5.41969 13.901 5.54813 13.9627C5.67658 14.0245 5.82904 14.0071 5.94033 13.9181L8.338 12Z" stroke="#555555" stroke-width="1.5" stroke-linecap="round" stroke-linejoin="round"/>
</svg>
