<svg width="16" height="16" viewBox="0 0 16 16" fill="none" xmlns="http://www.w3.org/2000/svg">
<path d="M5.78906 13.3123L6.1215 12.2207C6.276 11.4882 6.70108 10.8237 7.32824 10.3342C7.95539 9.84482 8.74808 9.55899 9.57854 9.52283" stroke="#555555" stroke-width="1.5" stroke-linecap="round" stroke-linejoin="round"/>
<path d="M9.57931 9.52287C10.6257 9.52287 11.474 8.67457 11.474 7.62813C11.474 6.5817 10.6257 5.7334 9.57931 5.7334C8.53287 5.7334 7.68457 6.5817 7.68457 7.62813C7.68457 8.67457 8.53287 9.52287 9.57931 9.52287Z" stroke="#555555" stroke-width="1.5" stroke-linecap="round" stroke-linejoin="bevel"/>
<path d="M2 10.5334L2.27703 9.25978C2.40578 8.40521 2.76002 7.62996 3.28264 7.05896C3.80527 6.48797 4.46584 6.1545 5.15789 6.1123" stroke="#555555" stroke-width="1.5" stroke-linecap="round" stroke-linejoin="round"/>
<path d="M5.15743 6.11235C6.20387 6.11235 7.05217 5.26405 7.05217 4.21761C7.05217 3.17118 6.20387 2.32288 5.15743 2.32288C4.111 2.32288 3.2627 3.17118 3.2627 4.21761C3.2627 5.26405 4.111 6.11235 5.15743 6.11235Z" stroke="#555555" stroke-width="1.5" stroke-linecap="round" stroke-linejoin="bevel"/>
<path d="M12.1057 13.9439C13.1521 13.9439 14.0004 13.0956 14.0004 12.0492C14.0004 11.0027 13.1521 10.1544 12.1057 10.1544C11.0592 10.1544 10.2109 11.0027 10.2109 12.0492C10.2109 13.0956 11.0592 13.9439 12.1057 13.9439Z" stroke="#555555" stroke-linecap="round" stroke-linejoin="round"/>
<path d="M11.0947 11.9866L11.6842 12.6808L12.9895 11.4176" stroke="#555555" stroke-linecap="round" stroke-linejoin="round"/>
</svg>
