<svg width="64" height="67" viewBox="0 0 64 67" fill="none" xmlns="http://www.w3.org/2000/svg">
<rect x="8" width="48" height="48" rx="24" fill="#176CF7"/>
<path d="M46.3478 23.9999C46.3478 26.8377 45.5063 29.6117 43.9298 31.9711C42.3532 34.3306 40.1124 36.1696 37.4907 37.2556C34.8689 38.3415 31.9841 38.6257 29.2009 38.0721C26.4177 37.5184 23.8611 36.1519 21.8545 34.1454C19.848 32.1388 18.4815 29.5822 17.9279 26.799C17.3742 24.0158 17.6584 21.131 18.7443 18.5092C19.8303 15.8875 21.6693 13.6467 24.0288 12.0701C26.3883 10.4936 29.1623 9.6521 32 9.6521C35.8053 9.6521 39.4547 11.1637 42.1454 13.8545C44.8362 16.5452 46.3478 20.1946 46.3478 23.9999Z" fill="#FFC217"/>
<path d="M24.744 23.5314C24.7483 23.2704 24.8041 23.0129 24.9081 22.7734C25.0121 22.534 25.1623 22.3174 25.35 22.1361C25.5378 21.9547 25.7594 21.8121 26.0023 21.7165C26.2452 21.6209 26.5046 21.574 26.7656 21.5787C27.0248 21.5745 27.2822 21.6219 27.523 21.7181C27.7637 21.8144 27.9829 21.9575 28.1678 22.1392C28.3527 22.3209 28.4997 22.5376 28.6001 22.7766C28.7005 23.0156 28.7524 23.2722 28.7527 23.5314V25.5014C28.7654 26.3529 29.1126 27.1653 29.7192 27.763C30.3259 28.3607 31.1433 28.6958 31.995 28.6958C32.8466 28.6958 33.6641 28.3607 34.2707 27.763C34.8774 27.1653 35.2246 26.3529 35.2372 25.5014V23.5314C35.2416 23.2704 35.2974 23.0127 35.4015 22.7733C35.5055 22.5338 35.6558 22.3172 35.8436 22.1358C36.0314 21.9545 36.2531 21.8119 36.4961 21.7163C36.7391 21.6207 36.9985 21.5739 37.2596 21.5787C37.5188 21.5745 37.7762 21.6219 38.017 21.7181C38.2577 21.8144 38.4769 21.9575 38.6618 22.1392C38.8467 22.3209 38.9937 22.5376 39.0941 22.7766C39.1945 23.0156 39.2464 23.2722 39.2467 23.5314V25.5014C39.197 27.3914 38.4112 29.1874 37.0568 30.5066C35.7024 31.8258 33.8864 32.5641 31.9957 32.5641C30.105 32.5641 28.289 31.8258 26.9346 30.5066C25.5802 29.1874 24.7944 27.3914 24.7447 25.5014L24.744 23.5314Z" fill="#176CF7"/>
<path d="M28.7868 18.6572C28.7868 19.0566 28.6684 19.447 28.4465 19.7791C28.2246 20.1112 27.9092 20.37 27.5402 20.5229C27.1712 20.6757 26.7651 20.7157 26.3734 20.6378C25.9817 20.5599 25.6218 20.3676 25.3394 20.0851C25.057 19.8027 24.8646 19.4429 24.7867 19.0511C24.7088 18.6594 24.7488 18.2533 24.9017 17.8843C25.0545 17.5153 25.3133 17.1999 25.6454 16.978C25.9775 16.7561 26.368 16.6377 26.7674 16.6377C27.303 16.6377 27.8166 16.8505 28.1954 17.2292C28.5741 17.6079 28.7868 18.1216 28.7868 18.6572Z" fill="#176CF7"/>
<path d="M39.2497 18.6569C39.2497 19.0563 39.1312 19.4468 38.9093 19.7789C38.6874 20.111 38.372 20.3698 38.003 20.5226C37.634 20.6755 37.228 20.7155 36.8362 20.6376C36.4445 20.5596 36.0847 20.3673 35.8022 20.0849C35.5198 19.8025 35.3275 19.4426 35.2496 19.0509C35.1716 18.6591 35.2116 18.2531 35.3645 17.8841C35.5173 17.5151 35.7762 17.1997 36.1083 16.9778C36.4404 16.7559 36.8308 16.6375 37.2302 16.6375C37.7658 16.6375 38.2795 16.8502 38.6582 17.2289C39.0369 17.6077 39.2497 18.1213 39.2497 18.6569Z" fill="#176CF7"/>
<path fill-rule="evenodd" clip-rule="evenodd" d="M31.9987 8.66937C35.4136 8.66797 38.7333 9.79788 41.441 11.8832C44.1487 13.9686 46.0925 16.8924 46.9699 20.1997C46.8766 20.1923 46.7821 20.1886 46.6866 20.1886H45.4953V27.3384H46.7425C46.7175 28.1721 46.5262 28.9924 46.1798 29.7509C45.8334 30.5093 45.3389 31.1906 44.7256 31.7544C42.9875 33.3825 39.8246 34.66 34.3006 34.3373C34.2164 34.0892 34.0641 33.8699 33.861 33.7047C33.658 33.5395 33.4126 33.4351 33.1529 33.4035L31.577 33.2106C31.2118 33.1657 30.8438 33.2681 30.5539 33.4951C30.264 33.7222 30.076 34.0554 30.0313 34.4213C29.9865 34.7873 30.0886 35.1561 30.3152 35.4466C30.5418 35.7371 30.8743 35.9255 31.2395 35.9703L32.8154 36.1633C33.0772 36.1955 33.3428 36.1524 33.5811 36.039C33.8194 35.9256 34.0206 35.7466 34.1611 35.5228C39.922 35.8711 43.4728 34.5602 45.5395 32.6245C46.3001 31.9241 46.9061 31.0722 47.3187 30.1232C47.7312 29.1743 47.9411 28.1494 47.9349 27.1144C48.5871 26.8716 49.1542 26.4431 49.5664 25.8815C49.9786 25.32 50.218 24.6498 50.255 23.9537C50.292 23.2575 50.125 22.5657 49.7746 21.9635C49.4242 21.3612 48.9058 20.8747 48.283 20.564C47.4586 16.852 45.396 13.5326 42.4355 11.1536C39.475 8.77453 35.7935 7.47803 31.9987 7.47803C28.2038 7.47803 24.5224 8.77453 21.5619 11.1536C18.6014 13.5326 16.5387 16.852 15.7143 20.564C14.9943 20.9236 14.4167 21.5166 14.0754 22.2466C13.734 22.9766 13.6489 23.8008 13.8338 24.5854C14.0188 25.37 14.463 26.0689 15.0942 26.5686C15.7255 27.0684 16.5068 27.3396 17.3113 27.3384H18.5021V20.1886H17.3113C17.2157 20.1886 17.1213 20.1923 17.028 20.1997C17.9054 16.8925 19.8491 13.9688 22.5567 11.8834C25.2642 9.79806 28.5838 8.66809 31.9987 8.66937Z" fill="white"/>
<path fill-rule="evenodd" clip-rule="evenodd" d="M9.90807 33.3938L1.56672 41.7351L1.3131 42.4268C1.2587 42.5421 1.23494 42.6695 1.24412 42.7967C1.25329 42.9239 1.29509 43.0465 1.36549 43.1528C1.43588 43.2591 1.53249 43.3455 1.64598 43.4036C1.75948 43.4617 1.88604 43.4896 2.01344 43.4845L17.7226 43.2932C14.3107 40.7642 11.5932 37.3516 9.90807 33.3938ZM46.1868 43.36C50.7429 43.3277 61.5267 43.2565 61.5267 43.2565C62.8582 43.2623 62.8669 42.6138 62.5498 42.2334L53.9766 33.6602C52.2689 37.5395 49.5641 40.881 46.1868 43.36Z" fill="url(#paint0_linear_94_54007)"/>
<path d="M1.35597 44.607L10.1984 65.4494C11.1923 66.4426 12.54 67.0004 13.9451 67L49.6647 67C51.0698 67.0004 52.4175 66.4426 53.4114 65.4495C53.4114 65.4495 60.3142 46.5466 62.9974 43.8634C63.0743 43.7865 63.1351 43.695 63.1761 43.5943C63.2172 43.4935 63.2376 43.3856 63.2363 43.2768C63.2349 43.168 63.2118 43.0606 63.1683 42.9609C63.1248 42.8612 63.0618 42.7712 62.983 42.6962L62.5276 42.2408C63.0118 42.9729 62.176 43.2611 61.6774 43.2697L51.8582 43.2899L11.8495 43.2668L2.0102 43.4859C1.8828 43.4909 1.75624 43.4631 1.64274 43.405C1.52924 43.3469 1.43263 43.2605 1.36224 43.1542C1.29185 43.0479 1.25004 42.9252 1.24087 42.7981C1.2317 42.6709 1.25545 42.5435 1.30985 42.4282L1.55771 41.7422L1.36173 41.9382C1.18563 42.1128 1.04575 42.3204 0.950114 42.5492C0.854475 42.778 0.804964 43.0234 0.80443 43.2714C0.803896 43.5194 0.852347 43.765 0.946993 43.9942C1.04164 44.2234 1.18063 44.4317 1.35597 44.607Z" fill="url(#paint1_linear_94_54007)"/>
<path d="M16.0865 46.693H17.8705V53H16.0865V50.5403H13.6538V53H11.8699V46.693H13.6538V49.0626H16.0865V46.693ZM22.4716 48.1166H24.1835V53H22.5527V52.4774C22.1833 52.8829 21.6607 53.0811 21.1021 53.0811C19.9038 53.0811 19.0298 52.3963 19.0298 50.8466V48.1166H20.7417V50.5673C20.7417 51.3241 21.039 51.6215 21.5526 51.6215C22.0571 51.6215 22.4716 51.2881 22.4716 50.4682V48.1166ZM28.3586 48.0355C29.6831 48.0355 30.7552 48.9996 30.7552 50.5493C30.7552 52.108 29.6831 53.0811 28.3586 53.0811C27.7189 53.0811 27.2413 52.9009 26.917 52.5135V53H25.2862V46.3146H26.9981V48.54C27.3314 48.1977 27.791 48.0355 28.3586 48.0355ZM27.9982 51.7206C28.5748 51.7206 29.0253 51.2971 29.0253 50.5493C29.0253 49.8105 28.5748 49.396 27.9982 49.396C27.4215 49.396 26.971 49.8105 26.971 50.5493C26.971 51.2971 27.4215 51.7206 27.9982 51.7206ZM34.9747 48.1166H36.6866V53H35.0558V52.4774C34.6864 52.8829 34.1638 53.0811 33.6052 53.0811C32.4069 53.0811 31.5329 52.3963 31.5329 50.8466V48.1166H33.2448V50.5673C33.2448 51.3241 33.5422 51.6215 34.0557 51.6215C34.5603 51.6215 34.9747 51.2881 34.9747 50.4682V48.1166ZM40.9698 48.0355C42.1141 48.0355 42.9881 48.6932 42.9881 50.2069V53H41.2762V50.4862C41.2762 49.7834 40.9698 49.4861 40.4743 49.4861C39.9247 49.4861 39.5012 49.8285 39.5012 50.6394V53H37.7893V48.1166H39.4201V48.6482C39.8076 48.2427 40.3572 48.0355 40.9698 48.0355ZM47.7553 48.1166H49.3861V52.108C49.3861 53.9551 48.3409 54.829 46.5209 54.829C45.5839 54.829 44.6919 54.6128 44.0972 54.1893L44.7189 52.991C45.1244 53.3154 45.7911 53.5136 46.3677 53.5136C47.2868 53.5136 47.6742 53.0991 47.6742 52.3333V52.1711C47.3408 52.5585 46.8453 52.7477 46.2236 52.7477C44.9261 52.7477 43.8269 51.8287 43.8269 50.3871C43.8269 48.9545 44.9261 48.0355 46.2236 48.0355C46.8993 48.0355 47.4219 48.2517 47.7553 48.7112V48.1166ZM46.629 51.3872C47.2417 51.3872 47.6922 50.9818 47.6922 50.3871C47.6922 49.7924 47.2417 49.396 46.629 49.396C46.0164 49.396 45.5568 49.7924 45.5568 50.3871C45.5568 50.9818 46.0164 51.3872 46.629 51.3872ZM51.342 47.576C50.7113 47.576 50.2968 47.1795 50.2968 46.666C50.2968 46.1524 50.7113 45.756 51.342 45.756C51.9727 45.756 52.3871 46.1254 52.3871 46.6389C52.3871 47.1795 51.9727 47.576 51.342 47.576ZM50.486 53V48.1166H52.1979V53H50.486ZM24.5778 62L22.7758 59.7115L22.1091 60.4232V62H20.3431V55.693H22.1091V58.3149L24.5508 55.693H26.515L23.9381 58.4861L26.6501 62H24.5778ZM29.0217 57.0355C30.6074 57.0355 31.5174 57.7383 31.5174 59.288V62H29.9227V61.3693C29.6794 61.8378 29.1929 62.0811 28.4811 62.0811C27.3098 62.0811 26.661 61.4234 26.661 60.5764C26.661 59.6754 27.3188 59.1168 28.8325 59.1168H29.8055C29.7785 58.6212 29.4451 58.3419 28.7694 58.3419C28.3009 58.3419 27.7783 58.5041 27.4449 58.7654L26.8683 57.6031C27.4269 57.2337 28.2558 57.0355 29.0217 57.0355ZM28.9586 60.9999C29.337 60.9999 29.6704 60.8197 29.8055 60.4323V60.0088H29.0667C28.5171 60.0088 28.3189 60.207 28.3189 60.5043C28.3189 60.7927 28.5531 60.9999 28.9586 60.9999ZM38.9591 57.0355C40.0943 57.0355 40.9323 57.6932 40.9323 59.2069V62H39.2204V59.4862C39.2204 58.7834 38.932 58.4861 38.4815 58.4861C37.986 58.4861 37.6256 58.8195 37.6256 59.5763V62H35.9137V59.4862C35.9137 58.7834 35.6344 58.4861 35.1749 58.4861C34.6703 58.4861 34.3099 58.8195 34.3099 59.5763V62H32.598V57.1166H34.2288V57.6301C34.5982 57.2337 35.1118 57.0355 35.6884 57.0355C36.3552 57.0355 36.9228 57.2788 37.2652 57.8013C37.6526 57.3148 38.2563 57.0355 38.9591 57.0355ZM42.8687 56.576C42.238 56.576 41.8235 56.1795 41.8235 55.666C41.8235 55.1524 42.238 54.756 42.8687 54.756C43.4994 54.756 43.9139 55.1254 43.9139 55.6389C43.9139 56.1795 43.4994 56.576 42.8687 56.576ZM42.0128 62V57.1166H43.7247V62H42.0128Z" fill="#1B1B1B"/>
<defs>
<linearGradient id="paint0_linear_94_54007" x1="32.0008" y1="32.9998" x2="35.0986" y2="51.4805" gradientUnits="userSpaceOnUse">
<stop stop-color="#FFC217"/>
<stop offset="0.99" stop-color="#8B6700"/>
</linearGradient>
<linearGradient id="paint1_linear_94_54007" x1="32" y1="42" x2="32" y2="63" gradientUnits="userSpaceOnUse">
<stop stop-color="#FFC217"/>
<stop offset="1" stop-color="#F7D578"/>
</linearGradient>
</defs>
</svg>
