<svg width="550" height="70" viewBox="0 0 550 70" fill="none" xmlns="http://www.w3.org/2000/svg">
<g clip-path="url(#clip0_5007_6340)">
<path d="M15.7143 0.000268698H534.286C538.453 0.000268698 546.447 -5.00339 550 8.39233e-05C552.523 3.55333 550 8.20003 550 11.1597V70.0003H6.24657e-05V11.1597C6.24657e-05 8.20003 0 0.000268698 0 0.000268698C0 0.000268698 11.5467 0.000268698 15.7143 0.000268698Z" fill="#C22716"/>
<rect width="10.7642" height="28.9175" rx="5.38208" transform="matrix(0.702001 -0.712175 0.702001 0.712175 465.129 9.2915)" fill="url(#paint0_linear_5007_6340)"/>
<rect width="10.7641" height="28.9174" rx="5.38207" transform="matrix(-0.702001 0.712176 -0.702001 -0.712176 545.082 75.5229)" fill="url(#paint1_linear_5007_6340)"/>
<rect width="10.7642" height="28.9175" rx="5.38208" transform="matrix(-0.702001 0.712175 -0.702001 -0.712175 536.177 6.86133)" fill="url(#paint2_linear_5007_6340)"/>
<ellipse cx="524.796" cy="62.6077" rx="5.3432" ry="5.42065" fill="#FFDB3C"/>
<ellipse cx="500.305" cy="37.3108" rx="5.3432" ry="5.42067" fill="#FFDB3C"/>
<ellipse cx="485.613" cy="22.4045" rx="5.3432" ry="5.42064" fill="#FFDB3C"/>
<rect width="10.7641" height="28.9174" rx="5.38207" transform="matrix(0.702001 -0.712176 0.702001 0.712176 463.348 57.6255)" fill="url(#paint3_linear_5007_6340)"/>
<rect width="10.7641" height="28.9175" rx="5.38207" transform="matrix(-0.702001 0.712176 -0.702001 -0.712176 74.5234 60.1641)" fill="url(#paint4_linear_5007_6340)"/>
<rect width="10.7641" height="28.9175" rx="5.38207" transform="matrix(-0.702001 0.712175 -0.702001 -0.712175 9.51562 49.458)" fill="url(#paint5_linear_5007_6340)"/>
<rect width="10.7641" height="28.9175" rx="5.38207" transform="matrix(0.702001 -0.712175 0.702001 0.712175 -5.42969 -6.06738)" fill="url(#paint6_linear_5007_6340)"/>
<rect width="10.7641" height="28.9175" rx="5.38207" transform="matrix(0.702001 -0.712175 0.702001 0.712175 3.47656 62.5947)" fill="url(#paint7_linear_5007_6340)"/>
<ellipse cx="14.856" cy="6.8479" rx="5.34322" ry="5.42065" transform="rotate(180 14.856 6.8479)" fill="#FFDB3C"/>
<ellipse cx="27.8873" cy="34.284" rx="5.34322" ry="5.42062" transform="rotate(180 27.8873 34.284)" fill="#FFDB3C"/>
<ellipse cx="54.0396" cy="47.051" rx="5.34322" ry="5.42067" transform="rotate(180 54.0396 47.051)" fill="white"/>
<rect width="10.7641" height="28.9175" rx="5.38207" transform="matrix(-0.702001 0.712176 -0.702001 -0.712176 76.3047 11.8306)" fill="url(#paint8_linear_5007_6340)"/>
<rect width="10.7641" height="28.9175" rx="5.38207" transform="matrix(-0.702001 0.712176 -0.702001 -0.712176 76.3047 11.8306)" fill="url(#paint9_linear_5007_6340)"/>
<path d="M299 35C299 39.7467 297.592 44.3869 294.955 48.3337C292.318 52.2805 288.57 55.3566 284.184 57.1731C279.799 58.9896 274.973 59.4649 270.318 58.5388C265.662 57.6128 261.386 55.327 258.029 51.9706C254.673 48.6141 252.387 44.3377 251.461 39.6822C250.535 35.0266 251.01 30.201 252.827 25.8156C254.643 21.4302 257.72 17.6819 261.666 15.0447C265.613 12.4076 270.253 11 275 11C281.365 11 287.47 13.5286 291.971 18.0294C296.471 22.5303 299 28.6348 299 35Z" fill="#FFC217"/>
<path d="M262.868 34.2219C262.876 33.7854 262.969 33.3545 263.143 32.954C263.317 32.5535 263.568 32.1913 263.882 31.8879C264.196 31.5846 264.567 31.3461 264.973 31.1861C265.38 31.0262 265.813 30.9478 266.25 30.9556C266.684 30.9485 267.114 31.0277 267.517 31.1886C267.92 31.3495 268.286 31.5889 268.596 31.8929C268.905 32.1969 269.151 32.5593 269.319 32.9592C269.487 33.359 269.573 33.7883 269.574 34.2219V37.5202C269.594 38.9455 270.174 40.3058 271.188 41.3068C272.203 42.3078 273.572 42.869 274.997 42.869C276.422 42.869 277.791 42.3078 278.806 41.3068C279.82 40.3058 280.4 38.9455 280.42 37.5202V34.2219C280.427 33.7853 280.521 33.3543 280.695 32.9538C280.869 32.5532 281.12 32.1909 281.434 31.8876C281.749 31.5842 282.119 31.3458 282.526 31.1858C282.932 31.0259 283.366 30.9477 283.803 30.9556C284.236 30.9485 284.667 31.0277 285.07 31.1886C285.473 31.3495 285.839 31.5889 286.149 31.8929C286.458 32.1969 286.704 32.5593 286.872 32.9592C287.04 33.359 287.126 33.7883 287.127 34.2219V37.5202C287.055 40.6897 285.746 43.7052 283.479 45.9215C281.212 48.1378 278.168 49.3787 274.998 49.3787C271.827 49.3787 268.783 48.1378 266.516 45.9215C264.249 43.7052 262.94 40.6897 262.868 37.5202V34.2219Z" fill="#176CF7"/>
<path d="M269.624 26.0637C269.624 26.7317 269.426 27.3847 269.055 27.9402C268.684 28.4956 268.157 28.9286 267.539 29.1842C266.922 29.4399 266.243 29.5067 265.588 29.3764C264.933 29.2461 264.331 28.9244 263.858 28.452C263.386 27.9797 263.064 27.3778 262.934 26.7226C262.804 26.0674 262.871 25.3883 263.126 24.7711C263.382 24.1539 263.815 23.6264 264.37 23.2553C264.926 22.8841 265.579 22.686 266.247 22.686C267.143 22.686 268.002 23.0419 268.635 23.6753C269.269 24.3088 269.624 25.1679 269.624 26.0637Z" fill="#176CF7"/>
<path d="M287.126 26.0637C287.126 26.7317 286.928 27.3847 286.557 27.9402C286.186 28.4956 285.658 28.9286 285.041 29.1842C284.424 29.4399 283.745 29.5067 283.09 29.3764C282.435 29.2461 281.833 28.9244 281.36 28.452C280.888 27.9797 280.566 27.3778 280.436 26.7226C280.306 26.0674 280.373 25.3883 280.628 24.7711C280.884 24.1539 281.317 23.6264 281.872 23.2553C282.428 22.8841 283.081 22.686 283.749 22.686C284.645 22.686 285.504 23.0419 286.137 23.6753C286.771 24.3088 287.126 25.1679 287.126 26.0637Z" fill="#176CF7"/>
<path d="M532 28C537.523 28 542 23.5228 542 18C542 12.4772 537.523 8 532 8C526.477 8 522 12.4772 522 18C522 23.5228 526.477 28 532 28Z" fill="white"/>
<path d="M528.166 21.8258C528.113 21.7714 528.072 21.7065 528.043 21.6349C528.015 21.5632 528 21.4864 528 21.4087C528 21.3311 528.015 21.2542 528.043 21.1826C528.072 21.111 528.113 21.0461 528.166 20.9916L531.189 17.8829L528.166 14.9475C528.114 14.8979 528.073 14.8374 528.044 14.7699C528.016 14.7024 528.001 14.6295 528.001 14.5557C528.001 14.4819 528.016 14.4089 528.044 14.3414C528.073 14.2739 528.114 14.2134 528.166 14.1638C528.276 14.0584 528.42 14 528.569 14C528.718 14 528.862 14.0584 528.973 14.1638L531.998 17.0992L535.026 14.1647C535.137 14.0591 535.281 14.0007 535.43 14.0007C535.58 14.0007 535.724 14.0591 535.835 14.1647C535.887 14.2142 535.929 14.2749 535.958 14.3427C535.986 14.4106 536.001 14.4841 536 14.5583C536 14.6324 535.985 14.7057 535.957 14.7735C535.928 14.8413 535.887 14.9021 535.835 14.9519L532.801 17.8847L535.831 20.9899C535.884 21.0444 535.925 21.1092 535.953 21.1807C535.982 21.2521 535.996 21.3287 535.996 21.4061C535.996 21.4835 535.982 21.5602 535.953 21.6316C535.925 21.703 535.884 21.7679 535.831 21.8224C535.723 21.9335 535.578 21.9958 535.427 21.9958C535.276 21.9958 535.131 21.9335 535.023 21.8224L531.998 18.7154L528.973 21.8258C528.865 21.9369 528.721 21.9993 528.57 22C528.419 21.9998 528.274 21.9373 528.166 21.8258Z" fill="#C22716"/>
</g>
<defs>
<linearGradient id="paint0_linear_5007_6340" x1="5.38208" y1="0" x2="5.38208" y2="28.9175" gradientUnits="userSpaceOnUse">
<stop stop-color="white" stop-opacity="0"/>
<stop offset="1" stop-color="white"/>
</linearGradient>
<linearGradient id="paint1_linear_5007_6340" x1="5.38207" y1="0" x2="5.38207" y2="28.9174" gradientUnits="userSpaceOnUse">
<stop stop-color="white" stop-opacity="0"/>
<stop offset="0.0001" stop-color="#FFDB3C" stop-opacity="0"/>
<stop offset="1" stop-color="#FFDB3C"/>
</linearGradient>
<linearGradient id="paint2_linear_5007_6340" x1="5.38208" y1="0" x2="5.38208" y2="28.9175" gradientUnits="userSpaceOnUse">
<stop stop-color="white" stop-opacity="0"/>
<stop offset="0.0001" stop-color="#FFDB3C" stop-opacity="0"/>
<stop offset="1" stop-color="#FFDB3C"/>
</linearGradient>
<linearGradient id="paint3_linear_5007_6340" x1="5.38207" y1="0" x2="5.38207" y2="28.9174" gradientUnits="userSpaceOnUse">
<stop stop-color="white" stop-opacity="0"/>
<stop offset="1" stop-color="white"/>
</linearGradient>
<linearGradient id="paint4_linear_5007_6340" x1="5.38207" y1="0" x2="5.38207" y2="28.9175" gradientUnits="userSpaceOnUse">
<stop stop-color="white" stop-opacity="0"/>
<stop offset="1" stop-color="white"/>
</linearGradient>
<linearGradient id="paint5_linear_5007_6340" x1="5.38207" y1="0" x2="5.38207" y2="28.9175" gradientUnits="userSpaceOnUse">
<stop stop-color="white" stop-opacity="0"/>
<stop offset="1" stop-color="white"/>
</linearGradient>
<linearGradient id="paint6_linear_5007_6340" x1="5.38207" y1="0" x2="5.38207" y2="28.9175" gradientUnits="userSpaceOnUse">
<stop stop-color="white" stop-opacity="0"/>
<stop offset="0.0001" stop-color="#FFDB3C" stop-opacity="0"/>
<stop offset="1" stop-color="#FFDB3C"/>
</linearGradient>
<linearGradient id="paint7_linear_5007_6340" x1="5.38207" y1="0" x2="5.38207" y2="28.9175" gradientUnits="userSpaceOnUse">
<stop stop-color="white" stop-opacity="0"/>
<stop offset="0.0001" stop-color="#FFDB3C" stop-opacity="0"/>
<stop offset="1" stop-color="#FFDB3C"/>
</linearGradient>
<linearGradient id="paint8_linear_5007_6340" x1="5.38207" y1="0" x2="5.38207" y2="28.9175" gradientUnits="userSpaceOnUse">
<stop stop-color="white" stop-opacity="0"/>
<stop offset="1" stop-color="white"/>
</linearGradient>
<linearGradient id="paint9_linear_5007_6340" x1="5.38207" y1="0" x2="5.38207" y2="28.9175" gradientUnits="userSpaceOnUse">
<stop stop-color="white" stop-opacity="0"/>
<stop offset="0.0001" stop-color="#FFDB3C" stop-opacity="0"/>
<stop offset="1" stop-color="#FFDB3C"/>
</linearGradient>
<clipPath id="clip0_5007_6340">
<path d="M0 12C0 5.37258 5.37258 0 12 0H538C544.627 0 550 5.37258 550 12V70H0V12Z" fill="white"/>
</clipPath>
</defs>
</svg>
