<svg width="250" height="250" viewBox="0 0 250 250" fill="none" xmlns="http://www.w3.org/2000/svg">
<g clip-path="url(#clip0_5191_209099)">
<path d="M231.7 232.845C231.7 232.92 182.58 232.975 122.005 232.975C61.4298 232.975 12.2998 232.92 12.2998 232.845C12.2998 232.77 61.4098 232.715 122.005 232.715C182.6 232.715 231.7 232.775 231.7 232.845Z" fill="#263238"/>
<path d="M151.898 46.3963L96.8388 26.6335L42.3326 46.1523C35.3709 49.4054 29.3201 51.4061 29.3201 57.8798V90.1509C29.2004 112.814 35.3961 135.061 47.2123 154.4C59.0203 173.942 76.5249 189.404 97.3756 198.708C119.66 191.47 136.299 172.162 146.465 155.669C158.31 136.339 164.534 114.09 164.439 91.4196V62.3854C164.439 53.1303 159.527 48.6247 151.898 46.3963Z" fill="#FFC217"/>
<g opacity="0.3">
<path d="M97.5718 179.68C81.0532 172.221 67.2064 159.895 57.8835 144.351C48.5242 129.048 43.6075 111.443 43.6836 93.505V70.8632C43.6836 65.7395 46.7741 60.9249 52.9225 58.0621L97.0512 41.5688V26.3441L42.545 45.8629C36.8195 48.3515 29.5325 51.1167 29.5325 57.5904V89.8615C29.4128 112.524 35.6085 134.772 47.4247 154.111C59.2327 173.653 76.7373 189.114 97.588 198.418L97.5718 179.68Z" fill="#FAFAFA"/>
</g>
<g opacity="0.4">
<path d="M97.569 198.418C101.304 197.195 104.924 195.644 108.386 193.783C116.878 188.968 124.593 182.897 131.271 175.777C137.341 169.246 142.68 162.074 147.196 154.387C159.198 134.923 165.258 112.379 164.632 89.5199V62.8605C164.632 49.5877 157.785 48.6118 152.059 46.1069L97.0322 26.3441V41.5688L141.698 58.3061C147.846 61.1851 150.937 65.9835 150.937 71.1234V93.7652C151.013 111.7 146.09 129.302 136.72 144.595C127.612 160.053 113.933 172.306 97.569 179.664V198.418Z" fill="#FAFAFA"/>
</g>
<path d="M52.3962 92.0376C51.9316 90.5883 51.6582 89.0846 51.583 87.5645C51.1617 83.9263 51.0095 80.2621 51.1275 76.6015C51.1275 74.4544 51.339 72.4212 51.5342 70.5669C51.608 68.8748 52.0229 67.215 52.7541 65.6872C53.2834 64.6475 54.1253 63.7999 55.1614 63.2637C55.9096 62.9058 56.3813 62.9221 56.3813 62.9871C55.0537 63.6024 53.9874 64.6687 53.3722 65.9963C52.7733 67.4704 52.4481 69.0413 52.4125 70.632C52.2661 72.47 52.1523 74.4869 52.0872 76.6177C51.9733 80.8631 52.0872 84.7506 52.2499 87.4832C52.4282 88.9944 52.4772 90.5181 52.3962 92.0376Z" fill="white"/>
<path d="M53.2434 106.092C52.9832 106.092 52.7392 104.774 52.7067 103.131C52.6741 101.488 52.8693 100.155 53.1296 100.138C53.3898 100.122 53.6338 101.472 53.6664 103.115C53.6989 104.758 53.4712 106.092 53.2434 106.092Z" fill="white"/>
<path d="M187.372 49.1287V49.2421L170.715 30.0965C172.158 30.4486 173.572 30.9113 174.945 31.4805C176.673 32.1702 178.311 33.0658 179.825 34.148C181.964 35.6087 183.735 37.5465 184.997 39.8085M187.372 49.1287C187.333 45.9121 186.536 42.7505 185.046 39.9007L184.786 40.0362M187.372 49.1287H187.046C187.024 45.9621 186.249 42.8456 184.786 40.0362M187.372 49.1287L187.046 49.1326C187.046 49.1693 187.047 49.2059 187.047 49.2426V60.661L184.739 39.9524M184.786 40.0362L185.043 39.8949C185.028 39.8661 185.012 39.8372 184.997 39.8085M184.786 40.0362C184.77 40.0082 184.755 39.9803 184.739 39.9524M184.997 39.8085L184.736 39.9467C183.512 37.7523 181.812 35.8597 179.76 34.4083M184.997 39.8085L184.739 39.9524M184.739 39.9524L179.76 34.4083M179.76 34.4083C179.734 34.3903 179.709 34.3724 179.684 34.3545C179.682 34.3534 179.681 34.3524 179.679 34.3514C178.183 33.295 176.573 32.4085 174.88 31.7082M179.76 34.4083L174.88 31.7082M174.88 31.7082C174.873 31.7051 174.865 31.702 174.858 31.6989C174.857 31.6985 174.856 31.6981 174.855 31.6977C173.799 31.256 172.722 30.8686 171.627 30.5371M174.88 31.7082L171.627 30.5371M171.627 30.5371L170.707 30.1203L171.627 30.5371Z" fill="#FFDB3C" stroke="#FFC727" stroke-width="10"/>
<path d="M193.455 143.285L181.44 141.545L157.405 145.1L150.66 147.485L151.855 162.235L174.965 166.49L190.555 161.87L196.45 153.195L193.455 143.285Z" fill="#FFBE9D"/>
<path d="M143.065 232.625L144.455 205.365L144.455 205.351L144.452 205.337L144.355 205.36L144.452 205.337L144.452 205.337L144.452 205.336L144.451 205.333L144.448 205.32L144.436 205.27L144.391 205.075L144.22 204.348C144.075 203.727 143.87 202.853 143.635 201.843C143.163 199.822 142.567 197.255 142.067 195.068L142.067 195.067C139.888 185.716 139.782 174.436 140.223 165.489C140.443 161.016 140.799 157.128 141.101 154.359C141.252 152.974 141.389 151.869 141.488 151.11C141.538 150.731 141.578 150.438 141.606 150.24C141.619 150.141 141.63 150.066 141.638 150.016L141.64 150.001L151.758 146.761C151.759 146.776 151.76 146.791 151.76 146.808C151.765 146.927 151.774 147.099 151.79 147.32C151.823 147.76 151.885 148.389 152.005 149.146C152.245 150.661 152.714 152.689 153.633 154.743C155.473 158.854 159.117 163.07 166.314 163.46C175.135 163.945 181.326 158.655 185.305 153.264C187.294 150.567 188.734 147.841 189.676 145.789C190.148 144.763 190.494 143.905 190.724 143.304C190.838 143.003 190.923 142.767 190.98 142.605C191.004 142.538 191.022 142.484 191.036 142.443L200.945 144.778L219.057 232.745L143.065 232.625Z" fill="#263238" stroke="black" stroke-width="0.2"/>
<g opacity="0.3">
<path d="M171.15 227.415C174.86 227.32 178.28 227.635 181.99 227.545C186.44 227.435 190.925 227.325 195.32 228.045C198.61 228.59 201.82 229.59 205.11 230.11C209.61 230.82 214.405 230.57 218.405 228.405L217.76 224.67L202.57 221L171.15 227.415Z" fill="black"/>
</g>
<path d="M142.14 149.845L146.024 183.653L138.654 232.985L114.67 232.871L114.686 232.787C114.712 232.653 114.75 232.455 114.799 232.197C114.898 231.68 115.044 230.921 115.231 229.953C115.606 228.016 116.146 225.243 116.811 221.894C118.141 215.196 119.966 206.198 121.949 196.995C123.933 187.793 126.074 178.388 128.035 170.876C129.015 167.12 129.95 163.839 130.798 161.294C131.222 160.021 131.623 158.933 131.997 158.063C132.372 157.191 132.716 156.544 133.024 156.146C134.762 153.911 137.069 152.325 138.945 151.298C139.883 150.784 140.711 150.411 141.305 150.166C141.602 150.043 141.84 149.953 142.004 149.893C142.057 149.874 142.103 149.858 142.14 149.845Z" fill="#263238" stroke="black" stroke-width="0.2"/>
<path d="M228.821 208.16L228.821 208.16C229.166 211.586 228.407 215.988 226.706 219.642C225.003 223.3 222.371 226.18 218.987 226.616L218.987 226.616L210.347 227.776L210.346 227.776C208.664 228.018 206.952 227.956 205.292 227.593C202.589 226.971 201.114 225.736 200.185 224.168C199.376 222.801 198.981 221.178 198.563 219.462C198.498 219.198 198.434 218.933 198.367 218.666L198.367 218.666L198.365 218.66L195.867 210.706C195.527 208.832 195.709 207.346 196.227 206.172C196.746 204.997 197.604 204.126 198.63 203.489C200.684 202.213 203.399 201.883 205.337 201.935L205.449 201.938L205.44 201.827L202.535 167.272L202.535 167.272L202.534 167.269L199.968 144.558C199.986 144.56 200.005 144.563 200.026 144.565C200.145 144.581 200.321 144.608 200.547 144.651C201 144.739 201.654 144.893 202.458 145.161C204.067 145.697 206.274 146.69 208.664 148.514C213.443 152.161 218.962 159.139 221.877 172.466L221.975 172.445L221.877 172.466C222.295 174.373 222.73 176.331 223.17 178.314C225.519 188.884 228.025 200.163 228.821 208.16Z" fill="#263238" stroke="black" stroke-width="0.2"/>
<path d="M140.21 168.585C140.172 168.705 140.147 168.829 140.135 168.955C140.095 169.225 140.04 169.585 139.97 170.03C139.94 170.265 139.9 170.53 139.86 170.81C139.82 171.09 139.8 171.405 139.765 171.74C139.695 172.405 139.615 173.165 139.58 174.01C139.464 175.986 139.451 177.967 139.54 179.945C139.659 182.364 139.899 184.775 140.26 187.17C140.635 189.725 141.105 192.135 141.585 194.315C142.065 196.495 142.53 198.45 142.94 200.09C143.35 201.73 143.695 203.045 143.94 203.955C144.06 204.39 144.155 204.74 144.23 205C144.257 205.124 144.297 205.245 144.35 205.36C144.339 205.235 144.316 205.111 144.28 204.99C144.22 204.72 144.14 204.37 144.04 203.93C143.815 202.985 143.5 201.665 143.11 200.045C142.72 198.425 142.27 196.445 141.815 194.265C141.36 192.085 140.885 189.68 140.515 187.135C140.145 184.59 139.885 182.135 139.775 179.93C139.665 177.725 139.66 175.7 139.775 174.02C139.8 173.175 139.865 172.42 139.92 171.75C139.943 171.417 139.968 171.107 139.995 170.82C140.025 170.54 140.055 170.28 140.08 170.04C140.13 169.595 140.17 169.235 140.195 168.96C140.212 168.836 140.217 168.71 140.21 168.585Z" fill="#263238"/>
<path d="M218.115 211.185C218.104 210.953 218.065 210.723 218 210.5C217.84 209.898 217.63 209.311 217.37 208.745C216.516 206.858 215.186 205.225 213.511 204.005C211.836 202.786 209.874 202.023 207.815 201.79C207.196 201.715 206.572 201.695 205.95 201.73C205.721 201.733 205.493 201.761 205.27 201.815C206.106 201.82 206.94 201.872 207.77 201.97C209.782 202.249 211.693 203.02 213.336 204.215C214.978 205.41 216.3 206.992 217.185 208.82C217.536 209.591 217.847 210.381 218.115 211.185Z" fill="#263238"/>
<path d="M214.355 197.895C214.226 197.863 214.093 197.851 213.96 197.86C213.601 197.853 213.242 197.87 212.885 197.91C211.704 198.03 210.548 198.32 209.45 198.77C208.353 199.225 207.327 199.833 206.4 200.575C206.12 200.798 205.855 201.039 205.605 201.295C205.43 201.48 205.34 201.585 205.35 201.6C205.36 201.615 205.79 201.25 206.515 200.72C208.4 199.335 210.596 198.433 212.91 198.09C213.795 197.96 214.355 197.94 214.355 197.895Z" fill="#263238"/>
<path d="M197.5 163.36C197.536 163.124 197.55 162.884 197.54 162.645C197.54 162.185 197.57 161.525 197.625 160.71C197.916 156.448 199.084 152.291 201.055 148.5C201.43 147.775 201.755 147.195 201.99 146.805C202.122 146.606 202.234 146.395 202.325 146.175C202.165 146.353 202.023 146.545 201.9 146.75C201.64 147.13 201.29 147.695 200.9 148.415C198.824 152.194 197.644 156.398 197.45 160.705C197.42 161.525 197.42 162.205 197.45 162.65C197.442 162.888 197.459 163.126 197.5 163.36Z" fill="#263238"/>
<path d="M166.32 187.575C166.331 187.671 166.354 187.765 166.39 187.855C166.45 188.035 166.525 188.31 166.66 188.64C167.024 189.596 167.478 190.515 168.015 191.385C169.789 194.288 172.365 196.615 175.432 198.088C178.498 199.56 181.925 200.115 185.3 199.685C186.318 199.558 187.322 199.339 188.3 199.03C188.645 198.925 188.905 198.81 189.08 198.745C189.172 198.715 189.26 198.677 189.345 198.63C189.345 198.605 188.96 198.735 188.27 198.93C187.288 199.205 186.284 199.396 185.27 199.5C181.934 199.892 178.555 199.329 175.527 197.876C172.498 196.422 169.945 194.138 168.165 191.29C167.62 190.434 167.146 189.537 166.745 188.605C166.5 187.945 166.34 187.565 166.32 187.575Z" fill="#263238"/>
<path d="M200.63 225.1C200.655 225.075 200.91 225.44 201.52 225.94C202.412 226.614 203.433 227.097 204.52 227.36C206.12 227.761 207.774 227.907 209.42 227.795C211.28 227.66 213.335 227.44 215.465 227.125C217.471 226.865 219.447 226.41 221.365 225.765C222.165 225.413 222.898 224.924 223.53 224.32C224.087 223.798 224.59 223.22 225.03 222.595C225.682 221.693 226.24 220.726 226.695 219.71C226.85 219.345 226.97 219.065 227.045 218.87C227.074 218.768 227.118 218.67 227.175 218.58C227.156 218.684 227.129 218.786 227.095 218.885C227.035 219.09 226.93 219.385 226.785 219.75C226.365 220.794 225.827 221.785 225.18 222.705C224.743 223.346 224.24 223.939 223.68 224.475C223.035 225.103 222.283 225.611 221.46 225.975C219.53 226.645 217.536 227.113 215.51 227.37C213.365 227.69 211.315 227.9 209.44 228.025C207.769 228.123 206.093 227.955 204.475 227.525C203.38 227.243 202.358 226.731 201.475 226.025C201.242 225.824 201.03 225.602 200.84 225.36C200.759 225.283 200.688 225.195 200.63 225.1Z" fill="#263238"/>
<path d="M197.945 171.86C198.01 171.86 199.73 178.505 201.775 186.745C203.82 194.985 205.425 201.675 205.355 201.695C205.285 201.715 203.57 195.045 201.525 186.805C199.48 178.565 197.875 171.875 197.945 171.86Z" fill="#263238"/>
<path d="M195.87 209.5C195.816 209.321 195.788 209.136 195.785 208.95C195.735 208.452 195.723 207.95 195.75 207.45C195.807 206.687 196.06 205.952 196.485 205.315C196.725 204.936 197.005 204.585 197.32 204.265C197.668 203.932 198.056 203.643 198.475 203.405C199.956 202.628 201.559 202.11 203.215 201.875C203.712 201.803 204.213 201.76 204.715 201.745C204.899 201.718 205.086 201.718 205.27 201.745C205.27 201.785 204.485 201.815 203.24 202.04C201.621 202.319 200.055 202.848 198.6 203.61C198.198 203.838 197.826 204.113 197.49 204.43C197.186 204.735 196.915 205.07 196.68 205.43C196.266 206.023 196.008 206.711 195.93 207.43C195.885 207.929 195.87 208.43 195.885 208.93C195.902 209.12 195.897 209.311 195.87 209.5Z" fill="#263238"/>
<g opacity="0.3">
<path d="M140.96 191C136.805 183.965 136.715 174.825 140.34 167.5C139.179 175.305 139.429 183.254 141.08 190.97" fill="black"/>
</g>
<path d="M147.585 222.555C148.895 220.085 159.11 213.555 159.11 213.555L156.345 212.915L153.29 214.205C153.059 215.241 152.611 216.215 151.975 217.065C150.855 218.665 148.95 217.01 148.95 217.01L150.24 210.825L156.28 207.19C156.28 207.19 161.96 208.06 162.88 208.5L165.3 210.715C166.365 211.55 169.435 214.835 170.275 214.935C171.115 215.035 197.5 209.11 197.5 209.11C201.115 211.975 203 217.66 203.59 221.765C203.59 221.765 204.235 223.765 203.535 224.875L171.17 227.415L164.31 229.31C162.473 230.07 160.591 230.716 158.675 231.245C156.395 231.745 154.86 230.99 154.795 229.745C154.73 228.5 156.505 228.345 156.505 228.345C158.018 227.802 159.492 227.154 160.915 226.405C161.957 225.711 162.815 224.774 163.415 223.675L160.97 223.965C160.97 223.965 155.77 227.575 153.815 228.635C151.86 229.695 151.475 227.75 151.315 227.135C151.155 226.52 157.155 220.68 157.155 220.68C157.155 220.68 151.45 224.18 150.425 225.08C149.4 225.98 147.88 226.235 147.555 225.64C147.23 225.045 146.28 225.025 147.585 222.555Z" fill="#FFBE9D"/>
<path d="M175.715 223.125C175.744 222.994 175.754 222.859 175.745 222.725C175.751 222.568 175.741 222.41 175.715 222.255C175.695 222.047 175.656 221.841 175.6 221.64C175.275 220.472 174.711 219.384 173.945 218.445C173.198 217.503 172.361 216.635 171.445 215.855C171.086 215.512 170.692 215.207 170.27 214.945C170.603 215.311 170.957 215.656 171.33 215.98C172.201 216.79 173.01 217.664 173.75 218.595C174.499 219.51 175.069 220.559 175.43 221.685C175.69 222.555 175.665 223.13 175.715 223.125Z" fill="#EB996E"/>
<path d="M159.345 213.37C159.93 213.456 160.527 213.403 161.087 213.214C161.648 213.026 162.156 212.707 162.57 212.285C162.53 212.23 161.905 212.695 161.01 212.985C160.115 213.275 159.345 213.3 159.345 213.37Z" fill="#EB996E"/>
<path d="M157.645 220.14C159.405 219.588 161.115 218.885 162.755 218.04C161.862 218.276 160.992 218.59 160.155 218.98C159.287 219.295 158.447 219.683 157.645 220.14Z" fill="#EB996E"/>
<path d="M163.125 223.6C163.585 223.495 164.032 223.335 164.455 223.125C164.909 222.993 165.346 222.807 165.755 222.57C164.801 222.667 163.891 223.023 163.125 223.6Z" fill="#EB996E"/>
<path d="M158.5 220.59C158.867 220.843 159.202 221.138 159.5 221.47C159.742 221.848 159.936 222.255 160.08 222.68C160.11 222.68 160.14 222.515 160.08 222.255C160.019 221.917 159.879 221.598 159.67 221.325C159.463 221.052 159.194 220.832 158.885 220.685C158.66 220.575 158.5 220.565 158.5 220.59Z" fill="#EB996E"/>
<path d="M156.09 216.815C156.055 216.875 156.505 217.12 156.8 217.635C156.95 217.966 157.072 218.309 157.165 218.66C157.237 218.468 157.26 218.262 157.231 218.059C157.203 217.856 157.123 217.664 157 217.5C156.665 216.92 156.1 216.75 156.09 216.815Z" fill="#EB996E"/>
<path d="M156.9 210.065C156.93 210.065 157.02 209.965 157.095 209.74C157.172 209.445 157.172 209.135 157.095 208.84C157.023 208.544 156.875 208.271 156.665 208.05C156.5 207.885 156.365 207.825 156.345 207.85C156.554 208.178 156.722 208.531 156.845 208.9C156.916 209.284 156.934 209.676 156.9 210.065Z" fill="#EB996E"/>
<path d="M203.8 225.8C203.767 225.553 203.753 225.304 203.76 225.055C203.76 224.815 203.76 224.525 203.725 224.185C203.69 223.845 203.695 223.46 203.645 223.04C203.457 220.821 202.982 218.636 202.23 216.54C201.808 215.395 201.296 214.285 200.7 213.22C200.4 212.72 200.14 212.275 199.84 211.87C199.7 211.665 199.56 211.47 199.425 211.28C199.29 211.09 199.145 210.92 199.01 210.78C197.935 209.455 197.11 208.78 197.15 208.74C197.36 208.873 197.554 209.029 197.73 209.205C197.955 209.394 198.169 209.596 198.37 209.81C198.605 210.055 198.87 210.31 199.155 210.66C199.29 210.83 199.435 211 199.585 211.16C199.735 211.32 199.87 211.545 200.02 211.75C200.33 212.155 200.6 212.625 200.905 213.105C201.523 214.175 202.048 215.296 202.475 216.455C203.233 218.567 203.69 220.775 203.83 223.015C203.865 223.44 203.86 223.83 203.87 224.17C203.88 224.51 203.87 224.805 203.87 225.045C203.872 225.298 203.849 225.551 203.8 225.8Z" fill="#263238"/>
<g opacity="0.3">
<path d="M214.905 202.675C211.87 201.422 208.527 201.117 205.315 201.8C208.076 201.673 210.807 202.411 213.128 203.912C215.449 205.412 217.243 207.6 218.26 210.17C218.49 210.79 218.95 211.525 219.61 211.43C220.27 211.335 220.45 210.57 220.45 209.955C220.455 206.72 217.89 203.92 214.905 202.675Z" fill="black"/>
</g>
<path d="M140 166.295C139.85 166.268 139.705 166.219 139.57 166.15C139.295 166.045 138.91 165.87 138.44 165.65C137.213 165.038 136.042 164.32 134.94 163.505C133.842 162.694 132.814 161.791 131.87 160.805C131.51 160.425 131.225 160.105 131.045 159.88C130.865 159.655 130.765 159.52 130.78 159.505C130.795 159.49 131.25 159.955 132 160.675C132.974 161.615 134.008 162.492 135.095 163.3C136.185 164.102 137.325 164.831 138.51 165.485C139.45 166 140.03 166.26 140 166.295Z" fill="white"/>
<path d="M197.735 168.18C197.697 168.214 197.655 168.242 197.61 168.265L197.225 168.495C196.89 168.7 196.38 168.995 195.725 169.325C193.848 170.288 191.9 171.109 189.9 171.78C186.928 172.763 183.879 173.496 180.785 173.97C176.996 174.534 173.175 174.851 169.345 174.92C165.27 175.015 161.39 174.92 157.845 174.86C154.717 174.816 151.594 174.581 148.495 174.155C146.404 173.858 144.343 173.38 142.335 172.725C141.63 172.485 141.085 172.285 140.725 172.13L140.315 171.955C140.266 171.938 140.219 171.916 140.175 171.89L140.325 171.93L140.745 172.08C141.11 172.22 141.66 172.405 142.37 172.63C144.381 173.241 146.437 173.691 148.52 173.975C151.615 174.371 154.73 174.586 157.85 174.62C161.35 174.685 165.25 174.755 169.315 174.66C173.134 174.593 176.945 174.282 180.725 173.73C183.809 173.271 186.851 172.561 189.82 171.605C191.819 170.952 193.771 170.16 195.66 169.235C196.325 168.905 196.84 168.64 197.16 168.45L197.555 168.245C197.685 168.195 197.73 168.175 197.735 168.18Z" fill="white"/>
<path d="M140.19 186C139.979 185.981 139.771 185.937 139.57 185.87L137.905 185.415C136.505 185.02 134.575 184.455 132.445 183.82C130.315 183.185 128.395 182.59 127.005 182.15L125.365 181.62C125.162 181.562 124.964 181.485 124.775 181.39C124.986 181.409 125.194 181.453 125.395 181.52L127.06 181.975C128.46 182.37 130.39 182.935 132.52 183.57C134.65 184.205 136.57 184.795 137.96 185.235L139.6 185.77C139.804 185.826 140.002 185.903 140.19 186Z" fill="white"/>
<path d="M141.645 213.635C141.645 213.7 136.645 212.27 130.495 210.435C124.345 208.6 119.4 207.055 119.42 206.985C119.44 206.915 124.42 208.345 130.57 210.185C136.72 212.025 141.665 213.565 141.645 213.635Z" fill="white"/>
<path d="M213.91 153.845C213.742 154.008 213.557 154.154 213.36 154.28C213 154.545 212.46 154.915 211.785 155.355C208.254 157.639 204.466 159.5 200.5 160.9C199.74 161.165 199.12 161.365 198.685 161.49C198.465 161.57 198.237 161.627 198.005 161.66C198.213 161.552 198.431 161.463 198.655 161.395L200.44 160.73C201.94 160.155 203.995 159.305 206.195 158.23C208.395 157.155 210.325 156.045 211.695 155.205L213.315 154.205C213.501 154.066 213.7 153.945 213.91 153.845Z" fill="white"/>
<path d="M223.87 182.255C223.609 182.403 223.339 182.531 223.06 182.64C222.535 182.875 221.755 183.185 220.785 183.54C215.714 185.387 210.391 186.446 205 186.68C203.965 186.725 203.13 186.735 202.55 186.715C202.251 186.722 201.952 186.708 201.655 186.675C201.951 186.63 202.25 186.61 202.55 186.615C203.125 186.615 203.96 186.565 204.99 186.495C207.668 186.325 210.332 185.979 212.965 185.46C215.595 184.932 218.189 184.233 220.73 183.37C221.705 183.035 222.49 182.75 223.03 182.545C223.301 182.425 223.582 182.328 223.87 182.255Z" fill="white"/>
<path d="M209.5 227.695C209.496 227.601 209.504 227.507 209.525 227.415C209.555 227.21 209.6 226.95 209.65 226.63C209.7 226.31 209.775 225.87 209.825 225.38C209.875 224.89 209.96 224.34 209.98 223.72C209.98 223.415 210.02 223.09 210.04 222.755C210.06 222.42 210.04 222.065 210.04 221.705C210.04 220.98 210.01 220.205 209.97 219.39C209.839 217.625 209.569 215.873 209.165 214.15C208.74 212.431 208.184 210.748 207.5 209.115C207.16 208.375 206.855 207.66 206.5 207.025C206.33 206.705 206.175 206.39 206 206.095L205.5 205.265C205.195 204.725 204.865 204.265 204.6 203.86C204.335 203.455 204.1 203.105 203.875 202.83L203.405 202.185C203.345 202.114 203.294 202.035 203.255 201.95C203.324 202.011 203.388 202.078 203.445 202.15L203.945 202.77C204.217 203.09 204.473 203.423 204.71 203.77C204.99 204.175 205.33 204.625 205.645 205.16L206.145 205.99C206.32 206.28 206.48 206.6 206.645 206.92C207.005 207.555 207.325 208.27 207.645 209.015C209.085 212.291 209.932 215.797 210.145 219.37C210.175 220.19 210.22 220.97 210.19 221.7C210.19 222.065 210.19 222.42 210.16 222.76C210.13 223.1 210.11 223.42 210.085 223.73C210.05 224.355 209.95 224.905 209.885 225.395C209.82 225.885 209.745 226.305 209.67 226.64C209.595 226.975 209.54 227.215 209.495 227.425C209.506 227.515 209.508 227.605 209.5 227.695Z" fill="white"/>
<path d="M228.79 212.37C228.765 212.37 228.75 211.96 228.635 211.24C228.458 210.223 228.12 209.241 227.635 208.33C226.923 206.978 225.965 205.77 224.81 204.77C223.402 203.535 221.771 202.582 220.005 201.96C218.228 201.367 216.372 201.043 214.5 201C212.967 200.958 211.434 201.016 209.91 201.175C208.605 201.295 207.55 201.43 206.82 201.51L205.98 201.6C205.882 201.613 205.782 201.613 205.685 201.6C205.776 201.566 205.872 201.544 205.97 201.535L206.805 201.395C207.53 201.28 208.585 201.125 209.89 200.975C211.422 200.792 212.966 200.715 214.51 200.745C216.408 200.783 218.289 201.108 220.09 201.71C221.887 202.347 223.544 203.325 224.97 204.59C226.138 205.616 227.099 206.857 227.8 208.245C228.274 209.185 228.584 210.2 228.715 211.245C228.754 211.527 228.774 211.811 228.775 212.095C228.79 212.186 228.795 212.278 228.79 212.37Z" fill="white"/>
<path d="M175 197.895C174.907 197.923 174.812 197.94 174.715 197.945L173.9 198.03L170.9 198.28C168.365 198.475 164.86 198.715 160.99 198.915C157.12 199.115 153.605 199.24 151.06 199.27C149.79 199.27 148.76 199.27 148.06 199.27H147.245C147.149 199.273 147.053 199.263 146.96 199.24C147.054 199.221 147.149 199.212 147.245 199.215H148.06L151.06 199.14C153.595 199.065 157.105 198.915 160.975 198.71L170.885 198.15L173.885 197.98L174.705 197.945C174.801 197.915 174.9 197.899 175 197.895Z" fill="white"/>
<g opacity="0.3">
<path d="M177.905 198.935C181.055 199.86 185.405 200.085 188.49 198.935C186.09 202.35 181.455 203.585 177.43 202.475C173.405 201.365 169.7 197.34 169.39 193.175C171.34 195.8 174.755 198 177.905 198.935Z" fill="black"/>
</g>
<path d="M203.45 195.64C203.367 195.67 203.282 195.694 203.195 195.71L202.47 195.865C201.835 195.995 200.92 196.165 199.78 196.365C197.505 196.765 194.35 197.255 190.855 197.685C187.36 198.115 184.175 198.395 181.855 198.555C180.705 198.635 179.77 198.69 179.125 198.715L178.385 198.74C178.299 198.754 178.211 198.754 178.125 198.74C178.209 198.718 178.294 198.705 178.38 198.7L179.12 198.625L181.84 198.38C184.14 198.175 187.31 197.88 190.81 197.435C194.31 196.99 197.455 196.545 199.735 196.195L202.435 195.775L203.175 195.67C203.264 195.644 203.357 195.634 203.45 195.64Z" fill="white"/>
<g opacity="0.3">
<path d="M198.21 173.38C197.42 182.43 199.885 191.41 202.33 200.16C202.439 200.704 202.668 201.216 203 201.66C203.172 201.882 203.411 202.042 203.681 202.117C203.951 202.192 204.238 202.177 204.5 202.075C205.265 201.685 205.16 200.575 204.945 199.755L198.15 173.755" fill="black"/>
</g>
<path d="M71.6098 182.395L81.8848 232.845H171.085C171.557 232.845 172.01 232.657 172.343 232.324C172.677 231.99 172.865 231.537 172.865 231.065C172.865 230.593 172.677 230.14 172.343 229.806C172.01 229.473 171.557 229.285 171.085 229.285H153.125L143.6 182.365C143.511 181.928 143.274 181.535 142.931 181.251C142.587 180.967 142.156 180.81 141.71 180.805L73.5398 180.06C73.2493 180.056 72.9616 180.118 72.6979 180.24C72.4342 180.362 72.2013 180.542 72.0161 180.766C71.831 180.99 71.6984 181.252 71.6281 181.534C71.5578 181.816 71.5516 182.11 71.6098 182.395Z" fill="#A7A7A7"/>
<path d="M71.6098 182.395C71.5966 182.346 71.5866 182.296 71.5798 182.245C71.5606 182.092 71.5606 181.938 71.5798 181.785C71.6151 181.484 71.7185 181.194 71.8822 180.938C72.046 180.683 72.2657 180.468 72.5248 180.31C72.7075 180.201 72.9069 180.124 73.1148 180.08C73.3455 180.037 73.5805 180.022 73.8148 180.035H75.4198L79.4198 180.07L105.195 180.315L123.165 180.495L133.235 180.6L138.515 180.655L141.21 180.68C141.44 180.68 141.655 180.68 141.9 180.68C142.14 180.704 142.374 180.771 142.59 180.88C143.036 181.09 143.391 181.454 143.59 181.905C143.677 182.126 143.739 182.355 143.775 182.59L143.915 183.27C144.005 183.72 144.1 184.175 144.19 184.63C144.38 185.545 144.565 186.465 144.755 187.385L145.895 193C146.665 196.783 147.451 200.655 148.255 204.615C149.865 212.525 151.54 220.75 153.255 229.23L153.135 229.13H170.795C171.027 229.119 171.26 229.132 171.49 229.17C171.968 229.288 172.383 229.585 172.65 230C172.801 230.22 172.905 230.47 172.954 230.733C173.003 230.996 172.996 231.267 172.934 231.527C172.872 231.787 172.756 232.031 172.593 232.244C172.43 232.456 172.225 232.632 171.99 232.76C171.731 232.9 171.444 232.977 171.15 232.985H147.915H123.765H81.8848H81.8098V232.91C78.6648 217.41 76.1098 204.79 74.3398 196.05C73.4648 191.68 72.7798 188.28 72.3148 185.97C72.0848 184.815 71.9098 183.935 71.8148 183.34C71.7198 182.745 71.6498 182.44 71.6498 182.44C71.6498 182.44 71.7198 182.745 71.8448 183.335L72.3948 185.955C72.8698 188.265 73.5698 191.665 74.4698 196.025L82.0198 232.875L81.9248 232.795H123.805H171.185C171.44 232.785 171.689 232.719 171.915 232.6C172.119 232.488 172.298 232.334 172.439 232.149C172.58 231.964 172.681 231.751 172.734 231.524C172.788 231.297 172.793 231.062 172.751 230.833C172.708 230.604 172.617 230.387 172.485 230.195C172.25 229.85 171.892 229.609 171.485 229.52C171.272 229.486 171.056 229.473 170.84 229.48H153.025V229.385C151.305 220.885 149.64 212.675 148.025 204.765C147.221 200.812 146.436 196.94 145.67 193.15L144.5 187.46C144.315 186.535 144.13 185.62 143.945 184.705C143.85 184.25 143.76 183.795 143.665 183.34L143.53 182.665C143.497 182.444 143.438 182.227 143.355 182.02C143.188 181.622 142.885 181.296 142.5 181.1C142.307 181.005 142.099 180.944 141.885 180.92C141.675 180.92 141.435 180.92 141.215 180.92L138.515 180.89L133.235 180.83L123.17 180.71L105.2 180.5L79.4248 180.185L75.4248 180.13L73.8198 180.105C73.5892 180.091 73.3578 180.103 73.1298 180.14C72.9278 180.185 72.7339 180.261 72.5548 180.365C72.2973 180.516 72.0781 180.725 71.9142 180.975C71.7504 181.224 71.6462 181.508 71.6098 181.805C71.5848 182.001 71.5848 182.199 71.6098 182.395Z" fill="#263238"/>
<path fill-rule="evenodd" clip-rule="evenodd" d="M116.317 209.164C117.08 207.778 117.414 206.197 117.278 204.62L117.279 204.62C117.188 203.573 116.893 202.555 116.409 201.622C115.925 200.69 115.262 199.862 114.458 199.186C113.654 198.509 112.725 197.998 111.723 197.681C110.722 197.364 109.667 197.247 108.621 197.338C107.044 197.474 105.544 198.074 104.309 199.063C103.073 200.052 102.159 201.385 101.682 202.893C101.204 204.401 101.184 206.018 101.625 207.537C102.066 209.057 102.948 210.412 104.159 211.43C105.369 212.449 106.855 213.085 108.428 213.259C110 213.434 111.589 213.137 112.994 212.409C114.398 211.68 115.554 210.551 116.317 209.164ZM105.345 204.689C105.289 204.823 105.26 204.967 105.26 205.113L105.278 206.212C105.319 207.268 105.772 208.266 106.54 208.992C107.307 209.719 108.328 210.116 109.385 210.098C110.441 210.081 111.449 209.651 112.193 208.9C112.936 208.149 113.356 207.137 113.363 206.08L113.345 204.981C113.342 204.837 113.311 204.694 113.253 204.562C113.195 204.43 113.111 204.311 113.006 204.211C112.901 204.111 112.778 204.034 112.643 203.982C112.508 203.931 112.364 203.907 112.22 203.911C112.074 203.911 111.93 203.939 111.796 203.995C111.661 204.05 111.539 204.132 111.436 204.235C111.333 204.337 111.251 204.459 111.195 204.594C111.139 204.728 111.11 204.872 111.11 205.018L111.128 206.117C111.136 206.596 110.953 207.059 110.62 207.403C110.286 207.748 109.83 207.946 109.35 207.954C108.871 207.961 108.408 207.779 108.064 207.445C107.719 207.112 107.521 206.655 107.514 206.176L107.496 205.077C107.493 204.932 107.462 204.79 107.404 204.657C107.345 204.525 107.261 204.406 107.157 204.306C107.052 204.206 106.928 204.129 106.793 204.077C106.658 204.026 106.514 204.002 106.37 204.006C106.224 204.006 106.08 204.035 105.946 204.09C105.811 204.146 105.689 204.227 105.586 204.33C105.483 204.433 105.401 204.555 105.345 204.689ZM107.467 202.359C107.471 202.581 107.409 202.8 107.288 202.987C107.168 203.174 106.995 203.322 106.791 203.41C106.587 203.499 106.361 203.525 106.143 203.485C105.924 203.445 105.722 203.341 105.562 203.186C105.402 203.031 105.292 202.832 105.245 202.615C105.198 202.397 105.217 202.17 105.299 201.963C105.38 201.756 105.521 201.578 105.704 201.451C105.887 201.324 106.103 201.255 106.325 201.251C106.623 201.246 106.911 201.36 107.125 201.568C107.339 201.776 107.463 202.06 107.467 202.359ZM113.119 202.892C113.239 202.705 113.301 202.487 113.298 202.264C113.293 201.965 113.17 201.681 112.956 201.473C112.742 201.265 112.454 201.151 112.156 201.156C111.934 201.16 111.717 201.229 111.535 201.356C111.352 201.483 111.211 201.661 111.129 201.868C111.047 202.075 111.029 202.302 111.076 202.52C111.123 202.737 111.233 202.936 111.393 203.091C111.552 203.246 111.754 203.35 111.973 203.39C112.192 203.43 112.417 203.404 112.621 203.315C112.825 203.227 112.998 203.08 113.119 202.892Z" fill="white"/>
<path d="M71.6899 182.805C71.6899 182.805 71.7949 182.805 71.9999 182.805H76.3699L89.1249 182.865L131.2 183.16L137.285 183.21H138.785C139.041 183.198 139.297 183.213 139.55 183.255C139.806 183.305 140.05 183.404 140.27 183.545C140.716 183.827 141.039 184.266 141.175 184.775C141.29 185.275 141.37 185.735 141.47 186.215C142.225 190.015 142.97 193.68 143.645 197.17C145.025 204.17 146.27 210.445 147.31 215.73L149.765 228.23C150.045 229.705 150.265 230.85 150.42 231.635C150.49 232.02 150.545 232.315 150.585 232.525C150.625 232.735 150.63 232.825 150.63 232.825C150.63 232.825 150.6 232.725 150.56 232.53C150.52 232.335 150.45 232.03 150.37 231.645C150.21 230.86 149.975 229.72 149.67 228.25C149.07 225.29 148.21 221.02 147.14 215.75L143.42 197.2C142.725 193.7 141.99 190.045 141.235 186.245C141.135 185.775 141.045 185.285 140.945 184.825C140.821 184.376 140.534 183.989 140.14 183.74C139.943 183.621 139.726 183.539 139.5 183.5C139.264 183.461 139.024 183.448 138.785 183.46H137.285L131.2 183.415L89.1199 183.045L76.3699 182.905L72.8999 182.855H71.9999L71.6899 182.805Z" fill="#263238"/>
<path d="M190.815 106.185C190.917 110.85 190.031 115.483 188.215 119.781C186.398 124.079 183.692 127.943 180.275 131.12C178.698 126.57 177.126 122.02 175.56 117.47" fill="#263238"/>
<path d="M155.295 79.035C159.34 76.825 164.225 76.505 168.745 77.41C173.265 78.315 177.475 80.36 181.465 82.67C183.705 83.965 185.935 85.39 187.545 87.41C190.48 91.105 193.385 97.175 193.665 101.91C193.895 105.72 192.435 115.255 190.825 118.715C189.35 121.89 182.435 124.31 179.02 125.095L147.7 88.645C148.266 86.6199 149.229 84.7275 150.533 83.0777C151.837 81.428 153.455 80.0538 155.295 79.035Z" fill="#263238"/>
<path d="M149.895 83.945L157.395 82.605C153.29 92.38 152.175 114.73 149.83 125.07C147.06 121.07 140.635 108.82 140.98 103.955C141.325 99.09 141 83.12 149.895 83.945Z" fill="#263238"/>
<path d="M185.5 100.215C185.095 94.505 181.395 89.825 175.85 88.41L158.555 84C151.085 83.195 146.095 92.385 145.605 99.885C145.06 108.22 144.725 117.01 145.7 123.23C147.655 135.73 157.235 137.35 157.235 137.35C157.235 137.35 157.235 143.3 157.235 146.95L163.02 170.905L181.665 145.145L185.525 100.375C185.54 100.155 185.5 100.5 185.5 100.215Z" fill="#FFBE9D"/>
<path d="M149.36 109.33C149.356 109.748 149.515 110.151 149.803 110.454C150.092 110.756 150.487 110.934 150.905 110.95C151.109 110.966 151.314 110.942 151.509 110.877C151.703 110.813 151.883 110.711 152.037 110.576C152.191 110.442 152.317 110.277 152.407 110.093C152.496 109.91 152.549 109.709 152.56 109.505C152.564 109.088 152.406 108.685 152.118 108.383C151.831 108.08 151.437 107.902 151.02 107.885C150.815 107.868 150.61 107.892 150.415 107.956C150.22 108.02 150.04 108.122 149.885 108.257C149.73 108.392 149.604 108.556 149.514 108.74C149.424 108.925 149.371 109.125 149.36 109.33Z" fill="#263238"/>
<path d="M147.5 104.78C147.7 104.99 148.915 104.095 150.64 104.1C152.365 104.105 153.64 104.975 153.815 104.765C153.91 104.67 153.705 104.295 153.155 103.89C152.41 103.372 151.523 103.096 150.615 103.1C149.718 103.097 148.843 103.377 148.115 103.9C147.565 104.31 147.385 104.685 147.5 104.78Z" fill="#263238"/>
<path d="M164.4 109.33C164.396 109.748 164.555 110.151 164.843 110.454C165.132 110.756 165.527 110.934 165.945 110.95C166.15 110.967 166.356 110.943 166.551 110.878C166.746 110.814 166.926 110.711 167.08 110.576C167.234 110.441 167.36 110.276 167.449 110.091C167.539 109.906 167.59 109.705 167.6 109.5C167.604 109.083 167.446 108.68 167.158 108.378C166.871 108.075 166.477 107.897 166.06 107.88C165.855 107.863 165.649 107.887 165.454 107.952C165.258 108.016 165.078 108.118 164.923 108.254C164.768 108.389 164.642 108.554 164.552 108.739C164.462 108.924 164.411 109.125 164.4 109.33Z" fill="#263238"/>
<path d="M163.865 104.78C164.065 104.99 165.285 104.095 167.01 104.1C168.735 104.105 170.01 104.975 170.185 104.765C170.275 104.67 170.075 104.295 169.525 103.89C168.783 103.376 167.902 103.101 167 103.1C166.103 103.099 165.229 103.378 164.5 103.9C163.95 104.31 163.77 104.685 163.865 104.78Z" fill="#263238"/>
<path d="M158.5 118.33C158.5 118.235 157.435 118.045 155.695 117.83C155.255 117.785 154.84 117.695 154.765 117.395C154.728 116.939 154.833 116.484 155.065 116.09C155.481 115.027 155.918 113.908 156.375 112.735C158.195 107.965 159.51 104.04 159.32 103.97C159.13 103.9 157.495 107.705 155.675 112.47C155.235 113.643 154.816 114.767 154.42 115.84C154.141 116.371 154.058 116.984 154.185 117.57C154.248 117.726 154.347 117.865 154.472 117.977C154.598 118.089 154.748 118.17 154.91 118.215C155.152 118.285 155.403 118.32 155.655 118.32C157.38 118.42 158.465 118.43 158.5 118.33Z" fill="#263238"/>
<path d="M173.82 132.895C173.82 132.895 169.75 141.5 157.24 140.285V137.345C163.072 137.425 168.812 135.885 173.82 132.895Z" fill="#EB996E"/>
<path d="M164.41 98.545C164.58 99.015 166.3 98.795 168.325 99.045C170.35 99.295 171.985 99.85 172.255 99.43C172.375 99.225 172.09 98.785 171.43 98.33C170.554 97.7686 169.556 97.4256 168.52 97.33C167.485 97.2035 166.435 97.3234 165.455 97.68C164.71 97.955 164.335 98.32 164.41 98.545Z" fill="#263238"/>
<path d="M148.045 99.5001C148.345 99.8951 149.545 99.5001 150.965 99.4751C152.385 99.4501 153.605 99.7451 153.885 99.3351C154.005 99.1351 153.815 98.7451 153.29 98.3701C152.58 97.9253 151.754 97.7007 150.917 97.7248C150.08 97.7488 149.268 98.0203 148.585 98.5051C148.075 98.9051 147.91 99.3101 148.045 99.5001Z" fill="#263238"/>
<path d="M149 88.46C149.765 86.58 151.83 85.46 153.855 85.35C155.88 85.24 157.855 86.015 159.625 87.03C167.07 91.335 170.9 101.73 178.255 106.185C180.065 107.28 182.42 106.275 183.96 107.725C185.5 109.175 186.495 111.495 185.645 113.43C186.699 112.121 187.559 110.668 188.2 109.115C188.76 107.53 188.83 105.695 187.99 104.24C187.355 103.135 186.23 102.295 185.925 101.06C185.65 99.97 186.08 98.835 186.035 97.715C185.907 96.5769 185.515 95.4844 184.89 94.525C182.005 89.43 178.04 84.82 172.935 81.95C169.602 80.0257 165.808 79.0456 161.96 79.115C158.09 79.2018 154.379 80.6723 151.5 83.26C149.855 84.795 148.125 86.38 149 88.46Z" fill="#263238"/>
<path d="M183.78 109.275C183.91 108.915 190.435 106.565 190.52 113.495C190.605 120.23 183.81 118.905 183.795 118.71C183.78 118.515 183.78 109.275 183.78 109.275Z" fill="#FFBE9D"/>
<path d="M185.85 116.14C185.88 116.14 185.965 116.22 186.165 116.31C186.447 116.422 186.762 116.422 187.045 116.31C187.75 116.045 188.34 114.905 188.36 113.695C188.374 113.117 188.257 112.543 188.02 112.015C187.953 111.806 187.837 111.615 187.681 111.46C187.525 111.305 187.335 111.19 187.125 111.125C186.991 111.09 186.848 111.103 186.723 111.163C186.598 111.222 186.498 111.324 186.44 111.45C186.35 111.64 186.395 111.775 186.355 111.785C186.315 111.795 186.21 111.675 186.265 111.395C186.301 111.23 186.393 111.082 186.525 110.975C186.615 110.904 186.719 110.851 186.829 110.82C186.94 110.79 187.056 110.781 187.17 110.795C187.447 110.847 187.707 110.969 187.923 111.15C188.139 111.332 188.305 111.566 188.405 111.83C188.699 112.409 188.845 113.051 188.83 113.7C188.8 115.06 188.12 116.335 187.145 116.625C186.965 116.679 186.776 116.693 186.591 116.664C186.406 116.636 186.229 116.566 186.075 116.46C185.86 116.305 185.825 116.155 185.85 116.14Z" fill="#EB996E"/>
<path d="M186.46 105.815C186.318 105.752 186.183 105.677 186.055 105.59C185.795 105.425 185.395 105.205 184.925 104.87C183.597 103.9 182.376 102.79 181.285 101.56C179.697 99.7193 178.213 97.7913 176.84 95.785C175.186 93.3263 173.328 91.0114 171.285 88.865C170.194 87.7926 168.991 86.842 167.695 86.03C166.48 85.2896 165.181 84.6987 163.825 84.27C161.523 83.5315 159.102 83.2346 156.69 83.395C155.062 83.4942 153.455 83.8086 151.91 84.33C151.355 84.5 150.945 84.685 150.66 84.795C150.518 84.8599 150.371 84.9118 150.22 84.95C150.353 84.8701 150.492 84.7999 150.635 84.74C151.036 84.5481 151.448 84.3811 151.87 84.24C153.413 83.6654 155.032 83.3152 156.675 83.2C159.115 83.0002 161.572 83.2718 163.91 84C165.292 84.426 166.617 85.0204 167.855 85.77C169.17 86.5939 170.392 87.5579 171.5 88.645C173.556 90.8127 175.419 93.1548 177.07 95.645C178.428 97.6515 179.89 99.5858 181.45 101.44C182.52 102.672 183.707 103.798 184.995 104.8C185.455 105.145 185.84 105.38 186.085 105.56C186.217 105.634 186.342 105.72 186.46 105.815Z" fill="#455A64"/>
<path d="M186.615 117.33C186.946 117.269 187.289 117.336 187.572 117.519C187.856 117.701 188.059 117.985 188.141 118.312C188.222 118.639 188.176 118.985 188.012 119.279C187.848 119.573 187.577 119.794 187.256 119.896C186.935 119.998 186.587 119.974 186.283 119.828C185.979 119.682 185.742 119.426 185.62 119.112C185.498 118.798 185.501 118.449 185.627 118.136C185.753 117.824 185.994 117.571 186.3 117.43" fill="white"/>
<path d="M186.3 117.43C186.011 117.663 185.8 117.979 185.695 118.335C185.647 118.519 185.646 118.711 185.691 118.895C185.737 119.08 185.827 119.25 185.955 119.39C186.105 119.567 186.305 119.696 186.528 119.761C186.751 119.825 186.988 119.822 187.21 119.752C187.432 119.682 187.628 119.548 187.774 119.367C187.919 119.186 188.009 118.966 188.03 118.735C188.05 118.548 188.025 118.359 187.955 118.185C187.885 118.011 187.773 117.856 187.63 117.735C187.344 117.506 186.995 117.37 186.63 117.345C186.63 117.345 186.73 117.275 186.945 117.27C187.25 117.272 187.545 117.376 187.785 117.565C187.972 117.704 188.12 117.889 188.215 118.101C188.309 118.314 188.347 118.548 188.325 118.78C188.306 119.07 188.2 119.348 188.021 119.577C187.842 119.805 187.598 119.975 187.321 120.063C187.044 120.151 186.746 120.153 186.468 120.07C186.19 119.986 185.943 119.821 185.76 119.595C185.608 119.419 185.505 119.207 185.459 118.979C185.414 118.751 185.428 118.516 185.5 118.295C185.579 118.004 185.756 117.748 186 117.57C186.175 117.435 186.295 117.415 186.3 117.43Z" fill="#263238"/>
<path d="M184.765 107.72C184.87 109.56 184.955 111.5 184.105 113.135C183.255 114.77 181.105 115.885 179.515 114.97C178.21 114.225 177.82 112.55 177.595 111.065C176.96 106.775 176.665 102.44 175.99 98.155L184.765 107.72Z" fill="#263238"/>
<path d="M150.66 85.26C150.66 85.295 151.255 85.145 152.33 85.11C153.855 85.0867 155.371 85.3636 156.79 85.925C157.768 86.3041 158.704 86.7868 159.58 87.365C160.584 88.0389 161.545 88.7736 162.46 89.565C164.578 91.3567 166.472 93.3982 168.1 95.645C168.955 96.845 169.715 98.08 170.535 99.225C171.313 100.338 172.22 101.357 173.235 102.26C174.981 103.74 176.89 105.016 178.925 106.065C180.65 106.975 182.09 107.615 183.085 108.065L184.235 108.565C184.367 108.63 184.506 108.68 184.65 108.715C184.532 108.629 184.404 108.557 184.27 108.5L183.145 107.945C182.145 107.445 180.75 106.785 179.055 105.85C177.057 104.774 175.182 103.483 173.465 102C172.474 101.106 171.591 100.099 170.835 99C170.03 97.87 169.275 96.635 168.41 95.42C166.764 93.1492 164.843 91.0917 162.69 89.295C161.756 88.5014 160.774 87.7667 159.75 87.095C158.849 86.517 157.889 86.0391 156.885 85.67C155.431 85.1189 153.877 84.8771 152.325 84.96C151.906 84.9844 151.489 85.043 151.08 85.135C150.935 85.1572 150.793 85.1993 150.66 85.26Z" fill="#455A64"/>
<path d="M184.95 103.56C185.132 103.716 185.331 103.851 185.545 103.96L187.255 104.96L187.825 105.285C188.05 105.421 188.303 105.505 188.565 105.53C188.724 105.547 188.884 105.51 189.02 105.425C189.092 105.374 189.152 105.308 189.195 105.231C189.239 105.154 189.264 105.068 189.27 104.98C189.255 104.671 189.145 104.374 188.955 104.13L186.955 100.96L186.685 101.205C188.005 102.178 189.622 102.66 191.26 102.57C191.469 102.568 191.677 102.533 191.875 102.465C191.985 102.429 192.087 102.37 192.173 102.291C192.26 102.213 192.328 102.117 192.375 102.01C192.413 101.896 192.423 101.774 192.403 101.656C192.383 101.537 192.333 101.425 192.26 101.33C192.148 101.177 192.021 101.036 191.88 100.91C190.99 100.05 190.219 99.0769 189.585 98.015C189.026 97.0175 188.538 95.9815 188.125 94.915C188.156 95.2249 188.228 95.5292 188.34 95.82C188.591 96.6293 188.927 97.4101 189.34 98.15C189.954 99.2527 190.722 100.263 191.62 101.15C191.87 101.39 192.12 101.65 192.025 101.875C191.93 102.1 191.56 102.195 191.205 102.195C190.435 102.234 189.664 102.141 188.925 101.92C188.189 101.704 187.494 101.366 186.87 100.92L186.07 100.33L186.605 101.165L188.605 104.31C188.761 104.498 188.86 104.727 188.89 104.97C188.89 105.16 188.72 105.27 188.505 105.255C188.072 105.17 187.661 105 187.295 104.755L185.535 103.855C185.351 103.736 185.155 103.637 184.95 103.56Z" fill="#455A64"/>
<path d="M165.035 121.5C164.909 120.988 164.607 120.536 164.183 120.223C163.758 119.911 163.236 119.757 162.71 119.79C162.325 119.837 161.958 119.979 161.642 120.204C161.326 120.428 161.071 120.727 160.9 121.075C160.732 121.425 160.636 121.804 160.618 122.192C160.6 122.579 160.66 122.966 160.795 123.33L160.835 123.49C161.194 123.877 161.664 124.144 162.18 124.254C162.696 124.364 163.234 124.312 163.72 124.105C164.195 123.876 164.582 123.497 164.82 123.026C165.058 122.555 165.133 122.018 165.035 121.5Z" fill="#EB996E"/>
<path d="M218.36 229.5C218.321 229.505 218.283 229.505 218.245 229.5L217.895 229.535L216.56 229.645C215.4 229.74 213.72 229.85 211.64 229.975C207.485 230.22 201.74 230.475 195.39 230.58C189.04 230.685 183.28 230.625 179.12 230.515C177.04 230.465 175.355 230.405 174.195 230.355L172.855 230.285H174.195L179.125 230.37C183.285 230.43 189.035 230.46 195.385 230.37C201.735 230.28 207.475 230.04 211.63 229.84L216.555 229.595L217.895 229.535H218.24L218.36 229.5Z" fill="white"/>
<path d="M114.312 93.8651V88.6207C114.163 84.1618 112.298 79.9357 109.113 76.8346C105.927 73.7335 101.669 72 97.2376 72C92.8063 72 88.5484 73.7335 85.3626 76.8346C82.1769 79.9357 80.3125 84.1618 80.1631 88.6207V93.963C77.8964 94.3006 75.8256 95.4464 74.3274 97.1919C72.8292 98.9373 72.0033 101.166 72 103.473V134.392C72.0051 136.942 73.0149 139.386 74.8076 141.187C76.6004 142.988 79.0297 144 81.5625 144H113.437C114.692 144.003 115.935 143.756 117.095 143.274C118.255 142.793 119.31 142.085 120.198 141.193C121.086 140.3 121.791 139.24 122.272 138.073C122.753 136.906 123 135.655 123 134.392V103.473C123.005 101.069 122.116 98.7493 120.509 96.9712C118.901 95.1931 116.69 94.0851 114.312 93.8651ZM101.873 126.662H93.535L94.8373 120.615C93.9169 120.018 93.2135 119.136 92.8321 118.102C92.4507 117.069 92.4119 115.938 92.7214 114.88C93.0309 113.823 93.6721 112.894 94.5492 112.234C95.4263 111.573 96.4922 111.216 97.5874 111.216C98.6827 111.216 99.7486 111.573 100.626 112.234C101.503 112.894 102.144 113.823 102.453 114.88C102.763 115.938 102.724 117.069 102.343 118.102C101.961 119.136 101.258 120.018 100.338 120.615L101.873 126.662ZM110.639 93.826H83.8365V88.6207C83.9685 85.1312 85.4382 81.8289 87.9369 79.4071C90.4357 76.9853 93.7692 75.6323 97.2376 75.6323C100.706 75.6323 104.039 76.9853 106.538 79.4071C109.037 81.8289 110.507 85.1312 110.639 88.6207V93.826Z" fill="#176CF7"/>
<path d="M28.3756 206.783C28.3756 206.783 15.1656 191.578 10.1806 176.373C5.19562 161.168 7.56062 162.913 7.56062 162.913C7.56062 162.913 14.2906 177.683 19.4006 184.818C24.5106 191.953 33.6106 202.418 33.6106 202.418L28.3756 206.783Z" fill="#455A64"/>
<path d="M31.0057 165.278C30.9166 165.122 30.7754 165.001 30.6067 164.938C30.4379 164.875 30.2524 164.873 30.0823 164.932C29.9122 164.992 29.7683 165.109 29.6758 165.264C29.5832 165.418 29.5478 165.6 29.5757 165.778C30.3807 171.123 32.1207 183.653 32.0757 191.778C31.9907 202.338 32.0757 206.418 32.0757 206.418H37.5757C37.5757 206.418 36.5757 184.588 35.3557 177.918C34.4657 173.263 32.6157 168.083 31.0057 165.278Z" fill="#455A64"/>
<path d="M34.0059 204.638C36.3104 199.418 37.8351 193.887 38.5309 188.223C38.9809 184.338 38.1759 179.083 36.9759 172.073C36.5099 169.51 36.2773 166.909 36.2809 164.303C36.2836 164.013 36.3825 163.732 36.562 163.505C36.7416 163.277 36.9917 163.115 37.2731 163.045C37.5545 162.974 37.8512 162.999 38.1169 163.116C38.3825 163.232 38.602 163.434 38.7409 163.688C39.4059 164.873 41.3259 168.918 41.8159 171.453C43.1459 178.373 44.6509 181.833 43.5009 188.403C42.3509 194.973 38.0859 205.083 38.0859 205.083L34.0059 204.638Z" fill="#455A64"/>
<path d="M38.9556 205.083C38.9556 205.083 53.4556 173.913 54.4556 169.288C55.4556 164.663 58.8806 154.008 59.2806 154.613C59.6806 155.218 60.2806 160.843 57.6756 167.278C55.0706 173.713 43.9006 206.033 43.9006 206.033H38.9556" fill="#455A64"/>
<path d="M32.4158 203.688C32.2722 203.608 32.1366 203.514 32.0108 203.408C31.7508 203.213 31.3608 202.938 30.8858 202.553C29.9208 201.793 28.5658 200.638 26.9858 199.113C22.9108 195.092 19.3807 190.553 16.4858 185.613C13.5936 180.671 11.1873 175.46 9.3008 170.053C8.5708 167.983 8.0408 166.288 7.6958 165.113C7.5158 164.523 7.3958 164.063 7.3108 163.753C7.25787 163.59 7.21939 163.423 7.1958 163.253C7.26724 163.401 7.32579 163.555 7.3708 163.713C7.4808 164.048 7.6258 164.498 7.8108 165.058C8.1908 166.223 8.7558 167.903 9.5058 169.963C11.4487 175.33 13.8736 180.509 16.7508 185.438C19.6451 190.354 23.1422 194.889 27.1608 198.938C28.7158 200.483 30.0408 201.658 30.9808 202.438C31.4458 202.838 31.8258 203.128 32.0658 203.338C32.1918 203.445 32.3088 203.562 32.4158 203.688Z" fill="#263238"/>
<path d="M34.0056 188.733C33.9302 188.434 33.8866 188.127 33.8756 187.818C33.8056 187.173 33.7156 186.318 33.6056 185.318C33.3756 183.208 33.0156 180.318 32.5056 177.103C31.9956 173.888 31.4206 171.033 30.9756 168.963C30.7606 167.963 30.5856 167.138 30.4456 166.503C30.3648 166.205 30.3112 165.901 30.2856 165.593C30.4041 165.878 30.4978 166.172 30.5656 166.473C30.7256 167.048 30.9406 167.878 31.1906 168.913C31.6906 170.978 32.2956 173.853 32.8106 177.058C33.3256 180.263 33.6506 183.178 33.8106 185.298C33.8956 186.353 33.9556 187.213 33.9806 187.798C34.0149 188.109 34.0233 188.421 34.0056 188.733Z" fill="#263238"/>
<path d="M37.4005 163.443C37.4717 163.568 37.5287 163.701 37.5705 163.838L38.0055 164.998C38.2005 165.498 38.4205 166.118 38.6305 166.853C38.8405 167.588 39.1305 168.408 39.3355 169.353L39.6955 170.818C39.8155 171.318 39.9005 171.868 40.0105 172.423C40.2505 173.528 40.3955 174.728 40.5705 175.988C40.883 178.73 41 181.49 40.9205 184.248C40.803 187.007 40.4888 189.754 39.9805 192.468C39.7155 193.708 39.4805 194.898 39.1705 195.968C39.0155 196.513 38.8905 197.048 38.7355 197.548L38.2705 199.008C37.9955 199.928 37.6555 200.733 37.3905 201.448C37.1255 202.163 36.8905 202.768 36.6355 203.253L36.1355 204.378C36.0829 204.512 36.0159 204.639 35.9355 204.758C35.9694 204.619 36.0162 204.484 36.0755 204.353C36.1955 204.063 36.3505 203.683 36.5405 203.208C36.7305 202.733 36.9955 202.108 37.2405 201.383C37.4855 200.658 37.8155 199.883 38.0805 198.938C38.2205 198.483 38.3655 198.003 38.5205 197.503C38.6755 197.003 38.7905 196.473 38.9355 195.928C39.2355 194.843 39.4355 193.663 39.7155 192.428C40.2029 189.727 40.5069 186.996 40.6255 184.253C40.7043 181.511 40.5974 178.766 40.3055 176.038C40.1355 174.783 40.0005 173.588 39.7755 172.483C39.6705 171.933 39.5905 171.393 39.4755 170.883C39.3605 170.373 39.2455 169.883 39.1355 169.418C38.9405 168.483 38.6755 167.658 38.4805 166.918C38.2855 166.178 38.0805 165.558 37.9055 165.048L37.5305 163.873C37.4731 163.735 37.4296 163.591 37.4005 163.443Z" fill="#263238"/>
<path d="M59.1256 155.238C59.1311 155.285 59.1311 155.332 59.1256 155.378C59.1256 155.488 59.0856 155.618 59.0606 155.783C58.9956 156.138 58.9156 156.663 58.7756 157.333C58.4956 158.673 58.0256 160.603 57.2756 162.943C56.5256 165.283 55.5656 168.033 54.3906 171.048C53.2156 174.063 51.8606 177.353 50.5706 180.853C49.2806 184.353 48.2556 187.758 47.3106 190.853C46.3656 193.948 45.4806 196.728 44.6206 199.023C43.9624 200.843 43.2029 202.624 42.3456 204.358C42.0506 204.973 41.7806 205.433 41.6106 205.753L41.4056 206.108C41.3606 206.188 41.3356 206.228 41.3306 206.223C41.3399 206.177 41.3568 206.134 41.3806 206.093L41.5556 205.723C41.7106 205.398 41.9606 204.928 42.2406 204.303C42.8206 203.068 43.6106 201.253 44.4306 198.948C45.2506 196.643 46.1306 193.873 47.0506 190.773C47.9706 187.673 48.9856 184.273 50.2956 180.773C51.6056 177.273 52.9556 173.978 54.1406 170.968C55.3256 167.958 56.3356 165.233 57.0856 162.903C57.8356 160.573 58.3306 158.663 58.6456 157.333C58.8056 156.668 58.9056 156.148 58.9906 155.793C59.0256 155.633 59.0606 155.503 59.0856 155.398C59.089 155.343 59.1026 155.289 59.1256 155.238Z" fill="#263238"/>
<path d="M14.4005 148.353C14.2016 148.16 13.9436 148.038 13.6676 148.007C13.3916 147.977 13.1133 148.04 12.8771 148.186C12.6409 148.332 12.4602 148.553 12.3639 148.813C12.2676 149.074 12.2611 149.359 12.3455 149.623C12.8407 151.228 13.4489 152.795 14.1655 154.313C16.1655 158.548 22.0155 173.753 24.7605 182.103C27.5055 190.453 31.3455 206.033 31.3455 206.033L37.2005 205.083C37.2005 205.083 31.8455 179.508 26.6305 170.263C22.4255 162.853 18.2155 152.143 14.4005 148.353Z" fill="#455A64"/>
<path d="M26.3457 187.328C26.4743 187.549 26.5767 187.784 26.6507 188.028C26.8207 188.488 27.0607 189.158 27.3257 189.993C27.8657 191.663 28.5257 193.993 29.1857 196.588C29.8457 199.183 30.4057 201.543 30.7907 203.253C30.9657 204.058 31.1107 204.753 31.2307 205.278C31.2956 205.525 31.3358 205.778 31.3507 206.033C31.2462 205.8 31.1658 205.558 31.1107 205.308C30.9707 204.773 30.7907 204.103 30.5757 203.308C30.1257 201.548 29.5407 199.233 28.8857 196.673C28.2307 194.113 27.6007 191.743 27.1157 190.063C26.8857 189.268 26.6907 188.603 26.5357 188.063C26.4481 187.825 26.3844 187.579 26.3457 187.328Z" fill="#263238"/>
<path d="M34.3054 205.558C34.2889 205.508 34.2788 205.456 34.2754 205.403C34.2754 205.278 34.2355 205.128 34.2055 204.943C34.1455 204.538 34.0904 203.943 33.9654 203.168C33.7504 201.628 33.3704 199.413 32.7404 196.708C31.9907 193.546 31.0761 190.425 30.0004 187.358C28.7954 183.888 27.2905 180.138 25.5855 176.258C22.1405 168.513 18.7004 161.638 16.4354 156.558C15.2954 154.018 14.4354 151.953 13.8254 150.508C13.5304 149.788 13.3255 149.223 13.1705 148.843C13.1005 148.668 13.0504 148.523 13.0054 148.408C12.9831 148.359 12.968 148.307 12.9604 148.253C12.9909 148.297 13.016 148.344 13.0354 148.393L13.2254 148.818C13.4004 149.218 13.6354 149.768 13.9404 150.463C14.5554 151.888 15.4705 153.963 16.6355 156.463C18.9455 161.508 22.4205 168.373 25.8705 176.133C27.5755 180.018 29.0804 183.778 30.2704 187.263C31.338 190.345 32.2343 193.483 32.9555 196.663C33.4417 198.809 33.8189 200.979 34.0855 203.163C34.1905 203.933 34.2254 204.538 34.2704 204.943L34.3054 205.408C34.3112 205.458 34.3112 205.508 34.3054 205.558Z" fill="#263238"/>
<path d="M37.2205 205.083C37.1275 204.756 37.0606 204.421 37.0205 204.083C36.9055 203.398 36.7505 202.488 36.5655 201.393C36.1655 199.123 35.5655 195.998 34.6605 192.598C33.7555 189.198 32.7955 186.183 32.0355 184.008C31.6655 182.958 31.3555 182.093 31.1205 181.438C30.9916 181.129 30.8879 180.809 30.8105 180.483C30.9774 180.774 31.1196 181.079 31.2355 181.393C31.4855 181.988 31.8405 182.853 32.2355 183.933C33.2939 186.751 34.2019 189.624 34.9555 192.538C35.7125 195.451 36.3216 198.399 36.7805 201.373C36.9455 202.513 37.0705 203.438 37.1355 204.083C37.189 204.414 37.2174 204.748 37.2205 205.083Z" fill="#263238"/>
<path d="M49.2407 204.243H26.3857V232.088H49.2407V204.243Z" fill="#FF725E"/>
<g opacity="0.3">
<path d="M49.2407 204.243H26.3857V232.088H49.2407V204.243Z" fill="black"/>
</g>
<path d="M41.9454 204.243H21.6704V232.088H41.9454V204.243Z" fill="#FF725E"/>
</g>
<defs>
<clipPath id="clip0_5191_209099">
<rect width="250" height="250" fill="white"/>
</clipPath>
</defs>
</svg>
