<svg width="8" height="8" viewBox="0 0 8 8" fill="none" xmlns="http://www.w3.org/2000/svg">
<path d="M0.165873 7.82682C0.113342 7.77237 0.0716216 7.70744 0.0431439 7.63583C0.0146661 7.56422 0 7.48736 0 7.40971C0 7.33207 0.0146661 7.25521 0.0431439 7.1836C0.0716216 7.11199 0.113342 7.04706 0.165873 6.99261L3.18942 3.88391L0.165873 0.948499C0.11403 0.898876 0.072606 0.838382 0.0442595 0.770901C0.015913 0.703419 0.00126997 0.63044 0.00126997 0.556646C0.00126997 0.482852 0.015913 0.409873 0.0442595 0.342392C0.072606 0.274911 0.11403 0.214417 0.165873 0.164794C0.276381 0.0593638 0.420146 0.000976562 0.569233 0.000976562C0.718321 0.000976563 0.862085 0.0593638 0.972593 0.164794L3.99779 3.10021L7.0263 0.165665C7.13708 0.0601116 7.28112 0.0016666 7.43049 0.0016666C7.57985 0.0016666 7.72389 0.0601116 7.83467 0.165665C7.88718 0.215138 7.92908 0.275829 7.95759 0.343695C7.98609 0.411562 8.00054 0.485047 7.99998 0.559259C8.00002 0.633385 7.98533 0.706699 7.95686 0.774486C7.92839 0.842272 7.88677 0.903031 7.83467 0.952853L4.80121 3.88565L7.83137 6.99087C7.88355 7.04535 7.92497 7.11019 7.95323 7.18163C7.9815 7.25307 7.99605 7.3297 7.99605 7.4071C7.99605 7.4845 7.9815 7.56113 7.95323 7.63258C7.92497 7.70402 7.88355 7.76885 7.83137 7.82334C7.72329 7.9345 7.57823 7.99673 7.42718 7.99673C7.27613 7.99673 7.13107 7.9345 7.02299 7.82334L3.99779 4.71638L0.972593 7.82682C0.865038 7.93784 0.720637 8.00032 0.57006 8.00098C0.41891 8.00077 0.273837 7.93826 0.165873 7.82682Z" fill="#C22716"/>
</svg>
