<svg width="82" height="82" viewBox="0 0 82 82" fill="none" xmlns="http://www.w3.org/2000/svg">
<path d="M40.9999 2.10254C30.6837 2.10254 20.79 6.20065 13.4953 13.4953C6.20065 20.79 2.10254 30.6837 2.10254 40.9999C2.10254 51.3162 6.20065 61.2099 13.4953 68.5046C20.79 75.7992 30.6837 79.8973 40.9999 79.8973C51.3162 79.8973 61.2099 75.7992 68.5046 68.5046C75.7992 61.2099 79.8973 51.3162 79.8973 40.9999C79.8973 30.6837 75.7992 20.79 68.5046 13.4953C61.2099 6.20065 51.3162 2.10254 40.9999 2.10254Z" fill="#FFF5C6"/>
<path d="M2.10256 16.8208C1.54493 16.8208 1.01013 17.0423 0.615827 17.4366C0.22152 17.8309 0 18.3657 0 18.9234C0 19.481 0.22152 20.0158 0.615827 20.4101C1.01013 20.8044 1.54493 21.0259 2.10256 21.0259C2.6602 21.0259 3.19499 20.8044 3.5893 20.4101C3.9836 20.0158 4.20512 19.481 4.20512 18.9234C4.20512 18.3657 3.9836 17.8309 3.5893 17.4366C3.19499 17.0423 2.6602 16.8208 2.10256 16.8208Z" fill="#176CF7"/>
<path d="M69.3853 1.05128C69.1064 1.05128 68.8391 1.16204 68.6419 1.35919C68.4447 1.55635 68.334 1.82375 68.334 2.10256C68.334 2.38138 68.4447 2.64878 68.6419 2.84593C68.8391 3.04308 69.1064 3.15384 69.3853 3.15384C69.6641 3.15384 69.9315 3.04308 70.1286 2.84593C70.3258 2.64878 70.4365 2.38138 70.4365 2.10256C70.4365 1.82375 70.3258 1.55635 70.1286 1.35919C69.9315 1.16204 69.6641 1.05128 69.3853 1.05128ZM75.693 0C74.5777 0 73.5081 0.443038 72.7195 1.23165C71.9309 2.02027 71.4878 3.08986 71.4878 4.20512C71.4878 5.32039 71.9309 6.38998 72.7195 7.1786C73.5081 7.96721 74.5777 8.41025 75.693 8.41025C76.8082 8.41025 77.8778 7.96721 78.6664 7.1786C79.455 6.38998 79.8981 5.32039 79.8981 4.20512C79.8981 3.08986 79.455 2.02027 78.6664 1.23165C77.8778 0.443038 76.8082 0 75.693 0Z" fill="#FFC217"/>
<path d="M79.8975 11.5645C79.3398 11.5645 78.8051 11.786 78.4107 12.1803C78.0164 12.5746 77.7949 13.1094 77.7949 13.667C77.7949 14.2246 78.0164 14.7594 78.4107 15.1538C78.8051 15.5481 79.3398 15.7696 79.8975 15.7696C80.4551 15.7696 80.9899 15.5481 81.3842 15.1538C81.7785 14.7594 82 14.2246 82 13.667C82 13.1094 81.7785 12.5746 81.3842 12.1803C80.9899 11.786 80.4551 11.5645 79.8975 11.5645Z" fill="#176CF7"/>
<path d="M73.5897 66.2306C73.0321 66.2306 72.4973 66.4522 72.1029 66.8465C71.7086 67.2408 71.4871 67.7756 71.4871 68.3332C71.4871 68.8908 71.7086 69.4256 72.1029 69.8199C72.4973 70.2143 73.0321 70.4358 73.5897 70.4358C74.1473 70.4358 74.6821 70.2143 75.0764 69.8199C75.4707 69.4256 75.6922 68.8908 75.6922 68.3332C75.6922 67.7756 75.4707 67.2408 75.0764 66.8465C74.6821 66.4522 74.1473 66.2306 73.5897 66.2306ZM4.20512 50.4614C3.08986 50.4614 2.02027 50.9045 1.23165 51.6931C0.443038 52.4817 0 53.5513 0 54.6666C0 55.7818 0.443038 56.8514 1.23165 57.64C2.02027 58.4286 3.08986 58.8717 4.20512 58.8717C5.32039 58.8717 6.38998 58.4286 7.1786 57.64C7.96721 56.8514 8.41025 55.7818 8.41025 54.6666C8.41025 53.5513 7.96721 52.4817 7.1786 51.6931C6.38998 50.9045 5.32039 50.4614 4.20512 50.4614Z" fill="#FFC217"/>
<path d="M14.7178 77.7949C14.1602 77.7949 13.6254 78.0164 13.2311 78.4107C12.8368 78.8051 12.6152 79.3398 12.6152 79.8975C12.6152 80.4551 12.8368 80.9899 13.2311 81.3842C13.6254 81.7785 14.1602 82 14.7178 82C15.2754 82 15.8102 81.7785 16.2045 81.3842C16.5988 80.9899 16.8204 80.4551 16.8204 79.8975C16.8204 79.3398 16.5988 78.8051 16.2045 78.4107C15.8102 78.0164 15.2754 77.7949 14.7178 77.7949Z" fill="#176CF7"/>
<path d="M7.88504 42.0513C7.188 42.0513 6.5195 42.3282 6.02662 42.8211C5.53374 43.3139 5.25684 43.9824 5.25684 44.6795C5.25684 45.3765 5.53374 46.045 6.02662 46.5379C6.5195 47.0308 7.188 47.3077 7.88504 47.3077C8.58208 47.3077 9.25058 47.0308 9.74346 46.5379C10.2363 46.045 10.5132 45.3765 10.5132 44.6795C10.5132 43.9824 10.2363 43.3139 9.74346 42.8211C9.25058 42.3282 8.58208 42.0513 7.88504 42.0513Z" fill="white"/>
<path d="M10.5132 57.8203C10.2344 57.8203 9.96698 57.9311 9.76983 58.1282C9.57267 58.3254 9.46191 58.5928 9.46191 58.8716C9.46191 59.1504 9.57267 59.4178 9.76983 59.615C9.96698 59.8121 10.2344 59.9229 10.5132 59.9229C10.792 59.9229 11.0594 59.8121 11.2566 59.615C11.4537 59.4178 11.5645 59.1504 11.5645 58.8716C11.5645 58.5928 11.4537 58.3254 11.2566 58.1282C11.0594 57.9311 10.792 57.8203 10.5132 57.8203Z" fill="#FFC217"/>
<path d="M72.5376 23.1284C72.2588 23.1284 71.9914 23.2392 71.7942 23.4363C71.5971 23.6335 71.4863 23.9009 71.4863 24.1797C71.4863 24.4585 71.5971 24.7259 71.7942 24.9231C71.9914 25.1202 72.2588 25.231 72.5376 25.231C72.8164 25.231 73.0838 25.1202 73.281 24.9231C73.4781 24.7259 73.5889 24.4585 73.5889 24.1797C73.5889 23.9009 73.4781 23.6335 73.281 23.4363C73.0838 23.2392 72.8164 23.1284 72.5376 23.1284Z" fill="white"/>
<path d="M41.0001 15.8135C34.3202 15.8135 27.9139 18.4671 23.1905 23.1905C18.4671 27.9139 15.8135 34.3202 15.8135 41.0001C15.8135 47.68 18.4671 54.0863 23.1905 58.8097C27.9139 63.5331 34.3202 66.1867 41.0001 66.1867C47.68 66.1867 54.0863 63.5331 58.8097 58.8097C63.5331 54.0863 66.1867 47.68 66.1867 41.0001C66.1867 34.3202 63.5331 27.9139 58.8097 23.1905C54.0863 18.4671 47.68 15.8135 41.0001 15.8135Z" fill="url(#paint0_linear_2983_8260)"/>
<path d="M31.5384 39.292C31.0822 39.292 30.6532 39.4697 30.3305 39.7924C30.0077 40.1151 29.8301 40.5441 29.8301 41.0003C29.8301 41.4566 30.0077 41.8855 30.3305 42.2082L37.6895 49.5672C38.0122 49.8899 38.4411 50.0676 38.8974 50.0676V50.4618L38.93 50.0676C39.3978 50.0582 39.8435 49.8563 40.1568 49.5146L51.7209 36.8993C52.0289 36.5629 52.1877 36.1266 52.1688 35.6703C52.1488 35.2141 51.9522 34.7946 51.6168 34.4855C51.2794 34.1775 50.8515 34.0124 50.3879 34.0377C49.9327 34.0577 49.5122 34.2532 49.2041 34.5896L38.8448 45.8898L32.7474 39.7924C32.4236 39.4697 31.9947 39.292 31.5384 39.292Z" fill="url(#paint1_linear_2983_8260)"/>
<defs>
<linearGradient id="paint0_linear_2983_8260" x1="50.4972" y1="20.6905" x2="18.5029" y2="59.623" gradientUnits="userSpaceOnUse">
<stop stop-color="#4B8FFF"/>
<stop offset="1" stop-color="#1657C1"/>
</linearGradient>
<linearGradient id="paint1_linear_2983_8260" x1="45.5" y1="35" x2="34.5" y2="51" gradientUnits="userSpaceOnUse">
<stop stop-color="#FFDA74"/>
<stop offset="1" stop-color="#FFC217"/>
</linearGradient>
</defs>
</svg>
