<svg width="20" height="20" viewBox="0 0 20 20" fill="none" xmlns="http://www.w3.org/2000/svg">
<path fill-rule="evenodd" clip-rule="evenodd" d="M18.3565 4.64835C18.7959 5.08769 18.7959 5.8 18.3565 6.23934L10.8005 13.7953C10.5895 14.0063 10.3033 14.1249 10.005 14.1248C9.70656 14.1248 9.4204 14.0063 9.20943 13.7952L5.43243 10.0172C4.99315 9.57784 4.99324 8.86553 5.43264 8.42625C5.87204 7.98697 6.58435 7.98706 7.02363 8.42646L10.0051 11.4088L16.7655 4.64835C17.2049 4.20901 17.9172 4.20901 18.3565 4.64835Z" fill="#0FBB81"/>
<path d="M19 10C19 14.971 14.971 19 10 19C5.029 19 1 14.971 1 10C1 5.029 5.029 1 10 1C11.453 1 12.821 1.353 14.036 1.964" stroke="#0FBB81" stroke-linecap="round" stroke-linejoin="round"/>
</svg>
